<svg width="320" height="256" viewBox="0 0 320 256" fill="none" xmlns="http://www.w3.org/2000/svg">
<path d="M187.833 160.683V201.825C187.833 231.746 212.087 256 242.008 256H308.506C314.44 256 319.241 251.2 319.241 245.266V130.558C319.241 124.624 314.44 119.823 308.506 119.823H243.204C233.32 119.823 225.324 111.812 225.324 101.944V10.7342C225.308 4.81623 220.508 0 214.574 0H143.259C140.001 0 136.916 1.4795 134.87 4.02927L2.34516 169.89C0.818445 171.795 0 174.156 0 176.595V245.266C0 251.2 4.80049 256 10.7342 256H82.0491C85.3071 256 88.392 254.521 90.4381 251.971L168.725 153.993C175.053 146.061 187.833 150.547 187.833 160.698V160.683Z" fill="#111111"/>
</svg>
