<svg width="1314" height="366" viewBox="0 0 1314 366" fill="none" xmlns="http://www.w3.org/2000/svg">
<path d="M275.6 291L356.9 75H384.5L306.8 291H275.6ZM442.7 291L365 75H394.1L475.7 291H442.7ZM316.7 204.9H432.5V231.3H316.7V204.9ZM553.674 294C533.674 294 517.774 289.6 505.974 280.8C494.174 272 487.474 259.6 485.874 243.6H514.674C516.074 252.4 520.074 259.2 526.674 264C533.474 268.6 542.674 270.9 554.274 270.9C564.474 270.9 572.274 269.1 577.674 265.5C583.074 261.9 585.774 256.8 585.774 250.2C585.774 245.4 584.174 241.4 580.974 238.2C577.974 234.8 571.974 232 562.974 229.8L538.374 224.1C522.974 220.3 511.474 214.7 503.874 207.3C496.474 199.7 492.774 190.4 492.774 179.4C492.774 165.6 497.874 154.8 508.074 147C518.474 139 532.674 135 550.674 135C568.474 135 582.774 139 593.574 147C604.574 155 610.774 166.2 612.174 180.6H583.374C582.174 173.4 578.674 167.9 572.874 164.1C567.274 160.1 559.574 158.1 549.774 158.1C540.574 158.1 533.474 159.8 528.474 163.2C523.674 166.4 521.274 170.9 521.274 176.7C521.274 181.5 523.074 185.5 526.674 188.7C530.474 191.9 536.674 194.6 545.274 196.8L570.474 203.1C585.074 206.7 596.074 212.6 603.474 220.8C610.874 228.8 614.574 238.5 614.574 249.9C614.574 263.7 609.174 274.5 598.374 282.3C587.774 290.1 572.874 294 553.674 294ZM709.367 294C694.767 294 681.767 290.6 670.367 283.8C658.967 276.8 649.967 267.3 643.367 255.3C636.967 243.3 633.767 229.6 633.767 214.2C633.767 198.8 636.967 185.2 643.367 173.4C649.967 161.4 658.967 152 670.367 145.2C681.767 138.4 694.667 135 709.067 135C721.267 135 732.167 137.3 741.767 141.9C751.367 146.5 759.267 152.9 765.467 161.1C771.667 169.3 775.667 179 777.467 190.2H748.067C746.067 181.2 741.667 174 734.867 168.6C728.267 163.2 719.867 160.5 709.667 160.5C700.867 160.5 693.167 162.7 686.567 167.1C679.967 171.5 674.867 177.7 671.267 185.7C667.667 193.7 665.867 203.2 665.867 214.2C665.867 225 667.667 234.5 671.267 242.7C674.867 250.9 679.967 257.3 686.567 261.9C693.167 266.3 700.967 268.5 709.967 268.5C719.767 268.5 728.067 265.9 734.867 260.7C741.867 255.3 746.367 248.1 748.367 239.1H777.767C775.767 250.1 771.567 259.7 765.167 267.9C758.967 276.1 751.067 282.5 741.467 287.1C731.867 291.7 721.167 294 709.367 294ZM871.072 294C855.672 294 842.072 290.6 830.272 283.8C818.672 277 809.572 267.6 802.972 255.6C796.372 243.6 793.072 229.8 793.072 214.2C793.072 198.4 796.272 184.6 802.672 172.8C809.272 160.8 818.472 151.5 830.272 144.9C842.072 138.3 855.572 135 870.772 135C885.572 135 898.372 138.2 909.172 144.6C920.172 150.8 928.572 159.5 934.372 170.7C940.372 181.9 943.372 195.2 943.372 210.6C943.372 213 943.272 215.3 943.072 217.5C943.072 219.5 942.872 221.6 942.472 223.8H814.072V200.4H920.572L912.772 209.7C912.772 193.3 909.072 180.8 901.672 172.2C894.272 163.6 883.972 159.3 870.772 159.3C856.572 159.3 845.272 164.2 836.872 174C828.672 183.6 824.572 197 824.572 214.2C824.572 231.6 828.672 245.2 836.872 255C845.272 264.8 856.872 269.7 871.672 269.7C880.672 269.7 888.472 267.9 895.072 264.3C901.672 260.5 906.572 255 909.772 247.8H939.172C934.172 262.2 925.672 273.5 913.672 281.7C901.872 289.9 887.672 294 871.072 294ZM972.287 291V138H1001.99V174H1003.49V291H972.287ZM1080.89 291V192.6C1080.89 182 1078.19 174.1 1072.79 168.9C1067.59 163.7 1059.79 161.1 1049.39 161.1C1040.39 161.1 1032.39 163.1 1025.39 167.1C1018.59 171.1 1013.19 176.6 1009.19 183.6C1005.39 190.6 1003.49 198.9 1003.49 208.5L999.587 171.9C1004.59 160.5 1012.29 151.5 1022.69 144.9C1033.09 138.3 1045.19 135 1058.99 135C1075.39 135 1088.29 139.6 1097.69 148.8C1107.09 158 1111.79 170.2 1111.79 185.4V291H1080.89ZM1261.62 291V255.9L1264.62 256.8C1261.42 268.2 1254.82 277.3 1244.82 284.1C1234.82 290.7 1222.82 294 1208.82 294C1195.02 294 1182.92 290.7 1172.52 284.1C1162.32 277.5 1154.32 268.3 1148.52 256.5C1142.92 244.7 1140.12 230.9 1140.12 215.1C1140.12 199.1 1143.02 185.1 1148.82 173.1C1154.62 161.1 1162.72 151.8 1173.12 145.2C1183.52 138.6 1195.72 135.3 1209.72 135.3C1224.32 135.3 1236.32 138.8 1245.72 145.8C1255.32 152.6 1261.62 162.2 1264.62 174.6L1260.42 175.2V75H1291.32V291H1261.62ZM1216.62 267.9C1230.42 267.9 1241.32 263.2 1249.32 253.8C1257.32 244.2 1261.32 231 1261.32 214.2C1261.32 197.8 1257.22 184.9 1249.02 175.5C1241.02 165.9 1230.12 161.1 1216.32 161.1C1202.72 161.1 1191.92 165.9 1183.92 175.5C1176.12 184.9 1172.22 198.1 1172.22 215.1C1172.22 231.7 1176.12 244.7 1183.92 254.1C1191.92 263.3 1202.82 267.9 1216.62 267.9Z" fill="black"/>
<path d="M187.238 76.3862L4.89472 167.757C2.11568 169.147 0.274781 171.896 0.0269678 175.001C-0.214945 178.099 1.18343 181.103 3.70876 182.913L33.1336 203.975L187.238 76.3862ZM96.969 254.113L145.251 289.303C146.785 290.421 148.614 291 150.461 291C151.37 291 152.278 290.864 153.164 290.574C155.848 289.711 157.966 287.618 158.857 284.933L225.779 83.7185L96.969 254.113ZM87.4282 247.16L227 62.5138C226.203 61.8278 225.295 61.3607 224.345 61L42.8278 211.278L59.4608 261.28C60.4992 264.408 63.1898 266.703 66.4408 267.229C69.686 267.761 72.9666 266.437 74.9373 263.793L87.4046 247.136L87.4282 247.16Z" fill="black"/>
</svg>
