<svg version="1.1" id="Layer_1" xmlns:x="ns_extend;" xmlns:i="ns_ai;" xmlns:graph="ns_graphs;" xmlns="http://www.w3.org/2000/svg" xmlns:xlink="http://www.w3.org/1999/xlink" x="0px" y="0px" viewBox="0 0 70.9 50" style="enable-background:new 0 0 70.9 50;" xml:space="preserve">
 <style type="text/css">
  .st0{fill:url(#SVGID_1_);}
	.st1{fill:url(#SVGID_2_);}
 </style>
 <metadata>
  <sfw xmlns="ns_sfw;">
   <slices>
   </slices>
   <sliceSourceBounds bottomLeftOrigin="true" height="50" width="70.8" x="-201.2" y="39.1">
   </sliceSourceBounds>
  </sfw>
 </metadata>
 <g>
  <g>
   <g>
    <linearGradient id="SVGID_1_" gradientUnits="userSpaceOnUse" x1="53.0583" y1="148.9235" x2="16.0893" y2="111.9172" gradientTransform="matrix(1 0 0 -1 0 156.2334)">
     <stop offset="0" style="stop-color:#3459F8">
     </stop>
     <stop offset="0.4" style="stop-color:#3459F8">
     </stop>
     <stop offset="0.459" style="stop-color:#2F53E6">
     </stop>
     <stop offset="0.578" style="stop-color:#2442B5">
     </stop>
     <stop offset="0.7446" style="stop-color:#112869">
     </stop>
     <stop offset="0.85" style="stop-color:#041635">
     </stop>
    </linearGradient>
    <path class="st0" d="M16.3,23.6l7.6,7.6l2.4,2.4c-2.2-2.2-3.5-5.3-3.5-8.7c0-6.9,5.6-12.5,12.5-12.5c3.5,0,6.7,1.5,9,3.8
				c0.7,0.7,2.5,2.5,2.5,2.5l7.6,7.6c1.6,1.6,3.6,2.5,5.6,2.9c3.3,0.6,6.8-0.4,9.4-2.9l1.4-1.4L52.9,7.2c-1.6-1.6-3.4-2.9-5.4-4
				C43.9,1.1,39.8,0,35.4,0C23,0,12.8,9,10.7,20.7C12.8,21.1,14.8,22.1,16.3,23.6z">
    </path>
    <linearGradient id="SVGID_2_" gradientUnits="userSpaceOnUse" x1="17.6994" y1="113.5461" x2="54.6686" y2="150.5526" gradientTransform="matrix(1 0 0 -1 0 156.2334)">
     <stop offset="0" style="stop-color:#3478F8">
     </stop>
     <stop offset="0.4" style="stop-color:#3478F8">
     </stop>
     <stop offset="0.459" style="stop-color:#2F6FE6">
     </stop>
     <stop offset="0.578" style="stop-color:#2457B5">
     </stop>
     <stop offset="0.7446" style="stop-color:#113069">
     </stop>
     <stop offset="0.85" style="stop-color:#041635">
     </stop>
    </linearGradient>
    <path class="st1" d="M54.4,26.4l-7.6-7.6l-2.4-2.4c2.2,2.2,3.5,5.3,3.5,8.7c0,6.9-5.6,12.5-12.5,12.5c-3.5,0-6.7-1.5-9-3.8
				c-0.7-0.7-2.5-2.5-2.5-2.5l-7.6-7.6c-1.6-1.6-3.6-2.5-5.6-2.9c-3.3-0.6-6.8,0.4-9.4,2.9L0,25l17.8,17.8c1.6,1.6,3.4,2.9,5.4,4
				c3.6,2,7.7,3.1,12.1,3.1C47.7,50,58,41,60,29.3C58,28.9,56,27.9,54.4,26.4z">
    </path>
   </g>
  </g>
 </g>
</svg>