<svg width="500" height="500" viewBox="0 0 500 500" fill="none" xmlns="http://www.w3.org/2000/svg">
<path d="M250 500C388.071 500 500 388.071 500 250C500 111.929 388.071 0 250 0C111.929 0 0 111.929 0 250C0 388.071 111.929 500 250 500Z" fill="#FF5A0A"/>
<path d="M242.398 180.402V107L315.448 162.489C340.746 181.958 345.544 210.296 344.952 209.587C328.482 189.5 306.486 180.686 291.344 180.45L242.398 180.402Z" fill="#FFBD9D"/>
<path d="M290.435 325.112C290.435 333.74 282.827 340.822 274.227 340.822H227.78V248.627H274.227C282.881 248.627 290.435 255.627 290.435 264.337V325.112ZM228.142 198.392V107H174V392H287.302C319.177 392 345 365.327 345 332.403V257.989C345 225.065 319.177 198.392 287.302 198.392H228.142Z" fill="white"/>
</svg>
