<svg width="260" height="260" viewBox="0 0 260 260" fill="none" xmlns="http://www.w3.org/2000/svg">
<circle cx="130" cy="130" r="130" fill="#15357A"/>
<g clip-path="url(#clip0_3998_32)">
<path d="M105.78 192.56C97.5946 192.56 90.3102 190.578 83.8752 186.588C77.4402 182.624 72.3694 177.193 68.6371 170.295C64.879 163.396 63 155.571 63 146.82C63 138.068 64.879 130.295 68.6113 123.499C72.3436 116.601 77.4402 111.247 83.8494 107.386C90.2844 103.422 97.5689 101.44 105.754 101.44C112.292 101.44 118.032 102.676 122.923 105.121C127.839 107.566 131.803 111.015 134.84 115.468V70.964L157.286 67V190.449H137.311L134.866 178.017C132.06 181.878 128.328 185.25 123.643 188.184C119.088 191.093 113.142 192.56 105.78 192.56ZM110.49 172.92C117.723 172.92 123.643 170.526 128.199 165.739C132.884 160.822 135.201 154.568 135.201 146.974C135.201 139.381 132.858 133.178 128.199 128.39C123.643 123.474 117.749 121.028 110.49 121.028C103.232 121.028 97.4659 123.422 92.7812 128.21C88.0965 132.997 85.7799 139.201 85.7799 146.794C85.7799 154.387 88.1223 160.642 92.7812 165.559C97.4659 170.475 103.386 172.92 110.49 172.92Z" fill="white"/>
<path d="M192.538 186.913C198.489 180.962 198.489 171.314 192.538 165.363C186.587 159.412 176.939 159.412 170.988 165.363C165.037 171.314 165.037 180.962 170.988 186.913C176.939 192.864 186.587 192.864 192.538 186.913Z" fill="white"/>
</g>
<defs>
<clipPath id="clip0_3998_32">
<rect width="134" height="125.56" fill="white" transform="translate(63 67)"/>
</clipPath>
</defs>
</svg>
