<svg width="500" height="500" viewBox="0 0 500 500" fill="none" xmlns="http://www.w3.org/2000/svg">
<g clip-path="url(#clip0_1404_2412)">
<path d="M250 500C388.071 500 500 388.071 500 250C500 111.929 388.071 0 250 0C111.929 0 0 111.929 0 250C0 388.071 111.929 500 250 500Z" fill="white"/>
<path d="M359.689 301.088V89.8239H302.397V103.968C283.092 91.5593 260.622 84.9743 237.673 85.0001C171.139 85.0001 117 139.389 117 206.251C117 273.113 171.139 327.502 237.689 327.502C260.362 327.536 282.577 321.12 301.741 309.003C301.741 310.861 301.648 312.531 301.648 313.655C301.648 348.796 273.142 377.442 238.157 377.442C226.262 377.415 214.616 374.027 204.562 367.67L176.228 417.516C194.912 428.912 216.366 434.96 238.251 435C304.801 435 359.689 380.595 359.689 313.733C359.689 311.142 359.861 303.508 359.689 301.088ZM237.689 270.022C202.72 270.022 174.199 241.392 174.199 206.251C174.199 171.095 202.705 142.464 237.689 142.464C272.673 142.464 301.179 171.095 301.179 206.251C301.179 241.392 272.673 270.038 237.689 270.038V270.022Z" fill="#F45D48"/>
</g>
<defs>
<clipPath id="clip0_1404_2412">
<rect width="500" height="500" fill="white"/>
</clipPath>
</defs>
</svg>
