<svg width="590" height="147" viewBox="0 0 590 147" fill="none" xmlns="http://www.w3.org/2000/svg">
<path d="M45.75 35C55.85 35 63.95 37.95 70.05 43.85C76.15 49.75 79.2 58.5 79.2 70.1V116H60.45V72.5C60.45 65.5 58.8 60.25 55.5 56.75C52.2 53.15 47.5 51.35 41.4 51.35C34.5 51.35 29.05 53.45 25.05 57.65C21.05 61.75 19.05 67.7 19.05 75.5V116H0.3V4.69999H19.05V45.2C22.15 41.9 25.95 39.4 30.45 37.7C35.05 35.9 40.15 35 45.75 35ZM134.318 101.15C143.018 101.15 150.268 98.25 156.068 92.45L165.968 104C162.468 108.3 157.968 111.55 152.468 113.75C146.968 115.95 140.768 117.05 133.868 117.05C125.068 117.05 117.318 115.3 110.618 111.8C103.918 108.3 98.718 103.45 95.018 97.25C91.418 90.95 89.618 83.85 89.618 75.95C89.618 68.15 91.368 61.15 94.868 54.95C98.468 48.65 103.368 43.75 109.568 40.25C115.868 36.75 122.968 35 130.868 35C138.368 35 145.168 36.65 151.268 39.95C157.468 43.15 162.368 47.8 165.968 53.9C169.568 59.9 171.368 66.95 171.368 75.05L110.018 87.05C111.918 91.65 114.968 95.15 119.168 97.55C123.368 99.95 128.418 101.15 134.318 101.15ZM130.868 50C123.968 50 118.368 52.25 114.068 56.75C109.868 61.25 107.768 67.3 107.768 74.9V75.05L153.068 66.35C151.768 61.45 149.118 57.5 145.118 54.5C141.218 51.5 136.468 50 130.868 50ZM199.732 47.6C205.132 39.2 214.632 35 228.232 35V52.85C226.632 52.55 225.182 52.4 223.882 52.4C216.582 52.4 210.882 54.55 206.782 58.85C202.682 63.05 200.632 69.15 200.632 77.15V116H181.882V35.9H199.732V47.6ZM236.638 35.9H255.388V116H236.638V35.9ZM246.088 22.7C242.688 22.7 239.838 21.65 237.538 19.55C235.238 17.35 234.088 14.65 234.088 11.45C234.088 8.25 235.238 5.59999 237.538 3.49999C239.838 1.3 242.688 0.199998 246.088 0.199998C249.488 0.199998 252.338 1.25 254.638 3.34999C256.938 5.35 258.088 7.9 258.088 11C258.088 14.3 256.938 17.1 254.638 19.4C252.438 21.6 249.588 22.7 246.088 22.7ZM317.497 111.65C315.297 113.45 312.597 114.8 309.397 115.7C306.297 116.6 302.997 117.05 299.497 117.05C290.697 117.05 283.897 114.75 279.097 110.15C274.297 105.55 271.897 98.85 271.897 90.05V18.2H290.647V36.5H312.097V51.5H290.647V89.6C290.647 93.5 291.597 96.5 293.497 98.6C295.497 100.6 298.247 101.6 301.747 101.6C305.947 101.6 309.447 100.5 312.247 98.3L317.497 111.65ZM401.159 35.9V116H383.309V105.65C380.209 109.45 376.359 112.3 371.759 114.2C367.259 116.1 362.259 117.05 356.759 117.05C348.959 117.05 341.959 115.35 335.759 111.95C329.659 108.55 324.859 103.75 321.359 97.55C317.959 91.35 316.259 84.15 316.259 75.95C316.259 67.75 317.959 60.6 321.359 54.5C324.859 48.3 329.659 43.5 335.759 40.1C341.959 36.7 348.959 35 356.759 35C361.959 35 366.709 35.9 371.009 37.7C375.409 39.5 379.209 42.15 382.409 45.65V35.9H401.159ZM358.859 101C365.759 101 371.459 98.7 375.959 94.1C380.459 89.5 382.709 83.45 382.709 75.95C382.709 68.45 380.459 62.4 375.959 57.8C371.459 53.2 365.759 50.9 358.859 50.9C351.959 50.9 346.259 53.2 341.759 57.8C337.359 62.4 335.159 68.45 335.159 75.95C335.159 83.45 337.359 89.5 341.759 94.1C346.259 98.7 351.959 101 358.859 101ZM497.691 35.9V103.85C497.691 132.05 483.291 146.15 454.491 146.15C446.791 146.15 439.491 145.15 432.591 143.15C425.691 141.25 419.991 138.45 415.491 134.75L423.891 120.65C427.391 123.55 431.791 125.85 437.091 127.55C442.491 129.35 447.941 130.25 453.441 130.25C462.241 130.25 468.691 128.25 472.791 124.25C476.891 120.25 478.941 114.15 478.941 105.95V101.75C475.741 105.25 471.841 107.9 467.241 109.7C462.641 111.5 457.591 112.4 452.091 112.4C444.491 112.4 437.591 110.8 431.391 107.6C425.291 104.3 420.441 99.7 416.841 93.8C413.341 87.9 411.591 81.15 411.591 73.55C411.591 65.95 413.341 59.25 416.841 53.45C420.441 47.55 425.291 43 431.391 39.8C437.591 36.6 444.491 35 452.091 35C457.891 35 463.141 35.95 467.841 37.85C472.641 39.75 476.641 42.65 479.841 46.55V35.9H497.691ZM454.941 96.5C462.041 96.5 467.841 94.4 472.341 90.2C476.941 85.9 479.241 80.35 479.241 73.55C479.241 66.85 476.941 61.4 472.341 57.2C467.841 53 462.041 50.9 454.941 50.9C447.741 50.9 441.841 53 437.241 57.2C432.741 61.4 430.491 66.85 430.491 73.55C430.491 80.35 432.741 85.9 437.241 90.2C441.841 94.4 447.741 96.5 454.941 96.5ZM552.941 101.15C561.641 101.15 568.891 98.25 574.691 92.45L584.591 104C581.091 108.3 576.591 111.55 571.091 113.75C565.591 115.95 559.391 117.05 552.491 117.05C543.691 117.05 535.941 115.3 529.241 111.8C522.541 108.3 517.341 103.45 513.641 97.25C510.041 90.95 508.241 83.85 508.241 75.95C508.241 68.15 509.991 61.15 513.491 54.95C517.091 48.65 521.991 43.75 528.191 40.25C534.491 36.75 541.591 35 549.491 35C556.991 35 563.791 36.65 569.891 39.95C576.091 43.15 580.991 47.8 584.591 53.9C588.191 59.9 589.991 66.95 589.991 75.05L528.641 87.05C530.541 91.65 533.591 95.15 537.791 97.55C541.991 99.95 547.041 101.15 552.941 101.15ZM549.491 50C542.591 50 536.991 52.25 532.691 56.75C528.491 61.25 526.391 67.3 526.391 74.9V75.05L571.691 66.35C570.391 61.45 567.741 57.5 563.741 54.5C559.841 51.5 555.091 50 549.491 50Z" fill="#161616"/>
</svg>
