<?xml version="1.0"?><svg xmlns="http://www.w3.org/2000/svg"  viewBox="0 0 30 30" width="60px" height="60px">    <path d="M10.646,8.326l0.366-0.069l1.257-1.348l0.069,0.114l0.137,0.229l0.137,0.16l0.411,0.16l0.549,0.252l0.731,0.343 l0.206,0.023l0.914-0.137l0.114-0.046l0.571-0.48l0.549-0.48l0.571-0.457l0.548-0.48l0.571-0.48l0.549-0.48l0.571-0.48l0.549-0.48 l0.526-0.206L21.069,3.8l0.549-0.206l0.526-0.206l0.526-0.206L23.148,3l0.092,0.617l0.092,0.594l0.114,0.617l0.091,0.594 l0.092,0.617l0.114,0.594l0.092,0.617l0.091,0.594L24.04,8.44l0.092,0.617l0.092,0.594l0.114,0.617l0.091,0.594l0.092,0.617 l0.114,0.594l0.091,0.617l-0.069,0.023l-0.16,0.183l-0.091-0.046l-0.114,0.023L24.2,12.943l-0.069,0.069l-0.046,0.114l0.069,0.091 l0.16,0.183l0.137,0.183l0.046,0.091l0.046,0.069v0.137l-0.069,0.251l0.023,0.137h0.046h0.023l0.023,0.023l0.023,0.023v0.069v0.023 l0.046,0.114l0.023,0.092l-0.023,0.023v0.206l-0.023,0.023l-0.114,0.114l-0.023,0.069l-0.046,0.229l-0.023,0.137v0.229l-0.023,0.091 l-0.069,0.229l-0.023,0.137v0.114l0.046,0.251V16.6l-0.023,0.069l-0.023,0.091l-0.023,0.092l0.023,0.046l0.023,0.046l0.023,0.046 l-0.023,0.069l-0.069,0.023l-0.046-0.023h-0.069v0.092l0.023,0.046l0.046,0.069l0.023,0.046v0.069l-0.069,0.114l-0.023,0.046 l-0.023,0.069v0.069v0.114l-0.023,0.069l-0.069,0.069l-0.046,0.069l0.046,0.046l0.092,0.069l0.046,0.069l0.023,0.069v0.114 l-0.069,0.069v0.046v0.023v0.046v0.046l-0.023,0.16v0.069l-0.274,0.229L23.4,19.503l-0.114,0.183l-0.069,0.206l-0.046,0.114 l-0.183,0.092l-0.069,0.069l-0.092,0.16l-0.069,0.069l-0.069,0.046l-0.114,0.046l-0.092,0.023l-0.069,0.046l-0.137,0.183 l-0.114,0.023l-0.092-0.046L22.006,20.6l-0.069-0.091l-0.046-0.046l-0.183,0.046l-0.069,0.046l-0.274,0.366l-0.023,0.114v0.229 l-0.046,0.069l-0.046-0.023h-0.023l-0.023,0.023l-0.023,0.023l-0.046-0.023l-0.092,0.046L20.931,21.4l-0.091,0.023l-0.023,0.206 l-0.183,0.297l-0.023,0.091v0.069l0.046,0.229l0.023,0.114l-0.046,0.069l-0.206,0.137h-0.023v0.023l0.046,0.069l0.023,0.023 l0.023,0.046l0.046,0.023h0.023l0.069,0.046l0.023,0.092v0.229l0.046,0.091l0.069,0.069v0.069l-0.091,0.046l-0.046-0.023 l-0.092-0.069h-0.046l-0.046,0.023l-0.023,0.069v0.16l-0.046,0.092L20.292,23.8l-0.069,0.069l-0.092-0.023l-0.046-0.069v-0.023 l0.023-0.046V23.64v-0.023h0.023l0.023-0.023v-0.046v-0.023l-0.023-0.046l-0.023-0.023l-0.023-0.091l-0.069-0.092l-0.069-0.046 l-0.137-0.046l-0.091-0.046l-0.092-0.046h-0.091L19.4,23.229l-0.114,0.229l-0.091,0.229l-0.046,0.206v0.229l-0.023,0.069 l-0.046,0.114l-0.023,0.137l-0.091,0.069l-0.046,0.069v0.137l0.046,0.114l0.046,0.069l0.046,0.092l0.046,0.137l-0.023,0.092v0.046 l0.069,0.114l0.023,0.069l0.023,0.069v0.069l-0.046,0.092l-0.114,0.046h-0.206l-0.069,0.046l-0.023,0.137l-0.023,0.526l-0.023,0.114 l-0.046,0.114l-0.069,0.023l-0.343,0.091l-0.366,0.183L17.686,27l-0.183-0.046l-0.069-0.069l-0.092-0.16l-0.069-0.091l-0.366-0.274 l-0.183-0.092l-0.229-0.046l-0.206-0.092l-0.16-0.206l-0.16-0.366l-0.023-0.114l-0.023-0.114l-0.023-0.069l-0.069-0.046 l-0.114,0.046l-0.251,0.183l-0.114,0.023l-0.092,0.046l-0.046,0.069l-0.069,0.092l-0.046,0.069l-0.114,0.069l-0.046,0.046v0.046 l-0.046,0.114l-0.023,0.069l-0.069,0.069l-0.092,0.023l-0.229-0.023l-0.091,0.023l-0.069,0.046l-0.046,0.069l-0.16,0.046h-0.023 l-0.069-0.069l-0.137-0.16l-0.046-0.023L13.8,26.04l-0.137-0.046h-0.069l-0.16,0.023l-0.046-0.023l-0.092-0.046l-0.091-0.069 l-0.092-0.023H13l-0.297,0.16l-0.046,0.046v0.114l-0.046,0.091l-0.069,0.092l-0.091,0.023h-0.206l-0.183-0.114l-0.343-0.274 l-0.092-0.069l-0.069-0.114l-0.092-0.069l-0.183-0.023l-0.206-0.069h-0.114l-0.389,0.137h-0.092L9.96,25.652l-0.114-0.069 L9.8,25.492l-0.023-0.137L9.731,25.24l-0.046-0.091L9.64,25.057l-0.046-0.069l-0.069-0.046l-0.069-0.046l-0.023-0.091l-0.023-0.092 L9.366,24.6l-0.069-0.091l-0.069-0.046l-0.206-0.092l-0.114-0.023H8.817l-0.046-0.046l-0.069-0.114l-0.069-0.092L8.52,24.052 L8.337,24.12l-0.366,0.229H7.789l-0.274-0.206l-0.069-0.046H7.423l-0.069-0.091H7.309H7.263l-0.046,0.046l-0.046,0.091L6.92,24.326 l-0.046-0.48l-0.046-0.457l-0.046-0.48l-0.069-0.48l-0.046-0.457l-0.046-0.48l-0.046-0.48l-0.069-0.457l-0.046-0.48l-0.046-0.48 l-0.069-0.457l-0.046-0.48l-0.046-0.48L6.211,17.72l-0.069-0.48l-0.046-0.48l-0.046-0.457l-0.046-0.48l-0.069-0.48l-0.046-0.457 l-0.046-0.48l-0.069-0.48l-0.046-0.457l-0.046-0.48l-0.046-0.48l-0.069-0.457l-0.046-0.48l-0.046-0.48l-0.046-0.457l-0.069-0.48 L5.32,9.674L5.274,9.217l0.343-0.069l0.366-0.046l0.366-0.069l0.366-0.046L7.057,8.92l0.366-0.046l0.366-0.069l0.343-0.069 l0.366-0.046l0.366-0.069l0.343-0.046l0.366-0.069L9.937,8.44l0.343-0.046L10.646,8.326L10.646,8.326z"/></svg>