<?xml version="1.0"?><svg xmlns="http://www.w3.org/2000/svg"  viewBox="0 0 30 30" width="60px" height="60px">    <path d="M26.928,15.136v0.344l-0.412,0.207l-0.07-0.137l0.207-0.069v-0.137l-0.137-0.069l-0.206-0.069h-0.207 l-0.825,0.275l-0.069,0.069l-0.756,0.618l-0.688-0.412l-0.138,0.137v0.413l-0.068,0.206l-0.343,0.069l-0.413-0.069l-0.344,0.069 v0.481l-0.344-0.137l-0.688,0.688l-0.481-0.069l-0.069-0.068l-0.206-0.07l-0.137-0.068l-0.068-0.069V17.13l0.068-0.138l-0.068-0.137 l-0.07-0.206l-0.206-0.137l-0.206-0.069l-0.275,0.069l0.275,0.206l0.206,0.207l0.206,0.206v0.481l0.138,0.068h0.069l-0.207,0.276 l-0.274,0.068l-0.619-0.068l-0.206,0.068l-0.275,0.206l-0.206,0.275l-0.069,0.275l-0.137-0.069v-0.069H18.54l-0.069-0.069h-0.069 l-0.137,0.137l-0.619-0.069l-0.275-0.069l-0.687,0.343l-0.07,0.206l-0.069,0.137l-0.137,0.069L16.27,19.4l-0.137-0.069l-0.137-0.069 h-0.138h-0.206l-0.482,0.138l-0.137,0.069l-0.137,0.206h-0.069H14.62l-0.688,0.206l-0.206-0.069l-0.138-0.137l-0.138-0.413 l-0.069-0.069l-0.138,0.138v0.206l-0.068,0.069l-0.344,0.619l-0.206,0.55l-0.069,0.138l-0.138,0.137l-0.412,0.069l-0.069,0.138 l-0.137,0.137l-0.206,0.206l-0.138,0.137l-0.069,0.206v0.138l-0.069,0.068l-0.137,0.069l-0.207,0.138l-0.137-0.069l-0.069-0.069 l-0.206-0.069h-0.068l-0.344,0.481h-0.069h-0.068v-0.069H9.944v0.069v0.138l-0.068,0.069l-0.069,0.069l-0.069,0.207l-0.069,0.137 H9.532L9.325,23.18H9.256l-0.137,0.069L9.05,23.456l-0.138,0.069l-0.137,0.069L8.5,23.73l-0.138,0.206l-0.069,0.206l-0.069,0.069 l-0.481,0.481l-0.207,0.137l-0.412,0.412l-0.068,0.069L6.78,25.243l-0.138,0.481l-0.137-0.069l-0.137,0.275l-0.207,0.206 l-0.275,0.069l-0.274-0.137l-0.068,0.069v0.069l-0.138,0.069l-0.275,0.275l-0.068-0.138l-0.138-0.137l-0.069-0.069H4.787 l-0.068-0.069l-0.412-0.413l-0.413-0.413l-0.137-0.137l0.137-0.137l0.481-0.482l0.619-0.619l0.687-0.688l0.55-0.55l0.138-0.206 l-0.275-0.206l-0.206-0.275l-0.275-0.275l-0.344-0.344L5.2,21.051l-0.138-0.825l-0.138-0.825l-0.138-0.756L4.65,17.82l-0.138-0.826 l-0.138-0.756l-0.137-0.825L4.1,14.587l-0.137-0.756l-0.137-0.825l-0.138-0.825L3.55,11.425l-0.138-0.826L3.275,9.774L3.138,9.019 L3,8.193L4.513,7.85l1.582-0.275L7.676,7.23l1.513-0.275l0.893-0.207l0.826-0.206l0.688-0.069l0.137,0.413l0.55-0.138l-0.069-0.412 l1.788-0.412h0.276h0.206l0.068-0.069l0.206-0.138l0.688-0.137l1.856-0.481l1.856-0.413l1.925-0.481l1.856-0.413l1.444-0.344 l0.069,0.138l0.275,1.032l0.207,0.963l0.275,0.962l0.275,0.963l0.274,1.032l0.276,0.962l0.206,0.963l0.276,0.963l0.137,0.55 l0.137,0.688l0.207,1.1l-0.138,0.069l-0.068,0.137v0.275l0.136,0.894h-0.002L26.928,15.136z M24.934,17.062h-0.206l-0.137-0.069 l0.069-0.206l0.137-0.206l1.032-0.344l-0.069,0.069l-0.069,0.069l-0.206,0.137l-0.206,0.413l-0.206,0.069L24.934,17.062 L24.934,17.062L24.934,17.062z"/></svg>