<?xml version="1.0"?><svg xmlns="http://www.w3.org/2000/svg"  viewBox="0 0 30 30" width="60px" height="60px">    <path d="M22.755,10.962l0.121-0.035l0.104-0.069l0.363-0.035l0.363-0.052l0.363-0.052l0.363-0.052l0.363-0.035 l0.363-0.052l0.363-0.052l0.38-0.052l0.363-0.052l0.363-0.035l0.363-0.052l0.363-0.052l0.363-0.052l0.363-0.052l0.363-0.052 l0.363-0.052l0.173-0.017l0.035-0.017l0.052-0.086l0.035-0.017h0.035l0.242-0.035l0.294-0.017L30,9.839l-0.121,0.311l-0.017,0.086 v0.017l0.069,0.104l0.017,0.034l-0.034,0.173l-0.069,0.208v0.035v0.035v0.017l0.052,0.069l0.069,0.052v0.017l0.017,0.035h-0.017 v0.017h-0.121l-0.19-0.035h-0.017l-0.017,0.017l-0.242,0.225l-0.086,0.086l-0.017,0.017l-0.242,0.726l-0.035,0.052l-0.034,0.035 l-0.017,0.017l-0.052,0.069l-0.035,0.017l-0.035,0.017h-0.017h-0.035H28.72h-0.017l-0.035-0.017l-0.017-0.017v-0.017l-0.017-0.017 v-0.017l-0.017-0.017v-0.017l-0.017-0.017l-0.017-0.017h-0.017l-0.017-0.017H28.53h-0.052h-0.017h-0.017l-0.052-0.017h-0.017H28.34 l-0.035,0.017l-0.086,0.104l-0.017,0.017h-0.086l-0.017,0.017l-0.086,0.052l-0.121,0.052l-0.035,0.017l-0.052,0.035l-0.052,0.052 l-0.104,0.156l-0.035,0.052l-0.035,0.121v0.017l-0.052,0.104l-0.035,0.035l-0.017,0.017l-0.017,0.017l-0.156,0.138l-0.035,0.017 h-0.017h-0.017h-0.035h-0.017l-0.017-0.017l-0.017-0.017l-0.017-0.017l-0.017-0.017l-0.017-0.052l-0.017-0.017v-0.035v-0.035 l0.017-0.052v-0.017v-0.017l-0.069-0.086l-0.017-0.017h-0.035l-0.035,0.017l-0.156,0.104l-0.069,0.052l-0.225,0.173h-0.017v0.017 v0.017l0.017,0.052l-0.017,0.035v0.017l-0.035,0.052l-0.017,0.035v0.035l-0.017,0.035L26.386,13.4h-0.017h-0.035L26.3,13.366 l-0.052-0.017l-0.052-0.017h-0.035h-0.034l-0.052,0.017l-0.017,0.017l-0.017,0.017L26.023,13.4v0.035l-0.017,0.017v0.017v0.035 l0.017,0.017v0.017l0.052,0.069v0.017v0.035l-0.034,0.052l-0.017,0.035v0.035v0.035l-0.017,0.035l-0.069,0.138l-0.069,0.121 l-0.035,0.034h-0.017h-0.052h-0.156h-0.035h-0.017l-0.017,0.017l-0.173,0.121l-0.121,0.052l-0.035,0.017l-0.017,0.017l-0.069,0.086 l-0.034,0.034l-0.086,0.052l-0.017,0.017l-0.035,0.017v0.017l-0.069,0.086l-0.052,0.104l-0.035,0.017h-0.017h-0.034h-0.017 l-0.052,0.017l-0.017,0.017l-0.052,0.052l-0.035,0.052l-0.035,0.052l-0.19,0.104l-0.017,0.017l-0.035,0.034l-0.017,0.052 l-0.069,0.086l-0.034,0.017l-0.017,0.017l-0.225,0.069h-0.017h-0.035h-0.017l-0.017-0.017l-0.017-0.017h-0.035h-0.035l-0.069,0.035 h-0.034l-0.035,0.017h-0.017l-0.017-0.017l-0.035,0.017h-0.017l-0.035,0.017h-0.017v0.017h-0.138h-0.017l-0.069,0.035l-0.069,0.035 l-0.069,0.052l-0.052,0.052l-0.035,0.035l-0.035,0.017L22.893,15.7l-0.052,0.035l-0.035,0.017l-0.017,0.017l-0.052,0.121v0.035 l-0.035,0.034l-0.017,0.017l-0.138,0.069l-0.035,0.017l-0.017,0.035l-0.069,0.086l-0.017,0.034v0.017v0.017l0.017,0.069v0.017v0.017 v0.034v0.017l-0.052,0.104l-0.017,0.017v0.052v0.017v0.138v0.052l-0.035,0.034l-0.052,0.086l-0.035,0.035l-0.017,0.017h-0.017 l-0.086,0.017l-0.19,0.035l-0.052,0.017l-0.035-0.017h-0.017l-0.017-0.017l-0.035-0.017h-0.017h-0.035l-0.052,0.017l-0.017,0.017 l-0.034,0.035l-0.052,0.069l-0.034,0.052l-0.017,0.035v0.035v0.035v0.138v0.173l0.017,0.242v0.207l0.017,0.208l-0.329,0.035 l-0.328,0.017l-0.259,0.017h-0.017h-0.138l-0.45,0.069l-0.45,0.052l-0.45,0.052l-0.45,0.052l-0.45,0.052l-0.45,0.052l-0.45,0.052 l-0.45,0.034l-0.571,0.069l-0.571,0.052l-0.553,0.052l-0.571,0.052l-0.571,0.052l-0.571,0.052l-0.553,0.035l-0.571,0.052 l-0.571,0.052l-0.571,0.052l-0.553,0.035l-0.571,0.052L9.51,19.366L8.94,19.418l-0.571,0.035l-0.553,0.052H7.677H7.643l0.052,0.121 H7.66l-0.138,0.017l-0.467,0.034l-0.467,0.035l-0.467,0.035l-0.467,0.035l-0.467,0.035L4.72,19.85l-0.467,0.035l-0.467,0.035 L3.32,19.954l-0.467,0.017l-0.467,0.035L1.919,20.04l-0.467,0.035l-0.467,0.017l-0.484,0.035l-0.467,0.035L0,20.11l0.052-0.035 l0.069-0.035l0.069-0.035l0.138-0.086l0.052-0.052l0.034-0.069l0.017-0.086v-0.086l0.035-0.069l0.086-0.017l0.086,0.035h0.086 l0.069-0.121l-0.017-0.173l-0.052-0.19l-0.069-0.208l-0.035-0.086l-0.017-0.208l0.017-0.104l0.035-0.069l0.19-0.173l0.052-0.069 l0.034-0.086l0.017-0.069l-0.017-0.104l0.017-0.086l0.035-0.035l0.086-0.035l0.086-0.017l0.086-0.035l0.034-0.052L1.228,17.55 l-0.069-0.086l-0.017-0.052l0.017-0.035l0.069-0.052l0.052-0.086v-0.052l-0.104-0.121l-0.069-0.104v-0.069l0.052-0.069l0.519-0.277 l0.225-0.208L1.85,16.271l-0.086-0.069L1.66,16.167l0.035-0.086l0.052-0.052l0.052-0.052h0.086l0.104,0.069l0.052,0.017l0.035-0.086 l-0.069-0.138l-0.104-0.086l-0.069-0.104v-0.035l0.035-0.156l0.086-0.19l0.017-0.069l0.017-0.052l0.052-0.052l0.069-0.034 l0.052-0.017l0.034-0.086l-0.104-0.173l-0.225-0.277l0.069-0.017l0.328-0.035L2.3,14.438l0.035-0.034l0.017-0.035l-0.035-0.035 L2.23,14.317l-0.086-0.069l-0.052-0.086l-0.017-0.086l0.069-0.035H2.23l0.086-0.017l0.069-0.052l0.035-0.104l-0.035-0.086 L2.3,13.591v-0.069l0.017-0.069l-0.034-0.069v-0.017l0.225-0.017L2.49,13.383L2.473,13.47v0.069l0.104,0.017l0.035-0.017L2.68,13.47 l0.069-0.104v-0.035l0.622-0.035l0.605-0.052l0.605-0.035l0.605-0.052l0.622-0.035l0.605-0.052L7.02,13.02l0.605-0.052v-0.104 v-0.156L7.608,12.64l-0.069-0.225L7.47,12.207l-0.017-0.035v-0.035H7.47h0.19h0.329h0.19l0.035,0.017l0.017,0.017l0.035,0.052 l0.017,0.035L8.3,12.277l0.017-0.017l0.138-0.017h0.052l0.138-0.017l0.207-0.017l0.259-0.017l0.329-0.034l0.346-0.035l0.38-0.052 l0.398-0.035L10.962,12l0.38-0.052l0.346-0.035L12,11.879l0.277-0.035l0.207-0.017l0.138-0.017h0.034l0.156-0.017l0.121-0.035 l0.035-0.017h0.156l0.104-0.017l0.311-0.017l0.467-0.035l0.605-0.035l0.709-0.052l0.795-0.052l0.865-0.069l0.882-0.069l0.882-0.069 l0.847-0.069l0.813-0.069l0.709-0.069l0.605-0.052l0.467-0.034l0.294-0.035l0.121-0.017L22.755,10.962L22.755,10.962z"/></svg>