<?xml version="1.0"?><svg xmlns="http://www.w3.org/2000/svg"  viewBox="0 0 30 30" width="60px" height="60px">    <path d="M10.377,27.733l0.185,0.062v0.041L10.5,27.877H10.48L9.495,28l0.062-0.041l0.41-0.103l0.246-0.021l0.062-0.021 l0.041-0.021l0.021-0.041L10.377,27.733l2.914-1.601l-0.021-0.082l0.021-0.021v-0.041l0.062-0.144l0.041-0.144v-0.185v-0.082v-0.041 l-0.021-0.021l-0.041-0.041l-0.39-0.185l-0.062-0.041l-0.082-0.082l-0.103-0.164l-0.021-0.041l-0.246-0.185l-0.062-0.062 l-0.041-0.082l-0.021-0.041l-0.021-0.041v-0.021l0.021-0.041v-0.041l0.082-0.226V24.06l-0.021-0.246l0.021-0.062l0.205-0.021 l0.698-0.062l0.718-0.082l0.718-0.062l0.718-0.062l0.698-0.082l0.718-0.062l0.718-0.062l0.698-0.082l0.718-0.082l0.718-0.062 l0.698-0.082l0.718-0.082l0.718-0.062l0.698-0.082l0.718-0.082l0.718-0.082v-0.021l0.021-0.041l0.021-0.041l-0.021-0.062 l-0.041-0.041l-0.082-0.246l-0.144-0.205l-0.144-0.164l-0.082-0.021l-0.062-0.062l-0.021-0.082v-0.185l-0.021-0.062l-0.041-0.103 l-0.021-0.041v-0.041l0.062-0.103l0.021-0.041l-0.021-0.41v-0.185l0.082-0.143l-0.062-0.144l0.021-0.103l0.021-0.103l0.021-0.123 L23.47,19.71l-0.041-0.103l-0.021-0.021l-0.02-0.144l-0.021-0.082l-0.041-0.082l-0.184-0.184l-0.041-0.082l-0.185-0.575 l-0.041-0.103l0.021-0.123v-0.021V18.15v-0.062l0.021-0.184l0.062-0.205l0.103-0.226l0.021-0.021l0.021-0.082V17.35v-0.123 l-0.041-0.123V16.98l0.041-0.082v-0.082l-0.021-0.123v-0.041l0.062-0.184l0.021-0.041l0.021-0.021l0.062-0.021l0.082-0.041 l0.062-0.041l0.041-0.041l-0.062-0.041V16.18l0.062-0.021l0.082,0.021l0.041-0.041l0.041-0.041v-0.041l-0.041-0.062l0.041-0.021 l0.041-0.021l0.021-0.021l0.021-0.041l-0.021-0.041h-0.021l-0.021-0.021l-0.041-0.041l-0.041-0.041l-0.226-0.082l-0.103-0.082 l-0.021-0.103l0.082-0.103l-0.021-0.062v-0.062l0.021-0.062v-0.062v-0.062l-0.041-0.082l-0.062-0.062l-0.041-0.082L23.1,14.682 L23.08,14.62l-0.062-0.082l-0.349-0.369l0.021-0.062l-0.041-0.041l-0.062-0.021l-0.041-0.062v-0.082V13.84l-0.062-0.103 l-0.041-0.184l-0.041-0.062l-0.062-0.041L22.32,13.41l0.041-0.062l-0.041-0.041l-0.082-0.082l-0.041-0.021l-0.021-0.041 l-0.021-0.041l-0.021-0.041v-0.144l-0.185-0.369l0.021-0.041l-0.062-0.205l-0.021-0.041l-0.021-0.082l-0.041-0.143l-0.062-0.185 l-0.062-0.226l-0.082-0.267l-0.082-0.328l-0.103-0.349l-0.123-0.369l-0.103-0.41l-0.123-0.41l-0.144-0.451l-0.123-0.451 l-0.143-0.472l-0.123-0.493l-0.144-0.472l-0.143-0.492l-0.144-0.472l-0.123-0.472l-0.143-0.472l-0.123-0.431l-0.123-0.431 l-0.103-0.41l-0.123-0.369l-0.103-0.349l-0.082-0.308l-0.082-0.287l-0.062-0.226l-0.062-0.184l-0.021-0.144l-0.041-0.082V2 l-0.677,0.082L17.58,2.143l-0.657,0.062l-0.677,0.062l-0.677,0.062L14.892,2.39l-0.657,0.041l-0.677,0.062l-0.677,0.062 l-0.677,0.062l-0.656,0.041L10.87,2.718l-0.677,0.041L9.515,2.821L8.838,2.862L8.182,2.923H8.017H7.976l0.062,0.143L8.12,3.272 l0.123,0.144l0.144,0.082h0.082V3.58v0.185v0.062L8.448,3.949v0.205v0.287L8.428,4.791v0.431L8.407,5.694v0.534L8.387,6.781 L8.366,7.397L8.345,8.054L8.325,8.731L8.304,9.428l-0.021,0.718l-0.021,0.718l-0.021,0.739l-0.021,0.718l-0.021,0.739l-0.021,0.718 L8.16,14.477L8.14,15.154L8.119,15.79l-0.021,0.616L8.078,16.98v0.534l-0.021,0.472l-0.021,0.41v0.349l-0.021,0.287v0.226v0.123 v0.041l0.062,0.493l0.062,0.492L8.201,20.9l0.062,0.472l0.062,0.493l0.062,0.492l0.062,0.493l0.062,0.493l0.062,0.492l0.062,0.472 l0.062,0.493l0.062,0.493l0.062,0.492l0.062,0.493l0.062,0.493l0.062,0.472l0.123-0.041l0.082-0.062h0.103l0.082,0.123h0.041V27.22 v-0.021l0.021-0.021v-0.041l0.123,0.062l0.287,0.041l0.123,0.041l-0.021,0.103v0.062h0.062h0.062h0.103l0.021,0.021v0.021 l0.021,0.021l0.041-0.041l0.041-0.062v-0.39l-0.021-0.226v-0.082l0.021-0.184l0.021-0.082v-0.041l0.041-0.062v-0.041l-0.021-0.103 v-0.041l0.021-0.041l0.041-0.062l0.041-0.062v-0.062v-0.123l0.021-0.082l0.041-0.062l0.021-0.041L10.5,25.537l0.062-0.041 l0.021-0.062v-0.082l-0.041-0.082l0.062,0.021l0.041,0.041v0.062v0.082l0.021,0.062h0.041h0.041l0.062,0.021l0.103,0.041 l0.062,0.062l0.164,0.39l0.041,0.103l-0.021,0.062l-0.041,0.082l-0.041,0.082l-0.021,0.103v0.103l0.021,0.021l0.041,0.041 l0.021,0.062l0.021,0.062l0.021,0.062l0.021,0.041l0.021,0.062l0.041,0.041l0.041,0.021l0.041,0.041h0.041l0.062,0.021h0.062v-0.021 v-0.021l0.041-0.082l0.021-0.021h0.021l0.041,0.021l0.021,0.041l-0.041,0.123v0.062l0.041,0.062l0.226,0.185l0.062,0.164 l-0.103,0.103l-0.205,0.082l-0.164,0.062l-0.185-0.021l-0.103-0.082l-0.041,0.021l-0.021,0.041l-0.041,0.021l-0.164,0.062 l-0.103,0.062l-0.041,0.041h0.144l0.39-0.103l0.554-0.041l0.595-0.144l0.287-0.144l0.103-0.205l-0.041,0.021l-0.041,0.021h-0.062 h-0.041l0.021-0.082l-0.021-0.041l-0.041-0.062l-0.021-0.082h0.041l0.021,0.021l0.082,0.062l0.021,0.041l0.021,0.041l0.021,0.021 h0.062l0.103-0.021l0.041-0.082l0.041-0.062l0.062-0.041l0.123-0.041l0.041-0.062l0.021-0.103l0.041-0.082l0.185-0.205v-0.041h0.041 l-0.062-0.041l-0.041-0.021l-0.041-0.041L13.373,26.4V26.38l0.041,0.021V26.38l-0.123-0.246L10.377,27.733L10.377,27.733z"/></svg>