<svg xmlns="http://www.w3.org/2000/svg" xmlns:xlink="http://www.w3.org/1999/xlink" viewBox="0,0,256,256" width="48px" height="48px" fill-rule="nonzero"><g fill="#ffffff" fill-rule="nonzero" stroke="none" stroke-width="1" stroke-linecap="butt" stroke-linejoin="miter" stroke-miterlimit="10" stroke-dasharray="" stroke-dashoffset="0" font-family="none" font-weight="none" font-size="none" text-anchor="none" style="mix-blend-mode: normal"><g transform="scale(4,4)"><path d="M32,12c-1.104,0 -2,0.896 -2,2v16h-16c-1.104,0 -2,0.896 -2,2c0,1.104 0.896,2 2,2h16v16c0,1.104 0.896,2 2,2c1.104,0 2,-0.896 2,-2v-16h16c1.104,0 2,-0.896 2,-2c0,-1.104 -0.896,-2 -2,-2h-16v-16c0,-1.104 -0.896,-2 -2,-2z"></path></g></g></svg>