<?xml version="1.0"?><svg xmlns="http://www.w3.org/2000/svg"  viewBox="0 0 30 30" width="60px" height="60px">    <path d="M22.4,27l-0.075-0.015l-0.15-0.015l-0.135-0.015l-0.135-0.015l-0.135-0.03l-0.15-0.015l-0.135-0.015 l-0.135-0.03l-0.135-0.015l-0.15-0.015l-0.135-0.03l-0.135-0.015l-0.135-0.015l-0.15-0.03l-0.135-0.015L20.243,26.7l-0.135-0.03 l-0.15-0.015l-0.136-0.014l-0.135-0.03l-0.135-0.015l-0.135-0.015l-0.15-0.03l-0.135-0.015l-0.135-0.015l-0.135-0.03l-0.15-0.015 l-0.135-0.03l-0.135-0.015l-0.135-0.015l-0.15-0.03l-0.135-0.015l-0.135-0.03l-0.135-0.015l-0.15-0.015l-0.135-0.03l-0.135-0.015 l-0.135-0.03l-0.135-0.015l-0.15-0.015l-0.135-0.03l-0.135-0.015l-0.135-0.03l-0.15-0.015l-0.135-0.03l-0.18-0.03l-0.195-0.045 l-0.09-0.06l-0.15-0.09l-0.165-0.075l-0.15-0.09l-0.15-0.09l-0.165-0.09l-0.15-0.09l-0.165-0.09l-0.15-0.09l-1.243-0.704 l-1.228-0.704l-1.228-0.704l-1.228-0.719l-1.213-0.704l-1.214-0.734L5.95,20.258l-1.199-0.734l-0.105-0.06l-0.015-0.015l0.045-0.03 l0.075-0.15l0.015-0.075l-0.015-0.09l0.075-0.09L4.856,19l0.075-0.06l0.03-0.015l0.045-0.06l0.045-0.06l0.045-0.09l0.015-0.045 l0.135-0.06l0.33,0.135L5.71,18.73l0.045-0.045l0.015-0.06l0.015-0.075L5.8,18.49l0.06-0.045l0.135-0.06L6.04,18.34l0.015-0.075 v-0.255l0.015-0.045l0.015-0.03v-0.045v-0.045l-0.06-0.15l-0.09-0.075l-0.285-0.075l-0.12-0.075l-0.06-0.15l0.03-0.135l0.075-0.135 l0.045-0.15l0.015-0.225l-0.015-0.06l-0.075-0.135l0.015-0.06l0.045-0.09l0.045-0.03l0.015-0.03l-0.015-0.045l-0.015-0.045 l-0.015-0.045l-0.015-0.045l0.045-0.015l0.15,0.015h0.075l0.075-0.045l0.15-0.195l0.06-0.075l0.03-0.045l0.075-0.045l0.06-0.045 l0.015-0.03l0.015-0.045v-0.09l0.015-0.045l0.03-0.015l0.015-0.015v-0.045l0.015-0.075l0.045-0.09l0.045-0.045l0.045-0.045 l0.03-0.045l-0.03-0.075V14.94l0.015-0.015l0.015-0.015l0.015-0.045V14.82v-0.03l-0.03-0.045v-0.09l0.03-0.105v-0.045l0.06-0.045 l0.03-0.03l0.015-0.03l-0.045-0.09l-0.03-0.045v-0.045l0.045-0.075l0.06-0.045l0.135-0.06l0.06-0.045l0.06-0.045l0.045-0.06 l0.06-0.165l0.045-0.06l0.06-0.045l0.12-0.015l0.359-0.165h0.075l0.12-0.105l0.12-0.09l0.12-0.06l0.03-0.045v-0.075v-0.06 l-0.075-0.075l-0.03-0.06l-0.03-0.03l-0.045-0.03l-0.225-0.24l-0.03-0.075l-0.015-0.015l-0.06-0.045l-0.015-0.015l-0.015-0.03 v-0.015l-0.015-0.015H7.583l-0.045-0.015H7.523l-0.015-0.03v-0.015l-0.015-0.06l0.015-0.03l0.03-0.06l0.015-0.045l-0.015-0.045 H7.523v-0.09l-0.015-0.045l-0.045-0.03l-0.015-0.075v-0.03l0.015-0.09v-0.03v-0.015l-0.015-0.015l-0.12-0.449l-0.075-0.03 l-0.06-0.06l-0.03-0.075l0.015-0.105v-0.06l-0.015-0.06l-0.015-0.06l-0.045-0.03l-0.045-0.03l-0.015-0.045l0.06-0.449v-0.075v-0.12 l0.09-0.075l0.015-0.045V9.831l-0.045-0.09v-0.03l0.015-0.045l0.03-0.015l0.045,0.015h0.045l0.045-0.015l0.015-0.015l0.06-0.135 l0.015-0.09l0.015-0.15v-0.18V8.977l0.03-0.105l-0.015-0.09l-0.06-0.21L7.388,8.378l-0.03-0.165l0.105-0.165l0.015-0.165 l0.045-0.075L7.508,7.734L7.463,7.449v-0.09V7.255l0.045-0.21L7.538,7l0.075-0.09l0.015-0.03l0.015-0.045L7.628,6.79l-0.09-0.18 l-0.03-0.09L7.493,6.415l0.015-0.105l0.06-0.045l0.03-0.045l0.015-0.045v-0.09l0.015-0.03v-0.03l0.015-0.015l0.03-0.03l0.015-0.015 l0.015-0.015l0.105-0.015l0.12-0.045l0.18-0.015l0.045-0.015h0.03l0.03,0.015l0.15,0.075l0.015,0.015h0.015l0.015,0.03l0.03,0.03 l0.045,0.015l0.015,0.015h0.03h0.015h0.015l0.09-0.03h0.015l0.03-0.015h0.015l0.015,0.015h0.03l0.015,0.015l0.03,0.03l0.03,0.03 l0.015,0.045l0.015,0.045l0.045,0.165l0.015,0.045l0.03,0.06l0.045,0.06l0.06,0.045l0.09,0.015l0.15,0.015l0.12-0.045l0.075-0.15 l0.06-0.135l0.06-0.12l0.075-0.06l0.075-0.075l0.015-0.03l0.015-0.045l0.03-0.15v-0.03l0.015-0.09l0.03-0.135l0.03-0.18l0.045-0.21 l0.045-0.24l0.045-0.255l0.06-0.255l0.045-0.27l0.045-0.24l0.045-0.24l0.045-0.21l0.03-0.18l0.03-0.135l0.015-0.09L10.356,3 l0.464,0.09l0.465,0.09l0.464,0.09l0.464,0.075l0.479,0.09l0.465,0.09l0.464,0.09l0.464,0.075l0.479,0.09l0.465,0.075l0.464,0.09 l0.464,0.075l0.479,0.075l0.465,0.09l0.464,0.075l0.479,0.075l0.464,0.075l0.465,0.09l0.464,0.075l0.479,0.075l0.464,0.075 l0.479,0.06l0.464,0.075l0.465,0.075l0.479,0.075l0.464,0.06l0.465,0.075l0.479,0.075l0.464,0.06l0.479,0.075l0.464,0.06 l0.479,0.075l-0.105,0.659l-0.09,0.674l-0.09,0.674l-0.09,0.674l-0.09,0.674l-0.105,0.674l-0.09,0.674l-0.09,0.659l-0.09,0.674 l-0.09,0.674l-0.09,0.674l-0.105,0.674l-0.092,0.674l-0.09,0.659l-0.09,0.674l-0.09,0.674l-0.105,0.674l-0.09,0.674l-0.09,0.674 l-0.09,0.674l-0.09,0.659l-0.09,0.674l-0.105,0.674l-0.09,0.674l-0.09,0.674l-0.09,0.674l-0.09,0.674l-0.105,0.659l-0.09,0.674 l-0.09,0.674l-0.09,0.674l-0.09,0.674L22.4,27L22.4,27L22.4,27z"/></svg>