<?xml version="1.0"?><svg xmlns="http://www.w3.org/2000/svg"  viewBox="0 0 30 30" width="60px" height="60px">    <path d="M2.659,11.997l0.055-0.586l0.037-0.586h0.11l0.018-0.055l0.018-0.275l0.037-0.513L2.97,9.47l0.037-0.494 l0.055-0.513l0.037-0.513l0.037-0.494l0.036-0.513l0.037-0.513l0.769,0.073l0.769,0.055l0.751,0.055l0.769,0.073l0.769,0.055 l0.751,0.055l0.769,0.037l0.769,0.055l0.769,0.055l0.751,0.037l0.769,0.055l0.769,0.037l0.751,0.037l0.769,0.055L14.67,7.2 l0.769,0.018l0.751,0.037l0.769,0.037l0.769,0.037l0.769,0.018l0.769,0.037l0.751,0.018l0.769,0.018l0.769,0.018l0.769,0.018 l0.751,0.018l0.769,0.018l0.769,0.018h0.769l0.769,0.018h0.751h0.769l-0.018,0.055l-0.018,0.018v0.018l-0.018,0.037l-0.018,0.275 L27.56,8.024l-0.055,0.11l-0.11,0.238V8.39l-0.037,0.037l-0.037,0.037l-0.073,0.073l-0.256,0.128l-0.037,0.037l-0.073,0.092 l-0.128,0.092l-0.018,0.018L26.7,8.921l-0.037,0.11l-0.018,0.092l0.092,0.128l0.165,0.183l0.073,0.11l0.11,0.293l0.073,0.128 l0.073,0.073l0.256,0.018l0.146,0.055l0.092,0.073l0.037,0.037l0.073,0.073l0.036,0.018l0.092,0.183l0.018,0.055L28,10.569v0.165 v1.044l-0.018,1.025v1.025v1.025l-0.018,1.025v1.025v1.044v1.025h-0.494v0.018v0.018l0.018,0.037v0.018v0.037v0.055v0.037v0.037 l0.018,0.055v0.018l0.073,0.073l0.018,0.037l0.073,0.073v0.018l0.018,0.055v0.238l-0.018,0.11l-0.018,0.018v0.018l-0.018,0.018 h-0.037l-0.036-0.018l-0.037,0.018v0.018v0.037l0.037,0.037l0.018,0.018l0.018,0.037v0.018l-0.037,0.037l-0.018,0.018v0.036v0.018 l0.037,0.018l0.018,0.018h0.037h0.037l0.092,0.018h0.018h0.037h0.018h0.018l0.018,0.018v0.018l0.018,0.055l0.036,0.202v0.055 l0.018,0.037v0.018v0.055l-0.037,0.183l-0.018,0.037l-0.018,0.018l-0.11,0.11v0.018v0.037v0.018l0.018,0.018v0.018l0.018,0.018 l-0.018,0.036l-0.018,0.055l-0.018,0.036v0.018v0.092l-0.018,0.055v0.037l-0.073,0.073v0.018v0.018l-0.018,0.128v0.037l-0.018,0.018 v0.018l-0.018,0.018v0.018l-0.018,0.037v0.055v0.018l-0.018,0.018v0.018l-0.055,0.018h-0.018l-0.018,0.018l-0.018,0.018v0.018 l-0.018,0.018v0.036v0.018l-0.018,0.018l-0.055,0.092l-0.036,0.055v0.055l-0.018,0.055l0.018,0.037v0.055l0.055,0.092l0.037,0.037 l0.036,0.018l0.183,0.146l0.018,0.018l0.037,0.036v0.018l0.018,0.018l-0.018,0.018l-0.037,0.036l-0.018,0.018v0.018v0.018 l0.073,0.036v0.018h0.018l0.018,0.018l0.018,0.055l0.018,0.018v0.037v0.037v0.036l0.018,0.018l0.018,0.018l0.018,0.055v0.165 l-0.44-0.073l-0.073-0.055l-0.036-0.055v-0.092l-0.037-0.073l-0.146-0.11l-0.037-0.055v-0.073l0.018-0.037l0.018-0.036l0.018-0.037 l-0.018-0.037l-0.036-0.018L27.011,22.8h-0.036h-0.147h-0.036l-0.037-0.037l-0.018-0.018l-0.018-0.037L26.7,22.672l-0.037-0.073 l-0.055-0.037l-0.055-0.037l-0.311-0.037l-0.055-0.018l-0.037-0.037l-0.037-0.037l-0.018-0.018l-0.11-0.018l-0.073-0.036 l-0.037-0.018h-0.165l-0.092-0.037l-0.073-0.036l-0.073-0.055l-0.128-0.11l-0.092-0.146l-0.073-0.055l-0.055-0.037l-0.092-0.018 l-0.696,0.11h-0.092l-0.238-0.055l-0.073,0.018l-0.146,0.055l-0.073,0.018l-0.036-0.018l-0.073-0.055h-0.055l-0.128,0.037 l-0.238-0.073l-0.092,0.018l-0.037,0.018l-0.037,0.037l-0.037,0.037v0.055l-0.055,0.128l-0.018,0.018l-0.018,0.018l-0.073,0.055 l-0.037,0.018l-0.092,0.018l-0.092-0.018l-0.238-0.092l-0.055-0.018v-0.055l-0.037-0.055l-0.476-0.201l-0.128-0.146l-0.147-0.092 L21.5,21.573h-0.037h-0.018l-0.366-0.256l-0.018-0.018l-0.073-0.092h-0.037l-0.293-0.018l-0.586-0.018l-0.568-0.018l-0.586-0.018 l-0.586-0.018l-0.586-0.018l-0.586-0.018l-0.586-0.018l-0.586-0.018l-0.586-0.037l-0.586-0.018l-0.568-0.036l-0.586-0.018 l-0.586-0.037l-0.586-0.018l-0.586-0.037l-0.586-0.037l-0.586-0.036l-0.568-0.037L9.58,20.713l-0.586-0.036l-0.586-0.037 l-0.586-0.055l-0.586-0.037l-0.586-0.037l-0.568-0.037l-0.586-0.037l-0.586-0.055l-0.586-0.037l-0.586-0.055l-0.568-0.037 L2.586,20.2L2,20.145l0.055-0.568l0.037-0.586l0.055-0.586l0.037-0.586l0.055-0.586l0.037-0.586L2.33,16.08l0.055-0.586l0.037-0.586 l0.055-0.586l0.037-0.586l0.055-0.586l0.055-0.586L2.659,11.997L2.659,11.997z"/></svg>