<?xml version="1.0"?><svg xmlns="http://www.w3.org/2000/svg"  viewBox="0 0 30 30" width="60px" height="60px">    <path d="M11.611,2.13l0.129-0.572L11.868,1l0.229,0.057l0.529,0.114l0.529,0.114L13.684,1.4l0.515,0.115h0.029 L14.142,1.93l-0.086,0.429l-0.1,0.415L13.87,3.202l-0.086,0.415l-0.086,0.415l-0.1,0.429l-0.086,0.415L13.47,5.047l0.014,0.029 l0.014,0.043l0.043,0.057l0.043,0.114l0.014,0.057l0.043,0.086l0.014,0.043l0.014,0.029v0.014l0.029,0.028l0.029,0.043l0.014,0.043 l0.014,0.014l0.057,0.057l0.014,0.014l0.014,0.043v0.014l0.014,0.186v0.014l0.014,0.029l0.057,0.057l0.014,0.014l0.014,0.043v0.029 v0.029l0.014,0.014l0.057,0.072l0.014,0.014l0.014,0.029v0.028l-0.014,0.029l-0.014,0.086v0.028l0.043,0.115l0.014,0.043v0.043 L14.07,6.691L14.056,6.72l-0.014,0.014l-0.014,0.014l-0.028,0.014l-0.057,0.014l-0.014,0.014l-0.014,0.014V6.82v0.014l0.057,0.057 l0.014,0.029l0.014,0.043v0.086l0.028,0.014l0.029,0.028L14.07,7.12l0.014,0.014L14.07,7.163h-0.014l-0.014,0.014h-0.014h-0.028 l-0.1-0.014h-0.014L13.87,7.178h-0.014l-0.014,0.014v0.014v0.028l0.014,0.014l0.043,0.029l0.086,0.057l0.157,0.157l0.014,0.028 l0.057,0.1l0.028,0.072l0.014,0.057l0.014,0.057l0.014,0.014l0.014,0.014l0.029,0.029l0.129,0.043l0.2,0.143l0.014,0.014 l0.014,0.028L14.7,8.136l0.014,0.057l0.014,0.029l0.014,0.014v0.029v0.014v0.043l0.014,0.014l0.014,0.014l0.014,0.028L14.8,8.393 l0.014,0.014l0.014,0.043l0.029,0.029l0.057,0.057l0.014,0.029l0.057,0.114L15,8.765l0.172,0.3V9.08v0.072v0.014l0.014,0.014 L15.2,9.194l0.029,0.029l0.043,0.029l0.014,0.014L15.3,9.28l0.057,0.114l0.014,0.014l0.014,0.014l0.057,0.057v0.014v0.028v0.014 l-0.014,0.014V9.58l-0.014,0.014v0.072v0.029v0.043l0.014,0.057v0.014l0.029,0.029l0.057,0.072l0.029,0.029l0.029,0.043l0.014,0.029 l0.043,0.029l0.072,0.029l0.014,0.014v0.029l0.014,0.029l-0.014,0.014v0.029l-0.029,0.086l-0.014,0.014l0.014,0.014v0.014 l0.029,0.014h0.014h0.029l0.057-0.057l0.057-0.029l0.014-0.014h0.014h0.014l0.029,0.014l0.014,0.014l0.057,0.057l0.014,0.014 l0.014,0.043v0.029l-0.014,0.029l-0.043,0.028l-0.014,0.014v0.029v0.014v0.014l0.014,0.029l0.029,0.029l0.043,0.057l0.029,0.014 l0.043,0.014l0.029,0.014l0.043-0.014h0.057h0.014h0.014l0.043,0.029h0.014h0.029h0.014l0.028-0.014l0.057-0.014h0.014l0.172-0.014 h0.029h0.014l0.014,0.014l0.014,0.014l0.014,0.029v0.028l-0.014,0.029l-0.014,0.057l-0.014,0.043l-0.014,0.029l-0.014,0.029v0.014 l-0.014,0.014v0.029v0.014v0.014l-0.014,0.029l-0.029,0.029v0.014l-0.014,0.014v0.014l0.014,0.029v0.014v0.014l-0.014,0.014v0.014 l-0.014,0.014l-0.029,0.014h-0.014l-0.072,0.014h-0.014l-0.014,0.014v0.014H16.43l0.014,0.014v0.014l0.029,0.043v0.029l0.014,0.014 v0.029v0.014l-0.014,0.028v0.014l-0.014,0.029l-0.086,0.114l-0.014,0.029l-0.014,0.043l-0.014,0.043v0.043l-0.014,0.029v0.014 l-0.014,0.014l-0.072,0.072v0.014l-0.014,0.029l-0.014,0.043v0.014l-0.014,0.014l-0.029,0.029l-0.014,0.014v0.014v0.014v0.029v0.029 l0.014,0.043v0.014v0.014l-0.014,0.072v0.043v0.014v0.014l-0.014,0.014l-0.014,0.014l-0.014,0.014h-0.029l-0.086-0.014l-0.014,0.014 h-0.014v0.014l-0.014,0.014v0.014v0.014v0.028l0.086,0.129v0.014v0.014v0.029v0.014l-0.014,0.014l-0.014,0.029l-0.057,0.057 l-0.014,0.014l-0.014,0.029v0.014v0.029l0.014,0.043v0.029l-0.014,0.014v0.028v0.014l0.014,0.029l0.057,0.043l0.057,0.029 l0.029,0.014v0.029v0.014l-0.014,0.029l-0.029,0.043l-0.014,0.014l-0.014,0.028v0.014v0.029v0.014v0.014l0.043,0.1v0.029 l-0.014,0.014l-0.014,0.014l-0.072,0.057H15.93l-0.014,0.014h-0.029l-0.086-0.014h-0.014h-0.014l-0.029,0.014l-0.014,0.014 l-0.014,0.014l-0.014,0.028l-0.043,0.029l-0.014,0.029l-0.014,0.029l-0.014,0.014L15.6,13.742l-0.028,0.014l-0.014,0.014 l-0.014,0.014v0.029l0.014,0.028l0.014,0.057v0.014l0.014,0.029l0.043,0.086l0.014,0.028v0.014l-0.014,0.043v0.014v0.029 l-0.014,0.029v0.014L15.6,14.213v0.014l-0.014,0.014l-0.043,0.028l-0.057,0.029l-0.014,0.014v0.014v0.029v0.029l0.014,0.028v0.014 l-0.014,0.029l-0.014,0.014l-0.028,0.043l-0.014,0.014l0.014,0.014l0.028,0.014h0.057l0.114,0.057h0.014l0.072,0.086l0.014,0.029 v0.014v0.028l0.014,0.014l0.029,0.029l0.072,0.057l0.014,0.029v0.014l0.014,0.029l0.029,0.014l0.057,0.014h0.029l0.014-0.014h0.028 l0.057-0.029h0.014l0.014-0.014l0.043-0.072l0.014-0.014l0.014-0.014l0.014-0.014l0.014-0.014h0.014h0.029l0.043,0.014h0.014h0.014 l0.072-0.029l0.114-0.028h0.014l0.014-0.014v-0.014l0.014-0.029l0.014-0.014h0.014l0.043-0.029h0.014l0.014-0.014l0.014-0.014 l0.014-0.029l0.014-0.029l0.014-0.014l0.014-0.014h0.029l0.014-0.014h0.072l0.014-0.014l0.014-0.014v-0.014v-0.029v-0.014v-0.029 v-0.014v-0.014l0.014-0.029l0.014-0.014h0.014l0.029,0.014l0.043,0.043l0.086,0.086l0.043,0.057l0.014,0.028v0.014v0.043 l0.014,0.014l0.014,0.029l0.129,0.072l0.014,0.014l0.014,0.014l0.028,0.029v0.029v0.014v0.029l-0.014,0.014L17.302,14.9 l-0.014,0.014l-0.014,0.043L17.259,15v0.014v0.029l0.014,0.014l0.072,0.057l0.029,0.029v0.029V15.2l-0.014,0.057v0.014L17.345,15.3 l-0.014,0.029l-0.014,0.014v0.029l-0.014,0.014V15.4l0.014,0.029l-0.014,0.043l0.014,0.029l0.057,0.072l0.014,0.029v0.014v0.043 l-0.029,0.1l-0.014,0.043v0.014v0.043v0.014v0.014l0.014,0.028l0.057,0.057l0.014,0.014v0.029v0.014v0.043v0.014l0.014,0.029 l0.029,0.043l0.043,0.072l0.043,0.043l0.029,0.043v0.028l0.014,0.029v0.029v0.029v0.014v0.014l0.014,0.043v0.014l0.014,0.014 l-0.014,0.043v0.014l0.014,0.029h0.014l0.086,0.014l0.029,0.014v0.029l0.014,0.072v0.014l0.057,0.143l0.014,0.029l0.014,0.114v0.014 v0.057v0.029l-0.029,0.086l-0.014,0.014l-0.014,0.014l-0.014,0.014l-0.014,0.014l-0.057,0.014h-0.014l-0.014,0.014v0.014v0.029 l0.014,0.014l0.014,0.029l0.014,0.029l0.014,0.043l0.014,0.1v0.043l0.029,0.029l0.014,0.029l0.114,0.086l0.029,0.029l0.014,0.029 l0.014,0.014l-0.014,0.057l0.014,0.014l0.029,0.014h0.043h0.029h0.014l0.072-0.043l0.014-0.014h0.014h0.014l0.043,0.014l0.057,0.014 l0.072,0.057l0.043,0.057l0.043,0.057v0.014l0.028,0.072l0.014,0.014l0.029,0.043v0.014v0.014l0.014,0.029v0.014v0.014v0.029v0.014 l0.029,0.029v0.014v0.014l0.014,0.057v0.029l0.029,0.043v0.043l0.014,0.014v0.014l-0.014,0.014l-0.014,0.014l-0.014,0.014 l-0.029,0.028h-0.014v0.014l-0.014,0.029v0.014l0.014,0.014l0.057,0.086v0.014v0.029l-0.014,0.043l0.014,0.014l0.014,0.028 l0.043,0.029l0.014,0.014v0.028v0.014l-0.043,0.043l-0.014,0.043v0.014l0.014,0.057v0.014v0.043v0.029l0.029,0.014l0.043,0.029 l0.014,0.014l0.014,0.014l0.029,0.072l0.014,0.014l0.014,0.014l0.1,0.057l0.014,0.014l0.014,0.014l0.043,0.1h0.014l0.029,0.014 l0.043-0.014l0.014-0.014V19.59l-0.028-0.086V19.49v-0.014l0.014-0.029l0.014-0.014l0.014-0.014l0.014-0.014l0.172-0.114 l0.014-0.014h0.072l0.028-0.014l0.043-0.014h0.028h0.029l0.072,0.043l0.315,0.1h0.014l0.014,0.014l0.014,0.029l0.014,0.014h0.072 h0.043l0.043,0.029l0.029,0.014l0.014,0.014v0.014l0.014,0.014l0.028,0.014h0.029h0.043l0.029-0.014l0.014-0.014l0.072-0.114 l0.028-0.086l0.014-0.014l0.014-0.014h0.014l0.028-0.014l0.043-0.014h0.072l0.014-0.014h0.014l0.029-0.029h0.014h0.028l0.029,0.029 l0.043,0.043h0.014l0.029,0.014h0.057l0.043,0.014l0.072,0.029l0.057,0.043l0.029,0.014l0.257-0.014l0.043,0.014h0.043h0.028 l0.029-0.014h0.014h0.014h0.029l0.1,0.014l0.043,0.029l0.029,0.014l0.014,0.014l0.014,0.043v0.014l0.014,0.014l0.014,0.014 l0.014,0.014h0.029l0.057-0.014l0.014-0.014l0.057,0.014h0.043l0.014-0.014l0.129-0.057h0.043l0.286,0.043l0.028,0.014l0.072,0.057 l0.029,0.029h0.014l0.028,0.014h0.043h0.028l0.014-0.014v-0.014V19.59l-0.014-0.014l-0.057-0.029l-0.014-0.014l-0.014-0.014v-0.014 l-0.014-0.014v-0.043v-0.028l0.014-0.014v-0.029l0.014-0.014l0.014-0.043l0.014-0.014l0.014-0.028v-0.014l0.014-0.014l0.072-0.014 l0.014-0.014l0.014-0.014l0.014-0.014v-0.014v-0.029v-0.014l-0.014-0.014v-0.014l-0.014-0.029v-0.014l0.014-0.014v-0.014 l0.029-0.029l0.043-0.014h0.014h0.072h0.029l0.014-0.014l0.043-0.043l0.014-0.014h0.014l0.029,0.014l0.086,0.072l0.029,0.029 l0.014,0.072l0.072,0.172l0.014,0.057l0.014,0.014l0.014,0.014l0.029,0.014l0.014,0.029v0.014v0.028l-0.014,0.029v0.043v0.014v0.014 l0.014,0.029l0.014,0.014l0.014,0.014l0.029,0.029l0.029,0.028l0.029,0.043l0.028,0.086l0.057,0.1l0.043,0.043l0.114,0.057 l-0.1,0.558l-0.086,0.558l-0.086,0.572l-0.086,0.558l-0.1,0.572l-0.086,0.558l-0.086,0.572l-0.086,0.558l-0.1,0.558l-0.086,0.572 l-0.086,0.558l-0.086,0.572l-0.1,0.558l-0.086,0.558l-0.086,0.572L22.236,29l-0.501-0.072l-0.501-0.086l-0.501-0.086l-0.501-0.086 l-0.501-0.086l-0.501-0.072l-0.501-0.1l-0.501-0.086l-0.501-0.086l-0.501-0.086L16.73,28.07l-0.501-0.1l-0.501-0.086l-0.501-0.1 l-0.501-0.086l-0.486-0.1l-0.501-0.1l-0.501-0.086l-0.486-0.1l-0.501-0.1l-0.501-0.1l-0.486-0.1l-0.501-0.1l-0.501-0.1l-0.486-0.1 L9.28,26.597l-0.486-0.1l-0.501-0.1l-0.486-0.115l-0.501-0.1L6.82,26.068L6.32,25.954l0.086-0.358l0.086-0.372l0.072-0.372 l0.086-0.372l0.086-0.358l0.086-0.372l0.072-0.372l0.086-0.372l0.086-0.358l0.086-0.372l0.072-0.372l0.086-0.372l0.086-0.358 l0.086-0.372l0.072-0.372l0.086-0.372l0.029-0.157l0.072-0.315l0.014-0.057v-0.029v-0.086l0.057-0.043l0.057-0.029l0.043-0.043 l0.043-0.072l0.029-0.086l0.057-0.114l0.057-0.143l0.014-0.029l0.028-0.029l0.014-0.029l0.014-0.043L8.15,18.689l-0.043-0.143 l0.014-0.057l0.043-0.028l0.029,0.014h0.043h0.029l0.029-0.029l0.014-0.043l0.014-0.043l0.014-0.043l0.014-0.014l0.014-0.014 l0.014-0.029v-0.029L8.336,18.16l-0.029-0.043L8.25,18.075V18.06l-0.014-0.057V17.96l0.014-0.043v-0.028l-0.029-0.014L8.165,17.86 l-0.057,0.014H8.064l-0.057-0.029l-0.014-0.028v-0.043l-0.014-0.028L7.95,17.731H7.907L7.879,17.76L7.85,17.789l-0.028,0.014 l-0.086-0.086L7.707,17.66v-0.072v-0.043l0.029-0.043l0.014-0.029v-0.057l-0.014-0.072v-0.043l0.014-0.086l0.057-0.057l0.029-0.072 v-0.1l0.014-0.014l0.029-0.014l0.014-0.014l0.028-0.057h0.014l0.043-0.014h0.029L8.05,16.83l0.043-0.043l0.043-0.072l0.057-0.129 l0.043-0.072l0.086-0.114l0.114-0.157l0.043-0.043l0.057-0.057l0.171-0.057l0.057-0.043l0.057-0.029l0.186-0.2l0.086-0.115 l0.029-0.057l0.072-0.157l0.014-0.072V15.4l-0.014-0.029v-0.029V15.3l0.014-0.029l0.029-0.043l0.372-0.343l0.072-0.129l0.1-0.215 l0.043-0.043l0.043-0.057l0.043-0.143l0.014-0.086l0.057-0.057l0.1-0.072l0.072-0.114l0.157-0.129l0.014-0.028l0.028-0.086 l0.072-0.1l0.014-0.028l0.1-0.072l0.043-0.043l0.043-0.057l0.014-0.086l-0.014-0.072l-0.043-0.2l-0.014-0.143l-0.014-0.086 l-0.029-0.043l-0.029-0.043l-0.1-0.043l-0.129-0.129l-0.043-0.072l-0.014-0.029l-0.171-0.072l-0.014-0.057l-0.014-0.057 l-0.114-0.186l-0.029-0.215v-0.129v-0.014l-0.014-0.172l-0.1-0.2v-0.043l0.086-0.057l0.043-0.043l0.043-0.072l0.014-0.072 l-0.029-0.115v-0.186l-0.014-0.072l-0.043-0.172l-0.086-0.171l-0.014-0.057l0.028-0.072l0.057-0.1l0.029-0.1L9.995,9.48l0.115-0.558 l0.129-0.572l0.129-0.558l0.129-0.572l0.115-0.558l0.129-0.572l0.129-0.572l0.129-0.558l0.115-0.572l0.129-0.558l0.129-0.572 l0.114-0.558L11.611,2.13L11.611,2.13z"/></svg>