<?xml version="1.0"?><svg xmlns="http://www.w3.org/2000/svg"  viewBox="0 0 30 30" width="60px" height="60px">    <path d="M23.845,13.976l0.095,0.119v0.024v0.071l-0.095,0.214l-0.048,0.071L23.774,14.5h-0.095l-0.047,0.024v0.024v0.119 v0.048l-0.048-0.048v0.119l-0.024,0.095l-0.143,0.333l-0.048,0.024l-0.047,0.047l-0.024,0.048v0.024l0.048,0.047l-0.119,0.024 h-0.024l-0.095-0.024h-0.048l-0.024,0.024v0.048l0.071,0.095l-0.095,0.024l-0.071-0.048l-0.071-0.024L22.773,15.5v-0.048 l0.024-0.119l-0.048-0.119l-0.095-0.024l-0.095,0.095l0.071,0.024l-0.048,0.071h-0.048h-0.047l-0.072-0.048l0.048,0.095l0.071,0.048 l0.048,0.071v0.143l0.071,0.024v0.047h-0.024h-0.024l-0.048,0.095v0.048v0.048l-0.095-0.095l-0.071-0.119l-0.071-0.119h-0.095 l0.048,0.095l0.024,0.095l0.048,0.071l0.071,0.024l-0.071,0.071L22.274,16h-0.071h-0.072v-0.095l-0.047-0.048l-0.048,0.024 l-0.024,0.072h-0.024l-0.071-0.119l-0.048,0.024l-0.119,0.214l0.071-0.024l0.048,0.024l0.048,0.19v0.048v0.047l0.024,0.072 l0.024,0.024l0.024,0.048l-0.024,0.024l-0.048,0.024l-0.048,0.024v0.024l-0.048,0.024l-0.024,0.024H21.75l-0.048-0.024v-0.048 l-0.024-0.048L21.655,16.5l-0.024-0.048l-0.024-0.024l-0.048,0.024L21.536,16.5l-0.048,0.095l-0.048,0.31h-0.047l-0.072-0.024 l-0.047-0.048l-0.048-0.095l-0.048-0.309l-0.024-0.048l-0.048,0.048l-0.024,0.333v0.024l0.024,0.047l-0.024-0.024l-0.072-0.024 V16.69l0.024-0.095V16.5l-0.048-0.095l-0.024,0.024L20.94,16.5v0.095l-0.071-0.047l-0.048,0.024l-0.024,0.048v0.167l-0.024,0.024 l-0.048,0.024l-0.024,0.024l0.024,0.071l0.143,0.095l0.024,0.071v0.095l-0.024,0.024h-0.071H20.75l0.048,0.095l0.024,0.286 l0.024,0.143L20.75,17.69l-0.071-0.167v-0.167v-0.143l-0.048,0.048l-0.024,0.095v0.119l0.024,0.095l0.048,0.095v0.048l-0.048-0.024 h-0.048l-0.024-0.024l-0.024-0.024l-0.024-0.048l-0.119-0.381l-0.048,0.024v0.048v0.048l0.024,0.048v0.071h-0.048H20.25L20.202,17.5 l0.071,0.024l0.143,0.048v0.024l0.095,0.143l0.024,0.024v0.024v0.072v0.047v0.024l-0.048,0.024l-0.024-0.048l-0.024-0.024h-0.024 l-0.024,0.024v0.024v0.024v0.071l-0.071,0.238l-0.024,0.095l-0.072-0.048l-0.024-0.071v-0.071v-0.095l-0.071,0.048l-0.024,0.024 l-0.047-0.095l-0.095-0.143l-0.071-0.143l-0.024-0.143l-0.047-0.095h-0.119h-0.024v-0.048l-0.024-0.024h-0.024l-0.024,0.024v0.048 v0.024v0.048l0.024,0.024l0.024,0.047v0.024l-0.024,0.024l-0.072,0.024l-0.024-0.024l-0.024-0.024l-0.048-0.167l-0.048-0.119 l-0.048-0.024l-0.024,0.166l0.024,0.072l0.024,0.095v0.024l-0.19-0.119l-0.048-0.048l-0.024-0.095L19.06,17.5l-0.071-0.024h-0.071 v0.119l0.167,0.024l0.072,0.071l-0.048,0.143h0.048v0.024l0.024,0.024l0.024,0.024l-0.19,0.048h-0.095l-0.071-0.048v0.143 l-0.071,0.143l0.048,0.071l-0.119,0.072l-0.048,0.024l-0.048-0.071l-0.071-0.309l-0.071-0.095h-0.071l-0.119,0.024l0.119,0.167 l0.047,0.071v0.048v0.024v0.024l0.024,0.024l0.024,0.024h0.024v0.024l0.024,0.048v0.048L18.512,18.5l-0.024,0.047l-0.024-0.024 l-0.048-0.143l-0.024-0.047l-0.048-0.048l-0.048,0.119l-0.071,0.071L18.131,18.5h-0.119l0.071,0.047l0.072,0.119l0.071,0.072 l0.024,0.047l-0.024,0.167v0.071l0.048,0.072h0.047h0.048l0.048,0.024l0.048,0.095v0.047l-0.024,0.024l-0.071-0.024l0.024,0.072 l0.048,0.024l0.048,0.024h0.071l-0.119,0.095l-0.476-0.214l-0.143,0.024l-0.072,0.048l-0.095-0.048l-0.167-0.095h-0.119 l-0.119,0.143l-0.119,0.047l-0.024-0.238v-0.119l0.047-0.047h0.048l0.071,0.047h0.024l0.048-0.047l-0.024-0.048l-0.048-0.071 l-0.047-0.024l0.047-0.071l0.024-0.071h0.024l0.119,0.024h0.024l0.024-0.048l-0.119-0.095l-0.024-0.095l-0.143,0.143l-0.024,0.047 l-0.024,0.143l-0.047,0.071l-0.048,0.024l-0.048-0.047l-0.024-0.095v-0.095l0.024-0.071v-0.024l0.048-0.048v-0.048v-0.024v-0.095 l-0.024-0.048l0.047-0.333l-0.047-0.095h-0.143l-0.071,0.024h-0.024l0.024,0.166v0.357h0.048h0.047l-0.047,0.095l-0.072,0.071H16.75 v-0.119h-0.048l-0.071,0.071l-0.072,0.143l-0.047,0.071l-0.167,0.095l-0.071,0.095L16.297,19l0.048,0.024l0.024,0.072l0.024,0.071 l0.166,0.167l0.072,0.071l-0.024,0.119l-0.048,0.071l-0.071,0.048l-0.071,0.071V20l-0.048,0.119l0.024,0.309l-0.024,0.167 l-0.024,0.095l-0.024,0.048v0.048l0.048,0.071v0.119l0.048,0.048l0.119-0.048v0.143l-0.024,0.095l-0.048,0.071l-0.119,0.048v0.071 v0.119l-0.024,0.095l-0.119-0.024v0.071v0.024l-0.024,0.024h-0.048l-0.024,0.071v0.071l0.024,0.048l0.072,0.048l-0.119,0.143 l-0.048,0.024l-0.071,0.048H15.94l-0.047-0.143l0.071-0.262l0.024-0.119l-0.071,0.048l-0.167,0.405l-0.048,0.048l-0.024-0.048v-0.19 h-0.048l-0.071,0.024l-0.071,0.095l-0.071,0.024l0.024-0.143v-0.095l-0.024-0.024h-0.072l-0.024-0.024l0.048-0.119v-0.071 L15.321,21.5l-0.048,0.024l0.024,0.095l-0.024,0.048l-0.048,0.048l-0.047,0.047l0.071,0.143l-0.048,0.048L15.155,22h-0.024 l-0.048,0.072v0.095l0.024,0.548l-0.024,0.191l-0.047,0.119l-0.048-0.119l-0.048-0.072l-0.048-0.071l-0.048-0.071h-0.024v0.095 v0.095l0.071,0.19L14.798,23l0.024-0.048l-0.071-0.047l-0.024-0.072v-0.047v-0.072v-0.047v-0.072v-0.024l-0.024-0.048L14.655,22.5 l-0.024-0.024V22.31l0.048-0.262l-0.048-0.095l-0.024,0.071l-0.024,0.095v0.167l-0.047,0.095v0.071l0.024,0.024l0.024,0.048v0.048 v0.071l-0.024,0.024l0.024,0.047l0.024,0.024l0.024,0.048l-0.024,0.047l0.071,0.072l0.048,0.071l0.024,0.095l0.024,0.119 l-0.024,0.095l-0.048-0.048l-0.047-0.19l-0.048,0.071l-0.048,0.024l-0.071-0.024l-0.095-0.048l-0.071-0.047l-0.024-0.048 l0.047-0.143l-0.024-0.047l-0.024-0.024v-0.048v-0.047h0.047h0.048h0.048l-0.072-0.048l-0.047-0.024l-0.048-0.024L14.226,22.5 v-0.095v-0.214l0.024-0.048l0.024-0.071v-0.048l-0.048,0.024l-0.047,0.048l-0.048,0.071l-0.214,0.762v0.095l0.024,0.024l0.071,0.024 l0.048,0.024l0.024,0.071v0.071v0.19l0.024-0.047l0.024-0.167l0.024-0.024l0.048,0.024l0.024,0.095l-0.024,0.333l-0.024,0.095 l-0.047,0.024l-0.095-0.167v-0.024v-0.024v-0.024V23.5l-0.024-0.048h-0.024h-0.024l-0.119-0.262l-0.024-0.071l-0.048-0.071L13.75,23 l-0.047-0.071v-0.071l-0.024-0.071l-0.048-0.048l-0.047-0.119L13.536,22.5l-0.024-0.119l0.024-0.143l0.048-0.119l0.024-0.095 L13.56,22l-0.047,0.048l-0.024,0.095l-0.024,0.024l-0.048,0.071l-0.19,0.357v0.072l0.024,0.047l0.048,0.048h0.024l0.048-0.024 l0.048-0.048l0.048-0.143l0.119,0.214l0.19,0.452l0.048,0.214l0.095,0.19l0.071,0.095l0.024,0.048l0.024,0.167v0.024L13.988,24 l-0.047,0.048l-0.024,0.071v0.095l-0.047-0.071l-0.072-0.167l-0.047-0.024l-0.048-0.048l-0.024-0.095l-0.024-0.143v-0.048h0.024 v-0.047v-0.048l-0.048-0.048l-0.071-0.048l-0.024-0.048v-0.071v-0.024v-0.024l-0.071-0.024l-0.048,0.024l-0.024,0.024l-0.024,0.024 l-0.024,0.048l0.048,0.024l0.071,0.024l0.048,0.071l0.024,0.095l-0.024,0.095l-0.024,0.071l-0.047,0.048l-0.024-0.095l-0.119,0.286 l-0.024,0.048l-0.024,0.024l-0.024,0.024l0.024,0.095l-0.024,0.024l-0.024,0.024l-0.024,0.024l0.119-0.691l-0.047-0.095L13.203,23.5 l-0.024,0.143l-0.024,0.143l-0.024,0.095l0.024,0.095l-0.024,0.119l-0.048,0.071l-0.071,0.024l0.024-0.167l0.119-0.381v-0.167 L13.06,23.5l-0.095,0.166h-0.071l0.024-0.047l0.048-0.048l0.024-0.071v-0.072l-0.048,0.024L12.893,23.5l-0.048,0.071l-0.048,0.119 l-0.024,0.048l-0.095,0.071l-0.048,0.048l-0.047,0.024l-0.024,0.024l-0.167,0.286l-0.071,0.095l-0.048,0.262l-0.095,0.143 l0.024,0.071l0.048,0.071v0.048l-0.024,0.071L12.179,25l-0.119,0.024v0.048l0.143-0.024l0.095-0.024h0.095l0.095,0.143l0.024,0.071 l0.024,0.167v0.047l-0.048,0.024l-0.095,0.095l-0.071,0.024l0.024-0.048v-0.024l-0.072,0.024l-0.047,0.167l-0.072,0.071 l-0.047-0.119H12.06l-0.071,0.071l-0.024,0.095l-0.024,0.143l0.024,0.119l0.048,0.095l0.048,0.143l0.071-0.095l0.048-0.024 l0.024-0.024l0.024,0.048l-0.048,0.047l-0.048,0.048l-0.048,0.143V26.5v0.095v0.024l-0.024,0.024l-0.048,0.024l-0.048,0.024 l-0.047,0.095l-0.048,0.095l-0.048,0.095l-0.095,0.095l-0.119,0.024l-0.048,0.024l-0.024,0.072l-0.095,0.214l-0.024,0.143 l-0.024,0.143l0.048,0.143l0.095,0.119l-0.047,0.095l-0.024,0.119l0.071,0.024l-0.071,0.072l-0.024,0.071L11.393,28.5l-0.048,0.333 l-0.024,0.071l-0.071-0.024l-0.095-0.071l-0.071-0.071l-0.095,0.047l0.024,0.024v0.167V29l-0.167-0.095l-0.19-0.143l-0.119-0.119 v-0.024l-0.024-0.072v-0.19v-0.048l-0.024-0.047l-0.048-0.095l-0.024-0.024l-0.024-0.024l-0.214-0.071l-0.191-0.167l-0.19-0.167 l-0.167-0.119l-0.047-0.047L9.56,27.5l-0.047-0.048v-0.048l-0.024-0.048v-0.024v-0.167v-0.071L9.465,27l-0.048-0.071v-0.048 l-0.024-0.047v-0.024v-0.095l-0.024-0.095l-0.024-0.19l-0.071-0.167l-0.095-0.309l-0.095-0.309l-0.119-0.31l-0.095-0.309 l-0.095-0.309l-0.095-0.309L8.56,24.095l-0.095-0.31l-0.095-0.309l-0.095-0.309l-0.119-0.309L8.06,22.548l-0.095-0.31l-0.095-0.309 L7.75,21.619L7.655,21.31L7.56,21l-0.095-0.31l-0.095-0.309L7.25,20.071l-0.095-0.309L7.06,19.452l-0.095-0.31l-0.119-0.309 L6.75,18.5l-0.095-0.31L6.56,17.881l-0.119-0.309l-0.095-0.309L6.25,16.952l-0.095-0.31L6.06,16.333l0.071-0.024l0.024-0.048 l0.071-0.095l0.024-0.071l0.024-0.071l0.095-0.048h0.095l0.095,0.048l0.333,0.452l0.072,0.048l0.047-0.071v-0.071l-0.024-0.095 l-0.024-0.071l0.024-0.048l0.071-0.071l0.024-0.071L7.06,15.905l-0.071-0.238l-0.024-0.119v-0.119l0.024-0.095l0.071-0.071h0.095 H7.25l0.167,0.119l0.119,0.024l0.071-0.024l0.095-0.071l0.024-0.071l-0.071-0.119L7.56,15.071l-0.191-0.048l-0.071-0.071 l-0.071-0.119l-0.024-0.095l0.072-0.429l0.286-0.572l0.048-0.071l0.214-0.19l0.095-0.143l0.048-0.024l0.071-0.024l0.048-0.024 l0.071-0.095l0.024-0.095v-0.119l-0.048-0.119l-0.048-0.048L8.06,12.738l-0.024-0.024v-0.071v-0.048L8.108,12.5l0.238-0.333 L8.441,12l0.024-0.214l-0.024-0.167l-0.024-0.048l-0.095,0.024l-0.095-0.047L8.155,11.5l-0.048-0.095v-0.238v-0.024l0.024-0.048 v-0.024v-0.024l-0.024-0.024L8.084,11H8.06l-0.048-0.048v-0.024l0.024-0.071l0.119-0.143l0.047-0.119l-0.024-0.119l-0.048-0.119 l-0.095-0.095l-0.095-0.024l-0.024-0.143l0.047-0.262l0.024-0.238l0.024-0.071l0.071-0.048V9.405L8.06,9.286V9.143l0.071-0.071 l0.048-0.048l0.238-0.381l0.024-0.167L8.369,8.095L8.298,7.5L8.25,7.167L8.227,6.905l0.048-0.119l0.214-0.619l0.238-0.643 l0.214-0.619l0.214-0.643l0.214-0.619L9.584,3l0.214-0.619l0.214-0.619l0.024-0.095l0.048-0.071l0.071-0.024h0.643l0.095,0.048 l0.047,0.19l0.048,0.357l0.071,0.19L11.131,2.5l0.095,0.095l0.643,0.191l0.071-0.024l0.429-0.405l0.167-0.119L12.75,2.19 l0.095-0.024l0.048-0.095l0.048-0.095l0.071-0.095l0.143-0.166l0.095-0.048l0.095-0.048l0.095-0.024l0.143,0.047l0.071-0.024 l0.024-0.048l0.095-0.048V1.476L13.75,1.429V1.357l0.071-0.214l0.19-0.119L14.227,1l0.238,0.071l0.071,0.024l0.143,0.119 l0.071,0.024l0.119,0.024h0.071l0.333,0.167L15.489,1.5l0.167,0.119l0.048,0.048l0.048,0.071l0.047,0.048l0.214,0.095l0.167,0.143 l0.095,0.048l0.191,0.047l0.024,0.024l0.095,0.238l0.238,0.762l0.262,0.786l0.238,0.786L17.56,5.5l0.262,0.762l0.238,0.786 l0.262,0.786l0.238,0.762l0.024,0.071l0.048,0.024l0.047,0.024l0.048,0.048L18.75,8.81l-0.024,0.095l-0.048,0.119l-0.024,0.095 l0.048,0.095l0.119,0.071l0.024,0.071v0.095l-0.024,0.095l-0.024,0.119v0.095l0.119,0.309l0.048,0.071l0.071,0.024l0.119,0.047 h0.072v-0.047l0.024-0.048l0.024-0.024l0.048,0.024l0.048,0.048l0.048,0.071l0.071,0.024l0.167,0.071l0.238,0.024h0.238l0.19-0.071 l0.119-0.048l0.119-0.024l0.095,0.048l0.095,0.167l0.048,0.214l-0.048,0.071l-0.071,0.119l-0.095,0.119l0.119,0.214L21.06,11.5 l0.024,0.214l-0.024,0.214l-0.024,0.119v0.119l0.048,0.071l0.238,0.119l0.238,0.214l0.19,0.119l0.167,0.024l0.119-0.143v-0.048 v-0.071l-0.024-0.048l0.024-0.048l0.048-0.024h0.071l0.119,0.024h0.071l0.048,0.072l0.095-0.024h0.024l0.024,0.024l0.024,0.047 l0.047,0.048l0.048,0.071h0.024h0.024l0.024,0.024l0.071,0.024l0.095,0.071l0.071,0.095v0.095L23.012,13l0.071,0.048h0.072 l0.047,0.048l0.119,0.143l0.072,0.048l-0.024,0.095l0.024,0.095l-0.024,0.095l-0.071,0.048l-0.048-0.024l-0.071-0.071h-0.048v0.167 l0.071,0.024l0.024,0.071l-0.024,0.072l-0.071,0.047l-0.048-0.024l-0.19-0.071h-0.048v0.095l0.072,0.048l0.119,0.071l0.047,0.048 l0.143,0.262v-0.048l-0.048-0.19v-0.048l0.048-0.024l0.095,0.095l0.048-0.024l-0.048-0.048L23.369,14l-0.024-0.024l-0.024-0.048 l-0.047-0.024l0.071-0.071l0.095,0.095l0.072,0.143l0.047,0.119l0.072-0.095l-0.024-0.119l-0.143-0.214h0.071l0.048,0.024 l0.143,0.143l0.072-0.024h0.024v0.024v0.024L23.845,13.976L23.845,13.976z"/></svg>