<?xml version="1.0"?><svg xmlns="http://www.w3.org/2000/svg"  viewBox="0 0 30 30" width="60px" height="60px">    <path d="M8.513,21.403l-0.685-0.05L7.144,21.32l0.017-0.267l0.017-0.267l0.017-0.267l0.017-0.267l0.017-0.267 l0.017-0.267l0.017-0.267l0.017-0.267l0.017-0.267l0.017-0.267l0.017-0.267l0.017-0.267l0.017-0.267l0.017-0.267l0.017-0.25 l0.017-0.267l-0.301-0.033l-0.384-0.017l-0.384-0.033l-0.367-0.017l-0.384-0.033l-0.384-0.017l-0.384-0.033l-0.384-0.033 l-0.384-0.017l-0.384-0.033l-0.384-0.033L2.92,16.745l-0.384-0.033l-0.384-0.033l-0.384-0.033l-0.384-0.033L1,16.578l0.05-0.534 l0.033-0.518l0.05-0.534l0.05-0.534l0.033-0.534l0.05-0.534l0.033-0.534l0.05-0.534l0.05-0.534l0.033-0.518l0.05-0.534l0.05-0.534 l0.033-0.534l0.05-0.534l0.033-0.534l0.05-0.534l0.534,0.05l0.534,0.05l0.518,0.033l0.534,0.05L4.356,8.28L4.89,8.33l0.534,0.033 l0.518,0.033L6.476,8.43l0.534,0.033l0.534,0.05l0.534,0.033L8.614,8.58l0.534,0.017L9.666,8.63L10.2,8.664l0.534,0.033l0.534,0.033 l0.534,0.017l0.534,0.033l0.534,0.017l0.518,0.033l0.534,0.017l0.534,0.033l0.534,0.017l0.534,0.017l0.534,0.017l0.534,0.017 l0.534,0.017l0.534,0.017l0.518,0.017l0.534,0.017l0.267,0.017h0.033l0.067,0.083l0.017,0.017l0.334,0.234h0.017h0.033L19.5,9.382 l0.134,0.083l0.117,0.134l0.434,0.184l0.033,0.05v0.05l0.05,0.017l0.217,0.083l0.083,0.017l0.083-0.017l0.033-0.017l0.067-0.05 l0.017-0.017l0.017-0.017l0.05-0.117v-0.05l0.033-0.033l0.033-0.033l0.033-0.017l0.083-0.017l0.217,0.067l0.117-0.033h0.05 l0.067,0.05l0.033,0.017l0.067-0.017l0.134-0.05l0.067-0.017l0.217,0.05h0.083l0.634-0.1l0.083,0.017l0.05,0.033l0.067,0.05 l0.083,0.134l0.117,0.1l0.067,0.05l0.067,0.033l0.083,0.033h0.15l0.033,0.017l0.067,0.033l0.1,0.017l0.017,0.017l0.033,0.033 l0.033,0.033l0.05,0.017l0.284,0.033l0.05,0.033l0.05,0.033l0.033,0.067l0.017,0.033l0.017,0.033l0.017,0.017l0.033,0.033h0.033 h0.134h0.033l0.05,0.017l0.033,0.017l0.017,0.033l-0.017,0.033l-0.017,0.033l-0.017,0.033v0.067l0.033,0.05l0.134,0.1l0.033,0.067 v0.083l0.033,0.05l0.067,0.05l0.401,0.067l0.134,0.017l0.083,0.033l0.05,0.033l0.05,0.184l-0.05,0.184l-0.017,0.184l0.1,0.134 l0.017,0.067l0.033,0.033l0.033,0.067l0.017,0.067l0.017,0.1l-0.017,0.083l-0.033,0.067l-0.017,0.083l0.033,0.1l0.05,0.067 l0.1,0.067l0.067,0.05l0.033,0.083v0.083v0.083l0.017,0.1l0.083,0.117l0.134,0.083l0.117,0.1l0.033,0.167l-0.017,0.033l-0.033,0.083 v0.05l0.017,0.05l0.05,0.1l0.017,0.033l0.184,0.2l0.033,0.1l-0.017,0.083l-0.033,0.067l-0.017,0.083l0.017,0.067v0.017l-0.017,0.017 l-0.033,0.05l-0.017,0.033v0.033v0.184v0.083l0.033,0.083l0.033,0.033v0.033l-0.017,0.083v0.1l0.067,0.05l0.05-0.017l0.067-0.033 l0.017-0.017l0.033,0.017l0.05,0.033l0.017,0.033l-0.017,0.033l-0.017,0.05l-0.017,0.05v0.033l0.017,0.05l0.05,0.033l0.117,0.033 h0.033h0.017l0.017,0.05l-0.017,0.167v0.05l-0.083,0.284l0.05,0.017l0.15,0.05l0.05,0.017l0.033,0.033l-0.05,0.083l-0.067,0.083 l-0.033,0.017l-0.033,0.184l0.017,0.067l0.033,0.05l0.15,0.05l0.033,0.033l-0.067,0.033l0.017,0.067v0.134l0.017,0.067l-0.033,0.117 l-0.017,0.033v0.033h0.017v0.017v0.017l0.017,0.017l0.017,0.033l-0.017,0.033l-0.017,0.017v0.033l0.017,0.05l0.017,0.033l0.067,0.05 l0.017,0.05v0.033l-0.017,0.083l0.017,0.067l0.033,0.1l0.017,0.117l-0.017,0.067l-0.033,0.083v0.1v0.05l0.033,0.067v0.033 l-0.067,0.1l-0.033,0.05l-0.017,0.017l-0.017,0.05v0.05l0.017,0.05l0.017,0.017l0.017,0.05l0.033,0.067l0.167,0.067l0.067,0.05 l0.033,0.083v0.1l-0.017,0.067l-0.017,0.117l0.017,0.1l0.033,0.05l0.067,0.017l0.083,0.017l0.05,0.05v0.05l-0.017,0.05l0.017,0.067 l0.017,0.05l0.067,0.083l0.017,0.067v0.017v0.067v0.033l0.017,0.033l0.05,0.083l0.05,0.117v0.017l-0.017,0.033l-0.033,0.033 l-0.033,0.033l0.017,0.05l0.05,0.017l0.067-0.017h0.067l0.05,0.05l0.033,0.05l0.033,0.05l0.033,0.067l0.05,0.017l0.117,0.017 l0.067,0.017l0.033,0.05l-0.017,0.05l-0.05,0.1l0.1,0.117l0.05,0.067l0.017,0.067l0.1,0.1v0.017v0.05l-0.033,0.083l-0.017,0.1v0.067 l0.05,0.05l0.15,0.033l0.05,0.017L29,21.921l-0.684,0.017h-0.684h-0.668h-0.685h-0.684l-0.685-0.017h-0.684H23.54l-0.685-0.017 h-0.684l-0.685-0.017l-0.684-0.017h-0.684l-0.685-0.017l-0.684-0.017l-0.684-0.033l-0.685-0.017l-0.684-0.017l-0.668-0.017 l-0.684-0.033l-0.685-0.017l-0.684-0.033l-0.685-0.033l-0.684-0.033l-0.684-0.017l-0.685-0.033l-0.684-0.05L9.866,21.47 l-0.668-0.033L8.513,21.403L8.513,21.403z"/></svg>