<?xml version="1.0"?><svg xmlns="http://www.w3.org/2000/svg"  viewBox="0 0 30 30" width="60px" height="60px">    <path d="M18.744,2.382l1.021,0.34l0.048,0.243l0.049,0.535l-0.145,0.924l-0.243,0.729v0.34l-0.049,0.243 l0.049,0.146v0.146v0.097v0.097l-0.195,0.243L19.133,6.71l-0.146,0.243L18.938,7.05l-0.097,0.049l-0.146,0.049l0.049-0.535 l-0.049-0.146l-0.194,0.195l-0.049,0.097v0.243l-0.048,0.097l-0.049,0.097l-0.146,0.146L18.16,7.439l-0.049,0.243v0.486 l-0.049,0.243l-0.049,0.097l-0.146,0.194L17.82,8.8l0.049,0.049l0.049,0.389l0.097,0.049L17.917,9.53l0.049,0.243l0.097,0.146h0.34 l0.195,0.097h0.097l0.438-0.194h0.243l0.875,0.097l0.438,0.146l0.146-0.097l-0.146-0.146l-0.194-0.243l-0.098-0.243l0.098-0.097 l0.194,0.146l0.146,0.291l0.487,1.605v0.292l-0.098,0.291l-0.048,0.292l0.097,0.34l-0.097,1.069l-0.097,0.341l0.194,0.097 l0.146,0.195l0.048,0.292l-0.048,0.486l0.048,0.584v0.194l0.049,0.049v0.437l0.146,1.313l-0.098,0.292l-0.291-2.042l0.049-0.438 l0.048-0.243l-0.048-0.243l-0.098-0.292l-0.097-0.195l-0.097-0.097l-0.146,0.195v0.097l0.195-0.049l0.048,0.097l-0.048,0.195 l-0.098,0.146l-0.097,0.097l-0.146,0.048l-0.097,0.097v0.195l0.147-0.097l0.097,0.194l-0.048,0.292l-0.146,0.194l0.34,0.049 l0.097,0.049l-0.146,0.243l-0.048,0.195v0.194l0.048,0.243v0.049l-0.097,0.292l-0.048,0.243l-0.048,0.438v0.389l0.194,0.097 l0.147,0.048v0.195l-0.098,0.194l-0.049,0.098L20.932,19.4l-0.097,0.195L20.64,19.74l-0.049,0.146l-0.048,0.146l-0.098,0.146 l-0.097,0.146l-0.097,0.048l-0.097,0.146l-0.049,0.194l-0.048,0.195l0.145,0.243l0.195,0.194v0.195l-0.146,0.048l-0.049-0.097 l-0.048-0.097l-0.049-0.097l-0.437-0.146l-0.098,0.097l-0.145,0.049l-0.098-0.049l-0.097-0.097l0.097,0.486l0.098,0.194l0.145,0.049 l0.098,0.097v0.194l-0.049,0.292h-0.146l-0.098-0.049l-0.097,0.049l-0.145,0.146l-0.049,0.097v0.146l-0.048,0.194l0.048,0.146 l0.146-0.097l0.195,0.097l0.145,0.194l0.146,0.243l-0.243,0.146l-0.486,0.486l-0.243,0.146V24.36l0.048-0.195l0.049-0.194 l0.194-0.292l-0.291-0.146l-0.195,0.486l-0.097,0.243l0.097,0.146v0.049l-0.583,0.146L17.723,24.7l-0.146,0.243h0.195h0.146 l0.097,0.049h0.146l0.486-0.292v0.097l-0.243,0.243l-0.243,0.632l-0.194,0.146l-0.049,0.195l-0.243,1.021l-0.146-0.049h-0.097 l-0.048,0.097l-0.098,0.146l0.048-0.049v0.049h0.05v0.048l0.097-0.097h0.097l0.049,0.049l0.049,0.146l-0.049,0.097l-0.146,0.292 l-0.049,0.243l-0.048,0.048l-0.098,0.097l-0.195,0.097v0.097l0.049,0.097l0.048,0.097L17.09,28.93l-0.243,0.34l-0.34,0.34 l-0.486,0.341L15.923,30h-0.097l-0.146-0.097v-0.097l0.049-0.097v-0.194l-0.049-0.243l-0.049-0.243l0.049-0.243l0.243-1.119 l-0.049-0.486l-0.291-0.389l-0.146-0.049h-0.194l-0.341,0.049l-0.097,0.049l-0.146,0.048l-0.097,0.048h-0.097v-0.048v-0.097 l-0.097-0.097l-0.146-0.048l-0.146,0.097l-0.292,0.097l-0.146,0.146l-0.048,0.097l-0.098,0.097l-0.146,0.049V27.18l-0.195-0.049 l-0.097-0.097v-0.097v-0.194l-0.048-0.049l-0.098-0.097l-0.389-0.195h-0.145l-0.098-0.049l-0.146-0.195l-0.049-0.048l-0.389,0.048 h-0.146l-0.146-0.195l-0.097-0.146l-0.146-0.098h-0.097l-0.049,0.049l-0.048,0.049h-0.049l-0.097-0.049l-0.049-0.049l-0.049-0.048 l-1.167-0.827L9.214,24.7l-0.292-0.195l-0.146-0.389l0.049,0.049l0.048,0.048l0.097,0.048l-0.049-0.243v-0.583L8.874,23.29 l-0.389-0.292l-0.145-0.097v-0.097l0.145-0.243l0.146-0.146l0.048-0.097v-0.146v-0.146V21.88l0.098-0.146v-0.097l0.049-0.097 l0.097-0.049v-0.097l-0.048-0.341l0.146-0.389l0.243-0.389l0.292-0.34l0.487-0.341l0.34-0.195l0.243-0.049l0.147-0.048l0.292-0.243 l0.195-0.097v-0.049h0.048v-0.048h0.194l0.097-0.146l0.097-0.195l0.146-0.146l-0.195-0.146l-0.097-0.195v-0.146h0.146l0.098-0.195 l0.097,0.097l0.243-0.68l0.097-0.195l0.291-0.243l0.097-0.097l0.291-0.486l0.098-0.146l0.34-0.195l0.097-0.048l0.243-0.389 l0.048-0.049l0.243-0.097l0.292-0.146l0.243-0.243l0.049-0.291l-0.146-0.243l-0.291-0.195l-0.632-0.292l-0.34-0.291l-0.438-0.389 l-0.049-0.048l-0.098-0.097l-0.583-0.34l-0.243-0.437l-0.145-0.195l-0.341,0.243l-0.243-0.097l-0.194-0.243l-0.146-0.194 l-0.292-0.924l-0.243-0.291l-0.486-0.049l-0.243,0.146l-0.146-0.049l-0.146-0.291l-0.048-0.146L9.019,9.967V9.822L8.922,9.433 L8.874,9.335V9.238L8.825,9.092L8.776,8.946V8.8l0.049-0.389H8.776L8.727,8.314L8.679,8.217l0.048-0.048L8.776,8.12l0.049-0.097 L8.874,7.78l0.195,0.048L9.214,7.78L9.36,7.634V7.391V7.099l0.097-0.146l0.097-0.146l0.049-0.195L9.505,6.369L9.311,6.175 L9.165,6.078L9.068,5.98L9.019,5.883H8.971H8.922H8.874H8.825V5.835V5.786L8.776,5.737L8.679,5.592L8.582,5.494L8.533,5.446 l0.049-0.243L8.776,4.96l0.146-0.195l0.146-0.049L9.262,4.57l0.146-0.146l0.243-0.584H9.7V3.793L9.652,3.647L9.7,3.598l0.048-0.097 l0.097-0.097l0.049-0.049l0.097-0.097l0.34-0.778l0.098-0.584v-0.34V1.459V1.313l0.389-0.584V0.681l0.048-0.146V0.486l0.049-0.049 h0.098l0.097-0.146l0.097-0.048l0.195-0.097L11.548,0l1.021,0.341l1.022,0.34l1.021,0.341l1.022,0.34l1.069,0.341l1.022,0.34 L18.744,2.382L18.744,2.382z"/></svg>