<?xml version="1.0"?><svg xmlns="http://www.w3.org/2000/svg"  viewBox="0 0 30 30" width="60px" height="60px">    <path d="M 19.203125 3.3808594 L 18.482422 3.5410156 L 18.160156 5.265625 L 17.679688 5.9492188 L 18.041016 7.3125 L 17.277344 8.5976562 L 15.873047 7.0722656 L 16.515625 6.4296875 L 14.269531 5.4667969 L 13.144531 6.9921875 L 13.185547 7.8339844 L 15.59375 9.8007812 L 13.707031 11.365234 L 11.820312 10.322266 L 11.580078 9.6796875 L 8.4902344 10.28125 L 8.0097656 11.164062 L 8.0898438 11.847656 L 7.40625 12.007812 L 7.0058594 13.572266 L 8.1699219 14.255859 L 7.6074219 15.378906 L 6.6054688 16.220703 L 7.7695312 16.662109 L 7.8886719 18.347656 L 8.8925781 17.785156 L 8.4902344 19.150391 L 6.8867188 20.072266 L 4.2382812 20.152344 L 2.1035156 19.685547 L 0.78320312 19.015625 L -0.001953125 19.525391 L 4.6386719 21.517578 L 9.2929688 21.275391 L 11.099609 21.357422 L 11.941406 20.193359 L 13.226562 20.072266 L 14.951172 19.269531 L 16.154297 19.511719 L 16.195312 20.113281 L 14.669922 20.152344 L 13.386719 20.914062 L 13.025391 21.837891 L 15.271484 22.238281 L 16.556641 21.71875 L 17.839844 21.837891 L 18.160156 23.482422 L 19.164062 24.6875 L 20.287109 25.810547 L 21.892578 28.619141 L 21.892578 25.970703 L 21.169922 24.808594 L 29.998047 12.488281 L 28.994141 10.5625 L 28.111328 9.9609375 L 27.509766 8.796875 L 26.988281 8.1953125 L 26.748047 6.8710938 L 26.185547 6.4296875 L 25.945312 4.9863281 L 24.902344 4.9863281 L 22.976562 4.1035156 L 20.367188 4.2226562 L 19.203125 3.3808594 z"/></svg>