<?xml version="1.0"?><svg xmlns="http://www.w3.org/2000/svg"  viewBox="0 0 30 30" width="60px" height="60px">    <path d="M28,11.879l-0.016,0.095l-0.047,0.063l-0.048,0.048l-0.111,0.079l-0.016,0.032l-0.079,0.111l-0.032,0.095 l-0.016,0.032l-0.174,0.143l-0.079,0.127l-0.111,0.079l-0.063,0.063l-0.016,0.095l-0.048,0.158l-0.047,0.063l-0.048,0.048 l-0.111,0.238l-0.079,0.142l-0.412,0.38l-0.032,0.047L26.4,14.049v0.047v0.032l0.016,0.032v0.016L26.4,14.255L26.32,14.43 l-0.032,0.063l-0.095,0.127l-0.206,0.222l-0.063,0.032l-0.063,0.047l-0.19,0.063l-0.063,0.063l-0.047,0.048l-0.127,0.174 l-0.095,0.127l-0.047,0.079l-0.063,0.143l-0.048,0.079l-0.047,0.048l-0.048,0.048h-0.032l-0.048,0.016H24.99l-0.032,0.063 l-0.016,0.016l-0.032,0.016l-0.016,0.016v0.111l-0.032,0.079l-0.063,0.063l-0.016,0.095v0.048l0.016,0.079v0.063l-0.016,0.032 l-0.032,0.048v0.048v0.079l0.032,0.063l0.095,0.095l0.032-0.016l0.032-0.032l0.032-0.032h0.048l0.032,0.016l0.016,0.032v0.048 l0.016,0.032l0.063,0.032h0.048l0.063-0.016l0.063,0.016l0.032,0.016v0.032l-0.016,0.048v0.047l0.016,0.063v0.016l0.063,0.048 l0.032,0.048l0.048,0.079v0.032l-0.016,0.032l-0.016,0.016l-0.016,0.016l-0.016,0.047l-0.016,0.048l-0.016,0.048l-0.032,0.032 h-0.032h-0.047l-0.032-0.016l-0.047,0.032l-0.016,0.063l0.048,0.158l0.016,0.079l-0.016,0.048l-0.016,0.032l-0.032,0.032 l-0.016,0.032l-0.063,0.158l-0.063,0.127l-0.032,0.095l-0.048,0.079l-0.048,0.048l-0.063,0.032l-0.063,0.048v0.095v0.032 l-0.016,0.063l-0.079,0.349l-0.032,0.174l-0.095,0.412l-0.079,0.412l-0.095,0.412l-0.095,0.396l-0.095,0.412l-0.079,0.412 l-0.095,0.412l-0.095,0.396l-0.095,0.412l-0.079,0.412l-0.095,0.412l-0.095,0.396l-0.095,0.412l-0.079,0.412l-0.095,0.412 l-0.095,0.396l-0.539-0.127l-0.555-0.111l-0.539-0.127l-0.555-0.127l-0.539-0.127l-0.555-0.127l-0.539-0.143l-0.555-0.127 l-0.539-0.127l-0.555-0.143l-0.539-0.127L16.672,24.3l-0.555-0.127l-0.539-0.143l-0.539-0.143l-0.555-0.127l-0.76-0.206l-0.76-0.19 l-0.76-0.206l-0.76-0.206l-0.761-0.206l-0.76-0.206l-0.76-0.206l-0.76-0.222l-0.76-0.206l-0.745-0.222l-0.76-0.222l-0.761-0.206 l-0.76-0.222L3.87,20.799l-0.76-0.222l-0.745-0.222l-0.095-0.032l-0.016-0.095l-0.143-0.19l-0.079-0.19L2,19.817v-0.047l0.048-0.428 V19.23L2,19.183l0.016-0.032l0.016-0.095l0.016-0.143v-0.016l-0.032-0.032v-0.047l0.032-0.016l0.016-0.016l0.048-0.063l0.016-0.048 l0.032-0.063l0.032-0.127v-0.111l0.016-0.048l0.032-0.063l0.111-0.127l0.016-0.047l0.063-0.111l0.016-0.206l0.032-0.127l0.016-0.063 L2.46,17.535l-0.032-0.032l-0.032-0.048L2.38,17.377V17.25l-0.016-0.063l-0.048,0.032l-0.016-0.063l0.016-0.222v-0.048l-0.016-0.047 L2.254,16.79l0.079-0.032l0.238-0.301l0.174-0.206l0.048-0.047l0.048-0.048l0.063-0.048l0.032-0.079l0.032-0.079l0.063-0.174 l0.269-0.491l0.063-0.158l0.016-0.063v-0.016L3.426,15l0.032-0.032l0.063-0.016l0.032-0.016l0.032,0.016l-0.048,0.206l0.032,0.063 h0.016l0.032-0.095v-0.047v-0.048l0.032,0.016h0.032l0.016-0.016L3.711,15l-0.016-0.047l0.048-0.079l0.095-0.079l0.079-0.016 l0.048,0.016l-0.016,0.047l-0.016,0.048l0.016,0.063L3.965,15l0.047,0.047l0.063,0.032l0.048-0.016L4.06,14.889v-0.095v-0.032 l-0.016-0.032v-0.016l0.016-0.048l0.048-0.063l-0.111,0.032L3.87,14.715L3.743,14.81l-0.095,0.095l-0.016-0.047l0.079-0.079 l0.333-0.475l0.016-0.032l0.063-0.079l0.079-0.174l0.032-0.047l0.048-0.048l0.095-0.048l0.032-0.032l0.048-0.048l0.032-0.047 l0.032-0.032h0.048l-0.016,0.016v0.016v0.032l0.016,0.016l0.127,0.048v-0.032l-0.016-0.048l-0.063-0.063l-0.048-0.048H4.503 l-0.048,0.063l-0.063,0.079l-0.032,0.048l-0.016-0.079l0.032-0.079l0.095-0.158l0.206-0.444l0.079-0.158l0.016-0.063l0.048-0.158 l0.016-0.032h0.048l0.032-0.047v-0.016v-0.111l0.016-0.063v-0.032l0.016-0.016l0.063-0.127l0.143-0.317l0.063-0.253l0.063-0.127 V11.53v-0.032v-0.032l0.016-0.016l0.032-0.032l0.016-0.016l0.127-0.222l0.032-0.063l0.032-0.063l0.048,0.016l0.095,0.079 L5.66,11.039l-0.032-0.016H5.565l-0.032-0.047v-0.063l0.032-0.095l0.222-0.475h0.032l0.048,0.047l0.048,0.048l0.032-0.063V10.31 H5.913l-0.048,0.016L5.85,10.31l-0.016-0.063v-0.032l0.016-0.047V10.12v-0.048l0.079-0.174l0.016-0.079L5.961,9.74l0.063-0.238 l0.032-0.063l0.063-0.047l0.048-0.063l0.032-0.079l0.016-0.032h0.032l0.016-0.032l0.032-0.063V9.09L6.278,9.074l0.048-0.079 l0.048-0.111L6.452,8.71L6.436,8.662l0.016-0.047L6.5,8.551l0.079-0.063l0.048-0.095l0.048-0.079L6.69,8.251l0.016-0.095V8.108 L6.737,8.06l0.048-0.143l0.016-0.016h0.016h0.016V7.886l0.016-0.032L6.88,7.744l0.016-0.095L6.88,7.617L6.848,7.585L6.801,7.569 l0.016-0.032H6.88l0.032-0.032l0.032-0.063l0.016-0.048l0.016-0.048l0.016-0.016L7.007,7.3l0.016,0.016L7.007,7.332L6.959,7.442 l0.063-0.032L7.07,7.363l0.063-0.032L7.038,7.236L7.023,7.157L7.07,6.983L7.133,6.92l0.048-0.127l0.032-0.032L7.181,6.888 L7.165,6.999l0.016,0.048l0.048,0.032l0.048,0.048h0.016l0.032-0.032l0.048-0.032l0.016-0.032L7.324,6.999L7.308,6.951l0.016-0.079 l0.032-0.079H7.26L7.228,6.714L7.197,6.682l0.016-0.048l0.079-0.127l0.032-0.079l0.079-0.047l0.032-0.032l0.032-0.016h0.048 l0.032-0.016l0.032-0.032H7.561H7.545H7.514L7.482,6.254H7.45L7.419,6.286L7.387,6.302L7.355,6.333l0.048-0.111V6.112L7.387,6.001 L7.324,5.937l0.111-0.111l0.048-0.079l0.079-0.222L7.577,5.43V5.335L7.545,5.256l0.032-0.032l0.032-0.016H7.64L7.72,5.161 l0.016-0.032l0.032-0.032l0.048-0.079l0.032-0.095l0.016-0.095l0.016-0.095V4.575L7.846,4.226l0.016-0.079H7.91L7.894,4.163 L7.878,4.194l0.063,0.032L8.005,4.29l0.063,0.079L8.1,4.448l0.032,0.048l0.095,0.016l0.032,0.032v0.063L8.243,4.654L8.227,4.717 l0.032,0.047V4.717L8.29,4.67l0.016-0.016h0.047V4.622L8.338,4.591L8.306,4.511L8.29,4.496L8.258,4.48L8.227,4.464L8.211,4.432 L8.195,4.4h0.063l0.095,0.016L8.417,4.4l0.047-0.016L8.48,4.432l0.032,0.095l0.032,0.032l0.048,0.016l0.254,0.016h0.047L8.876,4.527 L8.86,4.511h0.032l0.095,0.032h0.048l0.079-0.032l0.047-0.016l0.063,0.016l0.032,0.016l0.016,0.032l0.079,0.253L9.367,4.86 l0.032,0.048L9.669,5.05l0.158,0.048l0.048-0.016l0.095-0.079l0.063-0.016l0.174,0.016l0.063,0.032l0.016,0.032l0.079,0.111 l0.032,0.032l0.079,0.032l0.079,0.063l0.063,0.079l0.048,0.079l0.047,0.079l0.016,0.095l0.016,0.095L10.73,5.89l0.016,0.048 l0.047,0.048l0.016,0.063v0.063l-0.032,0.19l0.016,0.143l-0.032,0.079L10.73,6.603l-0.032,0.079l0.032,0.127v0.048l-0.016,0.032 l-0.032,0.079l-0.016,0.048l-0.016,0.143l-0.016,0.095v0.079l0.032,0.063l0.063,0.079l0.048,0.048l0.206,0.111h0.127l0.032,0.016 l0.079,0.063l0.127,0.079l0.063,0.079l0.238,0.063l0.206,0.143h0.047l0.063-0.016h0.222l0.539-0.048l0.127-0.047l0.238-0.095 l0.127-0.048l0.095,0.016l0.19,0.095l0.428,0.032l0.792,0.317l0.127,0.079l0.032,0.063l0.016,0.063v0.079l0.016,0.079L14.96,8.71 h0.063l0.269-0.048h0.016l0.047,0.032l0.032,0.016h0.016l0.095,0.016l0.032,0.016l0.032,0.032l0.111,0.048L15.8,8.805l0.048,0.016 h0.016l0.143-0.063h0.016h0.222l0.142-0.016l0.016-0.016l0.016-0.032l0.095-0.016h0.032l0.396,0.19h0.032l0.063-0.016h0.032 l0.142,0.063h0.032h0.063l0.127-0.048h0.032l0.048,0.016l0.063,0.032l0.048,0.016l0.095-0.016l0.079-0.032l0.111-0.063l0.048-0.016 h0.143l0.444-0.063l0.792,0.063l0.127-0.063l0.111-0.079l0.048-0.016l0.079,0.016l0.19,0.048l0.142,0.016l0.254,0.016L20.965,8.9 l0.158-0.032l0.143-0.111h0.032l0.127,0.032l0.348,0.095l0.365,0.079l0.348,0.095l0.365,0.079l0.348,0.079l0.365,0.095l0.348,0.079 l0.365,0.079l0.348,0.079l0.365,0.079l0.348,0.095l0.365,0.079l0.348,0.079l0.365,0.079l0.348,0.079l0.38,0.079v0.016v0.143 l0.032,0.238l0.127,0.206l0.016,0.063l0.016,0.063l0.19,0.079l0.016,0.032l0.048,0.079l0.143,0.143l0.111,0.048l0.032,0.047 l0.032,0.048l0.016,0.095l0.016,0.158l0.047,0.222L28,11.879L28,11.879z"/></svg>