<?xml version="1.0"?><svg xmlns="http://www.w3.org/2000/svg"  viewBox="0 0 30 30" width="60px" height="60px">    <path d="M7.997,25.816H7.105L6.19,25.839l-0.023-0.704v-0.728l-0.024-0.704l-0.023-0.727l-0.023-0.375l-0.047-0.024 l-0.07-0.047l-0.141-0.093l-0.094,0.047H5.627l-0.094-0.024l-0.164-0.094l-0.07,0.023l-0.07,0.07l-0.07,0.024l-0.235-0.117H4.83 l-0.047,0.07l-0.023,0.094l-0.047,0.07l-0.117-0.07l-0.094,0.07l-0.094-0.023l-0.047-0.07l0.07-0.047v-0.047l-0.117,0.024 l-0.141-0.024L4.079,22.32l-0.023-0.117l-0.047-0.117l-0.094-0.024v-1.29l0.024-1.314v-1.29v-1.314V15.54l0.023-1.29v-1.314v-1.29 L3.845,10.8L3.727,9.979L3.61,9.134L3.469,8.313L3.352,7.469L3.235,6.647L3.117,5.803L3,4.982l1.314-0.023l1.314-0.024l1.313-0.046 l1.314-0.024l1.337-0.023l1.314-0.047l1.314-0.047l1.314-0.047l1.314-0.047l1.314-0.071l1.314-0.047l1.314-0.071l1.314-0.07 l1.314-0.07l1.314-0.07l1.314-0.07l0.328-0.024l0.023,0.024l0.023,0.047l0.071,0.141v0.023h0.023l0.023,0.024l0.024,0.023h0.023 V4.49v0.094l0.024,0.024v0.023l0.023,0.023v0.023l0.164,0.094l0.023,0.023l0.023,0.023l0.023,0.023l0.023,0.023v0.023l0.024,0.023 v0.047v0.023l-0.024,0.141V5.17l0.024,0.164v0.047v0.024v0.023l-0.024,0.047v0.023l-0.023,0.023h-0.024l-0.023,0.023l-0.117,0.047 l-0.023,0.023L24.653,5.64v0.023L24.63,5.78v0.023l-0.023,0.047v0.024h-0.023l-0.141,0.094l-0.117,0.07l-0.047,0.023h-0.023 l-0.047,0.047l-0.024,0.023l-0.023,0.023v0.024l-0.023,0.023v0.07v0.023V6.32l-0.024,0.047L24.09,6.39v0.024h-0.023L24.02,6.437 l-0.094,0.023l-0.023,0.024H23.88v0.023l-0.047,0.07l-0.047,0.047l-0.07,0.164l-0.047,0.047l-0.141,0.352l-0.023,0.047v0.023 l0.023,0.024l0.024,0.023l0.352-0.047l0.68-0.047l0.68-0.07l0.704-0.047l0.68-0.07h0.023v0.047l0.094,0.141l0.141,0.117L27,7.517 l-0.047,0.117l-0.07-0.024l-0.141-0.095h-0.117l-0.07,0.07l-0.07,0.07l-0.047,0.117l0.141,0.047l0.117,0.094l0.071,0.094L26.46,8.29 l-0.704,0.375l-0.07,0.094v0.094l0.094,0.141l0.141,0.164v0.07l-0.07,0.117l-0.094,0.07l-0.023,0.047l0.023,0.07l0.094,0.117 l0.07,0.141l-0.047,0.071l-0.117,0.047l-0.117,0.024L25.522,9.98l-0.047,0.047l-0.024,0.117l0.024,0.141l-0.023,0.094l-0.047,0.117 l-0.07,0.094l-0.258,0.235l-0.047,0.094l-0.023,0.141l0.023,0.282l0.047,0.117l0.094,0.282l0.07,0.258l0.023,0.235l-0.094,0.164 h-0.117l-0.117-0.047l-0.117,0.023l-0.047,0.094v0.117l-0.024,0.117l-0.047,0.094l-0.07,0.07l-0.188,0.117l-0.094,0.047 l-0.094,0.047l-0.07,0.047l0.047,0.07l0.024,0.024l0.164,0.164v0.258l-0.141,0.211l-0.235,0.164l-0.516,0.235l-0.07,0.094 l0.047,0.094l0.047,0.117l0.047,0.117l-0.07,0.07l-0.047,0.07l-0.094,0.023h-0.117l-0.094-0.047l-0.07,0.023l-0.07,0.117 l-0.07,0.235l-0.023,0.235l0.117,0.422l-0.023,0.492l0.024,0.211l-0.047,0.188l-0.141,0.188l-0.164,0.094l-0.117,0.047l-0.211,0.047 h-0.047l-0.047-0.023l-0.07-0.047l-0.023,0.047v0.047l0.023,0.07l0.047,0.117l0.023,0.071l-0.023,0.047l-0.047,0.117l-0.023,0.071 l-0.024,0.023H22.12l-0.07-0.047l-0.07,0.024h-0.023l-0.023,0.047l-0.164,0.446l-0.071,0.047l-0.07,0.047l-0.235,0.164l-0.07,0.047 l0.023,0.188l0.352,0.141l0.024,0.235l-0.047,0.117l-0.094,0.047l-0.094,0.023H21.37l-0.094,0.023l-0.282,0.164l-0.258,0.07 l-0.047,0.047l0.023,0.07l0.047,0.047l0.07,0.024l0.071,0.023l0.094,0.164l-0.07,0.164l-0.07,0.141l0.023,0.188l0.07,0.094 l0.047,0.117l-0.07,0.117l-0.047,0.047h-0.141l-0.047,0.023l-0.047,0.024l-0.094,0.117l-0.047,0.023l-0.024,0.047l-0.188,0.282 l-0.094,0.07l-0.071,0.047v0.047l0.094,0.094l0.211,0.094l0.07,0.07l0.047,0.164l-0.047,0.117l-0.07,0.07l-0.117,0.023h-0.117 l-0.07,0.047l0.023,0.094l0.07,0.094l0.094,0.047l0.094,0.023l0.094,0.094l0.188,0.164v0.094l0.024,0.188l-0.024,0.164v0.117 l-0.188,0.258l-0.047,0.141l0.07,0.094l0.071,0.023l0.141,0.047l0.07,0.047l0.047,0.07v0.305l0.07,0.188l0.023,0.117l-0.023,0.094 l-0.07,0.047l-0.094,0.047l-0.094,0.047l-0.047,0.071v0.633h-0.07l-0.892,0.047l-0.892,0.047l-0.892,0.023l-0.915,0.047 l-0.892,0.047l-0.892,0.023l-0.892,0.047l-0.915,0.024l-0.892,0.047l-0.892,0.024l-0.892,0.023l-0.915,0.024l-0.892,0.047 L7.997,25.816L7.997,25.816L7.997,25.816z"/></svg>