<?xml version="1.0"?><svg xmlns="http://www.w3.org/2000/svg"  viewBox="0 0 30 30" width="60px" height="60px">    <path d="M24.867,16.895v0.025h-0.025l0.025,0.101l-0.051,0.278h-0.05l-0.025-0.126v-0.126l0.051-0.101 L24.867,16.895l2.274-6.494l-0.404-0.303L26.332,9.82l-0.404-0.303l-0.404-0.278l-0.404-0.303l-0.404-0.278l-0.404-0.303 l-0.43-0.278l-0.404-0.303l-0.404-0.278l-0.404-0.303l-0.404-0.278L21.86,6.611l-0.379-0.303l-0.202-0.126l-0.126-0.025h-0.152 l-0.202,0.025h-0.051l-0.177,0.025l-0.253,0.051L19.99,6.308l-0.404,0.051l-0.43,0.076l-0.48,0.051l-0.48,0.076l-0.48,0.076 l-0.48,0.076l-0.43,0.051l-0.404,0.051l-0.329,0.051l-0.253,0.051h-0.177L15.594,6.94l-0.202,0.025h-0.051L15.316,6.94L15.29,6.889 V6.839l-0.101-0.657V6.131l-0.025-0.025l-0.278-0.253L14.532,5.5l-0.228-0.202L14.28,5.272h-0.025l-0.025,0.025l-0.404,0.379H13.8 h-0.025l-0.025-0.025l-0.025-0.025l-0.025-0.025l-0.025-0.025V5.55V5.525V5.5V5.474l0.05-0.126V5.297V5.272l-0.025-0.025V5.222 l-0.025-0.025V5.171l-0.025-0.025l-0.025-0.025h-0.051h-0.076l-0.328,0.025l-0.253,0.025l-0.328,0.051l-0.404,0.025l-0.404,0.051 l-0.455,0.051l-0.48,0.025l-0.48,0.051l-0.48,0.051l-0.48,0.051l-0.43,0.05L8.569,5.601L8.216,5.626L7.938,5.676H7.71L7.559,5.702 H7.508L7.129,5.727L6.75,5.828H6.725H6.7V5.803l-0.05-0.025V5.752L6.624,5.727H6.573L6.548,5.752L6.472,5.828L6.447,5.853 L6.422,5.904v0.101L6.397,6.03L6.346,6.055L6.169,6.081H6.144L6.093,6.131L6.068,6.157L6.043,6.182L6.018,6.207L5.841,6.232H5.79 L5.537,6.359L5.386,6.485L5.335,6.51H5.285H5.234L5.184,6.536L5.158,6.561L5.133,6.611v0.076L5.108,6.712l-0.05,0.051L4.931,6.864 L4.881,6.889L4.83,6.94H4.805H4.779L4.754,6.915L4.729,6.864L4.552,6.915l-1.44,0.733H3.011v0.025v0.076L2.986,7.824L2.96,7.9 L2.91,7.976L2.783,8.026L2.707,8.077L2.505,8.254L2.455,8.329L2.43,8.431L2.379,8.658L2.354,8.734L2.278,8.81L2.202,8.885 L2.152,8.961L2.126,9.037L2.101,9.088v0.051v0.051v0.05L2.076,9.29L2,9.416v0.278l0.202,0.227l0.505,0.253l0.202,0.051l0.101-0.051 h0.051l0.025,0.076l0.05,0.076l0.202,0.101l0.126,0.126l0.126,0.051l0.101,0.151l0.101,0.076l0.177,0.076l0.253-0.051l0.354-0.051 l0.253,0.126l0.076,0.152l0.051,0.177l0.101,0.202l0.051,0.05l0.379,0.43l0.05,0.126L5.714,12.6l0.051,0.101h0.051l0.101,0.126 l0.126,0.025l0.076,0.05l0.076,0.076l0.051,0.05l0.076,0.177l0.051,0.076l0.126,0.051l0.076,0.051l0.076,0.177l0.076,0.152 l0.051,0.152l0.076,0.076h0.101h0.101l0.101,0.076l0.101,0.126l0.151,0.126l0.177,0.076l0.177,0.051l0.227,0.101l0.253,0.152 l0.303,0.202L8.696,15l0.126,0.278l0.101,0.126l0.051,0.126L9.1,15.708l0.101,0.101l0.152,0.076l0.126,0.025l0.253,0.051 l0.126,0.025l0.101,0.076l0.278,0.253l0.126,0.101l0.227,0.101l0.101,0.101l-0.025,0.152l0.025,0.025l0.076,0.101l-0.076,0.025 l-0.025,0.051l0.101,0.152l-0.076,0.051l0.051,0.076l0.278,0.253l0.05,0.025v-0.025l0.025-0.051h0.051l0.076,0.025h0.051v0.051 l-0.076,0.051l0.101,0.05l0.051,0.076v0.076l-0.076,0.051l0.101,0.126l0.101,0.076l0.101,0.025h0.126l0.051,0.025l0.051,0.253 l0.051,0.101l0.202,0.126l0.505,0.126l0.253,0.076l0.151,0.126l0.101,0.051h0.126l0.076,0.025l0.076,0.101l0.076,0.126l0.025,0.101 v0.227v0.126l0.076,0.051l0.354,0.43l0.076,0.177l0.025,0.101l0.025,0.076l0.051,0.101l0.076,0.076l0.025,0.101l0.025,0.076 l-0.025,0.051v0.101l-0.025,0.051l0.025,0.025l0.025,0.025l0.05,0.025l0.025,0.05l0.025,0.051v0.126l-0.025,0.101v0.101l0.076,0.076 l0.076,0.076l0.126,0.051l0.101,0.025l0.177,0.025h0.05l0.051,0.025l0.051,0.051l0.076,0.076l0.051,0.025v-0.025l0.151,0.051 l0.025,0.025l0.025,0.051l0.025,0.076l0.025,0.051l0.076,0.025l0.101,0.025l0.025,0.101l0.025,0.202l0.253,0.505h0.076l0.076,0.076 l0.076,0.101l0.025,0.126v0.076l-0.025,0.101v0.076v0.051l0.025,0.177v0.051l-0.025,0.101v0.076v0.051l0.126,0.177l0.025,0.025 l-0.025,0.025v0.025l0.025,0.051l0.025,0.025l0.076,0.025l0.025,0.025l0.202,0.177h0.051l0.303-0.076l0.126,0.025l0.228,0.051 l0.051,0.051l0.05,0.076l0.076,0.051l0.101,0.025h0.126l-0.051-0.101v-0.076l0.025-0.076l0.202-0.328l0.025-0.126v-0.152 l0.025-0.051l0.101-0.152l0.025-0.076v-0.101l-0.025-0.076l0.025-0.076l0.025-0.076l0.051,0.253l-0.126,0.43v0.228l0.404-0.354 l0.126-0.278l0.126-0.177v-0.051L18.5,23.338l-0.051-0.051l-0.076-0.051h-0.101l-0.076,0.076l-0.228-0.278l-0.051-0.051 l-0.076-0.025l-0.025-0.076l0.051-0.177l-0.076-0.152l-0.152-0.202l-0.101-0.227l0.025-0.152l-0.025-0.051l-0.05-0.05l-0.101-0.177 l-0.076-0.051V21.62l0.101-0.025l0.051,0.051l0.051,0.076l0.051,0.076l0.101,0.025h0.076v0.025l-0.051,0.126l0.025,0.126 l0.101,0.228l0.202,0.328l0.404,0.278l0.076,0.025l0.05-0.025l0.025-0.101l-0.025-0.076l-0.076-0.101l-0.025-0.051l-0.051-0.43V22.1 l0.025-0.101h-0.025v-0.025l-0.051,0.025h-0.025v-0.051l0.126-0.025l0.051,0.101l-0.025,0.48l0.051,0.025l0.177-0.101l-0.025,0.404 l0.025,0.152l0.076,0.177l0.051,0.025l0.202-0.152h0.025h0.101l0.051-0.025l0.404-0.354l0.025-0.101l-0.101-0.05h0.025l0.025-0.025 l-0.025-0.025h0.051h0.076l0.025-0.101l0.025-0.152v-0.126h-0.051v0.051l-0.05,0.05l-0.051,0.101l-0.076,0.076l-0.101,0.101 l-0.151,0.076l-0.101,0.051v-0.076l0.076-0.126l0.101-0.101l0.227-0.152v-0.126l-0.076-0.101l-0.152-0.025l-0.505,0.025l0.126-0.076 l0.152-0.051l0.152-0.051h0.151v-0.051l-0.076-0.025l-0.152-0.051h-0.076l-0.051,0.025l-0.101,0.025l-0.076,0.025l-0.48-0.025 l-0.101,0.076v-0.051v-0.025l0.025-0.076l0.051-0.051l0.177-0.025h0.379l0.126-0.025l-0.025-0.051l-0.051-0.076l-0.025-0.051v-0.076 l0.025-0.025l0.051,0.076l0.051,0.051l0.227,0.152h0.076h0.076h0.101l0.101,0.025l0.051,0.05l0.051,0.051h0.101l0.076-0.051 l0.025-0.101v-0.126l-0.025-0.101l0.076,0.025l0.025,0.076l0.025,0.076l0.025,0.051l0.101,0.051l0.025-0.025l0.051-0.051l0.05-0.025 l0.329-0.354l0.05-0.025l0.051-0.051l0.025-0.051l0.025-0.076h-0.025h-0.025l-0.278-0.202l-0.076-0.076l0.076-0.025l0.101,0.051 l0.202,0.177l0.151,0.076l0.076-0.025l0.051-0.101l0.126-0.051l0.101-0.05l0.253-0.126l0.278-0.076l0.025-0.076l-0.05-0.051 l-0.126-0.05V20.18l0.025-0.051h0.076h0.126l0.126-0.025l0.051-0.025l0.278-0.278l0.076-0.152l-0.025-0.177h-0.025v0.051H22.34 l-0.076-0.051l-0.051-0.05l-0.05-0.025l-0.202-0.025l-0.076-0.051L21.81,19.27l-0.025-0.101l0.076,0.05l0.076,0.025h0.051v-0.101 l-0.025-0.101l-0.076-0.152l-0.025-0.076l0.025-0.025l0.228,0.101l-0.025-0.025v-0.051l0.025-0.051l0.025-0.025l0.101,0.076 l-0.076,0.177l-0.051,0.126l0.051,0.025l0.101,0.025l0.076,0.05l0.051,0.076l0.076,0.025l0.101-0.051l0.152-0.101l0.278-0.202 l0.051-0.126l0.076-0.177l0.076-0.126l0.126-0.076l0.025-0.025v-0.051l0.025-0.051l0.051-0.025l0.025-0.025l0.253-0.202l0.025-0.05 l0.025-0.101l-0.076,0.025l-0.025,0.025l-0.051,0.051v0.05l-0.101-0.076l-0.025-0.076v-0.076l0.076-0.303l0.05-0.101l0.076-0.05 l0.151-0.126l0.076-0.051l0.076,0.051l0.025,0.05l0.076,0.126l0.051,0.051l0.051-0.051l0.101-0.076l0.126-0.051l0.101-0.025 l0.152-0.051l0.025-0.101l-0.025-0.101l0.025-0.101l0.076-0.126l0.227-0.151l0.051-0.101V16.44l-0.101-0.025l-0.126-0.025 l-0.076-0.076h0.126h0.126l0.101,0.051l0.051,0.101l0.025-0.025h0.025l0.025-0.05l0.025-0.025l-0.076-0.051l-0.051-0.076v-0.051 l0.076-0.05l0.025,0.025l0.076,0.101l0.051,0.05l0.025-0.126l0.051-0.076l0.076-0.051l0.051-0.076h-0.076l-0.025-0.025l-0.076-0.126 l-0.025-0.051v-0.076l-0.025-0.051l-0.202-0.025l-0.126-0.051l-0.126-0.076l-0.05-0.126l-0.025-0.126l0.025-0.152l0.05-0.126 l0.177-0.379l0.076-0.126l0.101-0.076l0.025,0.025l-0.05,0.076l-0.152,0.253l-0.101,0.328l-0.025,0.152l0.051,0.076l0.202-0.05 l0.076,0.025l0.076,0.076l0.05,0.126l0.051,0.228l0.051,0.076h0.025v-0.152v-0.758l0.025-0.101l-0.051-0.025l0.076-0.278 l0.404-0.834l0.379-0.783l0.303-0.48l0.455-0.556l0.505-0.455l0.202-0.126L28,11.185l-0.025-0.051l-0.025-0.025l-0.051-0.025h-0.051 v-0.051l0.126-0.076l-0.404-0.278l-0.43-0.278L24.867,16.895z"/></svg>