<?xml version="1.0"?><svg xmlns="http://www.w3.org/2000/svg"  viewBox="0 0 30 30" width="60px" height="60px">    <path d="M22.296,23.017h0.021v0.042l-0.021,0.021h-0.021l-0.063,0.021l-0.042-0.021l-0.021-0.063l-0.021-0.021 h-0.042l-0.021,0.021h-0.021l-0.021-0.021l-0.021-0.021l-0.021-0.021v-0.021v-0.021h-0.021l-0.063,0.021l-0.063,0.021l-0.042-0.021 l-0.084-0.084l-0.021-0.063l0.042-0.021h0.042h0.042l0.063-0.021l0.105,0.042l0.021,0.021l0.021,0.021h0.042l0.063,0.021 l0.042,0.021l0.021,0.042v0.021h-0.063v0.021l0.063,0.042l0.042,0.021l0.021-0.021h0.021v-0.021h0.021v0.021V23.017L22.296,23.017z M14.205,22.788l0.042,0.042l-0.042,0.083l-0.167,0.105l-0.063,0.042l-0.021,0.105v0.063v0.042l-0.042,0.021H13.85l-0.167,0.042 l-0.293-0.167l-0.042-0.021l-0.042-0.042l-0.481-0.188l-0.084-0.063v-0.084l0.105-0.083l0.084-0.042l0.084-0.021l0.125-0.042 l0.021-0.021l0.042-0.063l0.021-0.021h0.063l0.251,0.042l0.083,0.042l0.126,0.126l0.146,0.042v0.021l0.146,0.021h0.105 L14.205,22.788z M24.136,18.899l0.042,0.021l0.042,0.021l-0.042,0.084l-0.125,0.083l-0.146,0.063l-0.084-0.063h0.042l0.042-0.021 l0.042-0.021l-0.042-0.063h-0.063l-0.084,0.042l-0.083,0.042l-0.146-0.021h-0.084l-0.063,0.042l-0.042-0.021l-0.083-0.021 l-0.042-0.021l-0.021-0.042v-0.042V18.92v-0.042l-0.042-0.105H23.07l-0.146,0.063h-0.105l-0.167-0.125l-0.105-0.042l-0.063,0.021 l-0.084,0.021l-0.042,0.021L22.15,18.69l-0.042-0.042l-0.126-0.188l-0.021-0.063l-0.042-0.021l-0.23-0.167l-0.167-0.063l-0.23-0.042 l-0.209-0.021l-0.146,0.042l-0.105,0.063l-0.105,0.125l-0.146,0.272l-0.105,0.167l-0.334,0.314l-0.105,0.167v0.251l0.105,0.188 l0.167,0.126l0.188,0.063l0.334,0.021L21,19.965l0.293,0.083l0.125-0.021l0.167-0.063l0.314-0.042l0.105-0.042l0.083-0.042 l0.314-0.251l0.105-0.146l0.084-0.188l0.105,0.021l0.042,0.021l0.021,0.084l0.042,0.063l0.063,0.042l0.063,0.021l0.063,0.021h0.042 l0.021-0.021v-0.042l0.105-0.146l0.021-0.063l0.042-0.063v-0.084h0.042l0.042,0.063l-0.042,0.084l-0.063,0.125l-0.021,0.063 l0.021,0.021h0.021l0.021,0.021v0.021L23.3,19.38v-0.021h0.021h0.084h0.021l0.063-0.063l0.021-0.021v-0.042v-0.021l-0.042-0.021 l-0.021,0.021v0.021h-0.042l-0.042-0.021l0.021-0.042l0.125-0.042l0.063,0.021l0.084,0.084l0.063,0.021l-0.063,0.105l-0.063,0.063 l-0.042,0.063v0.126l-0.146,0.063l-0.042,0.042v0.042l0.021,0.063v0.042l-0.042,0.042l-0.105-0.083l-0.105-0.042l-0.125,0.021 l-0.105,0.042l-0.063,0.084l-0.021,0.083l0.021,0.084l0.042,0.105l0.042,0.105l0.063,0.042l0.084,0.021h0.125l0.063-0.042 l0.167-0.083l0.042,0.021L23.446,20.3l-0.063,0.105v0.042l0.105,0.125l0.105,0.084l0.105,0.021h0.105l0.105-0.021l0.063-0.063 l0.063-0.105l0.042-0.126l0.021-0.125l-0.021-0.188l0.021-0.063l0.063-0.063l0.063-0.021l0.083-0.021l0.042-0.042l0.042-0.042 l0.021-0.021v-0.042l0.021-0.042l0.021-0.042l-0.021-0.063l0.021-0.042l0.021-0.021l0.042,0.021l0.021,0.021h0.042l0.105,0.042 l0.042,0.021v0.042H24.7v0.042h0.021v0.021h0.042l0.021-0.021l0.105-0.084l0.021-0.021l0.063,0.021l0.042,0.042v0.042l-0.063,0.042 l-0.063,0.021h-0.126L24.7,19.819l-0.021,0.063v0.042l0.021,0.042l0.021,0.042l-0.042,0.042l-0.042,0.021l-0.021,0.021l0.084,0.021 h0.042l0.146-0.021h0.063l0.083,0.105l-0.063,0.084L24.889,20.3l-0.042-0.084L24.742,20.3v0.021l0.063,0.084l0.042,0.021v0.021 v0.021h0.021l0.021-0.042l0.063-0.042l0.042-0.021h0.042l0.021,0.063l-0.021,0.042l-0.083,0.063v0.042l0.063-0.021l0.021-0.021 l0.042-0.042l0.021,0.021l0.126,0.042l-0.084,0.063l-0.021,0.021l0.021,0.021h0.021v0.021l0.021,0.021l-0.063,0.021l-0.042,0.021 l-0.021,0.042l-0.021,0.042l0.042,0.063l0.021,0.063l0.042,0.042l0.063,0.042H25.16l-0.126-0.021h-0.021l-0.042,0.042l-0.042,0.105 l-0.042,0.042l0.021-0.042v-0.063v-0.042h-0.063l-0.021-0.021l-0.063-0.105l-0.042-0.042l-0.042-0.021l-0.063-0.021h-0.063 l0.021,0.105l-0.042,0.063l-0.063,0.063l-0.063,0.083l-0.042,0.105l-0.021,0.021l-0.063,0.021l-0.042,0.021l-0.105-0.021 l-0.042,0.021l-0.063,0.084v0.105l0.042,0.084l0.042,0.063h0.105l0.105-0.021h0.105L24.47,21.7h-0.021h-0.021h-0.021l-0.021,0.021 l0.063,0.021l0.167,0.126v0.042h-0.083l-0.063-0.042l-0.063-0.042l-0.042-0.042l-0.146-0.021h-0.146l-0.125-0.021l-0.23-0.125 l-0.146-0.042l0.042,0.063l0.126,0.063l0.063,0.042v0.021l-0.042,0.021l0.084,0.042v0.021l0.021,0.042l0.125,0.105l-0.083,0.042 l-0.397-0.084l-0.167,0.042l0.125,0.021l0.042,0.042l0.042,0.042h-0.063l0.021,0.063l0.146,0.146l0.021,0.063l0.042,0.126 l0.042,0.042l0.042,0.042l0.125,0.021l0.125,0.063l0.105-0.021l0.063,0.042h-0.021v0.021v0.021l0.084,0.021l0.125,0.063h0.084v0.042 l-0.042,0.063v0.083l0.021,0.042l0.063-0.042v0.084l-0.042,0.042h-0.063l-0.021,0.021l0.042,0.042l0.042,0.021h0.063l0.272-0.063 l0.105-0.021l0.105,0.042l0.021,0.021h0.042h0.042l0.021,0.021h0.021l0.042-0.042h0.042h0.063h0.063v0.021l-0.021,0.042h-0.042 h-0.063l-0.042,0.021l-0.021,0.042v0.042l0.021,0.021h0.042l0.063,0.042l0.063,0.021l0.021-0.021l0.084-0.021l0.084-0.021 l0.042-0.021h0.042l0.063,0.021l0.021,0.021l0.021,0.105l0.021,0.042l0.063,0.021l0.083-0.042l0.063-0.084l0.042-0.083l0.021-0.021 v0.021l0.021,0.021h0.021v0.042l0.021,0.042v0.063l0.042-0.021l0.021-0.021l0.021,0.042l0.042,0.042l0.021,0.042l0.021,0.063 l0.042-0.042h0.021l0.042,0.042l0.021,0.063l0.021,0.042l0.042,0.021l-0.021,0.042l-0.021,0.042l-0.042,0.021l-0.063,0.021v0.021 l0.209,0.042l0.021,0.063l0.063,0.042l0.084,0.021h0.063l-0.021-0.021L26.728,24l0.084-0.021L26.874,24l0.063,0.021L27,24.104 h-0.105v0.042h0.042l0.021,0.021L27,24.209l-0.105-0.021l-0.021,0.021l-0.021,0.042h-0.042V24.23v-0.042v-0.042l-0.063,0.021 l-0.084,0.063l-0.063,0.083v0.063h0.042l0.314-0.021l-0.125,0.272L26.77,24.69v-0.063l-0.042-0.063l-0.042-0.042h-0.084l0.042,0.063 l0.021,0.042l0.021,0.063v0.063l-0.063-0.042l-0.021-0.021l-0.021-0.042l-0.021,0.063l-0.042,0.084l-0.126,0.125v0.105l0.105,0.167 l-0.063,0.042l-0.063-0.021l-0.146-0.167l-0.042-0.063l-0.021-0.063l-0.126-0.188l-0.042-0.042l-0.063-0.042h-0.021v0.063v0.042 l0.021,0.042v0.042l-0.021,0.042l-0.063,0.021l-0.105,0.042l-0.105,0.021l-0.021,0.105l-0.021,0.063l-0.021,0.063l-0.188,0.355 l-0.084,0.063l-0.105,0.042v-0.167l0.021-0.042l0.021-0.042l0.084-0.063l0.021-0.063l0.084-0.126l0.021-0.063v-0.063v-0.042v-0.042 l0.021-0.042l0.105-0.021l0.042-0.021l0.084-0.188l0.021-0.063l0.042-0.125v-0.105h-0.083v0.042v0.063v0.063l-0.042,0.021 l-0.042-0.042V24.46v-0.125l-0.021-0.063h-0.042l-0.021,0.042l-0.021,0.063l0.021,0.063l0.021,0.105l0.021,0.063l-0.063,0.084 l-0.105,0.083l-0.105,0.021l-0.042-0.042l-0.063-0.146v-0.042l0.021-0.063l-0.042-0.021l-0.105-0.021L24.763,24h0.042l0.083-0.042 l-0.083-0.042H24.7l-0.042,0.063l0.042,0.105L24.429,24h-0.126l-0.125-0.021l-0.042-0.084l-0.042-0.083l-0.083-0.063l0.063-0.126 v-0.042l-0.042-0.042l-0.063,0.021l-0.126,0.125l-0.063,0.042l-0.648-0.021l0.167-0.084l0.063-0.042l0.063-0.042l0.021-0.063v-0.063 l-0.021-0.063l-0.021-0.063l-0.021,0.021l-0.021,0.021h-0.021v0.021L23.32,23.31v-0.042l0.021-0.042l0.021-0.042l-0.021-0.042 l-0.063,0.021l-0.105,0.063l-0.021-0.021l-0.021-0.021l-0.021-0.042l-0.021-0.021v-0.021H23.07V23.08v-0.042v-0.021l0.021-0.021 l0.021-0.021l0.021-0.084v-0.021l-0.126-0.021l-0.021-0.021l-0.021,0.021v0.084l-0.042,0.105l-0.063-0.021l-0.167-0.126 l-0.146,0.063l-0.146-0.042l-0.523-0.293l-0.105-0.042h-0.063h-0.063l-0.021,0.042l0.063,0.042l-0.042,0.042l-0.063-0.084 l-0.125-0.146l-0.084-0.063l-0.021,0.063l-0.063,0.084l-0.021,0.084h0.105h0.021v0.021l-0.063,0.042l-0.042,0.021h-0.042 l0.021,0.042l0.021,0.021h0.021l0.021-0.042l0.063,0.042l0.209,0.167l0.042,0.021l0.042,0.021h0.146l0.105,0.021l0.125,0.063 l0.105,0.105l-0.063,0.021l-0.042,0.042l-0.021,0.042l0.021,0.105l0.021,0.021l0.021,0.021l0.021,0.042v0.042v0.146v-0.042 l-0.021-0.042l-0.042-0.021h-0.042l0.021,0.084l0.042,0.083l0.083,0.063l0.063,0.042l0.021,0.042l-0.105,0.042l-0.063-0.084 l-0.084-0.021l-0.042,0.063l0.063,0.084l-0.146,0.021v0.146l0.083,0.146l0.146-0.021l-0.021,0.084l-0.105,0.209l-0.021,0.042 l-0.063,0.063l-0.063,0.063l-0.063,0.084l-0.084,0.021l-0.23,0.167l-0.146,0.084l-0.063-0.021l0.021-0.042l0.021-0.042l-0.021-0.084 l-0.021-0.063l-0.021-0.042l-0.105-0.083l-0.021-0.042l0.021-0.063l0.021-0.063V24.46l0.021-0.063v-0.063v-0.063v-0.063 l-0.021-0.063l-0.021-0.063h-0.063v0.042l-0.021,0.084L21,24.293l-0.021-0.042l-0.042-0.083l-0.188-0.188v-0.063l-0.021-0.021 l-0.042,0.021l-0.042,0.021l-0.021,0.042v0.084l-0.021,0.063l-0.105,0.146l-0.021-0.293l-0.021-0.063l-0.105-0.167l-0.021-0.021 l-0.021-0.021l-0.042-0.042h-0.042l-0.021,0.084v0.083l-0.042,0.084l-0.084,0.125l-0.084-0.083l-0.042,0.021l-0.042,0.042 l-0.042,0.021L19.704,24l-0.063-0.021l0.063-0.021v-0.042l-0.042-0.021l-0.042,0.021l-0.021,0.021L19.578,24l-0.042-0.021h-0.021 l-0.021,0.042v0.063h0.021l0.105,0.021v0.083l-0.042,0.084l-0.042,0.042l0.084,0.083l-0.063,0.063l-0.021-0.021l-0.042-0.063 l-0.042-0.042l-0.042,0.042l-0.021,0.063l-0.021,0.125l0.021,0.021l-0.021,0.209v0.083l-0.021-0.063l-0.021-0.042l-0.063-0.021 l-0.063,0.021v0.042l0.021,0.042l-0.021,0.063l-0.063,0.021v0.042l-0.021,0.021h-0.042l-0.021-0.021l-0.083-0.021h-0.063 l-0.042,0.084h-0.021l-0.188-0.042h-0.042l0.021-0.063l0.084-0.042l0.042-0.021l-0.042-0.105l-0.063,0.042l-0.084-0.021 l-0.084-0.042l-0.084-0.042l0.021,0.084v0.063l-0.105,0.042l-0.021,0.021v0.021l-0.021,0.042H18.24l-0.23-0.188l-0.125-0.063 l-0.126-0.042l-0.125,0.063V24.69v-0.042l0.042-0.021l0.042-0.021l-0.042-0.042l-0.084-0.021H17.53l-0.042,0.021v0.084l-0.042,0.042 l-0.063,0.021L17.3,24.69l-0.042-0.021l-0.105-0.084l-0.063-0.021l-0.502-0.063l-0.272-0.105l-0.209-0.167L16.045,24l0.063,0.083 l0.083,0.021l0.084-0.042l0.063-0.042l0.042-0.105l0.042-0.083l0.063-0.063l0.105-0.021l-0.021,0.084l0.063,0.105L16.756,24 l0.126-0.042v0.167v0.084l-0.042,0.083h0.042l0.042,0.042l0.021,0.042v0.042l0.105-0.042l0.042-0.021l0.042-0.042l-0.021-0.021 l-0.021-0.042l-0.042-0.021v-0.021l0.084-0.146l-0.063-0.105l-0.272-0.209l-0.146-0.083l-0.063-0.042v-0.042v-0.084l-0.021-0.042 l-0.021-0.021h-0.063l-0.021-0.021l-0.084-0.126l-0.042-0.146l0.021-0.146l0.063-0.126l0.042-0.042l0.042-0.042l0.042-0.042 l0.021-0.084l-0.021-0.083l-0.042-0.042l-0.063-0.021h-0.083l0.063,0.126l-0.021,0.063l-0.146,0.125v0.042v0.063l0.021,0.042 l0.021,0.021l-0.021,0.063l-0.063,0.105v0.042l-0.126-0.063l-0.188-0.063l-0.126-0.021h-0.105l-0.063-0.021l-0.021-0.021 l0.021-0.063l0.021-0.063l0.021-0.042l-0.063-0.042l-0.126,0.084l-0.167,0.063l-0.209,0.042l-0.105-0.021l0.063-0.063v-0.105 l-0.021-0.125l-0.042-0.084l-0.021-0.042v-0.083l-0.021-0.042l-0.042-0.021h-0.042l-0.105,0.063h-0.042h-0.125l-0.021-0.042 l0.021-0.084v-0.125l0.021-0.251l-0.042-0.063l-0.125-0.042h-0.105l-0.439,0.042l-0.063,0.042l-0.167,0.105l-0.125,0.021 l-0.042-0.042v-0.083l-0.021-0.042l-0.042-0.042l0.021-0.105l0.042-0.105l0.042-0.042l0.042,0.042L13.62,21.7l0.042,0.021v-0.083 v-0.084l-0.042-0.042l-0.063-0.042l-0.209-0.021h-0.063l-0.125,0.105h-0.042l-0.063-0.042l-0.042-0.021l-0.084,0.021l-0.021,0.021 l0.021,0.042l-0.021,0.063l-0.042,0.042l-0.397,0.167l-0.063,0.042l-0.105,0.105l-0.063,0.042h-0.063l0.063-0.042V21.93 l-0.042-0.042l-0.063-0.021h-0.021l-0.042,0.084l-0.021,0.021h-0.021l-0.105-0.063l0.021,0.083l0.042,0.126l0.042,0.105l0.042,0.042 l0.042-0.021l0.063-0.042l0.105-0.021l0.042-0.021h0.042l0.042,0.021l-0.125,0.084l-0.063,0.042l0.146,0.251l0.042,0.105h0.021 l0.083-0.063l0.105-0.042h0.105l0.063,0.042l-0.146,0.042l-0.042,0.021l-0.042,0.063l0.105,0.021l-0.063,0.083H12.47l-0.293-0.021 l-0.125,0.042l-0.335,0.188l-0.146,0.042l-0.125,0.021l-0.711-0.105l-0.125-0.063l-0.042,0.042l-0.042-0.021l-0.167,0.042 L9.585,22.85l-0.502-0.188l-0.167-0.105l-0.251-0.188l-0.565-0.167l-0.334-0.126l-0.502-0.125L7.014,21.93l-0.251,0.021 l-0.272,0.042l-0.083,0.063l-0.105-0.042l-0.209,0.021L6.01,22.014l-0.105,0.063H5.425h0.021H5.404h0.021l-0.397,0.021l-0.209,0.042 l-0.146,0.084L4.61,22.286l-0.146,0.063L4.38,22.411l-0.084,0.042L4.191,22.39l-0.125-0.167l-0.042-0.23l-0.021-0.126l0.042-0.042 l0.293-0.042l0.084-0.021l0.188-0.376v-0.334l-0.021-0.084l-0.084-0.042H4.484l0.083-0.167l0.272-0.314l-0.042-0.063v-0.042 l0.063-0.125l0.021-0.105v-0.105l-0.021-0.063L4.84,19.84v-0.042l-0.042-0.063l-0.021-0.063V19.61l0.042-0.105l0.021-0.042 l-0.021-0.125l-0.063-0.084l-0.084-0.063l-0.042-0.084l-0.021-0.23l0.021-0.105l0.063-0.125l0.105-0.126l0.042-0.083v-0.105v-0.042 l-0.063-0.146v-0.021v-0.105L4.756,18l-0.042-0.021v-0.021v-0.105l0.042-0.105l0.063-0.063l0.084-0.021l0.021-0.063l0.042-0.272 l0.042-0.084l0.167-0.125l0.042-0.084l0.021-0.251l0.167-0.314l0.021-0.083v-0.063v-0.063v-0.042l-0.042-0.105v-0.063l0.021-0.063 l0.042-0.042l0.063-0.063l0.021-0.063l0.021-0.021l-0.042-0.063L5.467,15.7l-0.063-0.105L5.362,15.47l0.063-0.063h0.042l0.126-0.042 l0.021-0.042l0.021-0.042l-0.021-0.042L5.55,15.178L5.425,14.99v-0.063l0.042-0.063l0.021-0.063v-0.23l-0.021-0.084l-0.083-0.021 l-0.084,0.021H5.279H5.258l-0.021-0.021H5.216v-0.021l-0.021-0.042l-0.021-0.126v-0.042l-0.021-0.042l-0.021-0.021l-0.021-0.042 v-0.042L5.09,14.07v-0.021L5.07,14.028l-0.042-0.063l-0.125-0.105L4.881,13.84l-0.021-0.021v-0.063v-0.042v-0.021l0.021-0.063 l0.021-0.021l0.042-0.063v-0.021v-0.021l-0.063-0.042l-0.083-0.063l-0.042-0.063l-0.021-0.042v-0.042l-0.021-0.084l-0.021-0.042 v-0.042l-0.021-0.021H4.651l-0.063-0.021H4.568l-0.021-0.021l-0.021-0.021v-0.021l-0.021-0.042l0.021-0.021v-0.021l0.042-0.042 h0.021v-0.021l0.021-0.021v-0.042l-0.021-0.021l-0.021-0.021H4.547L4.422,12.69H4.401L4.38,12.669l-0.042-0.021l-0.125-0.146 l-0.042-0.063L4.15,12.397l-0.021-0.021l-0.021-0.063v-0.042V12.23l0.021-0.042l0.021-0.042v-0.042v-0.042v-0.146l0.021-0.042 l0.021-0.084v-0.042v-0.021l-0.021-0.021L4.15,11.686l-0.021-0.021v-0.042l-0.021-0.063l-0.042-0.188L4.045,11.31l-0.105-0.167 L3.899,11.08l-0.021-0.042l-0.021-0.063l-0.042-0.063l-0.063-0.083l-0.084-0.084l-0.042-0.042l-0.146-0.063L3.46,10.62l-0.021-0.021 l-0.021-0.021l-0.105-0.167L3.293,10.39L3.23,10.349l-0.021-0.021l-0.063-0.042l-0.021-0.021l-0.021-0.021v-0.021V9.826L3.084,9.199 V8.572L3.063,7.944V7.317L3.042,6.69L3.021,6.063V5.436L3,4.808l0.815-0.021H4.61l0.794-0.021l0.794-0.042l0.815-0.021l0.794-0.021 l0.794-0.021L9.397,4.62l0.815-0.021l0.794-0.042l0.795-0.021l0.794-0.042l0.815-0.042l0.795-0.021L15,4.39l0.794-0.042h0.063v0.167 l0.042,0.042l0.063,0.042l0.063,0.021h0.084l0.063,0.021l0.042,0.063l0.105,0.105l-0.042,0.083l-0.063,0.105L16.15,5.08 l-0.063,0.021l-0.042,0.063l-0.042,0.251l-0.042,0.23l0.021,0.063l0.063,0.042l0.23,0.042l0.084,0.063l0.021,0.083l-0.063,0.126 l-0.084,0.021h-0.125l-0.105,0.042l-0.042,0.063v0.125l0.042,0.105l0.042,0.084l0.042,0.063l0.063,0.042l0.105,0.063l0.042,0.042 v0.063v0.063l-0.021,0.063v0.042v0.23l0.021,0.083l0.042,0.084l0.167,0.084l0.146,0.042l0.105,0.105l0.042,0.209l0.042,0.021 l0.063,0.042h0.167l0.105,0.042l0.042,0.084l-0.021,0.084h-0.042l0.021,0.042L16.965,8.3L16.84,8.655l-0.125,0.272l-0.251,0.021 L16.422,8.99l-0.021,0.042v0.063l0.021,0.042l0.146,0.146V9.47l-0.084,0.188l-0.167,0.125l-0.146,0.063l-0.042,0.021L16.108,9.93 l-0.042,0.105l-0.021,0.042l-0.209,0.251l-0.084,0.084l-0.083,0.042l-0.188,0.042l-0.063,0.063l-0.084,0.083l-0.021,0.105 l-0.063,0.188l-0.126,0.272v0.084l-0.021,0.105l-0.063,0.481L15.063,12l-0.021,0.063l-0.021,0.021l-0.293,0.251l-0.105,0.167 l0.042,0.23l0.021,0.042l0.042,0.063l0.063,0.105v0.021v0.105v0.063l-0.042,0.042l-0.042,0.355l-0.021,0.084l-0.063,0.063 l-0.105,0.021H14.31l-0.105,0.021l-0.063,0.042v0.083l0.042,0.105l0.084,0.084l0.063,0.042l0.021,0.021v0.063l-0.021,0.063 l-0.021,0.021V14.3l-0.042,0.084v0.063l0.063,0.146l0.146,0.146l0.021,0.146l-0.334,0.314h0.021l0.209-0.021h0.105h0.251 l0.418-0.021l0.523-0.021l0.606-0.042l0.69-0.042l0.753-0.021l0.753-0.042l0.773-0.063l0.732-0.042l0.711-0.042l0.606-0.021 l0.523-0.042l0.418-0.021l0.251-0.021h0.084l0.209-0.021h0.167l0.021,0.063l-0.021,0.188l-0.042,0.209l-0.105,0.188l-0.042,0.314 l-0.105,0.146l-0.042,0.105l0.042,0.084l-0.084,0.209l-0.021,0.126v0.083l0.042,0.084l0.084,0.084l0.042,0.083l-0.042,0.105 l0.125,0.251l0.084,0.084l0.146,0.042l0.083,0.042l0.063,0.167l0.146,0.084l0.084,0.125l0.021,0.042v0.042v0.105v0.042l0.042,0.083 l0.146,0.188l0.021,0.105l0.021,0.209l0.083,0.146l0.167,0.314l0.105,0.125l0.042-0.063L24.136,18.899L24.136,18.899z"/></svg>