<?xml version="1.0"?><svg xmlns="http://www.w3.org/2000/svg"  viewBox="0 0 30 30" width="60px" height="60px">    <path d="M20.16,25.598l0.018-0.009l-0.018-0.018l-0.009-0.018v-0.009v-0.027v-0.009h0.018l0.009-0.009v-0.009 l-0.009-0.018l-0.009-0.009l-0.009-0.027l-0.055-0.091l0.018-0.082l0.009-0.073l-0.018-0.228l-0.018-0.082v-0.046l0.018-0.091 v-0.036l-0.018-0.046l0.018-0.046l0.009-0.109l0.036-0.037l-0.018,0.046l0.009,0.602l0.064,0.401l0.21,0.729v0.027l0.018,0.037 l0.009,0.046l0.018,0.146l0.027,0.091l0.009,0.055v0.1v0.046l0.027,0.073l0.027,0.118v0.046l-0.018,0.037l-0.018-0.009l-0.018-0.046 l-0.036-0.474L20.443,26.5l-0.037-0.064l-0.018-0.064L20.37,26.19l-0.018-0.046l-0.046-0.091l-0.018-0.055l-0.027-0.128 l-0.009-0.027l-0.018-0.036l-0.018-0.046l-0.027-0.1L20.16,25.598L20.16,25.598z M22.467,21.523l0.082-0.027v0.018h-0.009 l-0.009,0.009h-0.009v0.009l-0.018,0.009l-0.036,0.036l-0.018,0.018l-0.055,0.018l-0.055,0.046l-0.027,0.027h-0.046v-0.009 l0.118-0.109L22.467,21.523L22.467,21.523z M25.457,19.472l0.118,0.046l-0.301,0.255l-0.091,0.037l-0.292,0.219l-0.037,0.046h-0.009 l0.018-0.055l0.036-0.046l0.091-0.073l0.146-0.091l0.027-0.037v-0.036l0.018-0.009l0.027-0.009h0.027l0.009-0.018l0.082-0.064 l0.018-0.036l0.009-0.009l0.046-0.018l0.027-0.018l0.009-0.027l-0.009-0.027l-0.037-0.009v-0.018h0.018v-0.009v-0.009v0.018v-0.009 l0.009-0.009l0.009,0.018H25.457h-0.018H25.457L25.457,19.472z M20.844,22.991l0.018,0.027l-0.027,0.018l-0.264,0.383l-0.2,0.374 l-0.128,0.319l-0.046,0.2l-0.037,0.073l-0.018,0.036l-0.018,0.009l-0.018-0.018l0.018-0.037l0.036-0.255l0.073-0.146l0.018-0.1 l0.009-0.027l0.036-0.082l0.009-0.027l0.018-0.046l0.046-0.055l0.046-0.064l-0.009-0.046l0.027-0.027l0.009-0.018l-0.009-0.027 l-0.009-0.037l0.046,0.018l0.018,0.018l0.018,0.027h0.009l0.118-0.246l0.064-0.073l0.082-0.082l0.018-0.018L20.816,23L20.844,22.991 z M22.202,21.742v0.055v0.018l-0.009,0.018l-0.018,0.027v0.009l-0.155,0.073l-0.064,0.018l-0.073,0.046l-0.109,0.1l-0.201,0.1 l-0.046,0.055l-0.109,0.082l-0.064,0.055l-0.027,0.027l-0.009,0.046H21.3l0.009-0.046l0.018-0.046l0.018-0.036l0.027-0.018v-0.018 l-0.018-0.027v-0.046l0.009-0.037l0.027-0.018h0.046l0.064-0.027h0.037l0.027-0.009l0.082-0.055l0.009-0.009l0.027-0.046 l0.082-0.046l0.018-0.018l0.018-0.018l0.1-0.037l0.036-0.046l0.027-0.018h0.046l0.082,0.009l0.027-0.018l0.018-0.046l0.009-0.018 l-0.009-0.046l0.009-0.009l0.018-0.009h0.018h0.009L22.202,21.742L22.202,21.742z M21.281,22.352l0.009,0.018l-0.009,0.027 l-0.009,0.046v0.027l-0.191,0.2l-0.082,0.128l-0.073,0.082l-0.027,0.046l-0.018,0.046l-0.018-0.037l0.027-0.073l0.082-0.109 l0.064-0.064l0.009-0.018l0.009-0.027v-0.009l-0.037-0.018v-0.009l0.118-0.21h0.027l0.018-0.018l0.009-0.027l0.018-0.018 l0.027-0.018l0.027,0.009L21.281,22.352L21.281,22.352z M27.535,17.876l-0.037,0.073h-0.046h-0.055l-0.018,0.009l-0.009,0.046 l-0.018,0.046l-0.155,0.228l-0.009,0.091l0.046,0.082l0.109,0.128l0.036,0.073l-0.027,0.037h-0.027l-0.055-0.009h-0.246h-0.046 l-0.091,0.027l-0.055,0.027l-0.173,0.1l-0.237,0.1l-0.647,0.301l-0.073,0.055l-0.1,0.128l-0.046,0.027l-0.046-0.009l-0.009-0.027 l0.018-0.027l0.155-0.164l0.055-0.027l0.046-0.009l0.027-0.009l0.018-0.009l0.018-0.009l0.064-0.073l0.018-0.009l0.018-0.009 l0.1,0.009l0.036-0.009l0.027-0.018l0.009-0.046V18.97l-0.018,0.018l-0.027,0.018l-0.046-0.018l-0.027-0.027l-0.037-0.009h-0.036 l-0.292,0.091l-0.109,0.009h-0.027l-0.018-0.009l-0.018-0.018l0.009-0.018l0.018-0.009h0.027l0.027-0.018l0.027-0.027l0.027-0.082 l0.027-0.082l0.027-0.109l0.018-0.055l-0.018-0.046v-0.027l-0.009-0.027l-0.037-0.009l-0.018-0.009l-0.009-0.046l-0.018-0.009 h-0.018l-0.046,0.027l-0.073,0.036l-0.036,0.018l-0.009,0.018l-0.027,0.082l-0.027,0.073l-0.064,0.046l-0.064-0.027l-0.064-0.055 l-0.064-0.037h-0.118l-0.009,0.009l0.027,0.036l0.018,0.009l0.018,0.009h0.027h0.018l0.009,0.009l0.009,0.018l-0.037,0.027 l-0.009,0.046l0.009,0.036l0.073,0.037l-0.018,0.036l-0.027,0.046l-0.018,0.018l-0.018,0.064l0.064,0.046l0.155,0.046l-0.018,0.027 l-0.018,0.027l-0.027,0.018l-0.036,0.009v0.009l0.036,0.027l0.009,0.037l0.009,0.036h0.046v-0.018l-0.009-0.009V19.28h0.009v-0.009 l0.064,0.091l0.018,0.018h0.027l0.091,0.046h-0.009H25.42v0.009l-0.009,0.009l-0.027-0.027l-0.046-0.009l-0.037,0.009l-0.018,0.055 l-0.009,0.046l-0.018,0.046l-0.037,0.018l-0.027-0.027h-0.018l-0.009,0.027l-0.018,0.027l-0.046,0.027h-0.018h-0.009v0.009v0.018 v0.009l-0.128,0.155l-0.046,0.036l-0.064,0.027l-0.018-0.037L24.8,19.836h-0.037l-0.036-0.018l0.018,0.018l0.027,0.064l-0.018,0.046 V20l0.018,0.091v0.046v0.027l-0.018,0.036l-0.146,0.118l-0.064,0.027l-0.109,0.128l-0.109,0.091l-0.018,0.018l-0.046,0.009 l-0.036,0.009l-0.137,0.1l-0.237,0.155l-0.091,0.046l-0.091,0.018l-0.091,0.009l-0.091-0.009l-0.082,0.009l-0.273,0.109l0.009,0.027 v0.018l-0.009,0.027v0.037l-0.009,0.009v0.009l0.009,0.009l0.009,0.009h0.018l0.009-0.009h0.009l0.283-0.164l0.073-0.037h0.073 l-0.237,0.155l-0.137,0.073l-0.21,0.046l-0.128,0.1l-0.118,0.037l-0.137,0.082l-0.055,0.027l0.046-0.055l0.073-0.055l0.292-0.146 l0.046-0.009l0.018-0.018l0.009-0.037l-0.009-0.037l-0.037-0.018h-0.046l-0.082,0.046l-0.027,0.009l-0.037,0.009l-0.128,0.064 l-0.091,0.027h-0.046l0.009-0.036l0.037-0.018l0.091-0.018l0.036-0.027h0.009v-0.009l-0.037-0.009l-0.027,0.009l-0.027,0.009h-0.027 h-0.046l-0.009-0.018l0.009-0.027l0.055-0.073l0.009-0.027l-0.018-0.009h-0.046l-0.027,0.009L22.53,21.04l-0.046,0.027l0.009-0.027 l-0.037,0.018l-0.064,0.064l-0.037,0.027l-0.036,0.009h-0.009V21.14l-0.009-0.027l-0.064-0.055l-0.009-0.027l0.018-0.027 l0.009-0.027l-0.009-0.037l-0.037-0.036l-0.009,0.018l-0.018,0.009l-0.009,0.009l-0.037-0.064l-0.009-0.018H22.12v0.036l0.009,0.037 l0.018,0.037l0.009,0.018h0.018l0.018-0.018l0.018-0.009v0.018v0.027l-0.018,0.009l-0.009,0.009l-0.009,0.009v0.018l0.009,0.018 v0.018v0.018l-0.009,0.036l0.027,0.018l0.073,0.018l-0.128,0.073l-0.064,0.027l-0.064,0.009l0.027-0.027h0.037l0.036-0.009 l0.009-0.046l-0.018-0.046l-0.073,0.055l-0.018-0.055l-0.009-0.018h-0.027l-0.018,0.009l-0.027-0.009l-0.009-0.009h-0.027h-0.009 l-0.009-0.018v-0.018v-0.009l-0.009-0.018l-0.009-0.037v-0.018l-0.009-0.009l-0.018-0.027l-0.018-0.018l-0.027-0.009l-0.027,0.009 l-0.027,0.009l-0.009-0.009l-0.009-0.009l-0.027-0.009v0.055l0.009,0.046l0.018,0.036l0.064,0.073v0.018l0.009,0.027v0.018 l-0.009,0.055l-0.009,0.018l0.018,0.027h0.018l0.027-0.027l0.018,0.009l0.064,0.046l0.036,0.018l0.018,0.009l0.009,0.018 l0.018,0.018l0.009,0.046l-0.1,0.055h-0.018l0.009,0.037h0.036l0.037-0.018l0.018-0.018l0.064-0.018l0.073,0.027l0.064,0.055 l0.009,0.055l-0.155,0.082l-0.036,0.009l-0.073,0.046l-0.027,0.009l-0.228,0.128l-0.036-0.036l-0.037,0.009l-0.018-0.018 l-0.009-0.036l-0.009-0.082l-0.009-0.027l-0.018-0.018h-0.036L21.5,21.678V21.66v-0.018l-0.009-0.018l-0.009-0.009l-0.027-0.018 l-0.009-0.009l-0.037-0.055L21.4,21.514l-0.018,0.009l-0.018,0.018l-0.009,0.027l0.009,0.009h0.018l0.046,0.037l0.018,0.027v0.037 l-0.018,0.027l-0.036-0.018l-0.037-0.037l-0.037-0.018l-0.027,0.036l0.037,0.064l0.064,0.073l0.027,0.055l-0.009,0.046l-0.027,0.036 l-0.009,0.046l0.046,0.082l-0.027,0.037l-0.073,0.036l-0.036,0.037l-0.073,0.1l-0.027,0.027l-0.073,0.018l-0.036,0.009l0.027-0.082 l0.018-0.037l0.027-0.036l-0.027-0.046l0.018-0.046l0.018-0.037v-0.037h-0.027l-0.027,0.037l-0.055,0.073l0.027,0.027l0.009,0.037 l-0.009,0.037l-0.027,0.046l-0.027,0.046l-0.027,0.009l-0.073-0.018l0.009-0.009l0.009-0.009l0.009-0.009V22.27l-0.009-0.018 l0.009-0.073l-0.009-0.037h-0.018l-0.027,0.046l-0.073,0.046l-0.082,0.037l-0.055,0.009l0.009-0.018l-0.018-0.018l-0.027-0.009 h-0.018l-0.018,0.018l-0.009,0.027l0.009,0.027l0.027,0.009l-0.082,0.082l-0.046,0.055l0.018,0.018l0.046,0.009l0.036,0.018 l0.037,0.027l0.018,0.027v0.027l-0.009,0.027v0.009l0.018-0.009l0.018-0.018l0.018-0.027l0.009-0.027v-0.036l0.027-0.037l0.1-0.037 l0.027-0.046v-0.009l-0.009-0.009h0.009l0.018-0.009l0.018,0.018l0.009,0.027l-0.018,0.091l0.009,0.027v0.018l-0.009,0.009 l-0.018,0.018l-0.018,0.027l-0.027,0.064h-0.018v-0.009v-0.009l-0.082,0.137l-0.164,0.237l-0.046,0.037l-0.055-0.009v-0.018h0.046 l-0.027-0.036l-0.027-0.037l-0.027-0.027l-0.037-0.009h-0.046l-0.082,0.036h-0.055l0.018-0.009v-0.009v-0.009l0.009-0.018 l-0.055,0.018l-0.118-0.009l-0.055,0.009h-0.009l-0.009,0.027h-0.009h-0.018l-0.018-0.009l-0.009-0.009v-0.009l-0.009-0.018h-0.018 h-0.009l-0.037,0.009l0.037,0.064L19.941,23l0.046,0.009L20.06,23l0.018,0.009h0.027L20.124,23l0.018-0.018l0.009,0.037 l-0.018,0.064l0.009,0.027l-0.018,0.018l0.055,0.064l0.036,0.037l0.182,0.073l0.009,0.037v0.036l-0.027,0.037l-0.018,0.027 l-0.018,0.018v0.027l-0.009,0.055l-0.009,0.018l-0.064,0.118l-0.036,0.1l-0.009,0.046l-0.009,0.027l-0.027,0.027l-0.091,0.246 l-0.009,0.046l-0.018,0.018l-0.137,0.055l-0.046,0.046l-0.027,0.009l-0.046-0.027l0.082-0.036l0.027-0.027h-0.018v-0.009 l-0.009-0.009l-0.009-0.009h0.046h0.018l0.018-0.009l0.018-0.018v-0.009h-0.009L19.95,24.13v0.009h-0.018l-0.009-0.009l-0.009-0.027 v-0.046l0.009-0.046l-0.037,0.018l-0.046,0.046l-0.027,0.018l0.009,0.037l-0.018,0.009l-0.018,0.009l-0.036,0.027l-0.009-0.036 l-0.018,0.009l-0.046,0.055l0.009,0.018v0.009l-0.009,0.018H19.65l-0.027-0.009l-0.009-0.009v-0.018l-0.009-0.027l-0.155-0.237 l-0.055-0.055l-0.064-0.046l0.009,0.055l0.064,0.073l0.027,0.046h-0.037l0.073,0.082l0.027,0.046l-0.046,0.018l0.009,0.018v0.009 l0.009,0.009l0.037-0.018l0.027,0.009l0.018,0.027l-0.027,0.027l-0.055,0.018l-0.046-0.009l-0.046-0.009l-0.055-0.009l0.027,0.046 l0.046,0.018l0.109-0.009l0.046,0.009l0.037,0.018l0.027,0.018l0.046,0.018l0.109,0.027l0.046,0.009l0.046-0.018l0.036-0.027 l0.137-0.046l0.018,0.037l-0.009,0.027l-0.009,0.027l-0.027,0.009l0.009,0.027v0.036l-0.009,0.046l-0.009,0.018l-0.018,0.009 l0.009,0.037l0.009,0.037l0.009,0.027l-0.018,0.027l-0.027,0.018l-0.036,0.009l-0.027,0.009v0.009l0.018,0.027l0.009,0.037 l-0.018,0.018l0.018,0.064v0.037l-0.027,0.018l-0.118,0.009l-0.018,0.009L19.75,24.96l0.009,0.1l0.009,0.046l0.018,0.027 l0.018,0.027l0.091,0.046l0.027,0.027l-0.027,0.046l-0.091-0.091l-0.027-0.009l-0.009,0.027l-0.018,0.036v0.046v0.037l0.009,0.027 l0.027,0.009h0.027l0.036,0.009l0.027,0.027l0.009,0.037l0.009,0.036l0.018,0.1l0.046,0.155l0.018,0.155l0.046,0.155l0.018,0.073 l-0.009-0.018l-0.018-0.018v-0.009l-0.018,0.027l-0.018,0.018l-0.055,0.018l0.073,0.018v0.027l-0.018,0.037l-0.009,0.064v0.018V26.3 h0.027l0.046,0.009l0.009,0.027v0.037L20.06,26.4h0.018l0.046,0.009l0.009,0.009v0.018l-0.018,0.046l0.009,0.009l0.009,0.009 l0.018-0.009l0.009-0.009v-0.009l0.009-0.018l0.018,0.018l0.009,0.009L20.187,26.5l-0.018,0.018l-0.018,0.046v0.055l0.018,0.018 h0.018l0.018-0.009h0.009l0.018,0.009l0.018,0.027l-0.009,0.018l-0.018,0.018l-0.009,0.018l0.009,0.027l0.009,0.018l0.027,0.055 l-0.009,0.046l-0.009,0.073l0.009,0.055l0.027,0.027l0.009,0.009l0.018,0.009l0.018,0.009l0.027,0.009h0.055l0.027,0.009 l0.027,0.009l-0.009,0.037l-0.009,0.018l-0.027,0.009l-0.027-0.018v0.046l-0.027,0.055v0.027l0.009,0.037v0.018l0.018,0.009 l0.018,0.009h0.009v-0.009l0.009-0.018l0.055-0.018l0.018-0.018l0.018-0.018l0.009-0.037v-0.046l0.018-0.037l0.018-0.009h0.027 l0.018,0.064v0.073l0.009,0.1v0.018l-0.146,0.009l-0.1-0.009l-0.027,0.009l-0.009,0.037l-0.036,0.037l-0.055,0.018l-0.036-0.027 l-0.046,0.037l-0.009,0.009l0.009,0.046l0.009,0.055v0.046l-0.046,0.018l-0.018-0.009l-0.009-0.018l-0.009-0.018l-0.009-0.009H20.06 l-0.009,0.009v0.018l-0.009,0.009l-0.046-0.009l-0.018-0.036l-0.009-0.037l-0.018-0.018h-0.046l-0.037-0.009l-0.027-0.018 l-0.046-0.027l-0.091-0.091l-0.064-0.037l-0.018-0.027l-0.018-0.037l-0.018-0.036l-0.037-0.027l-0.046-0.018l-0.037-0.009 l-0.182-0.018l-0.036-0.009v-0.036l-0.046-0.009l-0.155-0.009l-0.137,0.018l-0.118-0.018h-0.037l-0.064,0.027l-0.046,0.018 l-0.018-0.009l-0.018-0.055l-0.046-0.018l-0.1,0.027l-0.073-0.009l-0.073-0.018l-0.164-0.091l-0.018-0.018l-0.055-0.082 l-0.009-0.018h-0.055l-0.027-0.009v-0.018l0.018-0.046l-0.055-0.018l-0.064-0.046l-0.064-0.018l-0.036,0.037l-0.037-0.055 l-0.064-0.018l-0.064-0.018l-0.064-0.037l-0.118,0.046l-0.027-0.009l-0.027-0.018l-0.046-0.037l-0.009-0.009h-0.018l-0.009-0.018 l0.027-0.027l-0.018-0.018l-0.027-0.018h-0.027h-0.027l0.009-0.036l-0.018-0.027L17.152,26.4l-0.027-0.046l-0.018-0.009h-0.018 l-0.009,0.009l-0.018,0.009l-0.027-0.018l-0.009,0.018h-0.018l-0.018-0.009l-0.027-0.009l-0.046,0.009l-0.073-0.064l-0.036,0.036 l-0.018-0.036l-0.018-0.018h-0.055l-0.037,0.009l-0.009,0.009l-0.009-0.009l-0.018-0.018l-0.009-0.009h-0.046H16.55l-0.036-0.009 l-0.046-0.037v-0.027l0.009-0.027l0.018-0.027l0.009-0.027v-0.027l-0.018-0.073l-0.027-0.027l-0.055-0.018l-0.055-0.018L16.34,25.88 l-0.009-0.118l-0.009-0.037l-0.073-0.255l-0.018-0.109l-0.027-0.1l-0.036-0.046l-0.027-0.037l-0.027-0.037l-0.064-0.082 l-0.027-0.037l-0.082-0.073l-0.018-0.018l-0.009-0.027v-0.046v-0.027l-0.009-0.018h-0.018l-0.018-0.009h-0.018l-0.037-0.027v-0.018 l-0.037-0.055l0.037-0.073l0.009-0.018v-0.018l-0.009-0.018l-0.009-0.018l-0.009-0.009l0.009-0.046l0.036-0.1l0.009-0.046v-0.046 l-0.018-0.046l-0.018-0.037l-0.027-0.036h-0.009l-0.027-0.018v-0.009l-0.009-0.018l-0.009-0.009l-0.064-0.027l0.018-0.027 l0.037-0.037l0.009-0.018v-0.027l0.018-0.027V23.93l0.027-0.055v-0.027l0.009-0.091v-0.009l-0.009-0.036l-0.009-0.018l-0.009-0.009 H15.72l-0.009-0.009v-0.027l0.009-0.055v-0.091l-0.018-0.037l-0.036-0.037l-0.046-0.027l-0.027-0.009l-0.018-0.009l-0.018-0.046 l-0.027-0.009h-0.018l-0.046,0.027h-0.027l-0.009-0.009l-0.018-0.046l-0.009-0.009l-0.073-0.009l-0.009-0.009l-0.036-0.055 l-0.018-0.009l-0.009-0.027v-0.027l-0.009-0.018l-0.009-0.009l-0.037-0.018L15.182,23.1l-0.027-0.027l-0.018-0.037l-0.027-0.027 L15.064,23v-0.009l-0.027-0.027l-0.027-0.027H15v-0.027l0.009-0.046L15,22.836l-0.009-0.018l-0.018-0.009l-0.018-0.018l-0.009-0.027 l0.027-0.037v-0.018v-0.009l-0.027-0.018l-0.037-0.037l-0.036-0.046l-0.018-0.036l0.027-0.037l-0.027-0.018l-0.046-0.009 l-0.027-0.009l-0.027-0.036l-0.018-0.037l-0.009-0.027l-0.018-0.037v-0.018l0.009-0.018v-0.009l-0.009-0.009l-0.027-0.027 l-0.027-0.027l-0.009-0.018v-0.037l-0.009-0.046l-0.036-0.046l-0.201-0.109l-0.037-0.009l-0.018-0.009v-0.037l-0.009-0.027v-0.027 h-0.018l-0.055-0.018l-0.037-0.027l-0.027-0.037l-0.018-0.046l0.009-0.046v-0.037l-0.027-0.055l-0.055-0.073l-0.018-0.091v-0.082 l-0.009-0.009l-0.018-0.018l-0.009-0.018v-0.027l0.009-0.018l0.064-0.027l-0.091-0.037l-0.037-0.027l-0.027-0.055v-0.027 l0.009-0.055L13.97,21.03l-0.018-0.018l-0.055-0.027l-0.018-0.018V20.93l-0.064-0.109l-0.027-0.046l-0.036-0.228l-0.009-0.027 l-0.009-0.009l-0.009-0.027l-0.009-0.009l-0.018-0.009l-0.027-0.009H13.66l-0.009-0.018l0.009-0.027v-0.018l-0.009-0.009 l-0.036-0.018v-0.009l-0.009-0.037l-0.027-0.027l-0.018-0.018l-0.009-0.018v-0.027l-0.009-0.027l-0.009-0.018l-0.009-0.018 l0.018-0.046v-0.055l-0.036-0.091l-0.009-0.137l-0.018-0.027L13.46,19.8l-0.027-0.009l-0.018-0.009l-0.009-0.009l-0.009-0.018 l-0.1-0.091l-0.018-0.037l0.018-0.046l-0.036-0.082l-0.027-0.036l-0.037-0.037l-0.1-0.046l-0.009-0.018l-0.036-0.055l-0.046-0.046 l-0.146-0.073l-0.027-0.018l-0.018-0.018l-0.009-0.018l-0.018-0.027v-0.036l-0.009-0.064l-0.009-0.037l-0.064-0.027l-0.128-0.055 l-0.064-0.027l-0.037-0.055l-0.018-0.018h-0.018l-0.018-0.009l-0.018-0.018l-0.009-0.037l0.018-0.064v-0.064l-0.027-0.027h-0.046 l-0.055,0.027l-0.037,0.027l-0.018-0.009v-0.037l0.018-0.046l0.009-0.037l-0.018-0.009l-0.055-0.009l-0.027-0.009l-0.018-0.018 l-0.009-0.027l-0.018-0.055l-0.018-0.046l-0.027-0.046l-0.009-0.037l-0.009-0.027l0.009-0.027l-0.018,0.009h-0.018l-0.018,0.009 l-0.027-0.009l-0.018-0.009l-0.009-0.037h-0.018l-0.036,0.009l-0.037,0.027l-0.036,0.018l-0.037-0.018v-0.018l0.027-0.037v-0.018 v-0.018l-0.018-0.018l-0.009-0.009l-0.009,0.009l-0.009,0.046l-0.027,0.027L11.7,18.159l-0.1,0.009l-0.328-0.073l-0.018-0.009 v-0.027h-0.018l-0.018,0.018l-0.073-0.009l-0.037-0.018h-0.018l-0.018,0.009l-0.018,0.009l-0.018,0.009h-0.018h-0.018l-0.027-0.018 l-0.027-0.027l-0.027-0.009l-0.037,0.027l-0.055-0.018l-0.192,0.009l-0.073-0.036l-0.018-0.018l-0.091-0.055l-0.073-0.018 l-0.027-0.009l-0.009-0.046l-0.037,0.009l-0.018-0.027l-0.027-0.027l-0.037-0.009l-0.018,0.009l-0.027,0.037l-0.018,0.009 l-0.027,0.009l-0.018,0.009l-0.009,0.027l-0.009,0.055l-0.009,0.027l-0.055,0.064v0.009l-0.219-0.027H9.795l-0.018,0.027 l-0.027,0.018v0.009H9.74H9.731H9.722l-0.009-0.027l-0.009-0.009l-0.037,0.018l-0.082,0.037H9.558H9.476H9.466l-0.018,0.009 l-0.009,0.018v0.018L9.43,18.177l-0.064,0.1l-0.018,0.036H9.339l-0.037,0.064l-0.018,0.037l-0.018,0.018l-0.027,0.009l0.009,0.027 v0.009l-0.018,0.009l0.009,0.027L9.22,18.533l-0.018,0.018l-0.073,0.164l-0.018,0.018l-0.009,0.027l-0.009,0.027v0.027l0.009,0.027 v0.027l-0.027,0.027v0.018l0.009,0.027v0.009l-0.018,0.009L9.056,18.97l-0.018-0.009L9.029,18.97l-0.027,0.018l-0.009,0.009 l-0.009,0.027v0.046l-0.037,0.082v0.036l0.009,0.018l0.046,0.037l0.018,0.027L9.002,19.28l-0.064,0.009l-0.091,0.064l-0.018,0.018 l-0.036-0.027l-0.046,0.027L8.682,19.49l-0.018,0.018l-0.018,0.018l-0.082,0.037l-0.018,0.009L8.537,19.59l-0.018,0.046 l-0.009-0.009l-0.018,0.009l-0.018,0.073l-0.027,0.064L8.391,19.8l-0.082-0.018l-0.109-0.046H8.081l-0.027-0.027l0.009-0.046 l-0.027,0.009l-0.009,0.009l-0.027-0.046H7.98l-0.018,0.027l-0.027,0.009l-0.027-0.018l-0.055-0.055l-0.018-0.018l-0.018-0.009 l-0.082-0.055l-0.1-0.109L7.625,19.39l-0.009-0.018v-0.018l-0.018-0.018H7.579H7.525l-0.173-0.064l-0.055-0.037l-0.091-0.091 l-0.018-0.009L7.16,19.125l-0.009-0.009l0.018-0.055L7.16,19.043l-0.018-0.018l-0.018-0.009l-0.146-0.027L6.85,18.952l-0.173-0.073 l-0.073-0.055l-0.091-0.118l-0.064-0.036l-0.046-0.046l-0.064-0.082L6.312,18.46l-0.009-0.009l-0.018-0.009l-0.046-0.046 L6.212,18.35l-0.055-0.018H6.102L6.066,18.35l-0.018-0.037l-0.155-0.118l-0.018-0.009l-0.009-0.009l-0.009-0.018v-0.027 l-0.009-0.009L5.82,18.086l-0.091-0.073l-0.027-0.037v-0.018v-0.027v-0.036l-0.009-0.027l-0.036-0.073l-0.009-0.1l-0.018-0.037 l-0.036-0.036l-0.027-0.046l-0.009-0.018l-0.018-0.109l-0.036-0.055l-0.009-0.018v-0.018l-0.027-0.027v-0.018l-0.009-0.018 l0.009-0.037v-0.018l-0.018-0.137v-0.055l0.009-0.046l0.036-0.082l0.009-0.055l0.009-0.082v-0.055l-0.027-0.036l-0.027-0.082 l-0.018-0.027l-0.036-0.018l-0.009-0.009l-0.018-0.046l-0.018-0.073l-0.027-0.055l-0.036-0.027l-0.009-0.009v-0.027V16.29 l-0.009-0.018l-0.009-0.018l-0.027-0.018l-0.009-0.018L5.209,16.19v-0.009l0.009-0.018v-0.037v-0.018L5.2,16.071v-0.027v-0.009 l0.018-0.027v-0.018L5.209,15.98l-0.027-0.027v-0.018V15.88l-0.009-0.018l-0.018-0.046L5.1,15.743l-0.009-0.027l-0.009-0.009 l-0.064-0.018l-0.018-0.009L4.99,15.661v-0.027l-0.009-0.027v-0.018l-0.018-0.036l-0.036-0.037l-0.046-0.027l-0.037-0.009 L4.808,15.46l-0.082-0.128l-0.009,0.018l-0.027-0.027L4.68,15.314H4.671v-0.027l-0.009-0.009l-0.009-0.009L4.635,15.26l-0.027-0.009 l-0.009-0.037L4.58,15.205H4.571l-0.018-0.009H4.544l-0.018,0.018H4.516H4.507l-0.018-0.009L4.48,15.196l-0.009-0.018l-0.018-0.009 l-0.109-0.073l-0.055-0.018L4.27,15.05l-0.073-0.109l-0.146-0.137l-0.064-0.091l-0.046-0.027l-0.018-0.037l-0.018-0.082 l-0.018-0.046L3.86,14.494l-0.037-0.027L3.787,14.43L3.75,14.375l-0.018-0.018l-0.027-0.009L3.559,14.23l-0.018-0.027l-0.009-0.046 l-0.128-0.201l-0.037-0.027L3.34,13.911v-0.009l-0.027-0.018l-0.037-0.027l-0.009-0.018l-0.009-0.046l-0.009-0.018l-0.027-0.027 l-0.073-0.064l-0.037-0.018l-0.046-0.009L3.03,13.637l-0.064-0.055l-0.082-0.027l-0.046-0.027L2.82,13.5l-0.064-0.055l-0.009-0.009 v-0.018v-0.009l-0.009-0.027L2.72,13.345l-0.073-0.109l-0.018-0.037l-0.027-0.173l-0.036-0.073l-0.037-0.091l-0.064-0.073 l-0.064-0.037H2.31l-0.037-0.018l-0.109-0.137L2.146,12.58L2.118,12.57l-0.027-0.009l-0.009-0.027l-0.009-0.027l0.009-0.018 l-0.037-0.073L2.037,12.37v-0.055L2.027,12.27L2,12.178v-0.036h0.037l0.046,0.009l0.438,0.046l0.438,0.046l0.438,0.046l0.438,0.046 l0.438,0.046l0.438,0.046l0.438,0.037l0.438,0.046l0.438,0.036l0.438,0.046l0.438,0.037l0.428,0.036l0.438,0.037l0.438,0.037 l0.447,0.027l0.438,0.037l0.018-0.328l0.027-0.319l0.027-0.319l0.027-0.328l0.027-0.319l0.018-0.328l0.027-0.319l0.027-0.328 L9.311,9.89L9.33,9.571l0.027-0.328l0.027-0.319l0.027-0.328l0.027-0.319l0.018-0.328l0.027-0.319L9.512,7.31l0.027-0.328 l0.027-0.319l0.018-0.328l0.027-0.319L9.64,5.687l0.027-0.319l0.018-0.319l0.027-0.328L9.74,4.402l0.027-0.328l0.027-0.319 l0.018-0.328L9.84,3.108l0.027-0.319L9.895,2.46V2.387V2.351h0.082h0.064l0.173,0.018l0.264,0.018l0.355,0.027l0.41,0.027 l0.465,0.027l0.492,0.027l0.511,0.036l0.501,0.027l0.501,0.027l0.456,0.018l0.419,0.027l0.346,0.009l0.273,0.018l0.173,0.009h0.055 h0.109h0.018l-0.009,0.118l-0.009,0.264l-0.009,0.264l-0.009,0.264L15.52,3.846L15.501,4.11l-0.009,0.264l-0.009,0.264l-0.009,0.264 l-0.009,0.264l-0.018,0.264l-0.009,0.264l-0.009,0.264l-0.009,0.264L15.41,6.499l-0.009,0.264l-0.018,0.264v0.1v0.027h0.027 l0.091-0.009l0.027,0.009l0.018,0.009l0.036,0.009l0.018,0.018l0.31,0.319l0.037,0.064l0.027,0.027l0.036,0.009l0.109,0.018 l0.037-0.009l0.018-0.009l0.018-0.027l0.018-0.009l0.018-0.009l0.091,0.018l0.073,0.046l0.037,0.018l0.046,0.009l0.027-0.018 l0.018-0.037l0.018-0.109l0.018-0.027h0.027l0.036,0.027l0.009,0.018l0.009,0.009v0.018l0.018,0.018l0.018,0.009l0.018,0.009h0.036 l0.037,0.018l0.018,0.037l0.009,0.036l0.018,0.037l0.055,0.064l0.037,0.036l-0.009,0.018l-0.009,0.027v0.128l0.009,0.036 l0.027,0.027l0.046,0.009h0.091l0.036,0.009l0.073,0.027h0.037h0.046l0.027-0.018h0.037l0.036,0.009l0.146,0.1l0.036,0.018 l0.237,0.055l0.027,0.018l0.128-0.055l0.046-0.009l0.027,0.009l0.055,0.009l0.027,0.018l0.027,0.055l0.009,0.009l0.027,0.018 l0.064,0.082l0.027,0.018h0.091l0.055-0.009l0.009-0.018l0.027-0.036l0.027-0.046l0.027-0.037l0.046-0.009l0.264,0.036h0.055 l0.091-0.036h0.046l0.037,0.027L19.002,8.35l-0.009,0.073l0.009,0.046l0.009,0.082l0.073,0.037l0.091,0.018l0.064,0.027h0.018 l0.018,0.018v0.018l-0.009,0.027l0.009,0.027v0.027l-0.009,0.046l-0.009,0.027v0.009l-0.009,0.037l0.018,0.018l0.046,0.027 l0.082,0.027l0.082-0.009l0.082-0.046l0.164-0.164l0.073-0.055l0.073-0.027l0.073,0.037l0.018,0.046L19.95,8.805l0.018,0.046 l0.027,0.018l0.128-0.009l0.046,0.009l0.027,0.018l0.018,0.027v0.055l0.009,0.055l0.037,0.018l0.118-0.009l0.027-0.009l0.009-0.009 l0.009-0.009l0.027-0.009l0.009-0.009V8.979l0.018-0.027V8.942l0.027-0.018l0.027,0.009l0.055,0.046l0.009-0.018l0.036-0.055V8.887 l0.009-0.009l0.009-0.009L20.68,8.86l0.009-0.009l0.027,0.018l0.018,0.027l0.018,0.018l0.009,0.037l-0.009,0.036l-0.046,0.055 l-0.009,0.046l0.009,0.055l0.027,0.064l0.036,0.046l0.046,0.036l0.064-0.009l0.037-0.037l0.018-0.055V9.115l0.009-0.018L20.99,9.07 V9.052V9.033l-0.018-0.009l-0.009-0.018l-0.009-0.037l0.073,0.018l0.036-0.009l0.037-0.037l0.027-0.064l0.009-0.064V8.787 l0.009-0.018h0.009l0.009-0.009l0.073-0.009h0.009h0.027L21.29,8.76l0.018,0.018l0.009,0.009l0.009,0.018l0.009,0.073l0.009,0.018 l0.009,0.018l0.027,0.027l0.009,0.009H21.4h0.018l0.073-0.009l0.018,0.009l0.018,0.009l0.046,0.037l0.009,0.009H21.6h0.027h0.036 l0.018-0.009l0.009-0.009h0.009l0.009-0.009l0.009-0.009V8.951l0.027-0.073l0.018-0.018V8.851h0.018h0.018h0.027l0.046,0.027 l0.018,0.018v0.009l-0.018,0.046L21.865,8.96v0.009l0.009,0.018v0.009l0.009,0.009l0.027,0.027l0.073,0.018l0.046,0.027l0.009,0.009 l0.009,0.018v0.018l0.009,0.018l0.018,0.009l0.128-0.009l0.036,0.009l0.046,0.055l0.055,0.091l0.055,0.055l0.055-0.036l0.009-0.055 V9.234l0.018-0.027h0.046l0.082,0.009l0.037-0.009l0.037-0.018l0.018-0.037l0.037-0.082l0.018-0.009l0.018-0.009l0.046-0.018 l0.018-0.009h0.1h0.018l0.073-0.027l0.036-0.027l0.027-0.018h0.009l0.009-0.018l0.018-0.018l0.027-0.018l0.018,0.009l0.027,0.018 l0.109,0.073l0.018,0.009l0.055-0.009l0.009-0.018l0.009-0.009l0.018-0.009l0.009,0.018l0.009,0.009l0.018,0.009l0.018-0.018 L23.46,8.915l0.018-0.018h0.064h0.027h0.018l0.009-0.018l0.027-0.009l0.018-0.018h0.018l0.046-0.027h0.009l0.027,0.009h0.018 l0.027-0.046l0.018-0.018l0.027,0.009l0.027,0.018l0.018,0.018l0.027,0.018l0.009,0.037l-0.018,0.027l0.027,0.018h0.064v0.009 l0.009,0.009l0.009,0.009h0.009l0.009-0.009l0.009-0.009h0.018l0.009,0.009l0.018,0.009l0.009,0.018h0.018h0.164h0.018l0.009-0.009 l0.009-0.009l0.009-0.009V8.915V8.897h0.018l0.018,0.009l0.027-0.009l0.018-0.009l0.009-0.009l0.009-0.018l0.027,0.018l0.009-0.027 V8.805l0.009-0.036l0.036-0.027h0.037l0.128,0.037l0.018,0.018l0.009,0.009L24.7,8.824l0.009,0.018l0.064,0.009l0.037,0.027 l0.064,0.055L24.9,8.96l0.027,0.009h0.073h0.009l0.018,0.018l0.009,0.009l0.009,0.009v0.037l0.018,0.018h0.018l0.018,0.018 l0.009,0.009l0.027,0.055l0.073,0.073l0.128,0.018l0.046,0.018h0.027l0.027,0.009l0.027,0.055l0.037,0.018l0.018,0.018l0.009,0.009 l0.018-0.009l0.018-0.009h0.018l0.027,0.009l0.018,0.009l0.027,0.009l0.018,0.018l0.046-0.009l0.046,0.009l-0.009,0.009 l-0.009,0.009l0.027,0.018l0.1,0.027V9.434l0.027,0.018h0.055h0.009l0.037,0.009l0.018,0.046l0.009,0.046l0.037,0.037l0.055,0.009 l0.046-0.009v0.018L26.14,9.626l0.018,0.027l0.037,0.009l0.036-0.027l0.046,0.027l0.018-0.027l0.009-0.037l0.018-0.027h0.037 l0.091,0.046l0.027-0.009l0.027-0.027l0.027-0.009l0.064,0.037l0.037,0.009h0.046l0.036-0.018l0.055,0.037l0.027,0.018l0.018,0.009 l0.009,0.146l0.009,0.283l0.009,0.273v0.283l0.009,0.273l0.009,0.273v0.273l0.009,0.273l0.009,0.273v0.273l0.009,0.273v0.273 l0.009,0.273v0.173v0.009l0.009,0.009l0.009,0.009l0.027,0.018l0.009,0.009l0.027,0.018l0.009,0.009l0.046,0.073l0.009,0.009 l0.009,0.009l0.009,0.009l0.064,0.027l0.018,0.018l0.036,0.036l0.027,0.037l0.018,0.027l0.009,0.027l0.009,0.018l0.018,0.027 l0.046,0.073l0.009,0.027l0.018,0.082l0.009,0.027v0.018l0.009,0.009l0.009,0.009l0.009,0.009v0.009v0.018l-0.009,0.036 l-0.009,0.018v0.064v0.018v0.018l-0.009,0.018l-0.009,0.018v0.018v0.018l0.009,0.027l0.009,0.009l0.009,0.018l0.018,0.027 l0.055,0.064l0.018,0.009l0.009,0.009h0.009l0.055,0.018h0.009l0.009,0.009l0.009,0.009v0.018l-0.009,0.009v0.009h-0.009 l-0.018,0.018v0.009l-0.009,0.009l0.009,0.018v0.009l0.009,0.009l0.009,0.009h0.009l0.027,0.009h0.009l0.009,0.009v0.018 l0.009,0.018l0.009,0.036v0.018l0.009,0.018l0.018,0.027l0.037,0.027l0.027,0.018v0.009v0.009l-0.018,0.027l-0.009,0.009 l-0.009,0.027v0.009v0.018v0.027l0.009,0.009l0.009,0.009l0.055,0.046l0.018,0.027l0.009,0.009v0.009l0.009,0.009v0.018l0.009,0.018 l0.009,0.009l0.009,0.018v0.018l0.009,0.055l0.009,0.018v0.009h0.009l0.009,0.009h0.009h0.009l0.037-0.009l0.036,0.009l0.009,0.036 v0.1l-0.009,0.027l-0.018,0.027v0.027l0.055,0.082l0.027,0.027L28,15.488l-0.009,0.018l-0.009,0.018l-0.055,0.018h-0.018 l-0.027,0.027l0.018,0.055l0.027,0.046l0.018,0.018l0.018,0.027l-0.009,0.009l-0.009,0.027l-0.027,0.027L27.9,15.798l-0.009,0.027 v0.027l0.018,0.046v0.018v0.027v0.027L27.9,16.007l-0.073,0.137l-0.009,0.109l-0.018,0.037l-0.073,0.055l-0.018,0.037L27.69,16.5 l-0.009,0.027l-0.036,0.009l-0.027,0.027l-0.018,0.046v0.046v0.009l0.018,0.009l0.009,0.009v0.046v0.009l0.027,0.064v0.018v0.046 l-0.018,0.037l-0.046,0.055l-0.027,0.055l-0.009,0.046l0.009,0.1l0.018,0.037l0.037,0.027l0.027,0.036l0.009,0.055l-0.009,0.018 l-0.018,0.046v0.027l0.009,0.027l0.018,0.027v0.018l0.009,0.046l0.009,0.027v0.046l-0.009,0.046l-0.027,0.055v0.018l0.018,0.027 L27.535,17.876L27.535,17.876z"/></svg>