<?xml version="1.0"?><svg xmlns="http://www.w3.org/2000/svg"  viewBox="0 0 30 30" width="60px" height="60px">    <path d="M29.983,20.843L29.966,21.8v0.94h-0.017h-0.102l-0.051-0.034v0.034l-0.188-0.051l-0.051-0.034l0.017-0.017 l0.017-0.017l-0.085-0.017l-0.085,0.017l-0.034-0.034l-0.051-0.017l-0.034-0.017l-0.051-0.017h-0.034l-0.034,0.017l-0.034,0.017 l-0.017-0.017l-0.034-0.034l-0.068-0.034l-0.051-0.102l-0.051-0.017h-0.051l-0.085-0.034l-0.239-0.034l-0.137-0.137l-0.051-0.103 l-0.017-0.017l-0.034-0.034h-0.034L28.24,21.97v-0.068l-0.017-0.017l-0.017-0.017l-0.034-0.034h-0.017h-0.137l-0.051-0.017 l-0.051-0.051l-0.119-0.102l-0.068-0.051l-0.12-0.017l-0.017-0.034l-0.017-0.034l-0.017-0.017l-0.034-0.034l-0.239-0.068h-0.068 l-0.068,0.051l-0.017,0.068v0.085l-0.017,0.051l-0.051-0.034l-0.017,0.034l-0.017,0.017l-0.034,0.017l-0.051,0.017l-0.034-0.017 h-0.034v0.034v0.034l-0.017,0.017L26.839,21.8l-0.017,0.017h-0.034h-0.307h-0.034l-0.017-0.034l-0.034-0.017l-0.017-0.017h-0.034 l-0.017,0.017l-0.017,0.017h-0.017l-0.017-0.017l-0.017-0.017v-0.017h-0.12l-0.051-0.034l0.034-0.051l-0.017-0.068l-0.051-0.034 l-0.034-0.034l-0.051-0.034l-0.051-0.017l-0.034,0.034l-0.051,0.085h-0.034l-0.051-0.017h-0.017l-0.085,0.051h-0.034l-0.034,0.034 l-0.051,0.017l-0.017,0.034h-0.034h-0.051h-0.119l-0.034,0.034l0.017,0.119l-0.034,0.034l-0.034-0.017l-0.017-0.017l-0.017-0.034 l-0.034,0.017l-0.017,0.017l-0.017,0.034l-0.102,0.017l-0.034-0.017l-0.205-0.137l-0.051-0.034l-0.034-0.017l-0.051,0.034 l-0.034,0.034L24.584,21.8h-0.017l-0.051,0.034l-0.068,0.051l-0.137,0.051h-0.034h-0.188l-0.034,0.017l-0.085,0.034l-0.034,0.017 l-0.034,0.017l-0.068,0.154l-0.034,0.068l-0.068,0.034l-0.068,0.017l-0.154-0.017h-0.085l-0.034,0.051v0.051l-0.017,0.102 l-0.102,0.068l-0.102-0.103l-0.103-0.171l-0.085-0.102l-0.068-0.017l-0.239,0.017l-0.034-0.017l-0.017-0.034V22.09l-0.017-0.034 l-0.017-0.017L22.5,21.988l-0.137-0.034l-0.051-0.051l-0.017-0.017v-0.017l-0.017-0.034v-0.017l0.017-0.017l0.034-0.085v-0.017 l-0.034-0.034l-0.085-0.051h-0.051h-0.034H22.09v0.017l-0.034,0.034L22.004,21.8v0.034l-0.017,0.017l-0.017,0.017h-0.017 l-0.017,0.017l-0.034,0.017h-0.068h-0.051h-0.034l-0.017-0.017l-0.085-0.068L21.611,21.8l-0.034-0.017L21.441,21.8h-0.034h-0.017 l-0.017-0.017l-0.051-0.051l-0.017-0.034l-0.017-0.034l-0.017-0.137l-0.017-0.034l-0.017-0.017l-0.034-0.034l-0.034-0.017h-0.051 h-0.017l-0.137,0.017l-0.017,0.017h-0.017l-0.017,0.034v0.051l-0.017,0.12l-0.051,0.12l-0.068,0.068l-0.068,0.017l-0.137-0.034 l0.017,0.068l0.017,0.034l0.034,0.017v0.034v0.034l-0.085,0.051l-0.017,0.034v0.137l-0.034,0.102l-0.068,0.068l-0.12,0.017 l-0.085-0.068l-0.068-0.085l-0.051-0.119l-0.017-0.103l0.017-0.085l0.085-0.102l0.017-0.068l-0.017-0.068l-0.034-0.034l-0.034-0.051 l-0.051-0.034l-0.017,0.017l-0.051,0.017l-0.017,0.017l-0.017,0.017v0.034l-0.068,0.103l-0.017,0.034l-0.102-0.085l-0.051-0.017 l-0.051,0.034V21.8l-0.034,0.051v0.017l-0.017,0.017l-0.051,0.017l-0.017,0.017l-0.017,0.017l-0.051,0.017l-0.222,0.017 l-0.068-0.034l-0.017-0.102v-0.102l-0.034-0.051L19.1,21.646l-0.085-0.017l-0.239,0.017l-0.051-0.034l-0.034-0.085l0.017-0.154 l-0.034-0.085l-0.137-0.068L18.4,21.27l-0.137,0.102l-0.307,0.307l-0.154,0.085l-0.154,0.017l-0.154-0.051l-0.085-0.051 l-0.034-0.034l0.017-0.068V21.56l0.017-0.051l0.017-0.085v-0.051l-0.017-0.051l0.017-0.051v-0.034l-0.034-0.034h-0.034l-0.12-0.051 l-0.171-0.034l-0.137-0.068l-0.017-0.154l-0.017-0.085l0.017-0.137l0.017-0.103l-0.068-0.051h-0.085l-0.171,0.068h-0.102 l-0.496-0.068l-0.085,0.017l-0.051,0.068l-0.051,0.085l-0.051,0.068l-0.017,0.034l-0.102,0.017h-0.171l-0.051-0.034l-0.12-0.154 l-0.051-0.034l-0.017-0.017l-0.051-0.102l-0.051-0.034l-0.102-0.017l-0.051-0.017l-0.085,0.017l-0.239,0.102l-0.051-0.034 l-0.444-0.102l-0.068-0.034l-0.273-0.188l-0.068-0.017h-0.068l-0.051,0.034h-0.085h-0.068l-0.137-0.051l-0.068-0.017h-0.171 l-0.085-0.017l-0.051-0.051l-0.017-0.068v-0.239l0.017-0.051l0.017-0.034l-0.068-0.068l-0.102-0.12l-0.034-0.068l-0.017-0.068 l-0.034-0.068l-0.068-0.034h-0.068l-0.034-0.017l-0.034-0.017l-0.034-0.034v-0.034L12.472,19.1l-0.017-0.034l-0.068-0.051h-0.051 l-0.034,0.051l-0.034,0.205l-0.034,0.068l-0.051,0.034l-0.085-0.017l-0.068-0.034l-0.137-0.085l-0.171-0.034l-0.034,0.017 l-0.034,0.017l-0.034,0.051l-0.034,0.017l-0.068,0.017l-0.205-0.034l-0.068-0.017L11.19,19.22l-0.068-0.12l-0.581-0.598 l-0.034-0.034l-0.068-0.017l-0.034-0.017l-0.051-0.017l-0.171,0.017h-0.051v-0.051v-0.188l0.034-0.496l0.017-0.495l0.017-0.513 l0.017-0.496l0.017-0.496l0.017-0.495l0.034-0.496l0.017-0.495l0.017-0.496l0.017-0.496l0.017-0.495l0.034-0.496l0.017-0.495 l0.017-0.496l0.017-0.495l0.017-0.496l0.017-0.222h-0.034h-0.205h-0.102l-0.325-0.017L9.294,9.977L8.645,9.96L7.859,9.909 L7.005,9.875l-0.94-0.051l-0.94-0.051L4.168,9.704L3.246,9.653L2.375,9.601L1.606,9.55L0.94,9.499L0.444,9.465L0.119,9.431H0 l0.034-0.547l0.051-0.547L0.119,7.79l0.034-0.53l0.427,0.017l0.427,0.034l0.427,0.034L1.879,7.38l0.427,0.017l0.427,0.034 l0.427,0.034l0.427,0.017l0.803,0.051l0.803,0.051l0.803,0.051L6.8,7.671l0.786,0.051l0.803,0.034l0.803,0.034l0.803,0.034 l0.803,0.034L11.6,7.893l0.803,0.034l0.803,0.034l0.803,0.017l0.803,0.034l0.803,0.017l0.803,0.017l0.803,0.017l0.803,0.017 l0.803,0.017l0.803,0.017h0.803l0.803,0.017h0.803l0.803,0.017h0.803h0.803h0.803h0.803l0.803-0.017h0.803l0.803-0.017h0.803 l0.017,0.547v0.547v0.547l0.017,0.547l0.085,0.598l0.085,0.615l0.085,0.598l0.085,0.615l0.102,0.598l0.085,0.615l0.085,0.598 L30,15.154v0.94v0.957l-0.017,0.94v0.957v0.957L29.983,20.843L29.983,20.843z"/></svg>