<?xml version="1.0"?><svg xmlns="http://www.w3.org/2000/svg"  viewBox="0 0 30 30" width="60px" height="60px">    <path d="M19.15,7.094l0.264-0.132v0.044l0.175,0.395v0.088l-0.044,0.044L19.15,7.621l0.132,0.044l0.088,0.045 l0.176,0.044h0.044l0.044-0.044h0.044l0.044,0.044l0.044,0.088l0.132,0.088l0.396,0.659v0.088l-0.352-0.307L19.81,8.323l0.132,0.307 l0.22,0.132l0.526,0.132L20.6,8.982l-0.088,0.044h-0.088l0.219,0.132l0.439-0.044l0.044,0.132l0.176,0.044V9.158l-0.088-0.264 l0.044-0.132l0.088-0.088l0.176-0.175l0.044,0.175l0.044,0.044l0.088,0.044l0.088-0.044l0.088,0.044v0.044v0.132l0.088,0.044V9.07 l-0.088,0.044L21.83,9.158L21.786,9.29l-0.044,0.088l-0.044,0.088l-0.044,0.044h-0.132h-0.044V9.466h-0.044l-0.088,0.088 l-0.044,0.132l-0.044,0.132v0.088l-0.879,0.439l-0.351,0.263l-0.132,0.176l0.088,0.044l-0.044,0.044l-0.044,0.088v0.088v0.132 l0.088-0.088l0.088-0.132l0.044-0.088l0.088,0.088l0.088,0.088l0.044,0.044l-0.044,0.044l-0.088,0.044l-0.044,0.044v0.044 l-0.132,0.22l-0.044,0.044l-0.044,0.044H19.81l-0.044,0.044v0.176l0.088,0.088l0.132,0.044l0.132,0.044l-0.176,0.132l-0.307-0.22 l-0.132,0.132l-0.044,0.175l0.044,0.088l0.088,0.176l0.088,0.22l0.044,0.088l0.088,0.088l-0.088,0.044l-0.175-0.176h-0.132 l-0.088,0.044l0.044,0.088l0.088,0.044l0.088,0.044l-0.132,0.044l-0.175-0.044l-0.132-0.044l-0.044,0.175h0.088h0.088l0.087,0.044 l0.045,0.088l-0.088,0.044l-0.088,0.088v0.132l0.088,0.132l0.132,0.044h0.044l0.175-0.176l0.044,0.308h0.132l0.176-0.044 l0.087,0.132v0.044l-0.044,0.132v0.044l0.044,0.044h0.088h0.044v-0.044h0.044l0.088-0.088l0.132-0.132l0.088-0.088l0.132,0.132 l0.044-0.088l0.044-0.132v-0.044l-0.132-0.044l-0.132-0.132l-0.088-0.132l-0.044-0.132l0.439,0.263l0.22,0.088h0.439l0.219,0.088 l0.175,0.088l0.264,0.22l0.044,0.044l0.088,0.351h0.044l0.132,0.088l0.219,0.176l0.308,0.308l0.219,0.132v0.22l0.132,0.132 l0.351,0.351h0.044v0.044v0.088l-0.088,0.088h-0.088h-0.088h-0.088l0.044-0.044l0.044-0.044l0.088-0.044l-0.176-0.264l-0.132-0.132 l-0.088-0.044l-0.044,0.088l0.044,0.527l-0.088-0.044l-0.044,0.044h-0.088l-0.044,0.088l0.615,0.351l0.175,0.088l0.132-0.044 l0.307-0.088l0.22,0.088l0.219,0.351l0.176,0.395v0.307l0.088,0.264l0.307,0.22l0.615,0.22l0.351,0.044l1.01-0.176l-0.088,0.088 l-0.308,0.088l-0.088,0.088l0.044,0.044h0.176l0.351-0.088l0.22-0.175l0.352-0.351l0.659-0.395l0.22-0.22l0.263-0.132l0.088-0.088 l0.088-0.351l-0.044-0.351l-0.132-0.352l-0.264-0.22h0.088l0.044-0.044l0.132-0.088v-0.088h-0.176l-0.132-0.044l-0.088-0.044 l-0.088-0.044l-0.088,0.132l0.044,0.352l-0.044,0.132l-0.132-0.527l-0.088-0.176l-0.263-0.439l-0.088-0.132l-0.176-0.307 l-0.351-0.132l-0.264,0.088l-0.088,0.307h0.132l0.044-0.044v0.088l-0.132,0.088l-0.132-0.044l-0.264-0.22h-0.044l-0.044-0.044 h-0.088v-0.044v-0.132l0.044-0.088l0.044-0.088l0.088-0.044l0.132,0.044l0.351-0.132h0.132l0.132,0.088l0.396,0.088l0.219,0.044 l0.571,0.395l0.263,0.264l0.747,1.186l0.176,0.176l-0.044,0.044v0.044h-0.044l-0.175-0.044l-0.132-0.088v0.132l0.044,0.308v0.176 l0.176-0.176h0.132l0.088,0.132l0.176,0.527L30,18.031h-0.307l-1.23,0.615l-0.395,0.088l-0.219,0.22l-0.088,0.044l-0.088,0.044 l-0.044,0.088l-0.044,0.263l-0.088,0.088v-0.132v-0.308l-0.132,0.088l-0.176,0.132l-0.132,0.088l-0.263,0.044l-0.088,0.044 l-0.088,0.132l-0.088,0.087l-0.176-0.175h-0.088l-0.088,0.088l-0.132,0.527l-0.088,0.22l-0.176,0.176l-0.219,0.132l-0.263,0.088 l-0.22,0.088l-0.439,0.351l-0.219,0.088l0.132-0.264v-0.307l-0.22-0.835l-0.088-0.176l-0.088-0.132l0.044-0.132l0.088-0.088v-0.132 l-0.044-0.088l0.044-0.088l0.044-0.044l-0.088-0.088h-0.088l-0.044,0.088v0.176h-0.044l-0.308-0.132l-0.176-0.044L23.5,18.997 l0.044,0.352l0.088,0.132l0.087,0.132l-0.219,0.044l-0.044,0.132v0.175l-0.088,0.22l-0.175-0.131l-0.088,0.044l-0.044,0.132 l0.044,0.044v0.044l-0.088,0.088l-0.132,0.132h-0.088l0.132,0.264v0.132l-0.088,0.044l-0.044-0.044l-0.132-0.176l-0.044-0.087 l-0.088-0.044l-0.219-0.088l0.044,0.307l-0.044,0.176l-0.044,0.22l0.131,0.308l-0.131,0.22l-0.088,0.088l-0.088,0.044l-0.044-0.044 l0.044-0.044l-0.307,0.351l-0.175,0.132l-0.263-0.044l0.132-0.132v-0.132l-0.088-0.176l-0.132-0.088l0.044,0.219l-0.088,0.088 h-0.308l0.132,0.176l0.044,0.044l-0.176,0.131l-0.395,0.659l-0.176-0.263l-0.044-0.088v-0.131v-0.088l-0.176-0.352l-0.175-0.483 l-0.044-0.263l-0.044-0.22v-0.483l0.263-0.878l0.088-0.483l-0.132,0.088l-0.044,0.132l-0.132,0.571l-0.044,0.088l-0.045,0.088 l-0.219-0.044h-0.088l-0.044,0.088v0.044l-0.044,0.175l-0.351-0.395l-0.176-0.088H18.8h-0.132l-0.132-0.088l-0.132-0.088 l-0.088-0.087v-0.044l-0.044-0.088l-0.044-0.351l-0.044-0.132l-0.044-0.044v-0.088v-0.088V18.91l-0.044-0.132l-0.044-0.044h-0.088 l-0.132,0.044h-0.088l-0.045-0.044V18.69l-0.219-0.703l-0.088-0.308l-0.088-0.175l-0.396,0.132l-0.747,0.176l-0.703,0.22 l-0.746,0.22l-0.703,0.175l-0.044-0.088l-0.923,0.22l-1.185,0.264l-1.23,0.308l-1.185,0.263L8.258,19.7l-0.439,0.088l-0.132,0.087 L7.643,19.92H7.511H7.335l-1.142,0.263l0.044,0.264l-0.351,0.088l-0.088-0.264l-0.439,0.044l-0.527,0.132L4.26,20.579l-0.966,0.175 l-1.011,0.22l-1.01,0.176l-0.966,0.22L0,21.15v-0.22v-0.395l0.044-0.879v-0.834l0.044-0.835v-0.834l0.044-0.835v-0.835l0.044-0.834 v-0.835v-0.308l0.088-0.175l0.395-0.088l0.44-0.088l0.395-0.088l0.395-0.088l0.395-0.088l0.395-0.044l0.395-0.088l0.395-0.088 l0.396-0.088l0.395-0.088l0.395-0.088l0.396-0.087l0.395-0.088l0.396-0.088l0.395-0.044l0.396-0.088h0.044l0.571-0.132l0.571-0.132 l0.571-0.132l0.572-0.132l0.571-0.132l0.571-0.132l0.571-0.132l0.571-0.088l0.571-0.132l0.571-0.132l0.571-0.132l0.571-0.131 l0.571-0.132l0.571-0.132l0.571-0.132l0.571-0.131l0.176-0.044l0.088-0.044l0.044-0.044l0.132-0.132l0.044-0.132l0.088-0.176 l0.044-0.044l0.088-0.044l0.132-0.088l0.088-0.088l0.044-0.132l0.044-0.044V8.675l0.044-0.132V8.499l0.044-0.088l0.044-0.044 l0.044-0.044l0.044-0.044l0.088-0.044l0.132-0.044h0.088h0.088l0.088-0.044l0.088-0.132l0.044-0.088l0.044-0.175l0.044-0.045 l0.088-0.087l0.659-0.527l0.088-0.044h0.088l0.307,0.044H19.15L19.15,7.094z"/></svg>