<?xml version="1.0"?><svg xmlns="http://www.w3.org/2000/svg"  viewBox="0 0 30 30" width="60px" height="60px">    <path d="M5.391,0.093L5.352,0.072L5.345,0.046L5.385,0L5.4,0.038l0.02,0.006l0.029-0.017L5.46,0.037L5.457,0.058 L5.436,0.076L5.391,0.093z M10.415,1.093l-0.002,0.018l0.059,0.071l0.101,0.066L10.6,1.276l0.04,0.086l-0.001,0.065l0.064,0.119 l-0.002,0.027L10.67,1.622l0.01,0.068L10.655,1.72l0.002,0.037l-0.022,0.05l0.003,0.034l0.039,0.007l0.013,0.012l-0.013,0.047 l-0.045,0.079l-0.046,0.037l-0.049,0.076l-0.099,0.059l-0.044,0.036l-0.068,0.028l-0.132,0.119L10.08,2.379l-0.067,0.06L9.977,2.49 L9.924,2.641L9.861,2.692L9.859,2.707L9.923,2.73L9.892,2.758L9.863,2.783L9.849,2.854L9.802,2.927L9.771,2.949L9.762,2.933 L9.704,2.914L9.671,2.883L9.636,2.901l-0.035-0.01L9.564,2.903L9.507,2.866L9.451,2.863l0.005,0.02l0.149,0.056l0.039,0.024 L9.62,3.025L9.581,3.015L9.533,3.04L9.475,3.027L9.471,3.028L9.442,3.039l-0.07-0.008L9.318,3.062L9.275,3.053l-0.009,0.05 L9.247,3.12L9.172,3.091L9.12,3.119L9.088,3.114L9.045,3.13L9.013,3.121L8.97,3.139l-0.048-0.01l-0.039,0.01L8.85,3.128L8.8,3.138 L8.772,3.124L8.676,3.017L8.611,2.924L8.528,2.89L8.502,2.845L8.398,2.807l-0.03-0.001L8.334,2.762L8.288,2.738L8.215,2.696 L8.107,2.581L8.099,2.558L8.063,2.533L8.046,2.491L8.011,2.476L7.956,2.497l-0.039-0.02L7.904,2.405L7.86,2.318L7.838,2.297 l-0.03-0.164L7.794,2.025L7.756,1.968l-0.001-0.05l0.021-0.021L7.548,1.709L7.506,1.646l-0.08-0.074L7.419,1.551L7.41,1.53 L7.342,1.477L7.281,1.398L7.269,1.341l0.019-0.105L7.265,1.093l0.008-0.053l0.15-0.229L7.469,0.76l0.076-0.007L7.646,0.72 l0.07-0.006L7.8,0.683l0.025-0.02L7.9,0.582l0.123-0.117l0.089-0.029L8.27,0.423l0.037,0.013L8.376,0.47l0.038-0.004L8.47,0.492 l0.06-0.009l0.058,0.014l0.037-0.012l0.03-0.013l0.004,0l0.053,0l0.095-0.021l0.074,0l0.194-0.006l0.117-0.026l0.039,0.002 l0.016,0.016l0.046,0.047l0.062-0.002L9.401,0.5l0.023,0.025l0.007,0.027L9.414,0.608l0.019,0.023l0.043-0.009l0.029,0.004 l0.014,0.032l0.043,0.02l0.005,0.069l0.022,0.029l0.043,0.02L9.662,0.79L9.691,0.75l0.026-0.028l0.028-0.01l0.062,0.002l0.066,0.032 l0.058,0.057l0.083,0.035l0.092,0.066l0.025,0.055l0.04-0.014l0.028-0.005l0.058,0.024l0.045-0.016l0.038,0.016l0.024,0.068 l0.063,0.033L10.415,1.093z M4.565,0.382l0.06,0.008l0.039-0.009l0.049-0.019l0.156,0.026l0.088-0.002l0.167-0.089l0.057-0.077 l0.052-0.045l0.135-0.01L5.41,0.237l0.029,0.011l0.028,0l0.032,0l0.058,0.087l0.003,0.039L5.544,0.419L5.501,0.465l-0.07,0.006 L5.344,0.512L5.249,0.596l-0.103,0.13L5.13,0.784l-0.012,0.12L5.115,0.91L5.101,0.937L5.016,0.954L4.962,0.932L4.939,0.937 L4.9,0.908L4.843,0.923L4.79,0.89L4.751,0.887L4.722,0.872L4.694,0.861L4.651,0.866L4.575,0.833L4.519,0.834L4.441,0.857L4.23,0.989 L4.091,1.075L4.044,1.14L3.993,1.158L3.916,1.237L3.899,1.219L3.847,1.201L3.832,1.142L3.814,1.121L3.771,1.105L3.766,1.074 l0.021-0.029l-0.001-0.05L3.769,0.96l0.013-0.104l0.03-0.037l0.03-0.039l0.021-0.052L3.858,0.703l0.138-0.08L4.05,0.554l0.087-0.065 l0.17-0.043l0.201-0.073L4.565,0.382z M13.617,7.745l-0.01-0.021l0.012-0.015l0.07-0.038l0.027,0.024l0.006,0.032l-0.073,0.026 L13.617,7.745z M15.364,8.963l-0.012-0.035l0.02-0.022l0.022,0.008l0.003,0.038l-0.016,0.015L15.364,8.963z M13.802,8.257 L13.795,8.24l0.019-0.007l0.006,0.013L13.802,8.257z M13.974,8.426L13.89,8.374l0.018-0.023l0.003-0.053l0.013-0.014l0.035,0.011 l0.025,0.044l0.015,0.054l-0.015,0.032L13.974,8.426z M14.887,5.597l-0.003,0.096l0.013,0.081l-0.008,0.019L14.898,5.9l-0.003,0.048 l0.028,0.045l-0.018,0.078L14.85,6.117l0.001,0.089l0.004,0.09l0.019,0.066l0.025,0.224l0.019,0.037l-0.004,0.04l-0.044,0.052 l-0.007,0.031l0.036,0.026l0.042-0.026l0.037,0.039l0.045,0.073l0.003,0.03l-0.015,0.017l0.012,0.012L14.99,7.096l-0.047,0.046 l-0.099,0.038l-0.016-0.012l-0.019,0.021l-0.002,0.068L14.79,7.264L14.787,7.29l0.018,0.038l-0.01,0.036L14.75,7.418l-0.01,0.041 l0.006,0.039l0.03,0.006l-0.001,0.009l0.033,0.031l0.011,0.031l0.033,0.023l0.001,0.11l-0.027,0.011l0.013,0.083l0.025,0.058 l0.032-0.01l0.01,0.015l0.001,0.035L14.893,7.94L14.9,7.99l0.032,0.03l0.043,0.015l0.039,0.002l0.116-0.153l-0.051-0.06L15.072,7.77 l0.018-0.023l0.028,0.009l0.056-0.022l0.028,0.017l0.073,0.09l0.042,0.015l0.092,0l0.026,0.022L15.432,7.9l-0.056,0.032 l-0.062,0.005l-0.063,0.096l-0.071,0.033l-0.01,0.014l-0.01,0.014L15.158,8.19l0.016,0.053l0.05,0.053l0.02,0.039l0.015,0.083 L15.257,8.44l-0.061,0.067l-0.04,0.14l-0.004,0.086l0.023,0.079l0.022,0.046l0.062,0.054l0.05,0.126l0.057,0.022l0.009,0.036 l-0.01,0.02l-0.073,0.03l-0.166,0.044l-0.092,0.024l-0.041,0.002L14.955,9.2l-0.055,0.053l-0.065-0.03l-0.013-0.023l0.011-0.04 l0.024-0.03l0.004-0.034l-0.008-0.031l-0.033-0.031l-0.196-0.067l-0.118-0.03l-0.06,0.001l-0.135,0.035l-0.033-0.01l-0.024-0.03 l-0.105-0.05l-0.014-0.042l0.028-0.088l-0.016-0.049l-0.037-0.046L14.11,8.611L14.1,8.568l-0.055-0.047l-0.021-0.04l0.001-0.042 l0.027-0.072L14.04,8.342l-0.032-0.023l-0.023-0.043l-0.052-0.022l-0.01-0.038l0.01-0.023l0.027-0.019L13.952,8.15l-0.167,0.013 l-0.09,0.021l-0.022-0.017l-0.018-0.046l-0.077-0.049L13.52,8.016l-0.012-0.043l0.008-0.072l0.005-0.006l0.033-0.041l0.007-0.042 l0.03-0.024l0.06,0.002l0.078,0.063l0.015-0.011l-0.002-0.033l0.029-0.021l0.077-0.055l0.005-0.024L13.83,7.698l-0.066-0.106 l-0.03-0.035L13.698,7.55l-0.015,0.013l-0.002,0.039l-0.041,0.034L13.62,7.614l-0.013-0.099L13.6,7.489l-0.015-0.012l-0.057,0.058 l-0.002,0.043l0.021,0.065l0.029,0.017l0.001,0.056l-0.042,0.07l-0.021,0l-0.051-0.098l0.017-0.021l-0.005-0.016l-0.057-0.011 l-0.015-0.014l0-0.048l0.029-0.036l0.005-0.028l-0.027-0.011l-0.001-0.046l-0.077,0.011l-0.007,0.014L13.31,7.51l-0.031,0.022 l0.008,0.035l0.107,0.101l0.077,0.115l0.018,0.052l-0.009,0.06l-0.053,0.053l-0.06,0.02l-0.077-0.006l-0.194-0.074l-0.15-0.034 l-0.36-0.14L12.541,7.67l-0.018-0.046l-0.005-0.052l0.043-0.176l-0.008-0.01l0.006-0.051l0.015-0.045l0.039-0.18l-0.011-0.088 l-0.019-0.088l-0.087-0.168l-0.007-0.046l0.038-0.094l0.01-0.06l-0.003-0.161l-0.035-0.108l-0.037-0.033l0.009-0.064l-0.014-0.082 L12.44,6.091l0.005-0.043l0.061-0.084l0.082-0.156l0.015-0.061l0.004-0.088l-0.017-0.084l-0.047-0.132l-0.007-0.02L12.472,5.3 l0.017-0.01l0.098,0.041l0.123,0.051l0.139,0.066l0.021,0.01l0.027,0.012l0.043,0.024l0.064,0.035l0.16,0.088l0.005,0.002 l0.113,0.054l0.083,0.023l0.032,0.038l0.029,0.011l0.065-0.011l0.123-0.017l0.034-0.042l0.249-0.056l0.124-0.065l0.049-0.074 l0.256-0.072l0.08-0.028l0.102-0.019l0.074,0.011l0.043-0.005l0.086,0.029l0.049-0.01l0.082,0.065L14.887,5.597z M17.975,11.435 l0.044,0.053l0.039,0.002l0.086,0.046l0.038,0.04l0.105,0.058l0.063,0.036l0.17,0.177l0.132,0.054l0.163,0.151l0.089,0.048 l0.049-0.02l0.036-0.036l0.073-0.074l0.076-0.038l0.031,0.021l0.031,0.067l-0.012,0.155l-0.018,0.062l0.004,0.056l0.043,0.07 l0.038,0.008l0.009,0.026l0.021,0.017l0.045,0.006l0.011,0.033l0.034,0.02l0.008,0.031l0.05,0.029l0.035-0.037l0.04,0.089 l0.052-0.004l0.034,0.059l0.075,0.042l0.06-0.008l0.092,0.059l0.034,0.019l0.102-0.011l0.055,0.016l0.006,0.002l0.055,0.062 l0.007,0.009l0.058-0.008l0.164,0.092l0.08,0.034l0.029,0.035l0.004,0.032l-0.052,0.036l0.062,0.087l0.104,0.017l0.009,0.03 l-0.053,0.054l-0.274,0.127l-0.188,0.049l-0.084,0.005l-0.079,0.019l-0.072-0.002l-0.046,0.01h-0.088h-0.033l-0.055-0.039 l-0.027,0.004l-0.023-0.01l-0.051,0.017l-0.029-0.01l-0.022,0.009l-0.016,0.005l-0.024-0.015l-0.068,0.002l0.023-0.028l-0.036-0.029 l-0.049-0.011l-0.03,0.009l-0.036-0.004l-0.062-0.035l-0.044-0.028l-0.018-0.052l-0.104-0.085l-0.214-0.173l-0.117-0.125 l-0.006,0.005l-0.095-0.105l-0.055-0.079l-0.087-0.089l-0.034-0.072l-0.059-0.055l-0.056-0.064l-0.148-0.093l-0.007-0.004 l-0.014-0.002l-0.046-0.05l-0.037,0.005l-0.171-0.063l-0.135-0.023l-0.058-0.039l-0.047-0.012l-0.019-0.015l-0.047-0.041 l-0.035-0.005l-0.104-0.048l-0.257-0.114l-0.198-0.127l-0.148-0.103l-0.029-0.021l-0.02-0.028l-0.013-0.04l0.016-0.022l0.061-0.031 l0.03-0.017l0.058-0.076l0.026-0.023l0.043-0.006l0.027-0.026l0.031-0.026l0.12-0.057l0.042,0.014l0.042-0.008l0.099-0.02 l0.053-0.031l0.021-0.014l0.03-0.046l0.038-0.073l0.005-0.01l-0.003-0.056l-0.022-0.044l0.008-0.026l0.029-0.019l0.024,0.009 l0.042,0.055l0.124,0.097l0.066,0.016l0.065,0.058l0.019,0.087l0.018,0.031l0.17,0.122L17.975,11.435L17.975,11.435z M21.031,15.149 l-0.013-0.007l-0.02-0.105l0.013-0.024l0.016,0.038L21.031,15.149z M17.994,13.703l0.084,0.039l0.038,0.034l0.051,0.041l0.071,0.052 l0.037,0.023l0.047,0.012l0.136,0.135l0.085,0.088l0.059,0.119l0.034,0.11l0.058,0.154l0.026,0.067l0.033,0.152l0.025,0.202 l-0.008,0.111l-0.019,0.057l-0.037,0.036l-0.175,0.089l-0.122,0.09l-0.049,0.02l-0.11-0.054l-0.165,0.008l-0.053-0.023l-0.051,0.003 l-0.042-0.013l-0.013-0.015l-0.064,0.002l-0.081-0.045l-0.102-0.038l-0.071-0.038l-0.05-0.013l-0.026-0.02l-0.011-0.027L17.5,14.986 l-0.019-0.063l-0.001-0.045l0.025-0.146l0.038-0.077l0.044-0.087l0.05-0.066l0.028-0.06l0.011-0.078l-0.026-0.2l-0.029-0.057 l-0.13-0.193l-0.019-0.104l0.01-0.076l0.049-0.071l0.047-0.044l0.041-0.007l0.047,0.016l0.009,0.012l0.069-0.021l0.06,0.005 l0.064,0.027L17.994,13.703z M20.48,14.31l-0.006-0.036l0.037-0.012l0.036,0.015l0.039,0.044l0.059,0.003l0.033,0.049l0.051-0.013 l0.083,0.035l0.022,0.081l0.045,0.051l0.021,0.054l0.033,0.037l0.006,0.065l0.026,0.054L21,14.862l0.032,0.04l-0.006,0.039l0,0.001 l-0.044,0.079l0.008,0.112l0.018,0.027l-0.002,0.026l0.003,0.086l0.026,0.101l-0.013,0.088l0.022,0.145l0.016,0.031l0.023,0.014 l0.122,0.056l0.016,0.007l0.075,0.006l0.101-0.01l0.079,0.046l0.061,0.004l0.057,0.026l0.049,0.02l0.047,0.002l0.115-0.04l0.078,0 l0.078,0.015l0.048,0.039l0.071-0.024l0.063,0.011l0.054,0.035l0.02,0.055l0.057,0.026l0.082,0.01l0.027,0.017l0.023,0.072 l0.089,0.031l0.003,0.007l0.016,0.032l0.011,0.002l0.044,0.017l0.047,0.062l0.038,0.047l0.006,0.082l0.024,0.04l0.007,0.11 l0.02,0.03l0.046,0.119l0.015,0.118l0.042,0.089l0,0.077l0.025,0.021l0.092,0.025l0.013,0.046l0.046,0.033l0.009,0.051l-0.024,0.111 l0.016,0.026l0.015,0.081l0.014,0.017l0.005,0.007l0.034,0.018l0.06,0.009l0.044,0.026l0.017,0.035l0.057,0.064l0.043,0.126 l0.023,0.019l0.119,0.097l0.059,0.061l0.068,0.11l0.044,0.234l-0.039,0.046l-0.018,0.023l-0.021,0.06l-0.079,0.09l-0.009,0.031 l-0.055,0.047l-0.01,0.035l-0.053,0.027l-0.13,0.066l-0.052,0.01l-0.029-0.004l-0.063-0.01l-0.049,0.004l-0.125,0.057L22.8,18.624 l-0.006,0.004l-0.038,0.003l-0.11-0.022l-0.03-0.016l-0.019-0.043l-0.018-0.01l-0.051,0.005l-0.085,0.008l-0.049-0.022l-0.106,0.012 l-0.04-0.011l-0.053,0.018l-0.01-0.004l-0.023-0.01l-0.03,0.015l-0.024-0.006l-0.017-0.053l-0.028-0.023l-0.062-0.024l-0.035,0.004 l-0.039-0.029l-0.03-0.008l-0.035-0.064l-0.071-0.035l-0.084-0.022l-0.089-0.009l-0.122,0.009l-0.115-0.014l-0.015,0.001 l-0.073,0.002l-0.06-0.023l-0.049,0.006l-0.053-0.013l-0.075,0.012l-0.044-0.008l-0.07-0.036l-0.065-0.051l-0.055-0.025 l-0.044-0.001l-0.028,0l-0.038-0.032l-0.044-0.001l-0.049-0.023l-0.079-0.012l-0.037-0.016l-0.028-0.052l-0.117-0.065l-0.02-0.034 l-0.03-0.02l-0.003-0.029l0.021-0.029l0.001-0.055l-0.072-0.028l-0.023-0.038l-0.009-0.095l0.015-0.017l0.023-0.027l0.01-0.037 l0.003-0.087l-0.014-0.052l0.074-0.035l0.031-0.026l0.053-0.083l0.035-0.114l0.051-0.072l0.003-0.02l0.051-0.146l0.021-0.176 l0.033-0.111l0.017-0.024l0.037-0.064l0.017-0.064l-0.009-0.072l-0.041-0.076l-0.061-0.072l-0.032-0.024l-0.066-0.012l-0.033-0.002 l-0.147,0.035l-0.035-0.006l-0.02-0.016l-0.098-0.18l-0.097-0.076l-0.04-0.049L19.95,15.79l-0.039-0.044l-0.084-0.036l0-0.047 l-0.004-0.123l-0.017-0.05l-0.031-0.042v-0.032l-0.007-0.081L19.719,15.2l-0.005-0.07l0.036-0.109l0.004-0.061l0.032-0.052 l0.009-0.092l-0.01-0.027l0.002-0.05l0.017-0.043l0.036-0.028l0.073-0.088l0.002-0.003l0.115-0.103l0.083-0.036l0.038-0.02 l0.103-0.104l0.044-0.015l0.031,0.009l0.027,0.04L20.48,14.31z M19.297,17.192l0.088,0.021l0.076,0.039l0.049,0.078l0.006,0.032 l0,0.046l0.022,0.052l0.002,0.038l-0.047,0.059l-0.111,0.09l-0.046,0.043l-0.02,0.037l-0.023,0.015l0.029,0.02l0.052-0.002 l0.013,0.009l0.007,0.038l0.034,0.007l-0.01,0.021l-0.026,0.021l-0.067,0.018l-0.039,0.023l-0.026-0.001l-0.039-0.019l-0.042-0.042 l-0.024,0.003l-0.03-0.019l-0.074-0.002l-0.062-0.023l-0.017-0.039l0.006-0.056l-0.022-0.035l-0.058,0.026l-0.033-0.037 l-0.039-0.017h-0.16l-0.016-0.02l0.009-0.063l-0.122,0.035l-0.039-0.006l-0.037-0.03l-0.047-0.066l0.015-0.053l-0.043-0.081 l-0.003-0.068l0.013-0.016l0.087-0.026l0.051-0.002l0.088-0.035l0.058,0.013l0.044,0.008l0.05,0.031l0.065-0.011l0.06-0.016 l0.045,0.005l0.142-0.02l0.069-0.028l0.047,0.019L19.297,17.192z M21.744,22.452l0.014-0.033l0.007-0.007l0.085-0.095l0.031-0.061 l0.004-0.025l-0.009-0.052l-0.021-0.12l-0.009-0.123l-0.031-0.154l-0.006-0.023l-0.025-0.092l-0.003-0.05l0.019-0.059l0.016-0.057 l0-0.077l0.027-0.064l0.007-0.039l0.029-0.156l0.077-0.163l0.016-0.07l0.02-0.016l0.029-0.025l0.032-0.058l0.113-0.127l0.005-0.003 l0.198-0.117l0.005,0l0.1,0.005l0.148,0.091l0.021,0.012l0.073,0.086l0.036,0.029l0.064,0.122l0.053,0.039l0.044,0.063l0.055,0.015 l0.069,0.132l0.036,0.088l-0.006,0.047l0.01,0.02l0.028,0.02L23.07,21.41l-0.004,0.036l0.151,0.267l0.021,0.014l0.036,0.026 l0.128,0.248l0.016,0.03l0.012,0.093l0.02,0.048l0.04,0.024l0.027,0.048l0.034,0.029l0.015,0.029l0.01,0.111l0.03,0.04l0.195,0.035 l0.048,0.027l0.078,0.095l0.047,0.03l0.065,0.101l0.035,0.016l0.059,0.039l0.077,0.098l0.088,0.077l0.052,0.073l0.054,0.045 l0.04,0.066l0.021,0.042l0.042,0.039l0.068,0.105l0.037,0.058l0.021,0.056l0.03,0.013l0.022,0.029l0.062,0.141l0.06,0.041 l0.012,0.009l0.06,0.137l0.021,0.025l0.015,0.021l0.13,0.179l0.05,0.068l0.063,0.063l0.027,0.052l0.044,0.071l0.01,0.053l0.006,0.03 l0.049,0.109l0.051,0.053l0.035,0.076l0.024,0.054l0.014,0.114l0.042,0.056l0.032,0.087l0.039,0.054l0.027,0.079l0.079,0.258 l0.005,0.028l0.005,0.03l0,0.139l0.016,0.034l0.009,0.071l0.03,0.036l0.027,0.082l0.007,0.097l-0.022,0.071l-0.123,0.112 l-0.04,0.052L25.54,26.15l-0.046,0.059l0.002,0.041l-0.032,0.04l-0.092,0.118l-0.084,0.156l-0.006,0.056l0.008,0.026l0.049,0.046 l0.032-0.019l0.02,0.001l0.017,0.025l0.021,0.014l0.015,0.01l0.038-0.014l0.009-0.003l0.005,0.003l0.042,0.018l0.054-0.015 l0.023,0.013l0.018,0.06l0.019,0.011l0.014-0.021l0.045,0.027l0.014,0.008l0.039-0.006l0.033,0.041l0.03,0.011l0.008,0.022 l0.003,0.009l-0.005,0.185l-0.026,0.189l-0.028,0.043l-0.052,0.045l-0.043,0.085l-0.045,0.102l-0.004,0.052l-0.003,0.03l0.015,0.064 l0.056,0.037l0.058,0.059l0.002,0.031l-0.043,0.071l-0.002,0.039l0.044,0.086l0.065,0.235l0.082,0.135l0.01,0.027l0.008,0.02 l0.041,0.046l0.037,0.067l0.068,0.057l0.051,0.09l0.067,0.051l0.04,0.094l-0.011,0.083l-0.059,0.063l-0.077,0.046l-0.086,0.094 l-0.005,0.005l-0.138,0.038l-0.151,0.064l-0.134,0.029l-0.088,0.003l-0.135,0.041l-0.243,0.019l-0.033,0.002l-0.203,0.072 l-0.197,0.026l-0.12,0.038l-0.084,0.011l-0.035-0.003l-0.228-0.021l-0.033-0.003l-0.306-0.049l-0.123,0.021l-0.171-0.007 l-0.165,0.033l-0.111-0.024l-0.125-0.027l-0.061-0.027l-0.128-0.017l-0.137-0.062l-0.077-0.064l-0.051-0.071l-0.077-0.05 l-0.039-0.05l-0.062-0.03l-0.032-0.002l-0.037-0.002l-0.126-0.03l-0.161,0.037l-0.154-0.008l-0.029,0.008l-0.127,0.089l-0.06,0.015 l-0.179-0.009l-0.011-0.003l-0.06-0.018l-0.226-0.007l-0.097,0.047l-0.063,0.015l-0.071,0.033l-0.064,0.012l-0.095-0.007 l-0.107-0.042l-0.106-0.017l-0.103-0.01L20.61,29.12l-0.02,0.034l-0.056,0.054l-0.051-0.01l-0.024-0.005l-0.188,0.079l-0.085,0.02 l-0.035,0.022l-0.065,0.139l-0.065,0.07l-0.085,0.058l-0.15,0.045l-0.042,0.045l-0.018,0.02l-0.09,0.057l-0.125,0.113l-0.035,0.004 l-0.065-0.051l-0.109,0.074l-0.251,0.096l-0.105,0.01L18.887,30l-0.056-0.015l-0.019-0.018l0.007-0.039l0.07-0.097l0.002-0.035 l-0.089-0.16l-0.03-0.125l-0.04-0.068l-0.089-0.067l-0.053-0.06l-0.017-0.02l-0.042-0.083l-0.078-0.212l-0.03-0.042l-0.099-0.083 l-0.08-0.107l-0.175-0.191l-0.018-0.019l-0.02-0.061l0.026-0.164l-0.001-0.114l-0.024-0.131l0.014-0.099l0.061-0.167l0.049-0.082 l0.047-0.025l0.025-0.013l0-0.077l0.012-0.026l0.057-0.031l0.043-0.04l0.025-0.058l0.09-0.078l0.009-0.026l0.046-0.033l0.046-0.098 l0.094-0.126l0.028-0.055l0.051-0.061l0.165-0.199l0.071-0.147l0.089-0.096l0.085-0.32l-0.008-0.046l-0.012-0.065l0.014-0.05 L19.195,26l-0.004-0.07l0.01-0.047l-0.009-0.067l0.008-0.053l0.051-0.15l0.088-0.052l0.01-0.029l-0.012-0.039l-0.025-0.018 l-0.038-0.007l-0.016-0.044l-0.022-0.02l-0.011-0.009l0-0.052l0.035-0.053l0.016-0.054l0.009-0.125l0.062-0.082l0.01-0.031 l0.001-0.156l0.043-0.03l0.003-0.016l-0.016-0.036l0.041-0.068l0.031-0.107l-0.004-0.027l-0.005-0.034l0.013-0.059l-0.011-0.071 l0.019-0.074l0.016-0.018l-0.018-0.048l-0.056-0.048l-0.025-0.073l-0.062-0.072l-0.008-0.027l0.011-0.047l0.001-0.003l0.063-0.049 l0.014-0.043l-0.012-0.049l0.012-0.053l-0.041-0.09l0.006-0.045l0.039-0.096l0.002-0.036l-0.018-0.033l-0.024-0.044l0.002-0.022 l0.098-0.043l0.014-0.036l0.075-0.054l0.024-0.068l0.034-0.041l0.055-0.028l0.112-0.016l0.167-0.048l0.112-0.053l0.018-0.005 l0.148-0.044l0.079-0.04l0.063-0.01l0.069,0.007l0.045,0.021l0.032,0.015l0.046,0.044l0.028,0.011l0.053-0.007l0.042,0.011 l0.012-0.016l0.014-0.066l0.03-0.02l0.056-0.018l0.027-0.022l0.055-0.011l0.007-0.001l0.041-0.051l0.034-0.01l0.024-0.031 l0.11-0.005l-0.015-0.064l0.032-0.037l0.044-0.028l0.001-0.001l0.042,0.01l0.03-0.005l0.016-0.036l0.058,0.044l0.016-0.03 l0.06-0.027l0.1-0.046l0.029-0.004l0.147,0.003l0.074-0.087L21.744,22.452z"/></svg>