<?xml version="1.0"?><svg xmlns="http://www.w3.org/2000/svg"  viewBox="0 0 30 30" width="60px" height="60px">    <path d="M17.93,27.917v0.041L17.91,28l-0.041-0.021l0.021-0.041L17.93,27.917L17.93,27.917z M20.179,27.402 l-0.083,0.021l-0.103,0.021v-0.021l0.124-0.021H20.179L20.179,27.402z M19.54,27.278v0.062v0.062l-0.082,0.165h-0.021v-0.021h-0.021 l-0.021-0.021l0.021-0.021l0.021-0.021l0.021-0.021l-0.041-0.041l-0.021,0.041l-0.041-0.062l-0.062-0.021l-0.144,0.021l-0.021-0.041 h0.248l0.103-0.041l0.062-0.083h0.021v0.021L19.54,27.278z M22.098,27.216h0.351l-0.021,0.041l-0.165,0.021l-0.144-0.021 L22.098,27.216L22.098,27.216z M21.851,27.195l0.103,0.021l-0.041,0.041l-0.041,0.021l-0.929-0.083v-0.041l0.103-0.041h0.165h0.144 l0.103,0.062l0.103,0.041L21.851,27.195L21.851,27.195z M21.871,2.433h0.082v0.083v0.186v0.062l-0.021,0.124v0.206v0.289 l-0.021,0.351v0.433l-0.021,0.475v0.536l-0.021,0.557l-0.021,0.619l-0.021,0.66L21.81,7.695l-0.021,0.702l-0.021,0.722l-0.021,0.722 l-0.021,0.743l-0.021,0.722l-0.021,0.743l-0.021,0.722l-0.021,0.701l-0.021,0.681l-0.021,0.64l-0.021,0.619l-0.021,0.578v0.536 l-0.021,0.475l-0.021,0.413v0.351L21.5,18.054v0.227v0.124v0.041l0.062,0.495l0.062,0.495l0.062,0.495l0.062,0.475l0.062,0.495 l0.062,0.495l0.062,0.495l0.062,0.495l0.062,0.495l0.062,0.475l0.062,0.495l0.062,0.495l0.062,0.495l0.062,0.495l0.062,0.495 l0.062,0.475l-0.021,0.041l0.021,0.062v0.062l-0.041,0.021l-0.062,0.021l-0.021,0.021l-0.021,0.041l-0.041,0.041l-0.082,0.062 l-0.083-0.021l-0.103-0.062l-0.124-0.021h-0.062H21.81l-0.041-0.021l-0.041-0.103l-0.062-0.041l-0.021-0.062h-0.041l-0.083,0.124 l-0.186,0.103l-0.227,0.041h-0.144l-0.495-0.33l-0.371-0.083l-0.124,0.062l-0.062,0.021l-0.062,0.021v0.021l0.557,0.041 l-0.062,0.083L20.2,26.473h-0.289l-0.062,0.021l-0.124,0.082l-0.062,0.021l-0.082,0.021l-0.31,0.124l-0.289,0.103l-0.268,0.103 l-0.062,0.021l-0.083-0.021l-0.021-0.041l0.041-0.041l0.062-0.041l-0.083-0.041l-0.144-0.103l-0.103-0.021l-0.041,0.021 l-0.062,0.062l-0.041,0.041v0.062h0.041h0.103l0.021,0.021l0.021,0.103l-0.021,0.062l-0.041,0.041L17.91,27.34l0.041,0.062 l-0.021,0.062l-0.062,0.103l-0.021,0.062v0.041l-0.021,0.041l-0.041,0.041l-0.041-0.041l0.021-0.021V27.67l-0.041-0.021 l-0.041,0.062l-0.062,0.021h-0.083l-0.041-0.041l-0.041,0.021l-0.041-0.021l-0.041-0.021l-0.062,0.021l-0.041,0.062l-0.103-0.124 l-0.165-0.31l-0.083-0.144l-0.021-0.206l-0.021-0.103l-0.144-0.186l-0.041-0.083v-0.041v-0.103v-0.041l-0.021-0.041l-0.082-0.124 l-0.144-0.083l-0.062-0.165L16.3,25.957l-0.144-0.041l-0.082-0.082l-0.124-0.248l0.041-0.103L15.949,25.4l-0.082-0.083l-0.041-0.082 v-0.083l0.021-0.124l0.083-0.206l-0.041-0.083l0.041-0.103l0.103-0.144l0.041-0.31l0.103-0.186l0.041-0.206l0.021-0.186 l-0.021-0.062h-0.165l-0.206,0.021h-0.082l-0.248,0.021l-0.413,0.021l-0.516,0.041l-0.598,0.021l-0.702,0.041l-0.722,0.041 l-0.763,0.062l-0.743,0.041l-0.743,0.021l-0.681,0.041l-0.598,0.041l-0.516,0.021l-0.413,0.021H7.86H7.757l-0.206,0.021H7.53 l0.33-0.31L7.84,23.563l-0.144-0.144l-0.062-0.144v-0.062l0.041-0.082v-0.062l0.021-0.021l0.021-0.062v-0.062l-0.021-0.021 l-0.062-0.041l-0.083-0.083L7.51,22.676v-0.083l0.062-0.041l0.103-0.021h0.206l0.103-0.021l0.062-0.062l0.021-0.083l0.041-0.351 l0.041-0.041v-0.062v-0.103v-0.021l-0.062-0.103l-0.041-0.062l-0.021-0.041l-0.041-0.227l0.103-0.165l0.289-0.247l0.021-0.021 l0.021-0.062l-0.021-0.124l0.062-0.475l0.021-0.103v-0.082l0.124-0.268l0.062-0.186l0.021-0.103l0.083-0.083l0.062-0.062 l0.186-0.041l0.082-0.041l0.083-0.083l0.206-0.248l0.021-0.041l0.041-0.103l0.021-0.062l0.041-0.021l0.144-0.062l0.165-0.124 l0.083-0.186v-0.186l-0.144-0.144l-0.021-0.041V17.93l0.021-0.041L9.8,17.847l0.248-0.021l0.124-0.268l0.124-0.351l0.206-0.206 l-0.021-0.041h0.041l0.021-0.082l-0.041-0.083l-0.103-0.041h-0.165l-0.062-0.041l-0.041-0.021l-0.041-0.206l-0.103-0.103 l-0.144-0.041l-0.165-0.082l-0.041-0.083l-0.021-0.083v-0.227v-0.041l0.021-0.062v-0.062V15.64l-0.041-0.041l-0.103-0.062 l-0.062-0.041l-0.041-0.062l-0.041-0.083l-0.041-0.103v-0.124l0.041-0.062l0.103-0.041h0.124L9.656,15l0.062-0.124l-0.021-0.083 l-0.083-0.062L9.387,14.69l-0.062-0.041l-0.021-0.062l0.041-0.227l0.041-0.248l0.041-0.062l0.062-0.021l0.062-0.082l0.062-0.103 l0.041-0.083l-0.103-0.103l-0.041-0.062l-0.062-0.021H9.367l-0.062-0.021l-0.062-0.041l-0.041-0.041v-0.165v-0.557l0.041-0.062 l0.083-0.041l0.082-0.041l0.062-0.041l0.021-0.083L9.47,12.379l-0.062-0.165v-0.268l-0.041-0.062l-0.062-0.041l-0.124-0.041 l-0.062-0.021l-0.062-0.083l0.041-0.124l0.165-0.227v-0.103L9.284,11.1l-0.021-0.165v-0.082l-0.165-0.144l-0.082-0.083l-0.083-0.021 l-0.083-0.041l-0.062-0.083l-0.021-0.082l0.062-0.041h0.103l0.103-0.021l0.062-0.062l0.041-0.103l-0.041-0.144L9.037,9.965 L8.851,9.883L8.768,9.8V9.759L8.83,9.717l0.083-0.062l0.165-0.247l0.021-0.041L9.14,9.346l0.083-0.103l0.041-0.021l0.041-0.021 h0.124L9.47,9.16l0.062-0.103L9.491,8.954L9.429,8.871L9.408,8.706L9.47,8.583l0.062-0.144L9.449,8.294L9.387,8.273L9.326,8.252 L9.284,8.211L9.263,8.149l0.041-0.041l0.227-0.062l0.247-0.144l0.083-0.021h0.103l0.083-0.021l0.082-0.041l0.041-0.103L10.151,7.51 l-0.31-0.124L9.821,7.221l0.062-0.041l0.206-0.144l0.062-0.041l0.062-0.041l0.144-0.392l0.021-0.041h0.021l0.062-0.021l0.062,0.041 h0.041l0.021-0.021l0.021-0.062l0.041-0.103l0.021-0.041l-0.021-0.062l-0.041-0.103l-0.021-0.062V6.044l0.021-0.041l0.062,0.041 l0.041,0.021h0.041l0.186-0.041l0.103-0.041L11.183,5.9l0.124-0.165l0.041-0.165l-0.021-0.186l0.021-0.433l-0.103-0.371l0.021-0.206 l0.062-0.206l0.062-0.103l0.062-0.021l0.082,0.041h0.103l0.083-0.021l0.041-0.062l0.062-0.062l-0.041-0.103L11.74,3.733 l-0.041-0.083l0.062-0.083l0.454-0.206l0.206-0.144l0.124-0.186V2.805L12.4,2.66L12.379,2.64l0.557-0.041l0.578-0.041l0.557-0.021 l0.557-0.041l0.557-0.041l0.557-0.041L16.3,2.392l0.557-0.041l0.557-0.041l0.557-0.041l0.557-0.041l0.557-0.041l0.557-0.041 L20.2,2.103l0.557-0.041l0.557-0.041L21.479,2h0.041l0.083,0.206l0.124,0.144L21.871,2.433L21.871,2.433z"/></svg>