<?xml version="1.0"?><svg xmlns="http://www.w3.org/2000/svg"  viewBox="0 0 30 30" width="60px" height="60px">    <path d="M26.774,12.222l-0.196,0.215l-0.098,0.137l-0.235,0.274l-0.235,0.274l-0.098,0.118l-0.137,0.254 l-0.137,0.254l-0.137,0.274l-0.117,0.254l-0.078,0.391l-0.117,0.567l-0.098,0.47l-0.098,0.509l-0.098,0.509l-0.098,0.45 l-0.118,0.568l-0.078,0.391l-0.039,0.548l-0.059,0.548l-0.039,0.568l-0.059,0.548l0.039,0.411l0.02,0.411l0.02,0.411l0.039,0.411 l0.078,0.47l0.117,0.568l0.118,0.607l0.078,0.411l0.118,0.548l0.098,0.489l0.059,0.352l0.137,0.665l-0.705,0.078l-0.685,0.059 l-0.705,0.059l-0.705,0.059l-0.646,0.059l-0.665,0.039l-0.646,0.059l-0.646,0.039l-0.665,0.039l-0.646,0.059l-0.646,0.039 L17.3,26.726l-0.646,0.039l-0.666,0.039l-0.646,0.039l-0.646,0.02l-0.665,0.039l-0.646,0.039L12.72,26.98L12.074,27h-0.02 l0.039-0.098l0.02-0.059l-0.039-0.078l-0.098-0.137l-0.039-0.059l-0.078-0.196L11.8,26.295l-0.098-0.02h-0.078l-0.176-0.059 l-0.646-0.098l-0.157-0.059l-0.078-0.059l-0.059-0.059l-0.137-0.254l-0.02-0.098l-0.02-0.196l-0.02-0.098l-0.039-0.059l-0.117-0.137 l-0.039-0.078l-0.039-0.117V24.69l-0.02-0.059l-0.02-0.059l-0.02-0.196l-0.02-0.157L9.96,23.868l0.02-0.176l0.176-0.274l0.078-0.157 l-0.02-0.196l-0.098-0.098L9.803,22.85l-0.059-0.039l-0.02-0.059l-0.02-0.117l-0.019-0.058l-0.02-0.059L9.607,22.42l-0.02-0.039 l-0.02-0.059v-0.078v-0.059l0.02-0.117v-0.059l-0.02-0.078l-0.02-0.117v-0.078v-0.157v-0.059l-0.039-0.118v-0.059l0.039-0.274 l-0.02-0.078l-0.02-0.098v-0.059L9.47,20.795l-0.039-0.039l-0.02-0.039l-0.019-0.039l-0.02-0.059V20.58v-0.137v-0.117l-0.02-0.117 l-0.02-0.059L9.294,20.09l-0.039-0.02l-0.039-0.039L9.06,19.973L9.02,19.914l-0.078-0.098l-0.039-0.078v-0.039l-0.02-0.02 l-0.02-0.039l-0.02-0.02l-0.039-0.02H8.668h-0.02l-0.039-0.02l-0.216-0.157l-0.02-0.02l-0.352,0.02l-0.039-0.02l-0.039-0.02 l-0.45-0.352l-0.137-0.059l-0.078-0.098l-0.294-0.528l-0.137-0.215L6.28,17.643l-0.196-0.059l-0.431-0.059l-0.039-0.02l-0.039-0.039 l-0.039-0.059l-0.098-0.216l-0.118-0.136l-0.117-0.078l-0.117-0.059l-0.568-0.059l-0.157-0.098l-0.02-0.039l-0.02-0.039l-0.02-0.039 l-0.078-0.039L3.97,16.352l-0.216-0.137l-0.098-0.078l0.137-0.313l0.02-0.137l-0.02-0.059l-0.02-0.176v-0.039l0.059-0.098v-0.039 l-0.02-0.196l-0.039-0.215l-0.098-0.235l-0.02-0.098l0.039-0.059l0.078-0.02l0.039-0.078l0.02-0.098v-0.118l-0.078-0.157l-0.02-0.02 l0.02-0.059l0.02-0.118l-0.02-0.215l0.02-0.098l0.02-0.078l0.059-0.059l0.059-0.059l0.039-0.059l0.02-0.078l0.02-0.117l0.098-0.176 v-0.098l-0.02-0.098l-0.059-0.078L3.95,12.535l-0.059-0.078l-0.039-0.078l-0.059-0.196l-0.039-0.059l-0.137-0.059l-0.176,0.02 l-0.157-0.039l-0.059-0.176v-0.372l0.02-0.098l0.02-0.059l0.294-0.294l0.098-0.157l-0.02-0.157l0.137-0.274l0.078-0.118l0.118-0.059 l0.059-0.02l0.196-0.118l0.078-0.02l0.039-0.02l0.02-0.02l0.039-0.078V9.99l0.02-0.039l0.039-0.02h0.02l0.157-0.02l0.039-0.02 l0.078-0.137l0.059-0.039H4.87h0.078h0.078l0.039-0.039l0.02-0.059L5.125,9.54l0.039-0.059l0.039-0.02l0.078-0.02l-0.02-0.176V9.207 V8.874l-0.02-0.313l-0.02-0.313V7.934l-0.02-0.313l-0.02-0.333V6.975l-0.02-0.313V6.544h0.02l0.059,0.02H5.3l0.059-0.02h0.059 l0.02-0.02v-0.02v-0.02l0.02-0.02V6.348l0.02-0.039v-0.02l0.02-0.02l0.02-0.02l0.02-0.02l0.059-0.02h0.02v-0.02l0.039-0.098 l0.02-0.039l0.059-0.039l0.039-0.039l0.117,0.039l0.176,0.059L6.28,6.152l0.157-0.078l0.176-0.117l0.196-0.118l0.196-0.137 L7.2,5.584l0.196-0.117l0.176-0.118l0.196-0.117l0.196-0.118L8.296,4.84l0.352-0.254l0.333-0.255l0.333-0.254l0.333-0.254 l0.352-0.254l0.333-0.274l0.333-0.254h0.294h0.313h0.294l0.294-0.02h0.313h0.294h0.294L13.072,3l-0.098,0.235L12.896,3.45 l-0.078,0.216L12.74,3.881l-0.078,0.235l-0.098,0.215l-0.078,0.216l-0.078,0.215l-0.078,0.235l-0.098,0.215l-0.078,0.216 l-0.078,0.215l-0.078,0.235l-0.098,0.215L11.82,6.309l-0.078,0.215l-0.039,0.078L11.742,6.7v0.059l0.02,0.02h0.02l0.039,0.02 l0.039-0.02h0.02l0.059-0.039h0.02h0.039l0.039,0.078l0.02,0.02h0.059l0.039,0.02l0.039,0.02l0.02,0.039h0.039h0.039l0.039,0.02 l0.039,0.02l0.039,0.039l0.059,0.059l0.039,0.078l0.059,0.137l0.117,0.216l0.059,0.137l0.039,0.098v0.02l0.02,0.02l0.098,0.039 h0.039l0.117,0.02l0.157,0.039l0.215,0.039l0.255,0.059l0.273,0.06l0.294,0.059l0.313,0.059l0.313,0.059l0.294,0.078l0.294,0.039 l0.254,0.059l0.196,0.039l0.176,0.039l0.098,0.02h0.039l0.137,0.039l0.078,0.02l0.215,0.117l0.216,0.098l0.215,0.098L17.3,8.933 l0.078,0.059h0.039h0.039l0.039-0.02h0.039h0.02l0.02,0.02l0.039,0.02l0.039-0.02l0.059-0.02l0.039-0.02h0.02l0.039,0.02l0.059,0.02 l0.078,0.02l0.137,0.059h0.039h0.02l0.078-0.059l0.02-0.02h0.02h0.039h0.02h0.02l0.039-0.02l0.039-0.02h0.02h0.02l0.039,0.02 l0.039,0.02l0.059,0.039h0.039h0.039l0.02-0.02h0.02l0.02,0.02l0.137,0.039l0.039,0.02h0.02l0.078-0.039h0.02l0.039,0.02 l0.098,0.059l0.02,0.02h0.059h0.118h0.039h0.02l0.078,0.039l0.059,0.02h0.02h0.039l0.039-0.02h0.039h0.02l0.098,0.078h0.02 l0.059,0.02l0.039,0.02l0.02,0.039L20.06,9.54l0.02,0.02v0.059l-0.02,0.02v0.039l-0.079,0.097v0.02l-0.02,0.039v0.039l0.02,0.02 l0.039,0.059l0.02,0.02l0.059,0.02l0.059,0.02h0.059h0.039h0.039l0.078-0.04h0.02l0.02,0.02l0.059,0.059h0.02l0.02,0.02l0.02,0.02 h0.059h0.157l0.02,0.02h0.02l0.02,0.02l0.02,0.02l0.059,0.059l0.02,0.02l0.078,0.039l0.039,0.039l0.059,0.059l0.039,0.039 l0.039,0.02v0.02v0.02v0.02l-0.02,0.02l-0.039,0.039v0.039v0.02l0.039,0.059l0.059,0.098l0.02,0.02v0.039l0.02,0.078l-0.021,0.038 v0.02l-0.02,0.02l-0.02,0.02h-0.019l-0.02,0.02v0.059l0.039,0.098l0.039,0.157v0.019v0.02v0.039l-0.02,0.039l-0.02,0.059l-0.02,0.02 v0.02l-0.117,0.098l-0.02,0.02v0.02v0.039l0.02,0.078v0.039v0.02l-0.039,0.118v0.039l0.02,0.02l0.02,0.039l0.059,0.02h0.039h0.02 l0.039-0.02l0.02-0.02h0.02l0.098,0.02h0.02h0.039l0.02-0.02l0.254-0.157h0.02h0.02h0.02l0.02,0.039l0.039,0.039l0.02,0.039 l0.02,0.02v0.039l-0.02,0.02l-0.039,0.078l-0.039,0.039l-0.059,0.216l-0.059,0.196v0.059v0.176v0.02l0.02,0.059l0.059,0.059 l0.098,0.078l0.039,0.039l0.02,0.039l0.02,0.02L21.92,13.2l0.215,0.078l0.196,0.059l0.157,0.039l0.137,0.039l0.059-0.294 l0.039-0.294l0.274-0.294l0.294-0.294l0.098-0.215l0.098-0.216l0.098-0.215l0.078-0.215l0.333-0.02l0.333-0.039l0.548-0.039 l0.117,0.059l0.118,0.059l0.117,0.059l0.117,0.059l0.117,0.059l0.117,0.059l0.117,0.059l0.137,0.059l0.118,0.059l0.117,0.059 l0.117,0.059l0.118,0.059l0.117,0.059l0.118,0.059l0.117,0.059L26.774,12.222L26.774,12.222L26.774,12.222z"/></svg>