<?xml version="1.0"?><svg xmlns="http://www.w3.org/2000/svg"  viewBox="0 0 30 30" width="60px" height="60px">    <path d="M 14.246094 3 L 13.912109 3.0625 L 13.597656 3.1054688 L 13.263672 3.1464844 L 12.927734 3.2089844 L 12.613281 3.2519531 L 12.277344 3.2929688 L 11.943359 3.3554688 L 11.628906 3.3984375 L 11.294922 3.4394531 L 10.980469 3.4824219 L 10.644531 3.5234375 L 10.308594 3.5859375 L 9.9941406 3.6289062 L 9.6601562 3.6699219 L 9.3242188 3.7128906 L 9.0117188 3.7539062 L 8.6132812 3.796875 L 8.2148438 3.8164062 L 7.9003906 3.8378906 L 7.8808594 3.8378906 L 7.7128906 3.8378906 L 7.1679688 3.921875 L 6.6230469 3.984375 L 6.078125 4.046875 L 5.5332031 4.109375 L 4.9882812 4.1738281 L 4.4453125 4.2363281 L 3.9003906 4.2988281 L 3.3554688 4.3417969 L 3.3554688 4.3828125 L 3.3964844 4.4667969 L 3.4179688 4.6132812 L 3.4804688 4.8007812 L 3.5449219 5.03125 L 3.6289062 5.3242188 L 3.7109375 5.6386719 L 3.8164062 5.9941406 L 3.9414062 6.3710938 L 4.046875 6.7910156 L 4.171875 7.2304688 L 4.2988281 7.671875 L 4.4453125 8.1523438 L 4.5703125 8.6347656 L 4.7167969 9.1152344 L 4.8632812 9.6171875 L 5.0097656 10.099609 L 5.1367188 10.603516 L 5.28125 11.083984 L 5.4082031 11.544922 L 5.5546875 12.005859 L 5.6796875 12.423828 L 5.7851562 12.84375 L 5.9101562 13.220703 L 6.015625 13.576172 L 6.0996094 13.912109 L 6.1835938 14.183594 L 6.2460938 14.414062 L 6.3085938 14.603516 L 6.3496094 14.748047 L 6.3710938 14.832031 L 6.3925781 14.875 L 6.4550781 15.083984 L 6.4335938 15.126953 L 6.6230469 15.503906 L 6.6230469 15.650391 L 6.6445312 15.691406 L 6.6640625 15.732422 L 6.6855469 15.775391 L 6.7285156 15.796875 L 6.8105469 15.880859 L 6.8535156 15.921875 L 6.8105469 15.984375 L 6.8320312 16.025391 L 6.8945312 16.068359 L 6.9375 16.130859 L 6.9785156 16.320312 L 7.0429688 16.423828 L 7.0429688 16.486328 L 7.0429688 16.570312 L 7.0839844 16.634766 L 7.1464844 16.654297 L 7.1875 16.697266 L 7.1679688 16.759766 L 7.5234375 17.136719 L 7.5859375 17.220703 L 7.6074219 17.283203 L 7.6484375 17.451172 L 7.6914062 17.533203 L 7.7539062 17.597656 L 7.796875 17.681641 L 7.796875 17.722656 L 7.8164062 17.763672 L 7.796875 17.744141 L 7.796875 17.806641 L 7.7753906 17.869141 L 7.7753906 17.931641 L 7.796875 17.994141 L 7.7128906 18.099609 L 7.7324219 18.203125 L 7.8378906 18.287109 L 8.0683594 18.371094 L 8.109375 18.414062 L 8.1523438 18.455078 L 8.1738281 18.476562 L 8.1933594 18.476562 L 8.2148438 18.517578 L 8.1933594 18.560547 L 8.1738281 18.582031 L 8.1308594 18.603516 L 8.0898438 18.623047 L 8.1308594 18.6875 L 8.1308594 18.728516 L 8.0898438 18.771484 L 8.046875 18.8125 L 7.9628906 18.791016 L 7.9003906 18.8125 L 7.9003906 18.853516 L 7.9628906 18.896484 L 7.921875 18.9375 L 7.859375 18.980469 L 7.7753906 19.021484 L 7.7128906 19.042969 L 7.6914062 19.064453 L 7.6699219 19.105469 L 7.6074219 19.294922 L 7.6074219 19.335938 L 7.6289062 19.460938 L 7.6289062 19.544922 L 7.5859375 19.628906 L 7.5859375 19.755859 L 7.6289062 19.880859 L 7.6289062 20.005859 L 7.6289062 20.027344 L 7.6074219 20.111328 L 7.5859375 20.132812 L 7.4824219 20.361328 L 7.4199219 20.572266 L 7.3984375 20.759766 L 7.3984375 20.822266 L 7.3984375 20.865234 L 7.3984375 20.886719 L 7.3769531 21.011719 L 7.4199219 21.115234 L 7.6074219 21.701172 L 7.6484375 21.785156 L 7.8378906 21.974609 L 7.8789062 22.058594 L 7.9003906 22.142578 L 7.921875 22.289062 L 7.9414062 22.310547 L 7.984375 22.414062 L 8.0058594 22.498047 L 7.984375 22.623047 L 7.9628906 22.728516 L 7.9414062 22.832031 L 8.0058594 22.980469 L 7.921875 23.126953 L 7.921875 23.314453 L 7.9414062 23.732422 L 7.921875 23.775391 L 7.8574219 23.880859 L 7.8574219 23.921875 L 7.8789062 23.964844 L 7.921875 24.068359 L 7.9414062 24.130859 L 7.9414062 24.320312 L 7.9628906 24.402344 L 8.0253906 24.466797 L 8.109375 24.486328 L 8.2558594 24.654297 L 8.4023438 24.863281 L 8.4863281 25.115234 L 8.5292969 25.158203 L 8.5488281 25.220703 L 8.5292969 25.261719 L 8.5078125 25.304688 L 8.5078125 25.324219 L 8.4863281 25.345703 L 8.5078125 25.408203 L 8.5292969 25.429688 L 8.6113281 25.472656 L 8.6542969 25.492188 L 8.6757812 25.556641 L 8.7382812 25.701172 L 8.7792969 25.744141 L 8.84375 25.869141 L 8.9042969 25.974609 L 8.9277344 26.205078 L 9.0527344 26.560547 L 9.2832031 26.75 L 9.3046875 26.728516 L 9.4492188 26.728516 L 9.4921875 26.728516 L 9.5761719 26.728516 L 9.7226562 26.707031 L 9.9101562 26.707031 L 10.142578 26.685547 L 10.414062 26.685547 L 10.728516 26.664062 L 11.083984 26.644531 L 11.460938 26.623047 L 11.880859 26.601562 L 12.320312 26.580078 L 12.779297 26.560547 L 13.261719 26.517578 L 13.765625 26.496094 L 14.267578 26.455078 L 14.791016 26.435547 L 15.292969 26.414062 L 15.816406 26.371094 L 16.341797 26.330078 L 16.84375 26.308594 L 17.345703 26.267578 L 17.847656 26.246094 L 18.308594 26.203125 L 18.769531 26.183594 L 19.189453 26.140625 L 19.585938 26.119141 L 19.962891 26.099609 L 20.298828 26.056641 L 20.613281 26.035156 L 20.863281 26.015625 L 21.09375 26.015625 L 21.261719 25.994141 L 21.449219 25.972656 L 21.449219 25.994141 L 21.449219 26.035156 L 21.429688 26.078125 L 21.429688 26.099609 L 21.429688 26.119141 L 21.449219 26.140625 L 21.470703 26.183594 L 21.597656 26.308594 L 21.617188 26.330078 L 21.660156 26.371094 L 21.660156 26.392578 L 21.681641 26.433594 L 21.681641 26.455078 L 21.681641 26.476562 L 21.660156 26.560547 L 21.660156 26.623047 L 21.660156 26.664062 L 21.660156 26.685547 L 21.681641 26.728516 L 21.785156 26.916016 L 21.806641 26.957031 L 21.828125 26.978516 L 21.869141 26.978516 L 21.890625 27 L 21.931641 27 L 22.142578 26.9375 L 22.183594 26.9375 L 22.267578 26.957031 L 22.289062 26.957031 L 22.310547 26.9375 L 22.435547 26.894531 L 22.455078 26.873047 L 22.476562 26.853516 L 22.476562 26.810547 L 22.476562 26.771484 L 22.435547 26.623047 L 22.435547 26.603516 L 22.435547 26.519531 L 22.476562 26.183594 L 22.498047 25.828125 L 22.476562 25.765625 L 22.476562 25.703125 L 22.455078 25.681641 L 22.435547 25.640625 L 22.330078 25.535156 L 22.287109 25.492188 L 22.267578 25.429688 L 22.267578 25.408203 L 22.246094 25.347656 L 22.246094 25.304688 L 22.267578 25.179688 L 22.267578 25.158203 L 22.267578 25.115234 L 22.226562 24.990234 L 22.226562 24.927734 L 22.226562 24.90625 L 22.226562 24.886719 L 22.246094 24.865234 L 22.289062 24.802734 L 22.289062 24.78125 L 22.289062 24.738281 L 22.289062 24.697266 L 22.308594 24.675781 L 22.330078 24.654297 L 22.371094 24.654297 L 22.414062 24.654297 L 22.455078 24.654297 L 22.476562 24.634766 L 22.476562 24.613281 L 22.498047 24.570312 L 22.498047 24.550781 L 22.476562 24.529297 L 22.498047 24.488281 L 22.498047 24.466797 L 22.519531 24.445312 L 22.560547 24.425781 L 22.582031 24.425781 L 22.644531 24.425781 L 22.685547 24.404297 L 22.707031 24.404297 L 22.748047 24.404297 L 22.832031 24.445312 L 22.875 24.466797 L 22.9375 24.488281 L 23.378906 24.613281 L 23.419922 24.591797 L 23.460938 24.591797 L 23.523438 24.591797 L 23.587891 24.613281 L 23.607422 24.654297 L 23.671875 24.675781 L 23.734375 24.697266 L 23.964844 24.71875 L 24.005859 24.71875 L 24.068359 24.697266 L 24.089844 24.697266 L 24.152344 24.738281 L 24.216797 24.738281 L 24.404297 24.759766 L 24.445312 24.738281 L 24.59375 24.675781 L 24.675781 24.697266 L 24.71875 24.697266 L 24.697266 24.634766 L 24.697266 24.488281 L 24.697266 24.382812 L 24.654297 24.320312 L 24.591797 24.257812 L 24.570312 24.216797 L 24.550781 24.132812 L 24.550781 24.068359 L 24.507812 24.027344 L 24.445312 24.005859 L 24.445312 23.964844 L 24.486328 23.964844 L 24.550781 23.964844 L 24.591797 23.964844 L 24.634766 23.984375 L 24.613281 23.902344 L 24.591797 23.880859 L 24.570312 23.859375 L 24.550781 23.796875 L 24.550781 23.775391 L 24.550781 23.691406 L 24.550781 23.671875 L 24.570312 23.587891 L 24.697266 23.419922 L 24.71875 23.335938 L 24.654297 23.314453 L 24.507812 23.335938 L 24.404297 23.314453 L 24.404297 23.273438 L 24.613281 23.189453 L 24.675781 23.126953 L 24.675781 23.021484 L 24.634766 22.9375 L 24.425781 22.771484 L 24.341797 22.6875 L 24.466797 22.707031 L 24.59375 22.792969 L 24.697266 22.896484 L 24.78125 22.980469 L 24.802734 22.980469 L 24.822266 22.603516 L 24.822266 22.457031 L 24.738281 22.560547 L 24.71875 22.623047 L 24.738281 22.728516 L 24.675781 22.707031 L 24.550781 22.603516 L 24.425781 22.560547 L 24.382812 22.498047 L 24.423828 22.457031 L 24.591797 22.519531 L 24.613281 22.435547 L 24.591797 22.330078 L 24.507812 22.142578 L 24.507812 22.058594 L 24.550781 21.996094 L 24.654297 21.953125 L 24.697266 22.017578 L 24.71875 22.267578 L 24.71875 22.330078 L 24.78125 22.351562 L 24.884766 22.351562 L 24.947266 22.267578 L 25.03125 22.101562 L 25.15625 21.806641 L 25.261719 21.849609 L 25.304688 21.765625 L 25.324219 21.640625 L 25.283203 21.556641 L 25.220703 21.492188 L 24.990234 21.388672 L 24.927734 21.367188 L 24.738281 21.367188 L 24.529297 21.367188 L 24.341797 21.304688 L 24.214844 21.220703 L 24.257812 21.179688 L 24.298828 21.179688 L 24.404297 21.220703 L 24.507812 21.263672 L 24.990234 21.283203 L 25.177734 21.263672 L 25.220703 21.199219 L 25.177734 21.095703 L 25.115234 21.03125 L 24.947266 20.90625 L 24.90625 20.822266 L 24.90625 20.759766 L 24.947266 20.71875 L 24.96875 20.697266 L 25.011719 20.71875 L 25.03125 20.759766 L 25.03125 20.822266 L 25.052734 20.865234 L 25.095703 20.90625 L 25.136719 20.947266 L 25.177734 20.96875 L 25.220703 20.947266 L 25.240234 20.90625 L 25.220703 20.84375 L 25.220703 20.802734 L 25.470703 20.277344 L 25.513672 20.089844 L 25.367188 20.111328 L 25.240234 20.214844 L 25.011719 20.425781 L 25.03125 20.341797 L 25.072266 20.277344 L 25.072266 20.214844 L 25.03125 20.173828 L 24.884766 20.195312 L 24.863281 20.173828 L 24.822266 20.152344 L 24.800781 20.130859 L 24.759766 20.089844 L 24.84375 20.068359 L 24.90625 20.005859 L 24.990234 19.984375 L 25.095703 20.027344 L 25.177734 20.027344 L 25.240234 19.964844 L 25.345703 19.818359 L 25.283203 19.755859 L 25.158203 19.671875 L 25.095703 19.607422 L 25.199219 19.587891 L 25.283203 19.607422 L 25.345703 19.671875 L 25.408203 19.734375 L 25.492188 19.921875 L 25.513672 19.943359 L 25.535156 19.921875 L 25.556641 19.859375 L 25.597656 19.503906 L 25.617188 19.378906 L 25.576172 19.251953 L 25.513672 19.210938 L 25.429688 19.230469 L 25.408203 19.294922 L 25.472656 19.357422 L 25.472656 19.398438 L 25.199219 19.460938 L 25.115234 19.482422 L 25.261719 19.251953 L 25.261719 19.169922 L 25.115234 19.085938 L 24.96875 19.064453 L 24.90625 19.042969 L 24.865234 18.958984 L 24.90625 18.917969 L 24.96875 18.917969 L 25.03125 18.958984 L 25.074219 18.980469 L 25.199219 19.042969 L 25.367188 19.042969 L 25.597656 19.001953 L 25.640625 18.958984 L 25.701172 18.896484 L 25.806641 18.6875 L 25.849609 18.539062 L 25.869141 18.476562 L 25.849609 18.476562 L 25.785156 18.476562 L 25.660156 18.414062 L 25.638672 18.394531 L 25.388672 18.394531 L 25.429688 18.330078 L 25.597656 18.246094 L 25.597656 18.205078 L 25.492188 18.142578 L 25.451172 18.099609 L 25.492188 18.058594 L 25.554688 18.037109 L 25.597656 18.078125 L 25.638672 18.142578 L 25.660156 18.162109 L 25.744141 18.183594 L 25.953125 18.205078 L 26.037109 18.246094 L 26.099609 18.226562 L 26.177734 18.164062 L 26.205078 18.142578 L 26.330078 17.953125 L 26.224609 17.953125 L 26.205078 17.953125 L 26.121094 17.869141 L 26.099609 17.765625 L 26.142578 17.724609 L 26.162109 17.703125 L 26.183594 17.660156 L 26.205078 17.619141 L 26.267578 17.597656 L 26.267578 17.619141 L 26.289062 17.660156 L 26.330078 17.703125 L 26.371094 17.724609 L 26.582031 17.513672 L 26.644531 17.388672 L 26.560547 17.304688 L 26.498047 17.283203 L 26.435547 17.304688 L 26.371094 17.283203 L 26.267578 17.283203 L 26.183594 17.263672 L 26.121094 17.220703 L 26.078125 17.158203 L 26.037109 17.115234 L 25.849609 17.074219 L 25.744141 17.052734 L 25.492188 17.115234 L 25.451172 17.115234 L 25.283203 16.96875 L 25.263672 16.947266 L 25.199219 16.927734 L 25.177734 16.90625 L 25.158203 16.863281 L 25.158203 16.84375 L 25.177734 16.822266 L 25.158203 16.800781 L 25.052734 16.654297 L 25.052734 16.613281 L 25.052734 16.550781 L 25.074219 16.466797 L 25.074219 16.423828 L 25.052734 16.277344 L 25.052734 16.236328 L 25.052734 16.173828 L 25.074219 16.089844 L 25.074219 16.027344 L 25.052734 15.921875 L 24.990234 15.837891 L 24.927734 15.775391 L 24.863281 15.775391 L 24.654297 15.355469 L 24.634766 15.189453 L 24.613281 15.105469 L 24.529297 15.083984 L 24.466797 15.0625 L 24.445312 15.021484 L 24.425781 14.957031 L 24.402344 14.917969 L 24.382812 14.896484 L 24.257812 14.853516 L 24.257812 14.875 L 24.214844 14.853516 L 24.152344 14.791016 L 24.109375 14.748047 L 24.068359 14.728516 L 24.025391 14.728516 L 23.880859 14.707031 L 23.796875 14.685547 L 23.691406 14.644531 L 23.628906 14.580078 L 23.566406 14.517578 L 23.566406 14.435547 L 23.587891 14.351562 L 23.587891 14.246094 L 23.566406 14.205078 L 23.544922 14.162109 L 23.503906 14.142578 L 23.482422 14.121094 L 23.460938 14.099609 L 23.482422 14.058594 L 23.482422 13.974609 L 23.503906 13.931641 L 23.482422 13.869141 L 23.460938 13.785156 L 23.398438 13.722656 L 23.355469 13.640625 L 23.335938 13.576172 L 23.314453 13.492188 L 23.251953 13.345703 L 22.957031 12.990234 L 22.896484 12.947266 L 22.896484 12.84375 L 22.896484 12.654297 L 22.873047 12.570312 L 22.8125 12.466797 L 22.748047 12.382812 L 22.685547 12.361328 L 22.580078 12.361328 L 22.496094 12.320312 L 22.371094 12.214844 L 22.162109 12.152344 L 21.742188 12.048828 L 21.576172 11.943359 L 21.533203 11.859375 L 21.492188 11.650391 L 21.449219 11.628906 L 21.345703 11.628906 L 21.261719 11.607422 L 21.177734 11.544922 L 21.09375 11.439453 L 21.15625 11.398438 L 21.15625 11.335938 L 21.115234 11.273438 L 21.03125 11.230469 L 21.095703 11.189453 L 21.095703 11.146484 L 21.052734 11.146484 L 20.990234 11.126953 L 20.947266 11.126953 L 20.927734 11.167969 L 20.927734 11.189453 L 20.884766 11.167969 L 20.654297 10.957031 L 20.613281 10.896484 L 20.675781 10.853516 L 20.591797 10.728516 L 20.613281 10.685547 L 20.675781 10.664062 L 20.613281 10.580078 L 20.591797 10.560547 L 20.613281 10.435547 L 20.529297 10.351562 L 20.341797 10.267578 L 20.236328 10.183594 L 20.005859 9.9746094 L 19.921875 9.9101562 L 19.816406 9.890625 L 19.607422 9.8476562 L 19.503906 9.8261719 L 19.376953 9.7636719 L 19.294922 9.6816406 L 19.189453 9.5332031 L 19.146484 9.4296875 L 19.0625 9.3242188 L 18.958984 9.09375 L 18.832031 8.96875 L 18.582031 8.8007812 L 18.371094 8.6757812 L 18.183594 8.5917969 L 18.037109 8.5507812 L 17.890625 8.4863281 L 17.765625 8.3828125 L 17.681641 8.2773438 L 17.597656 8.2148438 L 17.513672 8.2148438 L 17.429688 8.2148438 L 17.367188 8.1523438 L 17.326172 8.0253906 L 17.263672 7.9003906 L 17.199219 7.7539062 L 17.136719 7.7128906 L 17.03125 7.6699219 L 16.990234 7.6074219 L 16.927734 7.4609375 L 16.886719 7.4199219 L 16.822266 7.3554688 L 16.759766 7.3144531 L 16.654297 7.2929688 L 16.570312 7.1894531 L 16.529297 7.1894531 L 16.486328 7.1054688 L 16.341797 6.6640625 L 16.298828 6.5605469 L 15.984375 6.203125 L 15.943359 6.1621094 L 15.859375 5.9941406 L 15.816406 5.8476562 L 15.753906 5.7226562 L 15.544922 5.6171875 L 15.251953 5.6601562 L 15.042969 5.7011719 L 14.896484 5.6386719 L 14.8125 5.5761719 L 14.728516 5.4492188 L 14.623047 5.4082031 L 14.519531 5.3046875 L 14.351562 5.2207031 L 14.310547 5.15625 L 14.289062 5.09375 L 14.246094 5.09375 L 14.162109 5.1367188 L 13.994141 5.09375 L 13.576172 4.8847656 L 13.408203 4.6953125 L 13.408203 4.4667969 L 13.472656 4.3613281 L 13.492188 4.3183594 L 13.492188 4.2773438 L 13.492188 4.2363281 L 13.492188 4.1933594 L 13.513672 4.1523438 L 13.535156 4.0898438 L 13.576172 4.0253906 L 13.640625 3.9648438 L 13.703125 3.9003906 L 13.724609 3.8378906 L 13.765625 3.6484375 L 13.785156 3.5664062 L 13.828125 3.5039062 L 13.996094 3.3554688 L 14.058594 3.3144531 L 14.162109 3.2714844 L 14.205078 3.2109375 L 14.226562 3.1464844 L 14.246094 3.0839844 L 14.246094 3.0214844 L 14.246094 3 z"/></svg>