<?xml version="1.0"?><svg xmlns="http://www.w3.org/2000/svg"  viewBox="0 0 30 30" width="60px" height="60px">    <path d="M25.921,10.957l0.042,0.042l0.021,0.105l0.021,0.042l0.021,0.105l0.042,0.168l0.042,0.231l0.063,0.252 l0.063,0.294l0.063,0.315l0.063,0.315l0.084,0.315l0.063,0.315l0.063,0.294l0.063,0.252l0.042,0.231l0.042,0.168l0.021,0.105 l0.021,0.042v0.042l0.021,0.105v0.189l0.084,0.147l0.084,0.147l-0.042,0.084v0.147v0.399l-0.021,0.399v0.399l-0.021,0.399v0.399 l-0.021,0.399v0.399l-0.021,0.42v0.189v0.105l0.147,0.105l0.042,0.252l0.042,0.231l0.042,0.252l0.042,0.252l0.042,0.231l0.042,0.252 l0.042,0.252l0.042,0.231l0.042,0.252l0.042,0.252l0.042,0.231l0.042,0.252l0.042,0.252l0.042,0.231l0.042,0.252l0.042,0.252 l0.021,0.105l0.105,0.105l0.084,0.084l0.063,0.084L28,23.39l-0.042,0.063l-0.168,0.168l-0.21,0.21l-0.189,0.189l-0.147,0.147 l-0.042,0.042l0.042,0.042l0.126,0.126l0.126,0.126l0.021,0.021h0.021l0.021,0.021l0.042,0.042l0.021,0.042h-0.021l-0.021,0.042 l0.042,0.021l0.021,0.042l-0.021,0.042l-0.042,0.147v0.021l-0.105,0.021l-0.042,0.021l-0.021,0.042l-0.126,0.231l-0.042,0.105v0.084 v0.042h-0.063l-0.042,0.021v0.042l0.021,0.042l0.063,0.105l0.042,0.042h-0.126l-0.147,0.042l-0.126,0.063l-0.105,0.084l-0.042,0.147 l-0.063,0.336l-0.084,0.084l-0.021-0.105v-0.126v-0.105l0.126-0.462l0.021-0.063l-0.021-0.126l0.042-0.231v-0.231v-0.231 l-0.021-0.105l-0.084-0.42l-0.063-0.189l-0.084-0.189l-0.063-0.063l-0.063-0.042l-0.147-0.084l-0.105-0.105v-0.084l0.021-0.105 l-0.042-0.105l-0.063,0.084l-0.021,0.042l-0.021,0.063v0.063l0.021,0.042l0.042,0.042l0.063,0.168l0.063,0.063l0.084,0.042 l0.063,0.063l0.063,0.084l0.021,0.084l0.042,0.231l0.168,0.441l0.021,0.126l-0.441-0.147l-0.441-0.147l-0.441-0.147l-0.462-0.147 l-0.441-0.147l-0.441-0.147l-0.441-0.147l-0.441-0.147l-0.042-0.105l-0.084-0.105l-0.063-0.042l-0.042-0.063l-0.021-0.042 l-0.042-0.021l-0.042,0.021l-0.042,0.042h-0.042l-0.042-0.042l-0.105-0.021l-0.189,0.063h-0.084l-0.084-0.042l-0.042-0.063 l-0.063-0.021l-0.189-0.021l-0.063-0.042l-0.084-0.063l-0.294-0.378l-0.063-0.042l-0.021-0.063l-0.042-0.273l-0.021-0.105 l-0.084-0.189V22.13l0.042-0.063v-0.042l-0.042-0.126l-0.063-0.021l-0.063-0.021l-0.105-0.021l0.063-0.147l0.021-0.042h-0.063 l-0.042-0.021l-0.084-0.084l-0.105-0.021l-0.105-0.063h-0.063l-0.21,0.084L20.292,21.5l-0.042-0.105l-0.042-0.126l-0.042-0.084 l-0.105-0.042l-0.126-0.042l-0.105-0.042l-0.021-0.084l-0.042,0.021l-0.105,0.021l-0.525,0.105l-0.525,0.126l-0.525,0.105 l-0.546,0.126l-0.525,0.105l-0.525,0.105l-0.525,0.126L15.42,21.92l-0.525,0.105L14.37,22.13l-0.546,0.105l-0.525,0.126 l-0.525,0.105l-0.546,0.105l-0.525,0.105l-0.525,0.105l-0.546,0.105l-0.525,0.105L9.56,23.075L9.035,23.18L8.51,23.285L7.964,23.39 l-0.525,0.084l-0.546,0.105l-0.525,0.105l-0.525,0.084l-0.546,0.105l-0.525,0.084l-0.546,0.105l-0.525,0.084l-0.546,0.105 L2.63,24.335l-0.147,0.021l-0.021-0.168L2.42,24.041l-0.021-0.168l-0.021-0.147l-0.042-0.147l-0.021-0.168l-0.021-0.147 l-0.021-0.147l-0.042-0.168L2.21,22.781l-0.042-0.189l-0.021-0.168l-0.021-0.189l-0.042-0.189l-0.021-0.168l-0.042-0.189L2,21.521 l0.462-0.336l0.546-0.399l0.546-0.378L4.1,20.009l0.546-0.399l0.168-0.231l0.126-0.294v-0.231L4.898,18.77l-0.084-0.042 l-0.105-0.021l-0.105-0.042l-0.105-0.063L4.436,18.56l-0.042-0.063l-0.021-0.105l0.021-0.084l-0.021-0.042l-0.021-0.042 l-0.063-0.042l-0.063-0.063l-0.042-0.042l-0.021-0.042v-0.063v-0.063l0.021-0.042v-0.063v-0.063v-0.063l-0.105-0.462l-0.042-0.084 l-0.189-0.336l-0.441-0.588l0.336-0.231l0.462-0.357l0.693-0.504l0.231-0.126l0.882-0.147l0.882-0.168l0.882-0.168l0.882-0.168 l0.882-0.168l0.882-0.168l0.882-0.168l0.882-0.168l0.021-0.021l0.021-0.021l0.021-0.021l0.021-0.021h0.021l0.021-0.021l0.021-0.021 v-0.021l0.105-0.315l0.105-0.336l0.105-0.315l0.105-0.315l0.105-0.336l0.105-0.315l0.105-0.315l0.105-0.336l0.063-0.105l0.252-0.315 l0.021-0.042v-0.042V10.39l0.042-0.063l0.021-0.021l0.399-0.252l0.063-0.063l0.042-0.105V9.865l-0.063-0.126l-0.021-0.042 l0.084-0.147l0.273-0.294l0.567-0.42l0.105-0.063l0.042-0.084l0.021-0.105l0.021-0.126l0.105-0.21l0.105-0.189l0.147-0.336 l0.378-0.504l0.357-0.525l0.336-0.483l0.21-0.315l0.462-0.441l0.189-0.105l0.063-0.042l0.126-0.168l0.063-0.042l0.189-0.126 l0.126-0.126l0.063-0.042h0.063l0.483-0.063l0.105-0.021h0.063l0.378-0.105l0.357-0.084l0.378-0.084l0.378-0.084l0.357-0.084 l0.378-0.105l0.378-0.084L21.7,4.006l0.378-0.084l0.357-0.105l0.378-0.084l0.378-0.084l0.357-0.105l0.189-0.042l0.021,0.063 l0.063,0.105l0.021,0.084l0.021,0.021v0.042v0.084v0.042v0.042L23.821,4.09v0.042v0.063v0.042V4.3l0.021,0.021v0.042l0.042,0.042 l0.021,0.021l0.021,0.021l0.084,0.063l0.021,0.021l0.021,0.021v0.021v0.042l0.021,0.042v0.084v0.042v0.126v0.063l0.021,0.126v0.063 v0.21v0.021v0.042l0.021,0.105l0.084,0.189l0.021,0.042l0.084,0.105l0.231,0.231l0.042,0.063l0.042,0.084l0.021,0.021v0.042 l0.021,0.063v0.063v0.105V6.61l-0.042,0.147v0.042v0.042v0.021l0.021,0.042l0.105,0.231l0.021,0.042l0.021,0.105l0.021,0.126v0.063 l-0.021,0.042l-0.042,0.021l-0.021,0.042l-0.042,0.042L24.661,7.66L24.64,7.702v0.021v0.042l0.021,0.105v0.063l-0.042,0.462 l-0.021,0.084v0.042l0.021,0.021l0.021,0.042l0.021,0.042l0.063,0.042l0.021,0.021l0.021,0.042v0.042l0.042,0.147l0.021,0.063 l0.084,0.231l0.042,0.063l0.021,0.042l0.042,0.021l0.021,0.021v0.021l0.021,0.042v0.042l0.021,0.063v0.084v0.042v0.021l0.105,0.126 l0.021,0.021l0.021,0.042v0.042l0.021,0.105v0.063l-0.063,0.567v0.042v0.063l0.042,0.126l0.021,0.063l0.021,0.042l0.042,0.042 l0.021,0.021h0.021l0.042-0.042l0.021-0.042l0.021-0.021v-0.021l0.021-0.042l-0.021-0.084l0.021-0.042v-0.021l0.021-0.021 l0.021-0.021h0.021l0.021-0.021h0.021h0.063h0.042l0.021,0.021l0.021,0.021l0.105,0.168l0.042,0.042l0.021,0.021L25.921,10.957 L25.921,10.957z"/></svg>