<?xml version="1.0"?><svg xmlns="http://www.w3.org/2000/svg"  viewBox="0 0 30 30" width="60px" height="60px">    <path d="M29.715,18.595l0.057-0.019l0.019,0.019l0.019,0.114l0.019,0.057l0.038,0.038v0.019l-0.038,0.019 l-0.153,0.038h-0.095l-0.019-0.076l-0.019-0.057l-0.133-0.057l-0.019-0.019l0.171-0.038l0.019,0.019h0.057l0.019-0.038 L29.715,18.595L29.715,18.595L29.715,18.595z M29.735,18.461l0.038,0.114l-0.057,0.019l-0.057,0.019l-0.038-0.057l0.057-0.057 L29.735,18.461L29.735,18.461L29.735,18.461z M23.077,8.227l0.038,0.038l0.076,0.095l0.019,0.019l0.038,0.057v0.019l0.114,0.495 v0.114l-0.038,0.057l-0.057,0.019L23.21,9.216l-0.038,0.019h-0.038l-0.019,0.019V9.35h-0.038L23.057,9.33V9.254l-0.076,0.038 l-0.019,0.038v0.057L23,9.445l0.076,0.019v0.057l-0.019,0.038l-0.038,0.057l-0.057,0.038h-0.038l-0.038-0.019l-0.019-0.076 l-0.038-0.038h-0.038l-0.057,0.057v0.076V9.73l-0.019,0.076l-0.019,0.095l-0.038,0.057h0.019l0.019,0.038l0.019,0.019l-0.057,0.057 l-0.019,0.019v0.038v0.095l-0.019,0.19v0.209l0.076,0.171L22.601,10.7l-0.057-0.019l-0.057,0.057l0.057,0.038l0.171,0.114 l0.038,0.038l0.038,0.057l0.019,0.038l-0.019,0.019l-0.133,0.019l-0.038,0.019v0.038l0.19-0.019l0.152,0.019l0.247-0.076 l0.057-0.038l0.114-0.114l0.171-0.095l0.076-0.095l0.076-0.057l0.095,0.038l0.038,0.038l0.038,0.076l0.019,0.076l-0.019,0.076 l-0.019,0.019l-0.038,0.019h-0.057l-0.019,0.019l0.019,0.019l0.038,0.038h0.019l0.209,0.152h0.038l0.038,0.019l0.038,0.019 l0.038,0.038v0.019v0.038v0.038l0.076,0.095l0.152,0.057l0.209,0.038h0.152l0.076-0.019h0.076l0.057,0.019l0.038,0.057l0.057,0.057 l0.076-0.057l0.076-0.057l0.038-0.038h0.038h0.038l0.038,0.019l0.019,0.019l0.057-0.019l0.057-0.038l0.057-0.019l0.038,0.019v0.019 l0.019,0.114l0.019,0.019l0.114,0.057l0.152,0.076l0.057,0.038v0.076l-0.038,0.057l0.019,0.019v0.057l0.038,0.019l0.114-0.057h0.057 h0.038l0.038,0.038l0.038,0.019l-0.019,0.019l-0.019,0.019l-0.019,0.019l0.038,0.019l0.19,0.019l0.171,0.076l0.361,0.057 l0.095,0.019l0.076,0.038l0.038,0.057l0.038,0.19l0.019,0.133l-0.038,0.057l-0.057,0.019l-0.152-0.114l-0.057-0.019L26.9,12.737 l0.057,0.095l0.095,0.133l0.038,0.076v0.038v0.057l-0.019,0.057v0.019h-0.038h-0.019v0.018l0.038,0.057l0.133,0.076l0.019,0.057 l-0.019,0.019l-0.057,0.019H27.09l-0.038-0.019l0.038,0.057l-0.019,0.038l-0.038,0.038v0.019l0.019,0.057l0.076,0.057l0.019,0.019 h0.038l-0.038,0.076h-0.114l-0.228-0.038l-0.019-0.019l-0.057-0.038l-0.038-0.019l-0.019,0.019h-0.019l-0.038-0.038l-0.038-0.038 l-0.019-0.057l-0.057-0.057l-0.019,0.076v0.171l-0.057,0.019l-0.057-0.038l-0.057-0.095v-0.057l-0.057-0.057l-0.171-0.152 l-0.057-0.076l-0.019-0.038l-0.133-0.057l-0.019-0.038l-0.038-0.038l-0.019-0.019l-0.038,0.057l-0.038-0.019l-0.038-0.019 l-0.019-0.038l-0.019-0.076l-0.038,0.057l-0.038,0.019l-0.057-0.019l-0.057-0.038l-0.19-0.19l-0.076-0.152l-0.266-0.076 l-0.076-0.133l-0.171-0.095l-0.038-0.019l-0.152-0.247l-0.095-0.095l-0.057-0.038l-0.076-0.019h-0.171l-0.038,0.019l-0.038-0.057 l-0.057-0.076l-0.057-0.057l-0.057-0.019h-0.171H23.59l-0.019,0.057l0.038,0.038l0.057,0.019h0.133l0.038-0.038h0.038l0.019,0.038 l0.019,0.057l0.019,0.038l0.038,0.038l0.038,0.038h0.285l0.038,0.038l0.038,0.019l0.076,0.076l0.019,0.019l0.095,0.266l0.019,0.019 l0.038,0.038l0.038,0.019l0.057,0.019l0.038,0.019l0.057,0.095l0.057,0.057l0.076,0.038l0.057,0.019l0.114,0.019l0.038,0.038 l0.038,0.095l0.019,0.038l0.133,0.152l0.038,0.019l0.019,0.019l0.038,0.057l0.019,0.019h0.095l0.057,0.038v-0.02h0.019h0.019 l0.019,0.019v0.057v0.019h0.171l0.057,0.019l0.114,0.076l0.038,0.038l0.057,0.133v0.019l0.019,0.019l0.038,0.095l0.095,0.095 l0.057,0.038l0.057,0.019h0.247l0.076-0.019l0.038-0.038l0.133,0.133l0.152,0.019l0.152-0.019l0.171,0.019l-0.058,0.076 l-0.057,0.038L27.052,14.2l-0.095,0.038v0.057l0.076,0.019h0.076l0.152,0.076l0.076,0.019l0.038-0.057v-0.114h0.057l0.133,0.095 v0.019l-0.038,0.038l-0.038,0.057l-0.038,0.057l0.019,0.038l0.038,0.019h0.057h0.038l0.038,0.095l0.038,0.133l-0.038,0.285 l0.019,0.152h-0.019l-0.038-0.057L27.395,15l-0.019-0.076l-0.038,0.019l-0.057,0.038h-0.076l-0.152-0.19l-0.076-0.057l-0.038,0.133 h0.057l0.038,0.038l0.019,0.038l0.019,0.038l-0.038-0.019h-0.057h-0.038l-0.019,0.038L26.9,15.056l0.038,0.038l0.114,0.057h0.019 l0.038,0.019l0.019,0.038l-0.019,0.019l-0.095,0.057v0.038l0.114-0.038h0.038l0.038,0.038l0.057,0.057l0.019,0.057v0.038 l-0.285,0.133L26.9,15.589l-0.152-0.076l-0.133-0.019l-0.038-0.057l-0.038-0.019h-0.057l-0.038-0.019l-0.305-0.323l-0.057-0.038 l-0.095-0.019l-0.095-0.095l-0.152-0.19l-0.247-0.152L25.473,14.6l-0.019,0.038v0.057l0.019,0.038l0.019,0.038h0.038l0.038,0.019 h0.038l0.228,0.266l0.133,0.038l0.057,0.076l0.114,0.133l0.285,0.209l0.285,0.171l0.171,0.076l0.095,0.019h0.095l0.152-0.057h0.057 l0.057,0.038v0.019v0.057v0.057l0.019,0.038l0.038,0.038l0.057,0.038h0.038V15.95l0.133,0.057l0.076,0.057l0.038,0.057l-0.038,0.038 l-0.076,0.076l-0.019,0.057l0.057,0.019l0.152-0.076l0.038,0.038l0.038,0.133v0.095l-0.019,0.095l-0.019,0.095l-0.076,0.038 L27.68,16.75l-0.057,0.019l-0.057,0.057L27.49,16.94l-0.057,0.038l-0.057-0.019l-0.076-0.171l-0.057-0.057l-0.4-0.228l-0.076,0.019 l-0.095-0.057l-0.095-0.057l-0.057-0.057l-0.038-0.038l0.019-0.133l-0.057-0.133l-0.076-0.076l-0.095-0.057l-0.057,0.057 l-0.152,0.038l-0.057,0.038l-0.019,0.038v0.038l-0.019,0.038l-0.038-0.019l-0.038-0.038l-0.019-0.038l-0.019-0.038l-0.038-0.019 H25.74l-0.152-0.038H25.53l-0.057-0.038l-0.019-0.076l-0.019-0.114l-0.038-0.095l-0.019,0.057v0.038l0.019,0.133v0.057l-0.038,0.057 l-0.057,0.057l-0.095,0.038l-0.057-0.057l-0.038-0.076l-0.152-0.152l-0.038-0.038h-0.057l-0.038,0.038l-0.095,0.114l-0.019,0.038 v0.019l-0.038-0.038l-0.057-0.057v-0.019l-0.057-0.038l-0.038-0.019l-0.019,0.019l-0.057,0.019l-0.076,0.057h-0.038h-0.038 l-0.076-0.019l-0.019-0.019l-0.152,0.038H23.99l-0.076-0.076l-0.095,0.114l0.038,0.076h0.038l0.038,0.019h0.019l0.038-0.019 l0.266,0.057l0.323-0.076l0.019,0.019l0.038,0.038l0.038,0.038l0.038-0.038l0.095-0.114l0.038-0.019l0.076,0.019l0.057,0.076 l0.038,0.095l0.038,0.038h0.095l0.171,0.076l0.076,0.019l0.342-0.076l0.057,0.019l0.152,0.133l0.076,0.019l0.076-0.019l0.076-0.152 l0.057-0.038l0.038,0.057l0.114,0.266l0.057,0.285l0.038,0.057l0.057,0.038l0.247,0.019v0.019l-0.019,0.038l-0.019,0.019v0.019 l0.038,0.019h0.038h0.038h0.038l0.057,0.038l0.266,0.095v0.019l-0.057,0.057l0.019,0.057l0.038,0.038l0.038,0.076v0.038 l-0.057,0.076l-0.076,0.095v0.038l0.095-0.038l0.076-0.057l0.057-0.076l0.076-0.076l0.095-0.038l0.114-0.019l0.095,0.019 l0.095,0.038v0.057l0.057,0.038l0.076,0.038l0.057-0.019l-0.095-0.076l-0.038-0.057v-0.057l0.038-0.095l-0.019-0.019L27.85,17.13 l-0.019-0.076l0.057-0.095l0.133-0.038l0.38,0.076l0.209-0.038l0.152,0.038l0.133-0.019l0.095-0.057l0.095-0.019l0.095,0.114 l0.152,0.38l0.571,0.951L30,18.538l-0.057,0.019h-0.057L29.848,18.5v-0.057v-0.057v-0.057l-0.038-0.019l-0.038-0.057l-0.038-0.038 l-0.152-0.323l-0.038-0.038l-0.019-0.019l-0.057-0.019h-0.038l-0.019,0.057l0.057,0.495l0.076,0.247l0.019,0.019l-0.171,0.038 L29.22,18.5l0.019,0.076l0.019,0.019l0.038,0.038l0.019,0.038l-0.095,0.038l-0.571,0.114l-0.666,0.133l-0.666,0.114l-0.666,0.133 l-0.666,0.133l-0.666,0.133l-0.685,0.114l-0.666,0.133l-0.666,0.133l-0.666,0.114l-0.666,0.133l-0.666,0.114l-0.666,0.114 l-0.685,0.114l-0.666,0.133l-0.666,0.114l-0.666,0.114l-0.666,0.114l-0.685,0.095l-0.666,0.114l-0.666,0.114l-0.666,0.114 l-0.685,0.095l-0.666,0.114l-0.666,0.114l-0.666,0.095l-0.685,0.095l-0.666,0.114l-0.666,0.095l-0.685,0.095l-0.666,0.095 l-0.666,0.095L7.8,22.381H7.781l-0.019-0.019l-0.038-0.057l-0.361,0.057l-0.323,0.019l-0.266,0.038H6.735l-0.038,0.019L6.64,22.534 l-0.038,0.019l-0.19,0.019l-0.399,0.057l-0.4,0.057l-0.399,0.057L4.814,22.8l-0.4,0.057l-0.399,0.057l-0.399,0.038l-0.4,0.057 l-0.419,0.057l-0.399,0.057l-0.399,0.057l-0.4,0.038l-0.399,0.057l-0.4,0.057L0.399,23.39L0,23.428l0.133-0.171l0.076-0.038h0.019 l0.323-0.171l0.38-0.095l0.038-0.019l0.019-0.019l0.038-0.057l0.152-0.095l0.38-0.19l0.38-0.114l0.038-0.019l0.019-0.019v-0.021 v-0.038l-0.019-0.038v-0.019v-0.019l0.038-0.057l0.038-0.038l0.038-0.171l0.076-0.095l0.019-0.019h0.019l0.171-0.038l0.228-0.114 l0.209-0.133l0.057-0.038l0.019-0.019v-0.019v-0.019l0.019-0.038v-0.019v-0.076l-0.019-0.057v-0.019l-0.019-0.076l0.019-0.038 l0.038-0.057l0.076-0.076l0.323-0.209l0.038-0.038v-0.019l0.019-0.019v-0.038v-0.019v-0.038l-0.019-0.114l-0.019-0.057v-0.038 l0.019-0.057l0.057-0.076l0.171-0.152l0.38-0.266l0.285-0.19l0.247-0.171l0.095-0.076l0.285-0.323l0.323-0.38l0.19-0.228 l0.285-0.323l0.19-0.209l0.038,0.019l0.019,0.019l0.019,0.019v0.038v0.019v0.019v0.019v0.019l-0.076,0.095L5.859,18.31v0.019v0.019 l0.019,0.019v0.019l0.152,0.057l0.019,0.019l0.019,0.019l0.019,0.019v0.019l0.019,0.019v0.038v0.019v0.114v0.036l0.019,0.019v0.019 l0.019,0.019l0.019,0.019l0.209,0.095l0.038,0.038l0.019,0.019l0.057,0.095l0.019,0.019v0.019l0.038,0.019l0.057,0.019h0.019h0.038 h0.057h0.095H6.83h0.038l0.019,0.019l0.019,0.019l0.019,0.019l0.057,0.057l0.038,0.038l0.019,0.019l0.152,0.038l0.095,0.057h0.057 h0.228l0.095-0.019l0.019-0.019l0.038-0.019l0.152-0.247l0.019-0.019l0.038-0.038l0.057-0.019l0.152-0.038l0.019-0.019l0.019-0.038 l0.038-0.057l0.019-0.038l0.019-0.038l0.019-0.076V18.71l0.019-0.038l0.019-0.019h0.057H8.41h0.019l0.019,0.019l0.095,0.095 l0.019,0.019l0.019,0.019L8.809,18.9l0.019,0.019l0.019,0.019l0.019,0.019l0.019,0.019l0.019,0.019l0.019,0.019l0.038-0.019 l0.285-0.209l0.38-0.114l0.038-0.019l0.095-0.076h0.038h0.019l0.057,0.038h0.038l0.019-0.019l0.228-0.19l0.019-0.019l0.019-0.038 l0.019-0.057v-0.019l-0.019-0.038l-0.076-0.095v-0.02L10.104,18.1v-0.038l0.019-0.019v-0.038v-0.019l0.019-0.019l0.038-0.019 l0.038-0.038h0.038l0.038-0.019l0.114,0.019h0.019l0.019,0.019v0.038v0.019h0.019h0.076l0.019,0.019h0.019l0.019,0.019v0.019h0.019 l0.019,0.019l0.038-0.019l0.019-0.019l0.152-0.114l0.152-0.133l0.171-0.133l0.152-0.095l0.076-0.038l0.095-0.019l0.019-0.019 l0.038,0.019h0.019v0.019l0.019,0.019v0.038v0.038l0.019,0.019l0.019,0.019l0.019,0.019h0.038h0.019l0.019-0.019l0.019-0.019 l0.095-0.114l0.419-0.342v-0.019l0.019-0.038v-0.057l-0.021-0.019l-0.057-0.019l-0.019-0.019h-0.019v-0.038V16.94v-0.038 l0.019-0.019l0.019-0.057l0.038-0.019l0.019-0.019l0.057-0.057l0.076-0.057l0.019-0.038l0.019-0.019v-0.038l-0.019-0.038 l-0.019-0.019l-0.019-0.019l-0.114-0.038l-0.038-0.019l-0.057-0.038l-0.019-0.019v-0.019v-0.057l0.095-0.285l0.076-0.209v-0.038 l0.019-0.114v-0.019l0.133-0.209l0.114-0.171l0.133-0.228l0.152-0.266l0.095-0.152l0.095-0.266l0.057-0.19l0.038-0.285v-0.038 l-0.019-0.038v-0.038v-0.019v-0.038l0.152-0.19l0.057-0.114l0.038-0.038l0.076-0.076l0.057-0.076v-0.038v-0.019v-0.038v-0.019 l-0.038-0.038V13.04v-0.057l0.019-0.038l0.019-0.057l0.019-0.038v-0.057l0.019-0.019v-0.019l0.076-0.038l0.038-0.038v-0.019 l0.019-0.152l0.019-0.057l0.038-0.076l0.019-0.038v-0.038l-0.038-0.19v-0.076l0.057-0.114l0.019-0.038v-0.038v-0.019l-0.019-0.038 v-0.038v-0.038l0.019-0.095v-0.038l0.019-0.019h0.038l0.323,0.057h0.019v0.019l0.019,0.019l0.19,0.228l0.019,0.019v0.019v0.019 v0.038v0.019v0.019l0.19,0.019l0.19,0.038l0.19,0.019l0.247,0.038h0.038l0.019-0.019l0.019-0.019l0.095-0.209l0.057-0.133 l0.057-0.114l0.019-0.038l0.019-0.057l0.019-0.171v-0.019v-0.019v-0.019l0.019-0.171v-0.019v-0.038l0.038-0.076l0.019-0.038 l0.038-0.038l0.057-0.038l0.019-0.038l0.019-0.019v-0.019l-0.019-0.285V10.51l0.019-0.038l0.057-0.114V10.32v-0.019v-0.038 l0.019-0.038l0.019-0.057l0.114-0.228l0.019-0.019h0.019l0.133,0.057l0.171,0.076l0.152,0.076h0.019l0.019-0.019l0.019-0.038 l0.076-0.171l0.095-0.228l0.095-0.19l0.057-0.133l0.019-0.019h0.019h0.017l0.019,0.019v0.019h0.019l0.019,0.019h0.019h0.019 l0.038-0.019l0.076-0.057l0.019-0.019l0.019-0.019l0.019-0.057l0.019-0.095l0.019-0.038l0.019-0.019l0.019-0.019l0.038-0.019 l0.057-0.038l0.038-0.019l0.019-0.019l0.076-0.152V8.759V8.741V8.722V8.703V8.684V8.665l0.038-0.114l0.114-0.19l0.133-0.152 l0.076-0.171l0.019-0.038V7.98V7.961V7.942l-0.038-0.076V7.847l-0.019-0.019V7.789l0.019-0.019V7.675V7.656V7.637L17.827,7.58V7.561 l-0.019-0.019V7.523V7.485V7.466l0.019-0.019l0.076-0.19l0.038-0.095V7.105l0.019-0.019l-0.019-0.057V6.971l-0.057-0.133V6.781 V6.743V6.686l0.038-0.095l0.057-0.019l0.057,0.019l0.247,0.133l0.228,0.133l0.247,0.133l0.247,0.133l0.228,0.133l0.247,0.133 l0.247,0.114l0.228,0.133l0.057,0.019l0.019,0.038l0.019-0.076l0.019-0.057l0.038-0.152l0.038-0.228l0.038-0.171L20.224,6.8 l0.019-0.057V6.724l0.076,0.019l0.19-0.038h0.076l0.171,0.038h0.171l0.038,0.038l0.095,0.114l0.076,0.019l0.095,0.019l0.076,0.019 l0.057,0.057v0.095L21.327,7.2l-0.095,0.133L21.212,7.41l0.038,0.076l0.057,0.057l0.076,0.038l0.152,0.114l0.095,0.019l0.343-0.019 h0.114l0.133,0.038l0.095,0.076l0.038,0.057l0.019,0.076l0.038,0.057l0.057,0.019h0.057l0.133,0.019h0.114l0.057,0.019l0.057,0.057 l0.019,0.019L23.077,8.227L23.077,8.227L23.077,8.227z"/></svg>