<?xml version="1.0"?><svg xmlns="http://www.w3.org/2000/svg"  viewBox="0 0 30 30" width="60px" height="60px">    <path d="M11.47,1.234l0.314,0.157l-0.078,0.235l-0.47,0.47L11.077,2.41v0.785L10.92,3.587L10.45,4.606 l-0.079,0.078L9.9,4.999L9.822,5.156v0.235v0.235v0.235L9.9,6.018l0.471,0.314l0.236,0.157l0.157,0.314l0.157,0.392l-0.078,0.392 l-0.079,0.392l-0.078,0.392l0.235,0.392l0.314,0.314l0.235,0.157l0.314,0.235l0.862,1.177l0.078,0.078l0.079,0.079l0.236-0.079 l0.157,0.079l0.627,0.47l0.47,0.706l0.237,0.392l0.156,0.47l0.158,1.254l0.079,0.471l0.077,0.157l0.236,0.235l0.078,0.235v0.471 l0.079,0.235l0.47,0.157l0.315,0.313l0.705,0.941l0.158,0.314l0.157,0.314l0.157,0.549l0.158,0.157l0.941,0.471l1.02,0.941 l0.471,0.235l0.627,0.079l0.471-0.157h0.235l0.157,0.235l0.628,2.039l0.077,0.471l-0.077,0.313l-0.236-0.941l-0.236-0.237 l-0.784,0.157v0.079l0.471,0.705h-0.235H20.96h-0.078l-0.077,0.079l0.156,0.156l0.237,0.079h0.235h0.236l-0.236,0.392l-1.019,0.549 l-0.157,0.392l0.313-0.079l-0.078,0.157v0.078L20.413,25l-0.079,0.079h0.235l0.55-0.549l0.392-0.157l0.08,0.078l0.156,0.157 l0.157,0.157h0.158l0.235-0.47l0.079-0.314l-0.079-0.157v-0.157h0.079l0.157,0.157l0.079,0.235l0.078,0.784l0.157,0.471l0.314,0.47 l0.157,0.471v0.47l-0.236,0.078l-0.078-0.078h-0.078h-0.079h-0.157v0.157l-0.314,0.078l-0.863,0.235l-1.176,0.236l-1.177,0.235 L17.98,27.98l-1.176,0.236l-1.255,0.235l-1.176,0.314L13.196,29l-0.236-0.942l-0.313-0.941l-0.314-1.412l-0.392-1.412l-0.392-1.412 l-0.392-1.412l-0.392-1.412l-0.314-1.412l-0.392-1.49l-0.392-1.412l-0.392-1.412l-0.392-1.412l-0.314-1.412l-0.392-1.412 L7.782,8.685L7.39,7.274L6.998,5.783L6.685,4.372h0.078l0.235-0.627l0.235-0.627l0.236-0.706l0.235-0.314l0.236-0.314l0.235-0.235 l0.471-0.235l0.314-0.079L9.665,1h0.706l0.628,0.078L11.47,1.234L11.47,1.234L11.47,1.234z"/></svg>