<?xml version="1.0"?><svg xmlns="http://www.w3.org/2000/svg"  viewBox="0 0 30 30" width="60px" height="60px">    <path d="M26.063,25.603l-0.096,0.211l-0.038,0.173H25.91l-0.556,0.057l-0.575,0.038l-0.556,0.057l-0.556,0.038 l-0.288,0.038l-0.019-0.019l-0.019-0.019v-0.019l0.019-0.038l0.115-0.288l0.038-0.038l0.057-0.134l0.038-0.038l0.038-0.057v-0.019 h0.019l0.019-0.019l0.077-0.019l0.038-0.019h0.019v-0.019l0.019-0.019l0.019-0.038v-0.019v-0.019v-0.057l0.019-0.019v-0.019 l0.019-0.019l0.019-0.019l0.038-0.038h0.019l0.038-0.019l0.096-0.057l0.115-0.077h0.019v-0.019l0.019-0.038v-0.019l0.019-0.096 v-0.019l0.019-0.019l0.019-0.019l0.096-0.038l0.019-0.019h0.019l0.019-0.019v-0.019l0.019-0.038v-0.019v-0.019v-0.038l-0.019-0.134 v-0.038l0.019-0.115V24.3v-0.038l-0.019-0.019v-0.019l-0.019-0.019l-0.019-0.019l-0.019-0.019l-0.019-0.019l-0.134-0.077V24.05 l-0.019-0.019v-0.019l-0.019-0.019v-0.077v-0.038h-0.019l-0.019-0.019l-0.019-0.019h-0.019V23.82l-0.057-0.115l-0.019-0.038 l-0.019-0.019l-0.269,0.019l-1.074,0.058l-1.074,0.057l-1.074,0.057l-1.074,0.057l-1.074,0.057l-1.074,0.038l-1.074,0.057 l-1.074,0.038l-1.074,0.038l-1.074,0.038l-1.074,0.038l-1.093,0.019l-1.074,0.019L8.73,24.28L7.656,24.3l-1.074,0.019l-0.019-0.614 v-0.614v-0.613l-0.019-0.614v-0.633l-0.019-0.614v-0.633l-0.019-0.633v-0.613l-0.019-0.633v-0.633L6.468,16.86v-0.633l-0.019-0.633 v-0.614l-0.019-0.633v-0.633v-0.614L6.41,12.469v-0.614l-0.019-0.364v-0.038H6.372v-0.019v-0.019l0.057-0.057L6.41,11.299 L6.352,11.28H6.256v-0.019l-0.019-0.038l-0.019-0.019H6.199l-0.038,0.019l-0.058-0.019l-0.115,0.019l-0.077-0.038l-0.172-0.115 L5.662,11.05l-0.077-0.038l-0.019-0.115v-0.096l-0.038-0.057l-0.134-0.077l-0.077-0.192l-0.038-0.211l0.038-0.077l-0.173-0.038 L5.125,10.13l-0.019-0.077l-0.019-0.038L4.934,9.9L4.857,9.861L4.838,9.842L4.799,9.804L4.703,9.612L4.684,9.593L4.627,9.555 L4.55,9.478L4.512,9.382V9.286L4.55,9.267h0.096l0.038-0.038L4.703,9.19V9.133L4.684,9.037l0.038-0.096L4.78,8.864L4.895,8.73 l0.038-0.019l0.038-0.019l0.019-0.038V8.538L5.01,8.5l0.019-0.038l0.038-0.019L5.24,8.481L5.317,8.5l0.077-0.077V8.385L5.375,8.347 L5.336,8.308V8.251V8.193l0.019-0.096V8.04L5.317,8.001L5.144,7.905L5.087,7.829l0.038-0.057V7.714L5.106,7.656L5.049,7.637H4.972 L4.895,7.656L4.838,7.676L4.742,7.791L4.646,7.829L4.569,7.867L4.493,7.829L4.377,7.695L4.339,7.676L4.301,7.656H4.224L4.186,7.637 L4.167,7.618L4.147,7.58L4.128,7.522L4.109,7.484H4.071L4.013,7.465H3.975L3.937,7.388l-0.23-0.211L3.611,7.081L3.553,7.062 L3.38,7.024L3.323,6.966V6.889l0.019-0.115L3.38,6.678V6.621V6.602L3.265,6.487L3.246,6.41L3.189,6.333L3.074,6.199l0.057-0.115 L3.15,6.026L3.112,5.969L3.035,5.95L2.901,5.931L2.844,5.911L2.805,5.835L2.767,5.777L2.729,5.72L2.671,5.662H2.594L2.518,5.681 L2.46,5.662L2.441,5.605l0.038-0.038l0.038-0.038L2.537,5.49V5.471L2.479,5.336L2.422,5.24L2.403,5.202V5.164V5.087V5.068 L2.383,4.991L2.307,4.895L2.288,4.838L2.268,4.761l0.019-0.057V4.646L2.23,4.588L2.134,4.569L2.057,4.55L2.019,4.493L2,4.378 l0.019-0.134h0.019h0.901l0.901-0.019l0.92-0.019l0.901-0.019l0.901-0.019l0.901-0.019l0.901-0.019l0.901-0.019l0.901-0.038 l0.92-0.038l0.901-0.019l0.901-0.038l0.901-0.038l0.901-0.038l0.901-0.038l0.901-0.057l0.364-0.019h0.134l0.038,0.077l0.019,0.019 l0.077,0.038l0.019,0.038v0.057v0.038l0.019,0.038l0.038,0.038l0.038,0.019l0.077,0.019l0.096,0.058v0.019l0.019,0.057l0.019,0.038 l0.019,0.019h0.019h0.038h0.019l0.019,0.019v0.038l0.019,0.019l0.038,0.019l0.077,0.038l0.019,0.019l0.038,0.038v0.019v0.038v0.038 l0.038,0.038l0.134,0.134l0.057,0.038l0.096,0.038l0.038,0.038L18.029,5.03l-0.077,0.23l-0.058,0.249V5.72v0.23l0.134,0.805 l0.019,0.057l0.057,0.077l0.077,0.077l0.019,0.038l0.019,0.038l0.019,0.038v0.038v0.115l-0.019,0.153v0.057l0.019,0.038l0.058,0.038 l0.019,0.077l0.115,0.096l0.019,0.038l0.019,0.057l0.019,0.115l0.038,0.153l0.096,0.134l0.978,0.805l0.057,0.077l0.057,0.096 l0.019,0.096l0.038,0.077l0.057,0.057l0.901,0.594l0.096,0.077l0.096,0.115l0.096,0.173l0.057,0.096l0.019,0.096l0.019,0.077v0.134 v0.057l0.019,0.058l0.077,0.115l0.019,0.057l-0.019,0.038l-0.019,0.057l-0.019,0.077l0.038,0.057l0.038,0.057l0.019,0.077v0.077 v0.077l0.192,0.345l0.115,0.134l0.172,0.057l0.154-0.077l0.211-0.345l0.192-0.038l0.077,0.019l0.134,0.077l0.077,0.019h0.096 l0.192,0.038l0.383,0.192l0.153,0.115l0.077,0.134l-0.019,0.096l-0.057,0.115l-0.077,0.115l-0.038,0.057l-0.057,0.057v0.115 l0.038,0.192v0.211l-0.057,0.153l-0.172,0.326L22.9,14.233l-0.172,0.307l-0.038,0.173l-0.019,0.172l0.057,0.23l0.019,0.077 l0.038,0.057l0.019,0.038l0.038,0.057l0.23,0.172l0.019,0.038l0.115,0.096l0.019,0.057l0.038,0.057l0.077,0.058l0.153,0.077 l0.096,0.096l0.096,0.115l0.115,0.096l0.134,0.038l0.23,0.173l0.057,0.038l0.153-0.019l0.038,0.019l0.134,0.019l0.134,0.096 l0.23,0.23l0.096,0.057l0.249,0.077l0.096,0.057l0.096,0.134l0.134,0.268l0.096,0.096l0.383,0.134l0.115,0.096L26.14,17.78 l0.019,0.077l0.038,0.096l0.019,0.077v0.096l-0.019,0.077v0.096l0.019,0.096l0.096,0.153l0.115,0.154l0.096,0.172l0.057,0.192 l-0.057,0.192l-0.115,0.134l-0.115,0.153l0.019,0.192l0.019,0.019l0.077,0.019l0.038,0.019l0.058,0.038v0.077l0.019,0.077 l0.038,0.077l0.096,0.153l0.172,0.211l0.058,0.134v0.134l0.057,0.077l0.211,0.153l0.153,0.057l0.058-0.019l0.019-0.038l-0.019-0.077 l-0.038-0.038l-0.038-0.038l-0.038-0.038l-0.038-0.096l0.019-0.057l0.057-0.019h0.096l0.038,0.019l0.019,0.115l0.019,0.057 l0.038,0.019l0.077,0.038l0.038,0.038l0.019,0.058l0.019,0.057l0.019,0.038l0.038,0.038l0.038,0.019l0.038-0.019l0.057-0.019 l0.038-0.019l0.077,0.038l0.019,0.077v0.211v0.154v0.057l-0.019,0.038l-0.019,0.038l-0.038,0.058l-0.019,0.057l0.019,0.096 l0.077,0.172L28,22.094l-0.019,0.134l-0.134,0.364l-0.077,0.288l-0.077,0.134l-0.096,0.057l-0.134-0.038l-0.096-0.077l-0.115-0.115 l-0.096-0.077l-0.038,0.038l-0.019,0.019l-0.038,0.096l-0.038,0.172v0.077l-0.057,0.23l-0.019,0.057v0.038l-0.077,0.115 l-0.077,0.077l-0.038,0.019l-0.115-0.019v-0.077l0.019-0.096l0.019-0.038l0.019-0.077l-0.077-0.192l-0.134-0.058l-0.115,0.077 l-0.019,0.173l0.038,0.057l0.038,0.038v0.019l0.038,0.077l-0.019,0.077v0.077l0.096,0.211l0.038,0.096l-0.038,0.115l-0.077,0.057 l-0.096,0.019h-0.096l-0.077,0.038l0.019,0.096l0.057,0.096l0.096,0.077l0.096,0.019l0.038,0.038l-0.019,0.038l-0.038,0.038 l-0.038,0.019l-0.364,0.038l-0.077,0.019l0.249,0.307l0.115,0.192l-0.038,0.096l-0.057,0.019l-0.077,0.038l-0.057,0.058 l-0.019,0.057L26.063,25.603L26.063,25.603z"/></svg>