<?xml version="1.0"?><svg xmlns="http://www.w3.org/2000/svg"  viewBox="0 0 30 30" width="60px" height="60px">    <path d="M23.042,26.829l-0.073,0.586L22.895,28l-0.585-0.091l-0.567-0.073l-0.586-0.091l-0.567-0.073l-0.586-0.091 l-0.567-0.091l-0.567-0.073l-0.585-0.091l-0.567-0.091L17.15,27.14l-0.586-0.073l-0.567-0.091l-0.585-0.091l-0.567-0.091 l-0.567-0.11l-0.567-0.091L13.125,26.5l-0.567-0.091l-0.567-0.11l-0.586-0.091l-0.567-0.091l-0.567-0.11l-0.567-0.091l-0.586-0.11 L8.55,25.713l-0.567-0.11l-0.567-0.11l-0.586-0.11l-0.567-0.091l-0.567-0.11l-0.567-0.11l-0.567-0.11l0.128-0.713l0.146-0.732 l0.128-0.714L5.11,22.09l0.128-0.713l0.146-0.714l0.128-0.732l0.146-0.713l0.128-0.714l0.146-0.714l0.128-0.713l0.146-0.732 l0.128-0.714l0.146-0.713l0.128-0.714l0.146-0.732l0.128-0.714l0.146-0.713l0.128-0.714l0.146-0.713l0.128-0.732l0.146-0.714 l0.128-0.714l0.146-0.713l0.128-0.714L8.129,6.3l0.128-0.713l0.146-0.714l0.128-0.714l0.146-0.732l0.128-0.713L8.953,2l0.622,0.128 l0.64,0.11l0.64,0.128l0.64,0.11l0.64,0.128l0.64,0.11l0.64,0.11l0.64,0.11l0.64,0.11l0.64,0.128l0.64,0.091l0.64,0.11l0.64,0.11 l0.64,0.11l0.64,0.11l0.64,0.091l-0.037,0.293l-0.055,0.293l-0.037,0.293l-0.055,0.274l-0.037,0.293l-0.055,0.293L18.87,5.824 l-0.055,0.293l-0.037,0.274l-0.055,0.293l-0.037,0.293L18.632,7.27l-0.037,0.274L18.54,7.837l-0.037,0.293l-0.055,0.293l0.439,0.073 l0.439,0.055l0.439,0.073l0.439,0.073l0.439,0.055l0.421,0.073l0.439,0.073l0.439,0.055l0.439,0.073l0.439,0.055l0.439,0.073 L23.7,9.209l0.421,0.055l0.439,0.073l0.439,0.055l0.439,0.055l-0.073,0.586l-0.091,0.586l-0.073,0.567l-0.073,0.586l-0.091,0.586 l-0.073,0.567l-0.073,0.586l-0.091,0.586l-0.073,0.567l-0.073,0.586l-0.091,0.586L24.487,16.4l-0.091,0.586l-0.073,0.586 l-0.073,0.567l-0.091,0.586l-0.073,0.586l-0.073,0.567l-0.091,0.586l-0.073,0.586l-0.073,0.567L23.682,22.2l-0.073,0.586 l-0.091,0.567l-0.073,0.586l-0.073,0.586l-0.091,0.567l-0.073,0.586l-0.073,0.586L23.042,26.829L23.042,26.829z"/></svg>