<?xml version="1.0"?><svg xmlns="http://www.w3.org/2000/svg"  viewBox="0 0 30 30" width="60px" height="60px">    <path d="M21.352,21.333l0.297,0.222l0.259,0.148v0.259l0.111-0.074l0.148-0.074l0.074,0.037V22l-0.037,0.111 v0.074v0.148L21.981,23l-0.037,0.37l-0.037,0.185l0.037,0.185l-0.222,0.111h-0.148l-0.259-0.037h-0.074l-0.074,0.037l-0.556,0.445 l-0.074,0.074L20.5,24.407l-0.037,0.148l-0.037,0.074l-0.074,0.111l-0.074,0.037h-0.074H20.13l-0.111,0.037l-0.074,0.037 l-0.037,0.037l-0.037,0.037l-0.037,0.037l-0.037,0.074v0.037l-0.037,0.111v0.222l-0.037,0.037l-0.037,0.111l-0.074,0.074 L19.5,25.704l-0.074,0.037l-0.037,0.037l-0.074,0.148l-0.037,0.111l-0.111,0.111l-0.037,0.037l-0.074,0.037l-0.148,0.037 l-0.481,0.111l-0.482,0.111l-0.481,0.111l-0.481,0.111L16.5,26.815l-0.481,0.111l-0.482,0.111l-0.481,0.111l-0.481,0.074 l-0.482,0.111l-0.481,0.111l-0.481,0.111l-0.481,0.111l-0.481,0.111l-0.482,0.111L11.204,28h-0.037l-0.111-0.259l-0.185-0.185 l-0.333-0.222l-0.111-0.074l-0.037-0.074l-0.074-0.111l-0.037-0.148l-0.037-0.148v-0.111l0.037-0.111v-0.148L10.241,26v-0.185 l0.111-0.074l0.148-0.111v-0.185l-0.074-0.407v-0.556l-0.037-0.222l-0.111-0.222l-0.037-0.111l-0.037-0.37l0.037-0.074v-0.074V23.37 v-0.074h-0.037v-0.037h-0.037v-0.111v-0.111l0.037-0.111l0.037-0.111l0.037-0.185l-0.037-0.222l-0.111-0.333l-0.333-1.556 l-0.037-0.259l0.037-0.148l0.185-0.297l0.037-0.185v-0.185l-0.037-0.407l-0.037-0.296V18.63l0.148-0.222l0.074-0.111l0.259-0.445 l0.037-0.148v-0.185v-0.222l-0.037-0.185l-0.037-0.222l0.074-0.222l0.259-0.703v-0.074l-0.074-0.037l-0.037-0.074l-0.074-0.037 v-0.185L10.685,15l0.037-0.333l-0.074-0.37l-0.185-0.815l-0.074-0.445l0.074-0.37l0.185-0.259l0.296-0.185l0.333-0.037l0.148-0.074 L11.537,12l0.148-0.37l0.074-0.111L12.241,11l0.148-0.111l0.037-0.111l0.074-0.222l0.185-0.222l0.074-0.222l-0.037-0.148 l-0.074-0.148V9.629l0.074-0.074l0.074-0.037l0.074-0.037l0.037-0.111L12.87,9.296l-0.074-0.074l-0.111-0.111L12.352,8.63 l-0.074-0.111L12.204,8.37l-0.111-0.111l-0.111-0.148l-0.037-0.222l0.074-0.37L12.204,7l0.185-0.519V6.259l-0.111-0.111L12.166,6 l-0.111-0.185l-0.037-0.259l0.037-0.111l0.111-0.037l-0.074-0.222l-0.037-0.148l0.037-0.148l0.148-0.481V4.296V4.148V4.037 l0.111-0.37V3.481l-0.148-0.074l-0.185-0.074l0.037-0.074l0.259-0.148L12.389,3L12.5,2.704l0.111-0.111l0.148-0.111h0.111 l0.63,0.185l0.185,0.037l0.148-0.037l0.111-0.074l0.111-0.37l0.074-0.148L14.167,2h0.037l0.148,0.481L14.5,2.963l0.148,0.482 l0.148,0.481l0.185,0.481l0.148,0.481l0.148,0.481l0.148,0.519l0.185,0.481l0.148,0.481l0.148,0.482l0.148,0.481l0.185,0.481 l0.148,0.481l0.148,0.481l0.148,0.482l0.148,0.481l0.185,0.481l0.148,0.481l0.148,0.481l0.148,0.482l0.185,0.481l0.148,0.481 l0.148,0.481l0.148,0.481l0.185,0.482l0.148,0.481l0.148,0.481L18.722,16l0.185,0.481l0.148,0.482l0.148,0.481l0.111,0.259 L19.352,18l0.037,0.148v0.148v0.037l0.037,0.074v0.074l0.074,0.111l0.037,0.148v0.111v0.259v0.037l0.037,0.074v0.074l0.074,0.074 l0.037,0.074l0.074,0.074l0.259,0.185l0.296,0.259l0.296,0.259l0.333,0.111l0.037,0.037l0.037,0.037l0.074,0.148l0.037,0.074v0.074 V21l0.037,0.111v0.037L21.352,21.333L21.352,21.333z"/></svg>