<?xml version="1.0"?><svg xmlns="http://www.w3.org/2000/svg"  viewBox="0 0 30 30" width="60px" height="60px">    <path d="M10.244,22.905l0.02,0.01l0.02,0.02l0.01,0.02v0.03l-0.121-0.03l-0.061-0.02l-0.051-0.051l-0.03,0.03 l-0.02-0.02l0.01-0.02l0.051-0.02l0.061,0.01l0.03-0.01l0.03-0.04l0.01,0.02l0.01,0.03l0.01,0.02 C10.224,22.885,10.244,22.905,10.244,22.905z M13.64,25.422l-0.03-0.02l-0.051-0.03l-0.04-0.04l-0.02-0.04l0.02-0.03l0.061,0.01 l0.051,0.02l0.111,0.121l0.04,0.02l0.162,0.111l0.02,0.04l0.081,0.212l-0.02,0.03l-0.03,0.01l-0.04-0.02l-0.061-0.061l-0.03-0.01 h-0.02l-0.061,0.01h-0.02l-0.051-0.02l-0.02-0.04l-0.01-0.04l0.01-0.061l0.02-0.111l-0.01-0.04L13.64,25.422L13.64,25.422 L13.64,25.422z M11.881,23.4l-0.03,0.03l-0.051,0.01l-0.485-0.02l-0.071-0.03l-0.071-0.061l-0.04-0.061l0.04-0.051l-0.01-0.04 l-0.02-0.03l-0.02-0.03l-0.03-0.02l-0.01-0.01l0.01-0.01l0.03-0.01l0.01-0.01h0.02l0.061,0.02l0.091,0.091l0.04,0.02l0.081,0.01 l0.04,0.02l0.162,0.121l0.03,0.01l0.01-0.01l0.101-0.051l0.04-0.01l0.02,0.01l0.01,0.01l0.051,0.061v0.01L11.881,23.4L11.881,23.4z M10.85,23.077l-0.02,0.061l0.01,0.071l0.03,0.04h0.071l-0.02,0.061l-0.03,0.03l-0.03,0.02l-0.131,0.04l-0.02,0.01l-0.03-0.02 l-0.02-0.01h-0.02l-0.03,0.01h-0.04l-0.04-0.04l-0.04-0.04l-0.01-0.03l-0.01-0.051l-0.02-0.071l-0.03-0.061l-0.03-0.051l0.04-0.01 l0.081,0.04l0.051,0.01h0.03l0.03-0.01h0.02l0.131,0.02h0.04L10.85,23.077L10.85,23.077z M11.477,25.29l0.061,0.04l0.051,0.071 l0.01,0.061l-0.081,0.01l-0.071-0.03l-0.061-0.051l-0.04-0.071V25.24l0.02,0.02l0.03,0.01l0.02-0.01l0.03-0.01l0.03,0.03V25.29 L11.477,25.29L11.477,25.29z M13.65,27.019l-0.03,0.01h-0.03l-0.051-0.02h-0.02l-0.01,0.01h-0.02h-0.02l-0.04-0.03l-0.04-0.04 l-0.04-0.051l-0.02-0.101l-0.051-0.131l-0.01-0.101l-0.03-0.071l-0.01-0.081l0.01-0.051l0.03,0.01l0.02,0.01l0.03,0.02v0.02v0.03 v0.03l0.01,0.02l0.01,0.02l0.02,0.081l0.03,0.051l0.081,0.101l0.051,0.121l0.051,0.04L13.65,27.019L13.65,27.019L13.65,27.019z M23.314,25.169v0.051l-0.02,0.03l-0.081,0.04l-0.081,0.061l-0.081,0.071H23l-0.242,0.111l-0.081,0.01l-0.04,0.03l-0.03,0.04 l-0.04,0.111l-0.03,0.04l-0.04,0.03l-0.041,0.03l-0.091,0.04l-0.04,0.03l-0.03,0.051v0.03l0.02,0.03l0.03,0.061l-0.01,0.02 l-0.02,0.02l-0.04,0.03v0.03l-0.02,0.071v0.061l0.02,0.03v0.02v0.03l-0.01,0.03l-0.01,0.01l-0.01,0.01v0.03l0.02,0.051l-0.02,0.03 l-0.03,0.03l-0.03,0.03l-0.03,0.061l-0.01,0.051v0.03l-0.01,0.01l-0.02,0.01l-0.01,0.03v0.061l-0.01,0.03l-0.01,0.02l-0.04,0.03 l-0.051,0.03l-0.02,0.03l-0.04,0.051l-0.101,0.131l-0.051,0.03h-0.051l-0.101-0.01l-0.03,0.01l0.01,0.03l0.01,0.03l0.01,0.03 l0.01,0.03l-0.01,0.02l-0.03,0.02l-0.03,0.061l-0.01,0.04l0.051,0.091l0.01,0.04l-0.01,0.152l-0.03,0.101l-0.051,0.091l-0.02,0.091 l0.04,0.101l0.081,0.051l0.192,0.051l0.061,0.051l0.04,0.101v0.03v0.03l-0.01,0.02l-0.01,0.03v0.172l-0.01,0.051l-0.03,0.03 l-0.091,0.04l-0.04,0.03l-0.01,0.04l-0.01,0.051l-0.01,0.04l-0.03,0.031L21.575,29l-0.222-0.091l-0.091,0.04l-0.01,0.03l-0.091-0.01 l-0.162-0.02l-0.152-0.02l-0.162-0.01l-0.162-0.02l-0.162-0.02l-0.152-0.02l-0.162-0.01l-0.162-0.02l-0.162-0.02l-0.162-0.02 l-0.152-0.02l-0.162-0.01l-0.162-0.02l-0.162-0.02l-0.152-0.02l-0.162-0.02l-0.162-0.02l-0.162-0.02l-0.152-0.02l-0.162-0.02 l-0.162-0.01l-0.162-0.02l-0.162-0.02l-0.152-0.02l-0.162-0.02l-0.162-0.02l-0.162-0.02l-0.152-0.02l-0.162-0.03l-0.162-0.02 l-0.162-0.02l-0.152-0.02l-0.02-0.02l0.01-0.071l0.02-0.061v-0.061l-0.02-0.091l-0.02-0.061l-0.04-0.051l-0.061-0.01l0.03-0.02 l0.02-0.02h0.03l0.04,0.03l-0.01,0.03l0.03,0.03l0.01,0.051l0.02,0.061l0.01,0.04l0.02,0.01l0.02-0.02V28.07l-0.01-0.061 l-0.03-0.061l-0.02-0.02l-0.04-0.04l-0.03-0.02l-0.03-0.02h-0.02h-0.03l-0.03,0.03l-0.02,0.071l-0.02,0.02v-0.03l-0.01-0.051v-0.03 l0.04-0.101l0.01-0.051l0.01-0.04l-0.04-0.091l0.01-0.061l0.02-0.02l0.03-0.02l0.04-0.051l0.01-0.04V27.12l-0.01-0.04v-0.04 l-0.01-0.142l-0.061-0.263l-0.202-0.485l-0.162-0.182l-0.101-0.162l-0.02-0.03l-0.081-0.081l-0.04-0.04l-0.061-0.131l-0.081-0.101 l-0.222-0.192l-0.051-0.071l-0.222-0.354l-0.03-0.02l-0.061-0.02l-0.04-0.01h-0.04l-0.04-0.051h-0.02h-0.02h-0.02h-0.02l-0.02,0.02 l-0.03,0.071l-0.01,0.02v0.02l-0.02,0.01h-0.02l-0.02-0.01l-0.02-0.02l-0.02-0.01l-0.02-0.02l-0.01-0.03l-0.02-0.03h-0.02 l-0.02,0.01l-0.03-0.01l-0.02-0.01l-0.01-0.01l-0.03-0.071l0.02-0.04l0.04-0.02l0.02-0.03l0.03-0.081v-0.04v-0.051l-0.02-0.101 l-0.02-0.131l-0.051-0.141l-0.051-0.071l-0.051-0.061l-0.051-0.02l-0.04,0.01h-0.02h-0.02l-0.01-0.02l-0.03-0.01l-0.313-0.04 l-0.051,0.01l-0.04,0.02l-0.03-0.051l-0.071-0.05l-0.101-0.04l-0.192-0.111l-0.142-0.152l-0.071-0.03v0.03h0.02l0.02,0.01l0.02,0.01 l-0.061-0.021l-0.051-0.04l-0.071-0.111l-0.01-0.01l-0.02-0.01l-0.01-0.02v-0.03v-0.02l-0.02-0.04v-0.04v-0.03l0.01-0.03l-0.02-0.02 v-0.02l0.01-0.03l-0.01-0.02l-0.01-0.02l-0.02-0.01l-0.051-0.01l-0.03-0.02l-0.192-0.283l-0.071-0.04l-0.111-0.101l-0.04-0.051 l-0.02-0.02h-0.02l-0.051-0.01l-0.04-0.03H11.81l-0.03,0.01l-0.02,0.02l-0.03,0.01l-0.03-0.01l-0.051-0.04l-0.04-0.04l-0.02-0.03 l-0.03-0.02h-0.04l-0.051,0.01h-0.04l-0.192-0.162l-0.101-0.081l-0.121,0.01l-0.071-0.061l-0.101-0.03l-0.313-0.061l-0.202-0.01 l-0.091-0.02l-0.02-0.111l-0.04-0.101l-0.061-0.081l-0.04-0.01l-0.061-0.04l-0.051-0.03l-0.02-0.03v-0.03l0.03-0.04l0.04-0.071 l0.02-0.04l0.03-0.03l0.03-0.04l0.02-0.061v-0.051l-0.01-0.051l-0.02-0.04l0.03-0.061l0.051-0.091l0.02-0.051v-0.03v-0.03 l-0.01-0.02l-0.01-0.02l-0.04-0.071l-0.01-0.02l0.03-0.061l0.101-0.141l0.04-0.091l0.03-0.101l0.01-0.091v-0.081l-0.01-0.01 l-0.03-0.03l-0.02-0.01l-0.02-0.051l-0.02-0.02l-0.03-0.01h-0.04h-0.04l-0.01,0.01l-0.051-0.051l-0.101-0.081L9.91,19.69L9.9,19.65 v-0.04l0.03-0.091l0.101-0.142l0.01,0.01l-0.03,0.04l0.01,0.02h0.03l0.04-0.01l-0.01-0.04l-0.02-0.061l-0.01-0.03v-0.081l-0.01-0.03 l-0.01-0.04l-0.051-0.04l-0.131-0.061l-0.04-0.051l-0.04-0.071l-0.04-0.091L9.678,18.74l-0.03-0.142l-0.04-0.081l-0.071-0.03 l-0.091-0.091l-0.051-0.02l-0.03-0.172l0.01-0.121l-0.01-0.061l-0.061-0.061l-0.02-0.03l-0.03-0.091L9.203,17.76l-0.02-0.04v-0.051 l0.01-0.061l0.01-0.061l-0.01-0.051l-0.01-0.04l-0.01-0.04l-0.03-0.04l-0.03-0.03l-0.051-0.02l-0.03-0.02l-0.01-0.051l-0.01-0.101 L8.96,16.951l-0.04-0.081l-0.152-0.182l-0.061-0.03l-0.02-0.03l-0.01-0.03v-0.03v-0.03l-0.01-0.02l-0.02-0.02l-0.02-0.02l-0.01-0.03 v-0.02v-0.01l0.01-0.03l-0.01-0.081v-0.02l0.03-0.111l0.01-0.111l-0.02-0.131l0.01-0.051l0.01-0.02l0.04,0.01l0.02-0.02v-0.04 l-0.02-0.02l-0.02-0.02l-0.02-0.03l-0.03-0.02l0.071-0.081l0.03-0.03l0.04-0.01l0.03,0.02l0.03,0.04l0.02,0.03l0.051-0.01l0.04-0.03 l0.04-0.04l0.03-0.051l0.041-0.111l0.02-0.02l0.03,0.01l0.04,0.02l0.01-0.01l0.01-0.02v-0.01v-0.02h-0.02h-0.02l-0.01-0.01 l-0.02-0.01l0.081-0.142l-0.02-0.081l-0.061-0.253l-0.03-0.091l-0.051-0.04l-0.051-0.01l-0.081,0.02l-0.03-0.04h-0.04h-0.04H8.717 l-0.04-0.02l-0.04-0.03l-0.121-0.132l-0.04-0.081l-0.071-0.182l-0.101-0.131l-0.01-0.04v-0.04l-0.02-0.04l-0.04-0.071l-0.02-0.101 l0.03-0.091l0.04-0.101l0.04-0.101l0.01-0.051l0.01-0.061l-0.01-0.051l-0.01-0.051l-0.01-0.051l0.01-0.111l-0.02-0.061l-0.02-0.01 l-0.02-0.01l-0.03-0.01l-0.01-0.03l0.01-0.111l0.03-0.061l0.051-0.061l0.03-0.04l0.02-0.101v-0.111l0.02-0.111l0.061-0.09l0.04-0.01 h0.04l0.081,0.02l0.04,0.02l0.01,0.03v0.111v0.02l-0.01,0.02l0.01,0.01l0.03,0.01h-0.04l-0.01,0.01l-0.02,0.03l-0.051,0.152 l-0.01,0.02l0.01,0.04l-0.01,0.02v0.02l0.02,0.03l0.02,0.01l0.03,0.01l0.01,0.01l0.01,0.02l0.02,0.061l0.02,0.01h0.071l0.01,0.01 v0.051l0.01,0.01l0.02,0.01l0.02,0.03v0.02v0.03l0.01,0.02h0.04l0.02,0.02l0.02,0.02l0.01,0.03h0.03l0.01,0.04l0.01,0.051l0.02,0.04 l0.03,0.02l0.04,0.02h0.04l0.04-0.02l-0.03-0.02l-0.01-0.01l-0.01-0.01l0.01-0.01v-0.02l0.01-0.01l-0.01-0.03l-0.01-0.01l-0.01-0.01 l-0.051-0.01l-0.02-0.04L9,13.231v-0.313l-0.01-0.111l-0.01-0.02l-0.02-0.02l-0.051-0.01l-0.01-0.01l0.02-0.03l-0.03-0.03h-0.01 l0.091-0.01l-0.03-0.04l-0.091-0.061l-0.04-0.02l-0.02-0.03l0.01-0.061l0.061-0.081l0.01-0.131L8.819,12.19l-0.071-0.061 l-0.03-0.101h0.04l0.04-0.02l0.03-0.03l0.03-0.051h0.02l0.01,0.02l0.02,0.01h0.03h0.02l0.121-0.071l0.03-0.01h0.051l0.04,0.03 l0.051,0.081l0.04,0.02h0.051l0.101-0.03l0.051-0.01l0.232,0.101l0.081,0.061l0.232,0.091l0.071,0.051l0.04,0.02l0.051-0.01 l-0.061-0.04l-0.01-0.01l0.02-0.01l0.02-0.01h0.02h0.02l0.01-0.01l0.01-0.02l0.01-0.02l0.01-0.02l0.01-0.02h0.02l0.051,0.01h0.01 l0.02-0.01l0.02-0.01h0.02l0.01,0.02l0.01,0.02l-0.01,0.02l0.01,0.02l0.051,0.081l0.04,0.03h0.03l0.01,0.04l0.03,0.051l0.03,0.04 l0.03,0.02v-0.01l-0.01-0.051l-0.02-0.051l-0.02-0.03l-0.03-0.02l-0.101-0.152l-0.02-0.02l-0.03-0.02l-0.051-0.01h-0.01l-0.02,0.02 h-0.01l-0.01-0.01l-0.02-0.01l-0.01-0.01l-0.01,0.01l-0.04,0.02l-0.01,0.02l-0.01,0.031l-0.03,0.02l-0.051,0.01l-0.091-0.01 l-0.01-0.01l-0.01-0.02l0.01-0.02l0.01-0.02l0.02-0.01h0.03h0.02h0.02l0.051-0.02l0.03-0.03l0.03-0.04l0.03-0.061h-0.01 l-0.091,0.081l-0.051,0.04l-0.051,0.01l-0.081-0.01h-0.02L9.9,12.038H9.88l-0.01,0.02l-0.03,0.01h-0.04l-0.03-0.01l-0.02-0.02h0.01 l0.02-0.01l0.02-0.03l-0.101-0.03l-0.081-0.051l0.061-0.071l0.01-0.03l-0.03-0.04h-0.03h-0.04l-0.04,0.01l-0.02,0.01l-0.01,0.01 l-0.03,0.051l-0.01,0.02l-0.02,0.01l-0.081,0.051h-0.03h-0.03l-0.04-0.01l-0.081-0.071l-0.061-0.03l-0.02-0.02l-0.02-0.02v-0.03 l-0.02-0.051l-0.182-0.182l-0.051,0.061l-0.051,0.03l-0.051-0.01l-0.081-0.01v0.061l-0.04,0.141v0.061l0.04,0.051l0.01,0.02 l-0.061,0.01l-0.02,0.01l-0.01,0.03l0.01,0.03l-0.02,0.01l-0.02,0.01h-0.01l0.01,0.04l0.051,0.071l0.01,0.04l-0.01,0.04l-0.02,0.01 l-0.02-0.02v-0.04l-0.04,0.02l0.01,0.03l0.01,0.04l-0.01,0.051l-0.03,0.01H8.444l-0.04-0.03l-0.03-0.04l-0.02-0.03L8.303,12.15 l-0.04-0.081l-0.081-0.121v0.04l-0.02,0.03l-0.03,0.01l-0.02-0.02l-0.03-0.081l-0.02-0.03l-0.04-0.04l-0.01-0.02v-0.081L8,11.725 l-0.02-0.03l-0.01-0.01l-0.111-0.101l-0.04-0.061l-0.01-0.091l-0.02,0.02l-0.01,0.01l-0.02,0.01h-0.02l0.01,0.04l0.01,0.01 l0.01,0.01l-0.03,0.01l-0.03,0.02l-0.01,0.02l-0.03,0.03h-0.01v0.01h-0.02h-0.01l-0.051-0.02l0.02-0.03l0.081-0.081l0.131-0.232 l0.02-0.071l-0.02-0.162l0.03,0.051l0.071,0.131l0.01,0.051v0.071l0.03,0.061l0.03,0.061L8,11.513l0.01-0.061l-0.02-0.061 L7.939,11.27l-0.04-0.182l-0.04-0.081v-0.02v-0.051v-0.02l-0.02-0.051l-0.091-0.111l-0.02,0.051v0.02l-0.01-0.051l0.04-0.121 l-0.04-0.061v-0.162l-0.04-0.081l-0.202-0.192l-0.051-0.081L7.232,9.542l-0.04-0.081L7.131,9.39L7.1,9.34v-0.04l-0.01-0.03 L7.009,9.158L6.918,8.965l-0.03-0.101l0.02-0.081l0.03-0.03l0.04-0.02l0.03-0.02l0.02-0.061l0.01-0.03l-0.01-0.051l0.01-0.03 L7.06,8.46l0.01-0.03L7.05,8.238l-0.03-0.03V8.147l0.01-0.111V7.954v-0.03l-0.02-0.03l0.02-0.04l-0.01-0.101L7.08,7.671L7.151,7.51 l0.051-0.101l0.04-0.051l0.03-0.01l0.02-0.02l-0.01-0.162l0.051-0.172V6.944v-0.02v-0.03l-0.01-0.02l-0.02-0.02v-0.01l-0.01-0.04 V6.742l0.02-0.111V6.58L7.171,6.105L7.12,6.024l-0.01-0.01l-0.04-0.03l-0.01-0.02l-0.01-0.02l0.02-0.061v-0.01l-0.04-0.142 l-0.03-0.04L6.918,5.599L6.736,5.296l-0.02-0.03l-0.03-0.03l0.02-0.061l0.051-0.111l0.01-0.061l-0.01-0.172L6.746,4.77V4.74 l0.03-0.04l0.03-0.03l0.02-0.04l0.01-0.04l0.04-0.061l0.04-0.061l0.02-0.03l0.081-0.081l0.02-0.03l0.01-0.01h0.01h0.01v-0.01 l-0.01-0.01v-0.01L7.11,4.214l0.051-0.051l0.081-0.061l-0.01,0.021l-0.03,0.04v0.01l0.02,0.04l0.03,0.03l0.04-0.04l0.03-0.101 l0.03-0.01l0.071-0.091l0.04-0.02h0.051h0.051l0.04-0.01l0.04-0.051l-0.02-0.02h-0.02l-0.071-0.03l-0.02,0.01L7.393,4.002 l-0.051,0.03l-0.04,0.01l0.04-0.051l0.121-0.101l0.222-0.334l0.02-0.061V3.436l-0.03-0.111l0.01-0.03v-0.04l0.01-0.04l0.02-0.04 l0.04-0.03l0.051-0.081l0.061-0.081L7.959,2.83L8.02,2.698l0.071-0.131l0.03-0.071l0.02-0.162l0.01-0.081l0.04-0.03l-0.02-0.02 l-0.01-0.02l-0.01-0.02l-0.01-0.03l0.01-0.02l0.02-0.071v-0.01l-0.01-0.03V1.94l-0.01-0.071l0.01-0.03l0.02-0.081L8.131,1.657 L8.06,1.566L8.01,1.516v-0.01l0.071-0.061l0.071-0.081l0.03-0.03l0.081-0.232v-0.02v-0.03V1l0.051,0.01l0.485,0.152l0.485,0.142 l0.475,0.152l0.485,0.142l0.485,0.131l0.485,0.141l0.475,0.142l0.485,0.131l0.485,0.142l0.485,0.131l0.485,0.131l0.485,0.131 l0.485,0.132l0.485,0.131l0.485,0.121l0.485,0.131l-0.121,0.455l-0.111,0.455l-0.121,0.465l-0.121,0.455L15.47,5.478l-0.121,0.465 l-0.121,0.455l-0.111,0.455l-0.121,0.465l-0.121,0.455l-0.111,0.465l-0.121,0.455L14.52,9.147l-0.111,0.465l-0.121,0.455 l-0.111,0.455l-0.04,0.141l-0.01,0.04l0.354,0.526l0.354,0.516l0.354,0.526l0.354,0.526l0.364,0.526l0.354,0.526l0.364,0.516 l0.364,0.526l0.283,0.435l0.283,0.425l0.293,0.435l0.283,0.435l0.293,0.425l0.283,0.435l0.293,0.425l0.293,0.435l0.253,0.384 l0.263,0.394l0.253,0.384l0.263,0.394l0.253,0.384l0.263,0.394l0.263,0.384l0.263,0.384l0.293,0.435l0.323,0.465l0.313,0.435 l0.313,0.435v0.02l-0.04,0.303l0.01,0.03l0.03,0.02l0.03,0.02l0.01,0.04l0.01,0.04v0.04l-0.01,0.071l0.02,0.051l0.04,0.04 l0.051,0.02l0.081,0.303l0.01,0.01v0.01v0.02l-0.01,0.061v0.02l0.01,0.051l0.03,0.02l0.01,0.03v0.061h0.01l0.01,0.03l-0.01,0.03 l-0.02,0.04l-0.01,0.02l0.01,0.04v0.01l0.01,0.02h0.01l0.03,0.01h0.01l0.01,0.01v0.01l0.01,0.02l0.01,0.01l0.04,0.03l0.01,0.01 l0.02,0.051l0.152,0.162l0.03,0.02l0.02,0.02l0.02,0.04l0.051,0.051L23.314,25.169L23.314,25.169L23.314,25.169z"/></svg>