<?xml version="1.0"?><svg xmlns="http://www.w3.org/2000/svg"  viewBox="0 0 30 30" width="60px" height="60px">    <path d="M1.205,6.443V6.42h0.614h1.364h1.386h1.364l1.386-0.023h1.364l1.386-0.023l1.364-0.023l1.364-0.045 l1.386-0.023l1.364-0.045l1.386-0.045l1.364-0.046l1.386-0.045l1.364-0.068l1.386-0.045l1.364-0.068v0.068V6.08l0.023,0.068 l0.023,0.046l0.068,0.114l0.023,0.068l0.023,0.068l0.023,0.136L24,6.648l0.068,0.045l0.364,0.136l0.114,0.114l0.023,0.227 l-0.091,0.182L24.273,7.67L24.25,7.875l0.046,0.409l0.023,0.182l0.023,0.227l0.023,0.068l0.023,0.068v0.25l0.045,0.136l0.045,0.091 l0.137,0.159l0.045,0.068l0.023,0.114l0.023,0.227l0.023,0.114l0.159,0.295l0.068,0.068l0.091,0.068l0.182,0.068l0.75,0.114 l0.204,0.068h0.091l0.114,0.023l0.068,0.091l0.091,0.227l0.045,0.068l0.114,0.159l0.045,0.091l-0.023,0.068l-0.045,0.114 l-0.046,0.136l0.068,0.068l0.136,0.068l0.068,0.068l0.068,0.091l0.137,0.091l0.386,0.227l0.136,0.136l0.091,0.182v-0.045 l0.023,0.341l0.045,0.136l0.136,0.068l0.114,0.136l0.068,0.023h0.046l0.386,0.205l0.045,0.045l0.114,0.136l0.045,0.023h0.068 l0.023,0.045l0.023,0.068v0.091l0.023,0.068L29,14.193v0.068l-0.023,0.227l-0.068,0.227v0.341l-0.045,0.273l-0.045,0.136 l-0.068,0.045l-0.068,0.045L28.5,15.693l-0.046,0.068l-0.068,0.091l-0.046,0.136l-0.045,0.114v0.136l-0.045,0.114v0.023l0.023,0.023 v0.045l0.023,0.136l-0.023,0.068l-0.023,0.045l-0.045,0.091l-0.182,0.114l-0.045,0.045l-0.023,0.068l-0.091,0.068l-0.159,0.091 l-0.432,0.091l-0.091,0.045l-0.159,0.227l-0.091,0.068l-0.182,0.091l-1.227,0.159l-0.182,0.136L25.25,18.17l-0.068,0.227 l-0.068,0.25l-0.023,0.25l0.023,0.136l0.023,0.136l0.068,0.114l0.091,0.045l0.045,0.023l0.227,0.159l0.136,0.182l0.091,0.227 l0.045,0.273v0.273l-0.068,0.205l-0.409,0.546l-0.068,0.114L25.25,21.42v0.091l-0.023,0.25v0.136l-0.091,0.227l-0.091,0.182 l-0.159,0.114l-0.159,0.068l-0.182,0.045l-0.136,0.023l-0.182,0.114l-0.182,0.114l-0.068,0.114v0.045l-0.045,0.045v0.068v0.045 l0.137,0.114l0.045,0.091v0.091l-0.023,0.182l0.023,0.091l0.023,0.159v0.091l-0.023,0.068l-0.273,0.091l-0.046-0.045l-0.114-0.045 l-0.068-0.045l-0.159-0.159l-0.045-0.045v-0.045v-0.045v-0.023l-0.046-0.045l-0.023-0.023l-0.091-0.045l-0.045-0.023l-0.023-0.023 V23.42l-0.023-0.023h-0.023h-0.045h-0.023l-0.023-0.023l-0.023-0.045L23,23.261v-0.023l-0.114-0.068l-0.091-0.023l-0.045-0.023 l-0.045-0.045l-0.023-0.045v-0.045V22.92l-0.023-0.045l-0.091-0.045l-0.023-0.023L22.5,22.716h-0.159l-0.432,0.023l-1.068,0.068 l-1.068,0.045l-1.068,0.045l-1.068,0.045l-1.068,0.045L15.5,23.011l-1.091,0.045l-1.068,0.045l-1.068,0.023l-1.068,0.023 l-1.068,0.023l-1.068,0.023L8,23.216l-1.091,0.023l-1.068,0.023H4.773H4.75l0.023-0.091v-0.136L4.727,22.92l-0.091-0.068 l-0.227-0.091L4.364,22.67l-0.023-0.068l-0.023-0.023l-0.023-0.068v-0.068l0.023-0.068l0.023-0.023l0.046-0.068l0.091-0.136v-0.045 l-0.045-0.091v-0.068v-0.136l0.045-0.114L4.5,21.602l-0.023-0.159l-0.045-0.136l-0.023-0.091l0.023-0.114v-0.045l-0.023-0.068 L4.318,20.92l-0.023-0.045l-0.023-0.068v-0.046l0.023-0.023l0.023-0.045l-0.023-0.045l-0.023-0.023v-0.023v-0.023H4.25v-0.045 l0.023-0.045l0.046-0.159l-0.023-0.091v-0.182l-0.023-0.091l0.091-0.045l-0.045-0.045l-0.204-0.068l-0.045-0.068l-0.023-0.091 l0.045-0.25l0.045-0.023l0.091-0.114l0.068-0.114L4.25,19.102L4.182,19.08l-0.205-0.068l-0.068-0.023l0.114-0.386v-0.068 l0.023-0.227l-0.023-0.068H4H3.955l-0.159-0.046l-0.068-0.045l-0.023-0.068v-0.045l0.023-0.068l0.023-0.068l0.023-0.045L3.75,17.807 l-0.068-0.045l-0.045-0.023l-0.023,0.023l-0.091,0.045L3.454,17.83l-0.091-0.068v-0.136l0.023-0.114v-0.045l-0.046-0.045 l-0.045-0.114v-0.114v-0.25v-0.045l0.023-0.045l0.045-0.068l0.023-0.023v-0.023l-0.023-0.091l0.023-0.114l0.045-0.091l0.023-0.114 l-0.046-0.136l-0.25-0.273l-0.023-0.045l-0.068-0.136L3.045,15.67v-0.068l0.045-0.114l0.023-0.045l-0.046-0.227l-0.159-0.136 l-0.182-0.114l-0.114-0.159L2.591,14.67v-0.114v-0.114L2.545,14.33l-0.091-0.068L2.318,14.17L2.25,14.08l-0.046-0.137l0.023-0.114 l0.045-0.091l0.023-0.114l-0.023-0.136L2.25,13.398l-0.046-0.091l-0.045-0.045l-0.023-0.091L2,12.989l0.023-0.25l0.068-0.25 l-0.068-0.25l-0.068-0.046l-0.114-0.045l-0.182-0.023v-0.204l-0.023-0.068L1.614,11.83l-0.023-0.023v-0.045v-0.045V11.67 l-0.023-0.023L1.546,11.58l-0.023-0.023H1.5v-0.023l-0.091-0.046v-0.023v-0.023l0.023-0.023l0.045-0.045L1.5,11.352l-0.023-0.023 v-0.023l-0.045-0.045l-0.023-0.023l-0.227-0.182l-0.045-0.023l-0.045-0.045l-0.068-0.114v-0.068L1,10.761l0.023-0.068v-0.068 l0.045-0.068l0.068-0.114l0.023-0.023v-0.023v-0.045l0.023-0.023v-0.023l0.023-0.023l0.023-0.023H1.25l0.068-0.023v-0.023 l0.023-0.023V10.17v-0.068l0.023-0.045v-0.023l0.023-0.023V9.988l0.023-0.023V9.92l0.023-0.159V9.739V9.716l0.091-0.091V9.579 l0.023-0.068V9.398V9.375L1.568,9.33l0.023-0.068l0.023-0.045L1.591,9.193V9.17L1.568,9.148V9.125V9.079V9.057L1.704,8.92 l0.023-0.023L1.75,8.852l0.046-0.227V8.557V8.534L1.773,8.489V8.42L1.727,8.17L1.704,8.102V8.08L1.682,8.057H1.659H1.636H1.591 H1.568L1.455,8.034H1.409H1.364L1.341,8.011L1.295,7.989V7.966V7.92l0.023-0.023l0.045-0.045V7.829L1.341,7.784L1.318,7.761 L1.273,7.716V7.67V7.648l0.045-0.023l0.045,0.023h0.045l0.023-0.023V7.602l0.023-0.023l0.023-0.136V7.148L1.455,7.079V7.057 L1.364,6.966L1.341,6.92L1.25,6.83V6.807L1.227,6.739V6.693V6.648V6.579V6.534V6.511L1.204,6.466L1.205,6.443L1.205,6.443z"/></svg>