<?xml version="1.0"?><svg xmlns="http://www.w3.org/2000/svg"  viewBox="0 0 30 30" width="60px" height="60px">    <path d="M1.55,6.943l0.081-0.402l0.08-0.389l0.47,0.094l0.496,0.107L3.173,6.46L3.67,6.554l0.496,0.107l0.496,0.094 l0.483,0.107l0.496,0.094l0.496,0.094l0.496,0.094l0.496,0.094l0.496,0.094l0.496,0.094L8.62,7.507l0.496,0.094l0.496,0.094 l0.51,0.081l0.496,0.08l0.496,0.094l0.496,0.08l0.496,0.081l0.496,0.08l0.496,0.081l0.51,0.08l0.496,0.08L14.604,8.5l0.496,0.081 l0.496,0.067l0.51,0.08l0.496,0.067L17.1,8.862l0.496,0.081l0.51,0.067l0.496,0.067l0.496,0.067l0.51,0.054l0.496,0.067l0.496,0.067 l0.51,0.054l0.496,0.067l0.496,0.054l0.51,0.067l0.496,0.054l0.51,0.054l0.496,0.054l0.51,0.054l0.496,0.054l0.496,0.054l0.51,0.04 l0.496,0.054l0.51,0.04l0.496,0.054l0.51,0.04l0.496,0.04L29,10.204l-0.054,0.644l-0.054,0.657l-0.054,0.657l-0.04,0.644 l-0.054,0.657l-0.054,0.644l-0.054,0.657l-0.054,0.657l-0.054,0.644l-0.054,0.657l-0.04,0.644l-0.054,0.657l-0.054,0.657 l-0.054,0.644l-0.054,0.657l-0.054,0.644l-0.027,0.376l-0.027,0.376l-0.027,0.362l-0.027,0.376l-0.04,0.376l-0.027,0.362 l-0.027,0.376l-0.027,0.376l-0.013,0.201l-0.013,0.04h-0.081l-0.255-0.027l-0.268-0.013l-0.268-0.027l-0.255-0.027l-0.268-0.027 l-0.268-0.027l-0.268-0.013l-0.255-0.027l-0.268-0.027l-0.268-0.027l-0.255-0.027l-0.268-0.027l-0.268-0.027l-0.268-0.027 l-0.255-0.027l-0.268-0.027l-0.268-0.027l-0.255-0.027l-0.268-0.027l-0.268-0.027l-0.255-0.027l-0.268-0.027l-0.268-0.027 l-0.255-0.04l-0.268-0.027l-0.268-0.027l-0.255-0.027l-0.268-0.04l-0.268-0.027l-0.255-0.027l-0.268-0.04l-0.268-0.027l-0.255-0.027 l-0.268-0.04l-0.268-0.027l-0.255-0.04l-0.268-0.027l-0.268-0.04l-0.255-0.027l-0.268-0.04l-0.255-0.027l-0.268-0.04l-0.268-0.04 l-0.255-0.027l-0.268-0.04l-0.268-0.04l-0.255-0.027l-0.268-0.04l-0.255-0.04l-0.268-0.04l-0.268-0.027l-0.255-0.04l-0.268-0.04 l-0.255-0.04l-0.268-0.04l-0.255-0.04l-0.268-0.04l-0.268-0.04l-0.255-0.04l-0.268-0.04l-0.255-0.04l-0.268-0.04l-0.255-0.04 l-0.268-0.04l-0.121-0.013l-0.013,0.054l-0.013,0.107l-0.013,0.094l-0.013,0.107l-0.027,0.107l-0.013,0.094l-0.013,0.107 l-0.013,0.107L10.7,22.654l-0.013,0.107l-0.013,0.107l-0.013,0.094l-0.013,0.107l-0.027,0.107l-0.013,0.094l-0.013,0.107 l-0.013,0.107l-0.107-0.054l-0.04-0.04l-0.054-0.094l-0.027-0.081l-0.027-0.04l-0.027-0.027l-0.027-0.027l-0.013-0.013l-0.013-0.013 l-0.013-0.027v-0.013v-0.013v-0.04l0.013-0.027v-0.027v-0.013l-0.013-0.027l-0.027-0.013l-0.013-0.013l-0.013-0.013l-0.013-0.054 l-0.067-0.161l-0.013-0.067l-0.027-0.027l-0.08-0.067L9.949,22.48H9.935l-0.013,0.013l-0.04,0.04l-0.013,0.013H9.841H9.774H9.761 l-0.04,0.013l-0.027,0.027V22.6L9.68,22.614v0.013l0.013,0.027v0.013l0.013,0.013v0.013v0.027v0.013l-0.013,0.013L9.68,22.761 l-0.013,0.013L9.6,22.788l-0.013,0.013v0.013l-0.013,0.027L9.56,22.855l-0.013,0.04l-0.013,0.013v0.027l-0.013,0.013v0.027v0.04 l0.013,0.013v0.013l0.013,0.013L9.56,23.07l0.054,0.027l0.013,0.013v0.013v0.013L9.613,23.15H9.586h-0.04l-0.027-0.013H9.506 L9.479,23.11l-0.067-0.054l-0.027-0.013l-0.268-0.04h-0.04l-0.121,0.054L8.943,23.07h-0.04l-0.054-0.013L8.835,23.07l-0.054,0.013 H8.755L8.741,23.07l-0.013-0.013l-0.013-0.013V23.03l-0.013-0.04l-0.013-0.013l-0.027-0.013l-0.04-0.027l-0.094-0.013H8.5H8.486 H8.473l-0.027,0.013H8.419h-0.04l-0.04-0.013l-0.241,0.013L8.07,22.922l-0.054-0.04L7.95,22.855l-0.04-0.013H7.856l-0.027-0.013 H7.815l-0.04-0.04l-0.027-0.027H7.722H7.708l-0.027,0.027H7.668l-0.013,0.013H7.587l-0.04,0.013L7.52,22.828H7.507l-0.013,0.013 L7.48,22.855l-0.027,0.08l-0.067,0.107l-0.013,0.013L7.346,23.07h-0.04H7.279l-0.027-0.013l-0.013-0.013V23.03l-0.013-0.013 l-0.027-0.013l-0.04-0.027h-0.04H7.051l-0.013-0.013l-0.013-0.027l-0.013-0.013H6.997l-0.295-0.094l-0.067-0.04H6.608H6.581 l-0.04,0.013l-0.027,0.013H6.447l-0.013,0.013l-0.161,0.107l-0.013,0.013l-0.013,0.013l-0.013,0.013l-0.013,0.027v0.013v0.013 l0.027,0.08v0.027L6.232,23.15l-0.04,0.013L6.165,23.15H6.152l-0.04-0.094l-0.013-0.013L6.085,23.03l-0.094-0.054l-0.013-0.013 l-0.013-0.013l-0.027-0.067l-0.013-0.013L5.91,22.855l-0.04-0.027l-0.027-0.013v-0.027v-0.04v-0.013L5.83,22.681v-0.013l0.013-0.04 l0.04-0.04v-0.013v-0.027L5.87,22.533l-0.04-0.027L5.816,22.48l-0.013-0.013l0.013-0.04v-0.027v-0.013l-0.054-0.081l-0.013-0.013 v-0.013l0.013-0.027v-0.013h0.013l0.027-0.027l0.013-0.013l0.013-0.013l0.013-0.013v-0.013L5.83,22.144v-0.04l-0.027-0.04v-0.027 L5.79,21.983V21.97v-0.013L5.763,21.93v-0.013v-0.027v-0.013v-0.013l-0.013-0.027v-0.013v-0.013l-0.027-0.04l-0.013-0.013 l-0.027-0.067v-0.013l-0.04-0.054l-0.04-0.054l-0.067-0.054L5.481,21.5l-0.04-0.013H5.427H5.414L5.401,21.5l-0.067,0.04H5.32H5.293 h-0.04l-0.027-0.013l-0.013-0.013l0.013-0.054l-0.013-0.013L5.199,21.42l-0.027-0.027l-0.107-0.08l-0.013-0.027l-0.027-0.027v-0.04 l-0.013-0.094l-0.013-0.04l-0.013-0.027l-0.013-0.027l-0.013-0.013V20.99v-0.013l0.013-0.013h0.013l0.054-0.013l0.013-0.013 l0.013-0.013l0.013-0.013l0.013-0.013l0.027-0.08v-0.027v-0.054v-0.013l-0.013-0.107l-0.013-0.027l-0.054-0.134V20.44l-0.013-0.067 v-0.027l-0.027-0.013L4.917,20.32H4.904l-0.013-0.027v-0.013l0.013-0.04l-0.013-0.013v-0.013l-0.013-0.04v-0.013v-0.013v-0.027 v-0.027l-0.013-0.027v-0.027l-0.027-0.04l-0.04-0.04l-0.04-0.067L4.73,19.85l-0.013-0.027V19.81v-0.04v-0.013v-0.027l-0.013-0.013 l-0.054-0.054l-0.013-0.027v-0.013v-0.013v-0.04v-0.013l0.013-0.04l0.027-0.094v-0.04v-0.013L4.663,19.34l-0.054-0.067l-0.013-0.027 l0.013-0.04l-0.013-0.027v-0.013l0.013-0.013v-0.027l0.013-0.013l0.013-0.027l0.013-0.027v-0.013l0.013-0.054v-0.027v-0.027 l-0.027-0.027l-0.067-0.054l-0.013-0.013v-0.027v-0.013l0.013-0.04l0.013-0.04l0.013-0.013l0.027-0.027l0.013-0.013v-0.027v-0.013 v-0.027l-0.027-0.027l-0.013-0.013l-0.013-0.013l-0.121-0.067l-0.013-0.027l-0.013-0.013v-0.04v-0.013l-0.013-0.027l-0.04-0.054 L4.3,18.227l-0.04-0.04l-0.027-0.013H4.22l-0.013,0.013l-0.013,0.027v0.013v0.013v0.027v0.013v0.027v0.013L4.18,18.334l-0.013,0.013 H4.099l-0.013,0.013H4.059l-0.013,0.013l-0.013,0.013l-0.013,0.027l-0.013,0.027l-0.013,0.013l-0.013,0.013H3.965l-0.04,0.027H3.911 l-0.013,0.013l-0.013,0.027v0.013l-0.013,0.013H3.858L3.75,18.589l-0.067,0.027H3.67H3.656l-0.04-0.013H3.589H3.576l-0.013,0.013 l-0.013,0.013l-0.013,0.013l-0.013,0.013l-0.04,0.067l-0.013,0.013H3.455l-0.054,0.027H3.375l-0.013,0.013H3.334l-0.054-0.013 L3.254,18.75L3.24,18.723V18.71l-0.013-0.027L3.16,18.629l-0.027-0.027L3.12,18.589v-0.027v-0.013l-0.013-0.027l-0.067-0.08H3.026 l-0.107-0.054H2.865l-0.027-0.013l-0.013-0.013l0.013-0.013l0.027-0.04l0.013-0.013l0.013-0.027v-0.013l-0.013-0.027V18.2v-0.027 v-0.013l0.013-0.013l0.054-0.027l0.04-0.027l0.013-0.013v-0.013l0.013-0.013v-0.013l0.013-0.027v-0.027v-0.013l0.013-0.04v-0.013 l-0.013-0.027l-0.04-0.08l-0.013-0.027V17.77l-0.013-0.054L2.945,17.69v-0.027l0.013-0.013l0.013-0.013l0.027-0.013l0.013-0.013 l0.013-0.013l0.013-0.027l0.013-0.027l0.04-0.027l0.013-0.027l0.013-0.013l0.013-0.013l0.027-0.013h0.013h0.013l0.08,0.013h0.027 l0.013-0.013h0.013l0.067-0.054l0.013-0.013l0.013-0.013v-0.027l-0.04-0.094v-0.013V17.22v-0.027V17.18l0.013-0.027l0.013-0.013 l0.027-0.04l0.013-0.027v-0.013v-0.027l-0.027-0.013l-0.054-0.027l-0.054-0.04l-0.013-0.027v-0.013v-0.027l0.013-0.013v-0.027 l-0.013-0.04v-0.027v-0.013l0.013-0.027l0.013-0.013l0.054-0.054l0.013-0.027l0.013-0.013v-0.013V16.59v-0.013v-0.013l-0.08-0.121 v-0.027v-0.013v-0.013l0.013-0.013v-0.013h0.013l0.013-0.013l0.08,0.013h0.027l0.013-0.013l0.013-0.013l0.013-0.013v-0.013v-0.013 v-0.04l0.013-0.067v-0.013v-0.013l-0.013-0.04v-0.027v-0.027v-0.013V16.04l0.013-0.013l0.027-0.027l0.013-0.013v-0.013l0.013-0.04 l0.013-0.027v-0.013l0.067-0.067l0.013-0.013v-0.013l0.013-0.027v-0.04l0.013-0.04l0.013-0.04l0.013-0.027l0.08-0.107l0.013-0.027 v-0.013l0.013-0.027v-0.013v-0.027l-0.013-0.013v-0.027l-0.027-0.04v-0.013l-0.013-0.013h0.013v-0.013l0.013-0.013h0.013 l0.067-0.013h0.013l0.027-0.013l0.013-0.013v-0.013l0.013-0.013v-0.013v-0.013l-0.013-0.027v-0.013l0.013-0.013v-0.013l0.027-0.027 l0.013-0.027v-0.013v-0.013v-0.027l0.013-0.013V14.98l0.013-0.027l0.013-0.027l0.013-0.04l0.013-0.054l0.013-0.027v-0.027 l-0.013-0.027l-0.013-0.013l-0.013-0.013H4.019H3.992l-0.161,0.013H3.817l-0.054,0.013l-0.027,0.013H3.723H3.697H3.683l-0.04-0.027 H3.63H3.616H3.562l-0.04,0.013l-0.027-0.013l-0.04-0.013l-0.027-0.013l-0.04-0.054l-0.027-0.027l-0.013-0.027v-0.013v-0.013v-0.027 l0.013-0.013l0.04-0.027l0.013-0.027v-0.027l-0.013-0.04l-0.013-0.013l-0.054-0.054l-0.013-0.013l-0.027-0.013H3.281H3.267 l-0.013,0.013L3.2,14.363l-0.054,0.054H3.12H3.106L3.08,14.403V14.39l-0.013-0.013l0.013-0.013l0.027-0.08v-0.027l0.013-0.013 l-0.013-0.027v-0.027l-0.013-0.013l-0.067-0.027l-0.04-0.027l-0.013-0.027l-0.027-0.04l-0.027-0.027L2.865,13.96l-0.027-0.027V13.92 l-0.013-0.054v-0.04v-0.027v-0.067l0.013-0.013v-0.027l0.013-0.013v-0.013v-0.027v-0.013l-0.054-0.054l-0.013-0.013l-0.013-0.013 l-0.054-0.107l-0.013-0.013L2.69,13.41l-0.04-0.027l-0.027-0.027L2.61,13.343L2.596,13.33v-0.013v-0.067v-0.013l-0.161-0.282 l-0.013-0.08l-0.054-0.107l-0.013-0.027l-0.054-0.054l-0.027-0.027l-0.013-0.04l-0.013-0.013l-0.013-0.013l-0.013-0.027 l-0.013-0.013l-0.013-0.013v-0.04v-0.013v-0.027l-0.013-0.013l-0.013-0.027l-0.013-0.054l-0.013-0.04l-0.013-0.027l-0.013-0.013 l-0.188-0.134l-0.121-0.04l-0.027-0.027l-0.013-0.013l-0.013-0.013l-0.013-0.054l-0.013-0.054l-0.027-0.067l-0.054-0.094L1.63,11.76 l-0.148-0.148l-0.08-0.054l-0.04-0.027l-0.013-0.013v-0.027v-0.013l0.013-0.013h0.013l0.013-0.013h0.013l0.094,0.013h0.027h0.013 l0.013-0.013h0.013l0.013-0.027l-0.013-0.013L1.55,11.384l-0.027-0.027l-0.027-0.013v-0.08l-0.013-0.04L1.47,11.196l-0.054-0.054 v-0.013v-0.013l0.013-0.013l0.013-0.013l0.054-0.013l0.027-0.013l0.013-0.013l0.013-0.013l0.013-0.027l0.013-0.013v-0.04 l-0.013-0.04l-0.04-0.107V10.78l0.013-0.08l0.013-0.027v-0.027l-0.013-0.027l-0.013-0.013L1.47,10.539l-0.013-0.013v-0.027v-0.027 l-0.013-0.04l-0.013-0.013l-0.054-0.054l-0.013-0.027v-0.013L1.349,10.15v-0.013l-0.013-0.04l-0.013-0.013l-0.054-0.054 l-0.013-0.013l-0.013-0.04l-0.027-0.04L1.188,9.908V9.895L1.174,9.868l-0.013-0.04l-0.04-0.081L1.107,9.694l-0.04-0.107l-0.04-0.054 l-0.013-0.04L1,9.466l0.04-0.161l0.08-0.389l0.094-0.402l0.08-0.389l0.081-0.389l0.08-0.402L1.55,6.943L1.55,6.943z"/></svg>