<?xml version="1.0"?><svg xmlns="http://www.w3.org/2000/svg"  viewBox="0 0 30 30" width="60px" height="60px">    <path d="M4.279,4.631l0.016-0.112h0.192l0.608,0.016h0.592h0.608l0.608,0.016h0.591h0.608h0.608L9.3,4.535h0.608 l0.016-0.016l0.016-0.016l0.016-0.048v-0.4L9.939,3.592V3.224V3l0.16,0.064l0.32-0.016l0.16,0.032l0.192,0.112l0.048,0.048 l0.032,0.064l0.016,0.16l0.032,0.096l0.016,0.08l-0.016,0.176l0.016,0.08l0.032,0.08l0.112,0.416l0.128,0.448v0.208v0.096v0.064 v0.08l0.032,0.064l0.032,0.048l0.272,0.208l0.208,0.08l0.096,0.016l0.464-0.064l0.064,0.016L12.37,5.67l0.032,0.016l0.016,0.016 l0.016,0.032l0.016,0.032l0.016,0.08v0.032l0.048,0.016l0.544,0.032l0.448,0.016l0.112,0.064l0.08,0.304l0.08,0.096l0.064,0.016 l0.384-0.064l0.048,0.016l0.08-0.048l0.208-0.032l0.096-0.064l0.016-0.064V6.118V6.07l0.096-0.032l0.08-0.048L15.2,5.926h0.352 l0.416,0.016l0.064,0.032l0.208,0.112l0.432,0.128l0.224,0.032l0.048,0.064l0.016,0.08l-0.064,0.016l-0.112,0.032L16.735,6.47 l-0.032,0.096l0.048,0.064l0.08,0.016h0.048l0.24-0.032h0.128l0.096,0.048l0.048,0.08l0.016,0.064l0.016,0.176l0.016,0.096 l0.032,0.064l0.096,0.128l0.096,0.192l0.032,0.048l0.064-0.016l0.064-0.016l0.064-0.048l0.032-0.048v-0.08l-0.032-0.08v-0.08 l0.048-0.096l0.064-0.032l0.288-0.048h0.224l0.08,0.048l0.048,0.08l0.016,0.112l0.048,0.096l0.048,0.064l0.048,0.032l0.048,0.032 l0.304,0.128l0.24,0.016l0.064,0.032l0.048,0.048l0.096,0.112l-0.064,0.112l0.08,0.064l0.192,0.016h0.064h0.032l0.016,0.032v0.048 v0.032l-0.016,0.032l0.048,0.016l0.24-0.032l0.064,0.016l0.048,0.032l0.048,0.016l0.176-0.096l0.24-0.032l0.112-0.08l0.08-0.112 l0.352-0.272l0.128-0.064l0.048-0.048l0.224-0.144l0.144-0.032l0.096,0.048v0.032l-0.032,0.064v0.032l0.032,0.048l0.016,0.016 l0.032,0.016l0.032,0.032l0.032,0.048l0.032,0.128l0.032,0.064l0.096,0.064l0.144-0.016l0.24-0.08l0.064-0.016l0.048,0.032 l0.032,0.032l0.048,0.016h0.032l0.08-0.048l0.032-0.016l0.016,0.016h0.016l0.032,0.016l0.799-0.16h0.16l0.128,0.048l0.048,0.032 l0.16,0.24l0.032,0.048l0.048,0.032l0.176,0.08h0.048l0.256-0.128l0.064-0.016h0.048h0.048l0.064,0.032l0.032,0.016l0.096-0.032 h0.064l0.176,0.032l0.272-0.016l-0.064,0.192l-0.08,0.176l-0.064,0.192l-0.064,0.192l-0.064,0.176l-0.08,0.192l-0.064,0.192 l-0.064,0.176l-0.064,0.192l-0.08,0.192l-0.064,0.176l-0.064,0.192l-0.064,0.192l-0.08,0.176l-0.064,0.192l-0.064,0.176 l-0.256,0.016h-0.24h-0.24h-0.256l-0.24,0.016h-0.24h-0.256h-0.24l-0.272,0.208l-0.272,0.224l-0.288,0.208l-0.272,0.208 l-0.272,0.208l-0.272,0.208l-0.288,0.208l-0.272,0.224l-0.16,0.096l-0.16,0.096l-0.144,0.096l-0.16,0.096l-0.16,0.096l-0.16,0.112 l-0.16,0.096l-0.144,0.096l-0.128,0.064l-0.176-0.064l-0.144-0.048l-0.096-0.032l-0.032,0.032l-0.048,0.032l-0.016,0.032 l-0.032,0.08v0.016h-0.016l-0.048,0.016l-0.016,0.016l-0.016,0.016l-0.016,0.016v0.016l-0.016,0.032v0.096l-0.016,0.016v0.016v0.016 l-0.016,0.016h-0.048l-0.048,0.016h-0.048l-0.048-0.016h-0.016v0.096l0.016,0.256v0.256l0.016,0.272l0.016,0.256v0.256l0.016,0.256 l0.016,0.256v0.272v0.048l0.016,0.144l-0.064,0.016l-0.032,0.016l-0.032,0.048l-0.032,0.064l-0.016,0.048l-0.032,0.032h-0.064 h-0.064h-0.048l-0.048,0.032l-0.064,0.112l-0.032,0.016l-0.128,0.016h-0.016l-0.032,0.016l-0.016,0.032v0.016l-0.032,0.064 l-0.016,0.016l-0.032,0.016l-0.064,0.016l-0.16,0.096l-0.048,0.016l-0.096,0.048l-0.064,0.096l-0.112,0.224l0.016,0.128l-0.08,0.128 l-0.24,0.24l-0.016,0.048l-0.016,0.08v0.304l0.048,0.144l0.128,0.032l0.144-0.016l0.112,0.048l0.032,0.048l0.048,0.16l0.032,0.064 l0.048,0.064l0.048,0.048l0.048,0.064l0.016,0.08v0.08l-0.08,0.144l-0.016,0.096l-0.016,0.064l-0.032,0.048l-0.048,0.048 l-0.048,0.048l-0.016,0.064l-0.016,0.08l0.016,0.176l-0.016,0.096l-0.016,0.048l0.016,0.016l0.064,0.128v0.096l-0.016,0.08 l-0.032,0.064l-0.064,0.016l-0.032,0.048l0.016,0.08l0.08,0.192l0.032,0.176l0.016,0.16v0.032l-0.048,0.08v0.032l0.016,0.144 l0.016,0.048l-0.016,0.112l-0.112,0.256l0.08,0.064l0.176,0.112l0.208,0.208l0.064,0.032l0.016,0.032l0.016,0.032l0.016,0.032 l0.128,0.08l0.464,0.048l0.096,0.048l0.096,0.064l0.096,0.112l0.08,0.176l0.032,0.048l0.032,0.032l0.032,0.016l0.352,0.048 l0.16,0.048l0.464,0.4l0.112,0.176l0.24,0.432l0.064,0.08l0.112,0.048l0.368,0.288l0.032,0.016l0.032,0.016l0.288-0.016l0.016,0.016 l0.176,0.128l0.032,0.016h0.016h0.112l0.032,0.016l0.016,0.016l0.016,0.032l0.016,0.016v0.032l0.032,0.064l0.064,0.08l0.032,0.048 l0.128,0.048l0.032,0.032l0.032,0.016l0.032,0.048l0.016,0.048l0.016,0.096v0.096v0.112v0.032l0.016,0.048l0.016,0.032l0.016,0.032 l0.032,0.032l0.032,0.032v0.048l0.016,0.08l0.016,0.064l-0.032,0.224v0.048l0.032,0.096v0.048v0.128v0.064l0.016,0.096l0.016,0.064 v0.048l-0.016,0.096l-0.959,0.048l-0.975,0.032l-0.959,0.048l-0.975,0.032l-0.959,0.032l-0.975,0.032l-0.959,0.032l-0.975,0.016 l-0.959,0.032l-0.959,0.016l-0.975,0.016h-0.959L9.204,27H8.244H7.269H6.31v-0.895v-0.911v-0.895l0.016-0.896v-0.895v-0.895 l0.016-0.895v-0.911v-0.144l-0.016-0.016L6.31,19.597l-0.08-0.16l-0.032-0.016l-0.064-0.064l-0.032-0.032l-0.08-0.064l-0.128-0.048 L5.67,19.197l-0.064-0.064l-0.064-0.112l-0.096-0.256L5.382,18.67l-0.144-0.16l-0.08-0.112l0.016-0.08l0.032-0.096l0.032-0.016 l0.016-0.016l0.112-0.08l0.064-0.08l0.032-0.032l0.224-0.112l0.064-0.064l0.032-0.032l0.032-0.032v-0.016l0.096-0.208l0.048-0.096 l0.032-0.08l0.016-0.24l0.016-0.032v-0.016l0.016-0.016l0.016-0.048l-0.048-0.304v-0.096l0.032-0.08l0.016-0.128v-0.048 l-0.016-0.144l-0.016-0.032l0.016-0.048v-0.032v-0.016l-0.064-0.112l-0.016-0.032v-0.048l-0.016-0.08l0.016-0.272l-0.016-0.08 l-0.048-0.08l-0.096-0.112l-0.16-0.256L5.622,14.96l-0.016-0.048V14.88v-0.032L5.59,14.816l-0.048-0.048l-0.016-0.032l0.016-0.08 V14.56l-0.016-0.144l-0.016-0.08l-0.08-0.128l-0.032-0.064v-0.08l0.032-0.144l0.016-0.096L5.43,13.729l-0.048-0.144v-0.064v-0.032 l0.032-0.064l0.016-0.032v-0.048v-0.144v-0.032l0.048-0.064l0.016-0.064v-0.016l0.016-0.016l-0.016-0.032l-0.016-0.016H5.446 l-0.032-0.032H5.382l-0.016-0.016h0.016v-0.032l-0.016-0.048l-0.032-0.064l-0.016-0.048v-0.048l0.016-0.272v-0.08l-0.032-0.16 v-0.048v-0.048l0.016-0.032v-0.032v-0.096L5.27,11.714v-0.096l0.016-0.512L5.27,11.059l-0.016-0.032l-0.032-0.032l-0.016-0.016 l0.016-0.08l0.048-0.208v-0.064l-0.032-0.064v-0.08v-0.08v-0.096v-0.016l0.016-0.016v-0.032v-0.016l-0.016-0.032l-0.032-0.032 l-0.032-0.112L5.158,9.907l-0.032-0.08L5.095,9.763l-0.048-0.08L5.015,9.54L4.999,9.492l-0.064-0.08L4.919,9.396V9.38H4.903 L4.887,9.364V9.348l0.016-0.032V9.3L4.839,9.092L4.823,8.996L4.871,8.9L4.775,8.788L4.727,8.644L4.695,8.5L4.583,8.197l-0.048-0.16 L4.519,7.893V7.717l0.048-0.272l-0.016-0.08L4.535,7.317L4.487,7.045l0.016-0.048l0.032-0.08l0.016-0.032V6.837L4.535,6.773 L4.519,6.646l-0.064-0.24L4.487,6.23l0.08-0.144l0.048-0.16L4.599,5.734L4.535,5.59L4.519,5.526l-0.016-0.16l-0.08-0.224 L4.407,4.999L4.391,4.967L4.375,4.935L4.359,4.887l-0.016-0.08L4.327,4.759L4.311,4.695L4.279,4.631L4.279,4.631z"/></svg>