<?xml version="1.0"?><svg xmlns="http://www.w3.org/2000/svg"  viewBox="0 0 30 30" width="60px" height="60px">    <path d="M24.272,24.945l-0.438-0.035l-0.438-0.018l-0.665-0.053l-0.665-0.053l-0.683-0.053l-0.665-0.053l-0.665-0.053 l-0.683-0.07l-0.665-0.053l-0.665-0.053l-0.665-0.07l-0.683-0.053l-0.665-0.07l-0.665-0.07l-0.665-0.053l-0.683-0.07L13.346,24 l-0.665-0.07l-0.665-0.07l-0.666-0.07l-0.683-0.088l-0.665-0.07l-0.665-0.07l-0.665-0.088l-0.665-0.07l-0.683-0.088l-0.665-0.088 l-0.665-0.07l-0.665-0.088l-0.665-0.088l-0.666-0.088l-0.665-0.088l-0.665-0.088L2,22.634l0.07-0.56l0.07-0.56l0.088-0.543 l0.07-0.56l0.07-0.56l0.088-0.543l0.07-0.56l0.07-0.56l0.088-0.543l0.07-0.56l0.088-0.56l0.07-0.543l0.07-0.56l0.088-0.56 l0.07-0.543l0.07-0.56l0.088-0.56l0.07-0.543l0.07-0.56l0.088-0.56l0.07-0.543l0.088-0.56l0.07-0.56l0.07-0.543l0.088-0.56 l0.07-0.56l0.07-0.543l0.088-0.56l0.07-0.56L4.275,6l0.088-0.56l0.07-0.56l0.525,0.088l0.525,0.07l0.525,0.07l0.525,0.07L7.059,5.23 L7.584,5.3l0.525,0.07l0.525,0.07L9.16,5.51l0.525,0.053l0.525,0.07l0.525,0.053l0.525,0.07l0.525,0.053l0.525,0.07l0.543,0.053 L13.379,6l0.525,0.053l0.525,0.053l0.525,0.053l0.525,0.053l0.525,0.053l0.525,0.053l0.525,0.053l0.525,0.053l0.525,0.053 l0.543,0.053l0.525,0.053L19.7,6.613l0.525,0.053l0.525,0.053l0.525,0.035l0.403,0.035l0.403,0.035l0.403,0.035l0.403,0.035 l0.403,0.035l0.385,0.018l0.403,0.035l0.403,0.035l0.403,0.018l0.403,0.035l0.403,0.035l0.403,0.018l0.403,0.035l0.385,0.018 l0.403,0.035l0.403,0.018L28,7.261l-0.018,0.28l-0.018,0.263l-0.016,0.28l-0.018,0.28l-0.018,0.28l-0.018,0.28l-0.018,0.28 l-0.018,0.28l-0.018,0.28l-0.018,0.28l-0.018,0.28l-0.018,0.28l-0.018,0.28l-0.018,0.28l-0.017,0.279l-0.018,0.28l-0.035,0.42 l-0.018,0.403l-0.018,0.42l-0.035,0.42l-0.018,0.42l-0.035,0.42l-0.018,0.42l-0.035,0.42l-0.018,0.42l-0.035,0.42l-0.018,0.42 l-0.018,0.42l-0.035,0.42l-0.018,0.42l-0.035,0.42l-0.018,0.403l-0.035,0.42l-0.018,0.42l-0.018,0.42l-0.035,0.42l-0.018,0.42 l-0.035,0.42l-0.018,0.42l-0.035,0.42l-0.018,0.42l-0.035,0.42l-0.017,0.422l-0.018,0.42l-0.035,0.42l-0.018,0.403l-0.035,0.42 l-0.018,0.42l-0.438-0.018l-0.438-0.035l-0.438-0.035l-0.438-0.018l-0.455-0.035L24.272,24.945L24.272,24.945L24.272,24.945z"/></svg>