<?xml version="1.0"?><svg xmlns="http://www.w3.org/2000/svg"  viewBox="0 0 30 30" width="60px" height="60px">    <path d="M 15.865234 1 L 14.566406 1.4335938 L 12.111328 2.0097656 L 9.8046875 2.7324219 L 7.3496094 3.453125 L 5.0410156 4.0292969 L 5.6171875 6.1953125 L 6.0507812 8.2167969 L 6.6289062 10.236328 L 7.2050781 12.257812 L 7.7832031 14.421875 L 8.3613281 16.443359 L 8.7949219 18.462891 L 9.3710938 20.484375 L 9.6601562 21.638672 L 9.9472656 23.082031 L 10.382812 25.392578 L 10.09375 25.537109 L 9.9492188 25.826172 L 9.9492188 26.402344 L 10.236328 28.277344 L 10.236328 29 L 12.546875 27.994141 L 16.587891 25.251953 L 17.742188 24.818359 L 18.175781 24.818359 L 18.753906 24.960938 L 19.041016 24.960938 L 19.330078 24.818359 L 19.330078 24.384766 L 19.330078 24.095703 L 19.330078 23.806641 L 20.052734 20.775391 L 19.90625 20.197266 L 19.474609 18.322266 L 19.185547 17.744141 L 18.607422 17.167969 L 18.607422 16.732422 L 18.896484 16.300781 L 19.041016 15.578125 L 18.896484 14.857422 L 18.607422 14.134766 L 18.175781 13.701172 L 17.597656 13.558594 L 17.597656 13.269531 L 17.886719 12.980469 L 18.175781 12.691406 L 18.464844 12.691406 L 18.753906 12.691406 L 18.896484 12.980469 L 19.185547 13.269531 L 19.185547 12.835938 L 19.474609 11.970703 L 19.474609 11.681641 L 19.185547 11.248047 L 18.896484 11.103516 L 18.607422 10.958984 L 18.318359 10.814453 L 18.175781 10.236328 L 17.886719 9.3710938 L 17.742188 8.6503906 L 17.742188 8.0703125 L 18.175781 8.5058594 L 18.464844 8.9375 L 18.753906 9.3710938 L 18.896484 9.9472656 L 19.328125 10.380859 L 19.90625 10.669922 L 20.484375 10.957031 L 20.773438 10.957031 L 20.773438 10.669922 L 20.626953 9.8027344 L 20.773438 9.6601562 L 20.917969 9.6601562 L 21.205078 9.8027344 L 21.349609 10.091797 L 21.205078 10.957031 L 21.205078 11.535156 L 21.205078 12.257812 L 21.205078 12.835938 L 21.492188 13.123047 L 21.925781 12.978516 L 22.361328 12.689453 L 22.9375 11.96875 L 22.9375 11.824219 L 22.794922 11.392578 L 22.794922 10.957031 L 21.638672 9.6601562 L 21.064453 9.3710938 L 20.775391 9.3710938 L 20.34375 9.3710938 L 19.908203 9.0800781 L 19.474609 8.7929688 L 19.185547 8.5058594 L 19.185547 8.359375 L 19.041016 8.0703125 L 18.898438 6.9179688 L 18.753906 6.484375 L 18.607422 6.3398438 L 18.607422 6.0507812 L 18.607422 5.7617188 L 18.607422 5.6171875 L 18.462891 5.1835938 L 18.318359 5.0390625 L 18.029297 5.0390625 L 17.597656 5.1835938 L 17.308594 5.1835938 L 17.166016 5.0390625 L 17.166016 4.8964844 L 16.443359 2.5859375 L 16.154297 1.5761719 L 15.865234 1 z M 23.660156 12.546875 L 23.515625 12.835938 L 22.939453 13.556641 L 22.650391 13.845703 L 22.650391 14.277344 L 22.796875 15.287109 L 22.796875 15.865234 L 22.650391 16.009766 L 22.21875 16.298828 L 22.21875 16.441406 L 22.363281 17.019531 L 22.507812 17.308594 L 22.363281 17.451172 L 22.21875 17.884766 L 22.21875 18.320312 L 22.507812 18.607422 L 22.939453 19.041016 L 22.650391 19.328125 L 21.927734 19.90625 L 21.785156 20.195312 L 22.072266 20.628906 L 22.363281 20.773438 L 22.505859 20.484375 L 22.794922 20.050781 L 23.371094 20.050781 L 23.660156 19.328125 L 24.09375 18.751953 L 24.958984 18.751953 L 24.814453 18.320312 L 24.671875 18.029297 L 24.671875 17.740234 L 24.525391 17.308594 L 23.949219 14.566406 L 23.949219 13.267578 L 23.660156 12.546875 z M 20.339844 16.589844 L 20.195312 17.886719 L 20.339844 18.607422 L 20.626953 18.753906 L 20.626953 19.042969 L 20.626953 19.185547 L 20.626953 19.330078 L 20.484375 19.474609 L 20.626953 19.763672 L 20.773438 20.628906 L 20.773438 20.917969 L 20.917969 20.773438 L 21.205078 20.484375 L 21.351562 20.195312 L 21.351562 19.90625 L 21.351562 19.474609 L 21.351562 18.751953 L 21.205078 17.886719 L 21.060547 17.166016 L 20.917969 16.876953 L 20.773438 16.732422 L 20.626953 16.589844 L 20.339844 16.589844 z"/></svg>