<?xml version="1.0"?><svg xmlns="http://www.w3.org/2000/svg"  viewBox="0 0 30 30" width="60px" height="60px">    <path d="M9.59,6.809v0.041L9.549,6.87L9.508,6.829L9.468,6.727l-0.02-0.02L9.406,6.584L9.365,6.461L9.324,6.42 V6.359l0.041-0.061l0.061,0.041l0.041,0.184l0.02,0.041l0.041,0.041l0.021,0.061l0.02,0.041l0.02,0.041V6.809L9.59,6.809z M9.243,7.177l0.02,0.02l-0.02,0.021l-0.041,0.02L9.181,7.299h-0.02H9.12H9.079l-0.02-0.041V7.095l0.02-0.061L9.12,6.972h0.061 l0.021,0.041l0.02,0.041v0.041L9.243,7.177L9.243,7.177z M8.465,4.682v-0.02l0.184,0.061l-0.041,0.02L8.445,4.763L8.465,4.682z M7.586,6.665l0.021-0.123l0.082-0.041H7.79l0.082,0.082v0.061l0.041,0.082l0.061,0.082L8.056,6.89l0.041,0.123l0.082,0.082 L8.158,7.115L8.097,7.156L8.056,7.177l-0.02-0.021h-0.02L7.995,7.218l0.021,0.143l0.02,0.041l0.02,0.021l0.062,0.041L8.097,7.504 L8.056,7.463H8.015H7.975l-0.041-0.02l-0.041-0.02l-0.02-0.041L7.852,7.34l-0.02-0.041l-0.02-0.041H7.79l-0.082-0.02l-0.021-0.02 L7.647,7.197L7.606,7.156L7.586,7.115l-0.02-0.062L7.545,7.013l0.021-0.164V6.686L7.586,6.665L7.586,6.665z M8.322,7.708 l0.041-0.082L8.322,7.586L8.261,7.545L8.199,7.504L8.22,7.402L8.261,7.32l0.062-0.062l0.061-0.02V7.177V7.136l0.02-0.041l0.021-0.02 l0.102-0.061h0.041l0.021,0.143L8.568,7.258L8.506,7.422v0.082v0.061l0.041,0.021l0.082-0.041l0.02,0.082l-0.02,0.082L8.588,7.77 L8.527,7.811L8.322,7.708z M8.158,6.604V6.563V6.522l0.041-0.041L8.302,6.42L8.343,6.4h0.041l0.225-0.143l0.041-0.021l0.061,0.021 l0.123,0.061l0.327,0.327L9.12,6.686l-0.02,0.021L8.915,6.768l-0.02,0.02v0.041l-0.021,0.02H8.813l-0.02-0.02L8.772,6.768 L8.731,6.604V6.461V6.4V6.359L8.69,6.318H8.67L8.629,6.359V6.42v0.041l-0.021,0.02l-0.02,0.041L8.67,6.849L8.608,6.87L8.568,6.89 L8.465,6.87L8.425,6.829L8.404,6.768V6.706V6.645L8.363,6.584L8.322,6.543L8.302,6.563l-0.02,0.082L8.24,6.706L8.199,6.747 l-0.02-0.061L8.158,6.604L8.158,6.604z M9.488,10.49v0.082v0.061l-0.02,0.021h-0.02l-0.102,0.102l-0.021,0.02l-0.02,0.021 l-0.021,0.02h-0.02v-0.041v-0.02v-0.021H9.181H9.12v-0.02l0.021-0.123V10.47v-0.102l-0.041-0.041l-0.041-0.02l-0.082,0.061 l-0.061,0.021l-0.041-0.021l-0.02-0.041l-0.02-0.041l-0.021-0.062l-0.041-0.102l-0.02-0.123l0.02-0.082l-0.02-0.102V9.733 l0.123-0.266l0.021-0.123L8.854,9.283H8.772L8.67,9.304L8.629,9.14L8.608,9.099l-0.02-0.02L8.547,9.038L8.506,8.997V8.956 l-0.02-0.143l0.061-0.082L8.977,8.24l0.082-0.102l0.082,0.02h0.061l0.041-0.041h0.041l0.021,0.061V8.22V8.24v0.02L9.283,8.363 l0.164,0.225L9.386,8.731L9.345,8.772H9.283L9.243,8.731L9.202,8.649L9.161,8.588L9.099,8.608L9.038,8.69L8.977,8.752l-0.02-0.102 l-0.02,0.02L8.895,8.752L8.874,8.813L8.813,8.854L8.608,8.833l0.021,0.082l0.061,0.02h0.102l0.041,0.021l0.061,0.061l0.041,0.02 l0.061,0.061l0.041,0.102v0.123L9.018,9.57L8.936,9.836l-0.041,0.266l0.02,0.061l0.061-0.02l0.082-0.102l-0.02-0.123l0.02-0.123 L9.12,9.754l0.061,0.082l0.021,0.082l0.041,0.082l0.225,0.266l0.02,0.102V10.49L9.488,10.49z M8.384,9.508h0.041h0.041l0.021,0.041 l0.02,0.123v0.143l-0.02,0.123L8.425,10.02l-0.062-0.02L8.322,9.897L8.302,9.795V9.713l0.021-0.102l0.02-0.041l0.02,0.02 l0.021,0.041L8.363,9.733v0.041h0.062l0.02-0.062L8.425,9.59L8.384,9.508L8.384,9.508z M8.486,12.229l-0.021,0.041l0.021,0.041 l0.02,0.021l-0.041,0.02l-0.041,0.041l-0.082-0.041l-0.041-0.123l-0.041-0.041H8.22l-0.021-0.041l0.041-0.061l0.02-0.061v-0.041 v-0.061l0.021-0.082v-0.02l0.082-0.082l0.041-0.041v-0.041l0.021-0.041l0.041-0.021l0.021,0.021l0.041,0.041l0.02,0.041l0.02,0.041 l-0.041,0.184v0.082l0.02,0.041l-0.041,0.02l-0.02,0.021H8.465l0.021,0.061l-0.021,0.041l0.021,0.02V12.229L8.486,12.229z M1.777,16.237v0.061l0.041,0.082v0.041l-0.041,0.123l-0.021,0.041l-0.02,0.061l-0.061-0.205l-0.021-0.061l0.021-0.021l0.02-0.041 l0.02-0.062l-0.02-0.041l0.041-0.041l0.041-0.021v0.062V16.237z M8.425,13.169l0.02,0.102l0.061,0.061l0.041,0.061l0.061,0.062 h-0.02l-0.164,0.02l-0.143,0.082l-0.102,0.041v-0.082l0.041-0.061l0.02-0.041h0.061l0.041-0.021l0.02-0.061v-0.041H8.302 l0.021,0.041L8.24,13.354H8.199l-0.02,0.041l-0.041,0.082l-0.02,0.061l-0.021,0.021l-0.041,0.02h-0.02l-0.02-0.041l-0.021-0.041 v-0.061l0.041-0.041l0.02-0.041l0.021-0.021l0.143-0.388l0.041-0.041l0.062-0.061l0.082-0.062h0.061l-0.041,0.062v0.041l0.041,0.041 v0.041v0.061l-0.02,0.102L8.425,13.169L8.425,13.169z M6.706,13.538l-0.02,0.061L6.665,13.66l0.021,0.082l0.02,0.061l-0.02,0.062 l-0.021,0.082l-0.061,0.061l-0.061,0.041l-0.021-0.041l0.021-0.041v-0.062v-0.041l-0.021-0.062l-0.041-0.061l-0.021-0.061 l0.021-0.041l0.041-0.082l0.041-0.062l0.041-0.041l0.041,0.02l0.041-0.02l0.061-0.021h0.041l0.041-0.02l-0.041,0.061l-0.062,0.02 L6.706,13.538L6.706,13.538z M7.218,14.172l0.02,0.02v0.061l-0.02,0.041l-0.041,0.082l-0.041,0.041l-0.061,0.021l-0.02-0.021 l-0.021-0.02l-0.02-0.02l-0.041-0.082v-0.061h0.021l0.041-0.021l0.041-0.041l0.021-0.041h0.061L7.218,14.172L7.218,14.172z M26.116,25.093l0.02,0.245l-0.491-0.102l-0.45-0.102l-0.471-0.102l-0.45-0.102l-0.471-0.102l-0.45-0.123l-0.471-0.102l-0.45-0.102 l-0.471-0.102l-0.45-0.102l-0.471-0.123l-0.45-0.102l-0.471-0.102l-0.45-0.123l-0.471-0.102l-0.45-0.123l-0.164-0.041h-0.041 l-0.184,0.143l-0.205,0.041l-0.879-0.205l-0.327-0.02l-0.184-0.021l-0.245-0.061l-0.102-0.02l-0.061,0.02l-0.143,0.102l-0.164,0.082 l-1.023-0.082l-0.573,0.082h-0.184l-0.061,0.02l-0.143,0.082l-0.102,0.041l-0.123,0.02l-0.062-0.02l-0.082-0.041l-0.061-0.021 h-0.041l-0.164,0.062h-0.082h-0.041l-0.184-0.082h-0.041l-0.082,0.02h-0.041l-0.511-0.245h-0.041l-0.123,0.02l-0.02,0.041 l-0.021,0.02l-0.184,0.021h-0.286h-0.02l-0.184,0.082h-0.02l-0.061-0.02l-0.164,0.02L11.186,23.6l-0.041-0.041l-0.041-0.02 l-0.123-0.021h-0.021l-0.041-0.02l-0.061-0.041h-0.02l-0.348,0.061h-0.082l-0.061-0.082l-0.02-0.102v-0.102l-0.021-0.082 l-0.041-0.082l-0.164-0.102l-1.023-0.409l-0.552-0.041l-0.245-0.123l-0.123-0.02l-0.164,0.061l-0.307,0.123l-0.164,0.061 L6.829,22.68H6.543L6.461,22.7H6.4l-0.266-0.184l-0.307-0.082l-0.082-0.102L5.582,22.23l-0.102-0.082l-0.041-0.021H5.275 l-0.266-0.143l-0.061-0.061l-0.082-0.102l-0.041-0.082v-0.102l0.021-0.123l0.02-0.184l0.02-0.062l0.041-0.102l0.021-0.041v-0.062 l-0.041-0.164l0.041-0.102l0.041-0.102l0.041-0.102l-0.02-0.184l0.041-0.245v-0.082l-0.021-0.082l-0.061-0.062l-0.02-0.061 l0.02-0.205l-0.02-0.123l-0.021-0.123l-0.061-0.102l-0.061-0.102l-0.082-0.102L4.62,19.039l-0.102-0.041l-0.041-0.041l-0.102-0.143 l-0.02-0.041l-0.082-0.041l-0.225-0.021l-0.082-0.02l-0.184,0.02H3.7l-0.102-0.041L3.536,18.61l-0.205-0.307l-0.041-0.082 l0.021-0.102l-0.021-0.102l-0.061-0.082l-0.102-0.041l-0.45-0.041L2.473,17.73v-0.041v-0.041v-0.041l-0.041-0.082l-0.041,0.021 L2.35,17.587H2.227l-0.061,0.021h-0.02l-0.102-0.061l-0.061-0.021L1.9,17.567l-0.082,0.041l-0.082,0.02l-0.082-0.02l-0.082-0.061 l-0.102-0.245L1.409,17.24l-0.041-0.041l-0.062-0.021l-0.082,0.041L1.205,17.26v0.02v0.041l0.021,0.021H1.184h-0.02v-0.021 l-0.021-0.02l-0.082,0.02l-0.041-0.02L1,17.26l0.041-0.02l0.041-0.062l0.082-0.082l0.041-0.082l0.021-0.061v-0.061l0.082-0.143 l0.062-0.225l0.205-0.839l0.082-0.184l0.102-0.021l-0.082,0.082v0.082l0.02,0.102v0.123l-0.164,0.368l-0.021,0.143l-0.041,0.266 l0.02,0.143l0.02,0.082l0.102,0.021l0.082-0.061l0.082-0.102l0.041-0.102h0.021l0.02,0.061l0.123,0.143l0.041,0.082l0.041-0.102 l-0.041-0.061l-0.061-0.061L1.92,16.626v-0.021v-0.061v-0.02H1.9l-0.02-0.021l-0.021-0.041v-0.02v-0.061v-0.061l0.021-0.041h0.102 l0.02-0.021l0.041-0.02l0.02-0.061v-0.061v-0.041v-0.021l-0.02-0.143l-0.041-0.143l-0.02-0.102l0.061,0.02l0.061,0.102l0.061,0.041 l-0.041-0.143l0.021-0.164l0.082-0.102l0.143-0.02l0.123,0.02l0.041,0.02v0.102l0.021,0.062l0.041,0.041l0.082-0.02l0.061-0.041 l-0.102-0.041L2.575,15.44l-0.041-0.123l-0.082-0.123l-0.041-0.041H2.37l-0.041,0.02l-0.041,0.041H2.227l-0.164-0.102v0.041 l0.041,0.061H2.043l-0.021-0.02l-0.02-0.041l-0.041-0.021l-0.02-0.02l-0.061-0.02l-0.123-0.041L1.716,15.01l-0.02-0.082l0.061-0.348 l0.021-0.225v-0.205l0.041-0.041L1.9,14.049l0.02,0.123L1.88,14.233l0.041,0.123v0.082h0.041l0.061,0.041l0.021,0.041l0.041,0.021 l0.041-0.041v-0.041v-0.061l-0.02-0.061l-0.061,0.02v-0.061l0.041-0.061l0.061-0.021l0.082,0.021l0.062-0.021l0.123-0.041 l0.286-0.041h0.286l-0.061-0.082L2.82,14.008l-0.225-0.041l0.02-0.021h0.02v-0.041l-0.184-0.02L2.37,13.844l-0.02-0.082l0.02-0.102 l-0.02-0.102l-0.041-0.082l-0.061-0.061l-0.082-0.021l-0.082-0.02l-0.102,0.02L1.92,13.456v0.041l0.021,0.082L1.92,13.66v0.041 v0.041v0.041v0.02H1.88l-0.143,0.102l-0.041,0.021v-0.041v-0.061l0.02-0.041l0.021-0.02l0.041-0.062L1.9,13.354l0.02-0.123 l0.021-0.225l0.082-0.409l0.021-0.225v-0.225l-0.021-0.184l-0.02-0.041l-0.041-0.021l-0.02-0.02V11.82l0.02-0.062l0.021-0.02 l-0.021-0.041L1.88,11.656l-0.021-0.041l0.143-0.777l0.02-0.205l0.102-0.429v-0.082L2.084,9.795l0.02-0.184L2.084,9.57L2.043,9.549 L2.002,9.508V9.447V9.263l-0.02-0.102L1.839,8.854L1.818,8.813L1.777,8.792L1.695,8.752l-0.02-0.041L1.634,8.465L1.614,8.261V8.077 l0.021-0.205l0.041-0.184l0.041-0.184l-0.02-0.286l0.02-0.041h0.062l0.061-0.082L1.9,6.931v-0.02V6.87V6.849l0.02-0.02l0.041-0.041 l0.021-0.02l0.061-0.184l0.02-0.041l0.061-0.061L2.166,6.44l-0.02-0.02L2.084,6.318L2.023,6.195V6.113l0.021-0.061l0.184,0.061 L2.37,6.215l0.47,0.45l0.102,0.143l0.225,0.143l0.02,0.041L3.25,7.095l0.062,0.041l0.143,0.02l0.082,0.041l0.225,0.205l0.062,0.082 l0.061,0.184l0.061,0.041l0.429,0.266l0.491,0.205L5.111,8.22l0.123,0.061l0.061,0.123l0.041,0.041l0.102-0.021l0.225,0.041 l0.143,0.102l0.062,0.02l0.245,0.041H6.072L6.032,8.649H6.011l-0.02,0.02l0.061,0.061l0.552,0.184l0.143-0.021l0.286-0.143 l0.143-0.041l-0.02,0.061l-0.061,0.02L7.054,8.813H6.993v0.041l0.123,0.061l0.102,0.082L7.279,9.12L7.32,9.283L7.259,9.386 L7.3,9.488l0.061,0.041l0.041,0.02l0.02-0.225l0.041-0.041h0.143l0.061,0.02l0.041,0.021v0.061v0.082l0.02,0.02l0.041,0.02 l0.041,0.021l0.02,0.082l0.02,0.123l-0.02,0.102l-0.082,0.02v0.041h0.062l0.061-0.041l0.102-0.123L7.954,9.652L7.852,9.447 l0.021-0.061l0.02-0.061l0.061-0.061l0.041-0.021h0.123l0.123-0.02l0.082,0.041l0.02,0.123l-0.041,0.02L8.22,9.427l-0.041,0.02 L8.158,9.529V9.59l0.021,0.041l0.02,0.041v0.061l0.061,0.307l0.021,0.041l0.061,0.061v0.041v0.041l-0.02,0.102v0.041l0.123,0.286 v0.061l-0.041,0.02l-0.102-0.02h-0.02L8.24,10.756l-0.061,0.082l-0.041,0.041l-0.205,0.143l-0.082,0.102l-0.123,0.164L7.688,11.37 l-0.041,0.082l-0.02,0.041l-0.041,0.041H7.545H7.504l-0.062-0.041l0.021-0.061l0.061-0.082l0.164-0.307l0.041-0.143l0.041-0.184 l-0.061,0.061l-0.041,0.082l-0.041,0.102l-0.061,0.02l0.02-0.102v-0.082l-0.02-0.041l-0.061,0.061l-0.021,0.082v0.102l0.021,0.164 l-0.102,0.041L7.32,11.308l-0.061,0.102l-0.082,0.061l-0.061,0.102l-0.02,0.02H7.034l-0.041,0.041l-0.368,0.266l-0.061,0.061 l-0.205,0.245l-0.082,0.061L6.195,12.31l-0.082,0.061l-0.102,0.184l-0.143,0.164l-0.041,0.082l0.082,0.102l0.205,0.041l0.655-0.082 l0.143-0.041l0.143-0.082l-0.102-0.041l-0.143,0.02l-0.286,0.102l-0.307,0.041l-0.123-0.041l-0.041-0.143l0.021-0.061l0.061-0.061 l0.123-0.102l0.061-0.061l0.225-0.286l0.368-0.307h0.061l0.245-0.082l0.286-0.041l0.102-0.021l0.041-0.02l0.041-0.061l0.123-0.205 l0.061-0.082l0.47-0.388l0.041-0.021h0.041l0.061,0.021v0.041l-0.021,0.041v0.041l0.062,0.041l0.041-0.061l0.021-0.123v-0.266 v-0.041l-0.021-0.123v-0.061l0.164,0.184l0.061,0.102v0.143v0.061l-0.041,0.184l0.02,0.061l0.021,0.041v0.061l-0.082,0.061 l0.041,0.021l0.02,0.02l0.021,0.041l0.02,0.061l-0.02,0.041l-0.021,0.041l-0.041,0.041l-0.021,0.021H8.67l-0.143-0.102H8.465 l-0.02,0.061l-0.041,0.082l-0.082,0.061H8.261l-0.123-0.245H8.097l-0.02,0.061l0.02,0.041l0.021,0.02l0.02,0.062l0.021,0.02 l-0.021,0.532l-0.041,0.021l0.021,0.041l-0.102,0.02l-0.061-0.123l-0.041-0.327L7.872,11.84l-0.041,0.041l-0.02,0.041v0.082v0.061 l0.02,0.041l0.082,0.102h0.041v0.021L7.893,12.29l-0.041,0.041L7.77,12.372l-0.041,0.062l0.205-0.041l0.102-0.041l0.082-0.041 l0.143-0.041v0.102L8.24,12.495v0.082l0.082,0.062l-0.041,0.082L8.22,12.801l-0.062,0.102l-0.061,0.123l-0.082,0.102l-0.041,0.102 l0.02,0.123l-0.041,0.061l-0.041,0.041l-0.061,0.02H7.79l0.041,0.205l-0.02,0.082l-0.062,0.102l-0.061-0.021L7.463,13.64 l-0.082-0.082l0.021-0.041l0.061-0.041l0.061-0.061l0.041-0.061l0.082-0.062l0.062-0.082l0.02-0.123l-0.061,0.082L7.606,13.21 l-0.143,0.02l-0.021,0.021l-0.041,0.041l-0.041,0.021H7.34L7.3,13.333l-0.021,0.041l-0.02,0.041l-0.02,0.041l-0.082,0.061 l-0.02,0.082v0.062l0.041,0.184l-0.02,0.021l-0.02,0.02l-0.041,0.02v-0.02l-0.021,0.02l-0.02,0.021l-0.02,0.02l0.02,0.041 l-0.02,0.041v0.02L6.911,14.11L6.85,13.926l0.02-0.245l0.041-0.123h0.061l0.062-0.082l0.041-0.082l0.041-0.143V13.21v-0.082 l-0.02-0.041l-0.021-0.02v-0.041l0.041-0.082l-0.061,0.061l-0.143,0.225L6.85,13.333l-0.102,0.041l-0.061,0.041H6.645H6.584 l-0.041,0.02l-0.205,0.348l-0.082,0.102l-0.123,0.041H5.95l-0.102,0.02l-0.061,0.082l0.061-0.021l0.082-0.02l0.061,0.02v0.082 L5.95,14.11H5.868l-0.082,0.021l-0.061,0.061l0.082-0.02l0.368-0.123h0.02l0.021-0.02l0.102-0.102l0.041,0.02l-0.041,0.061 l-0.225,0.266l-0.061,0.041L5.95,14.335l0.082,0.02l0.082-0.02l0.102-0.061l0.061-0.102v0.041v0.062l-0.021,0.061l-0.041,0.041 l0.02,0.061v0.123l0.02,0.041l0.041,0.02l0.021-0.041v-0.082l-0.021-0.061l0.061-0.041l0.021-0.061v-0.082l0.02-0.061l0.041-0.041 l0.164-0.082l0.021,0.061l-0.021,0.041l-0.02,0.041l-0.041,0.021l0.041,0.02l0.061-0.02l0.041-0.021l0.02-0.082l0.041-0.021 l0.041,0.062l0.02,0.041l0.02,0.062v0.061l0.082,0.061l0.041,0.061v0.061v0.062l0.143-0.041l0.164-0.082l0.388-0.327l0.123-0.143 l0.102-0.164l0.041-0.184l0.061,0.061l0.082,0.102l0.102,0.143l0.062,0.041h0.041l0.082-0.041l-0.041-0.061l-0.02-0.041v-0.061 l0.041-0.041l0.061-0.041l0.061-0.02h0.082l0.123-0.02l0.061-0.041l0.041-0.061l0.02-0.102l-0.02-0.062L8.69,13.231v-0.061 l0.061-0.225v-0.062l-0.02-0.082V12.74v-0.245v-0.041l0.041-0.02l0.062-0.062h0.041l0.021,0.062l0.02,0.082l0.021,0.061l0.041-0.102 l0.041-0.082v-0.061l-0.041-0.082l-0.143-0.102l-0.021-0.041l-0.02-0.041v-0.061l0.02-0.02h0.041l0.02-0.021l0.021-0.061l0.041-0.02 l0.082-0.082l0.021-0.041l0.02-0.102v-0.082l-0.02-0.061v-0.082l0.041-0.102l0.041-0.061l0.041-0.061l0.041-0.062l0.123-0.041 l0.082-0.082l0.041-0.102l0.02-0.082l0.061-0.061l0.021-0.041l0.02-0.041l0.021-0.021l0.082-0.041l0.041-0.02h0.041h0.123 l0.041-0.02l0.082-0.021l0.021-0.061l0.041-0.082h0.02l0.021-0.02l0.02-0.02v-0.021l-0.02-0.02l-0.021-0.021l-0.041-0.02 l-0.082,0.041l-0.164-0.266L9.713,9.938L9.672,9.754l0.041-0.205l0.061-0.143l-0.02-0.123L9.631,9.181v-0.02L9.611,9.12L9.59,9.099 L9.549,9.12L9.529,9.161l-0.02,0.102L9.427,9.304L9.386,9.365v0.102v0.082l0.021,0.061l0.041,0.062l0.041,0.082l0.041,0.021 L9.57,9.836l0.041,0.082l0.02,0.184l-0.061-0.02l-0.02-0.041L9.508,9.917L9.488,9.877L9.263,9.59L9.202,9.468L9.181,9.345 l0.021-0.143l0.041-0.102l0.061-0.102l0.102-0.041h0.123l0.061,0.02l0.062,0.02l0.02,0.041l0.02,0.061L9.713,9.14l0.041-0.02V9.079 l0.02-0.061l0.082-0.082v-0.02V8.854V8.813V8.772L9.754,8.629L9.672,8.547L9.631,8.445L9.59,8.404L9.549,8.363l-0.061-0.02 L9.447,8.302L9.427,8.158L9.386,8.097l0.02-0.041l0.061-0.041l-0.02-0.02L9.406,7.954l-0.041-0.02l-0.02,0.02L9.263,8.036 l-0.041,0.02H9.181H9.12l-0.061-0.02l-0.02-0.062V7.893l0.02-0.041l0.041-0.02L9.14,7.79V7.688L9.099,7.647L9.058,7.606l-0.02-0.02 l0.02-0.061h0.041l0.061,0.02h0.061l0.102-0.041l0.041,0.102l0.021,0.143l0.041,0.102l0.021-0.143h0.061l0.041,0.041l0.061,0.143 l0.02,0.041l0.041,0.02h0.061l0.041-0.041V7.872v-0.02V7.79l0.041-0.123V7.565l-0.02-0.082L9.774,7.402L9.672,7.279l-0.02-0.061 h0.061l0.082,0.061l0.082,0.143l0.061,0.041l0.082-0.02l0.041-0.082l0.02-0.123V7.136L10.04,7.095l-0.02-0.02L9.999,7.054 l-0.02-0.061V6.952l0.02-0.143V6.788L9.938,6.727l0.041-0.082l0.123-0.143l-0.02-0.082L10.04,6.338L9.959,6.256L9.897,6.236H9.836 L9.754,6.297L9.59,6.461H9.549L9.529,6.44l-0.02-0.061l0.02-0.061l0.021-0.02l0.061-0.041l0.02-0.021l-0.02-0.061L9.57,6.072 L9.529,6.011L9.468,6.072L9.529,5.95V5.868l-0.02-0.061L9.406,5.622L9.386,5.582V5.5l0.041-0.041l0.041-0.041l0.041-0.02l0.02-0.02 l-0.02-0.102L9.345,5.234V5.132l0.061-0.041l0.082,0.02l0.143,0.062V5.091l-0.02-0.102l0.327,0.102l0.736,0.205L11.431,5.5 l0.736,0.225l0.736,0.205l0.736,0.205l0.757,0.205l0.736,0.184l0.736,0.205l0.757,0.205l0.736,0.184l0.736,0.205l0.757,0.184 l0.736,0.205l0.757,0.184l0.736,0.184l0.757,0.184l0.736,0.184l0.757,0.184l0.757,0.184l0.736,0.184l0.757,0.164l0.736,0.184 l0.757,0.184l0.757,0.164l0.757,0.164L29,9.958l-0.184,0.798l-0.184,0.818l-0.184,0.818l-0.164,0.798L28.1,14.008l-0.184,0.798 l-0.164,0.818l-0.184,0.798l-0.184,0.818L27.2,18.058l-0.164,0.798l-0.184,0.818l-0.184,0.798l-0.184,0.818l-0.164,0.798 l-0.184,0.818l-0.041,0.143l-0.082,0.143l-0.041,0.102l0.02,0.082l0.123,0.245l0.061,0.245l0.02,0.102v0.266l0.041,0.164 l-0.02,0.102l-0.061,0.102l-0.062,0.061l-0.123,0.082v0.062L26.116,25.093L26.116,25.093z"/></svg>