<?xml version="1.0"?><svg xmlns="http://www.w3.org/2000/svg"  viewBox="0 0 30 30" width="60px" height="60px">    <path d="M12.178,13.931l-0.218,0.218l-0.204,0.218l-0.029,0.218l-0.044,0.218l-0.102-0.029l-0.117-0.029l-0.146-0.044 l-0.16-0.058l-0.044-0.029l-0.015-0.015l-0.015-0.029l-0.029-0.029l-0.073-0.058l-0.044-0.044l-0.015-0.044v-0.015v-0.131v-0.044 l0.044-0.146l0.044-0.16l0.029-0.029l0.029-0.058l0.015-0.015v-0.029l-0.015-0.015l-0.015-0.029l-0.029-0.029l-0.015-0.029h-0.015 h-0.015H10.97l-0.189,0.116L10.766,13.8h-0.029h-0.015l-0.073-0.015h-0.015L10.621,13.8l-0.029,0.015h-0.015h-0.029L10.504,13.8 l-0.015-0.029l-0.015-0.015v-0.029l0.029-0.087v-0.015v-0.029l-0.015-0.058v-0.029v-0.015l0.015-0.015l0.087-0.073v-0.015 l0.015-0.015l0.015-0.044l0.015-0.029v-0.029v-0.015v-0.015l-0.029-0.116l-0.029-0.073v-0.044L10.592,13h0.015l0.015-0.015 l0.015-0.015v-0.014l0.015-0.029l-0.015-0.058V12.84l-0.015-0.015l-0.044-0.073l-0.029-0.044v-0.015v-0.029l0.029-0.029l0.015-0.015 v-0.015v-0.015v-0.015l-0.029-0.015l-0.03-0.029l-0.044-0.044l-0.029-0.029l-0.058-0.029l-0.015-0.015l-0.044-0.044l-0.015-0.015 l-0.015-0.015H10.3l-0.015-0.015h-0.116h-0.044l-0.015-0.015l-0.014-0.014h-0.015l-0.044-0.044l-0.015-0.015h-0.015l-0.058,0.029 H9.922H9.893H9.849l-0.044-0.015l-0.044-0.015l-0.015-0.015l-0.029-0.044L9.704,12.17v-0.029l0.015-0.029v-0.014l0.058-0.073v-0.029 l0.015-0.015v-0.044l-0.015-0.015l-0.087-0.146l-0.015-0.029l-0.029-0.015l-0.044-0.015H9.587l-0.073-0.058H9.5H9.471l-0.029,0.015 H9.413H9.398l-0.044-0.015l-0.058-0.029H9.282H9.252H9.165H9.121l-0.015-0.015l-0.073-0.044l-0.029-0.015H8.99l-0.058,0.029H8.918 l-0.029-0.015l-0.102-0.029L8.772,11.53H8.757l-0.015,0.015H8.714H8.685l-0.044-0.029L8.612,11.5l-0.029-0.015H8.568H8.554 L8.524,11.5l-0.029,0.015H8.481H8.467H8.437H8.423L8.408,11.53L8.35,11.574H8.335H8.306L8.205,11.53l-0.058-0.015l-0.044-0.015 l-0.029-0.015H8.059L8.03,11.501l-0.044,0.015L7.957,11.53l-0.029-0.015l-0.015-0.015H7.899H7.87l-0.029,0.015H7.812H7.783 l-0.058-0.044l-0.16-0.073l-0.16-0.073l-0.16-0.073l-0.16-0.087l-0.058-0.015l-0.102-0.029H6.895l-0.073-0.015l-0.131-0.029 l-0.146-0.029l-0.189-0.044l-0.218-0.029L5.92,10.918l-0.233-0.044l-0.233-0.044l-0.218-0.044l-0.204-0.044L4.843,10.7l-0.16-0.029 l-0.116-0.029l-0.087-0.015H4.449l-0.073-0.029l-0.015-0.015v-0.015l-0.029-0.073l-0.044-0.102l-0.087-0.16l-0.044-0.102 l-0.029-0.058l-0.044-0.044l-0.029-0.029L4.027,9.987L3.998,9.972H3.969H3.94L3.926,9.943L3.896,9.929L3.867,9.914H3.824 L3.809,9.899L3.78,9.841H3.751H3.736L3.693,9.87H3.678L3.649,9.885L3.62,9.87H3.605L3.591,9.856V9.812L3.562,9.739l0.029-0.058 l0.058-0.16l0.058-0.16l0.073-0.16l0.058-0.175l0.058-0.16l0.058-0.16l0.073-0.16l0.058-0.175l0.058-0.16l0.058-0.16l0.073-0.16 l0.058-0.175l0.058-0.16l0.058-0.16l0.058-0.16L4.58,7.061l0.058-0.16l0.058-0.175l0.073-0.16l0.058-0.175l0.058-0.175l0.058-0.16 l0.073-0.175l0.058-0.175l0.058-0.16l0.058-0.175l0.073-0.175l0.058-0.16L5.38,4.863l0.058-0.175l0.073-0.16l0.058-0.175h0.087 l0.189,0.044h0.058l0.058-0.029l0.233-0.16l0.364-0.233l0.466-0.32l0.291-0.204L7.65,3.233L7.81,3.16L8.232,3h0.073l0.073,0.015 l0.495,0.233l0.495,0.233l0.495,0.233l0.495,0.233l0.495,0.233l0.509,0.233l0.495,0.233l0.495,0.218l0.291,0.131l0.276,0.131 l0.277,0.131l0.291,0.131l0.276,0.131l0.277,0.131L14.33,5.78l0.277,0.131l0.335,0.146l0.349,0.16l0.335,0.16l0.335,0.16l0.335,0.16 l0.349,0.146l0.335,0.16l0.349,0.16l0.044,0.015l0.044,0.029l0.044,0.015l0.044,0.029l0.044,0.015l0.044,0.029l0.044,0.015 l0.044,0.029l0.044,0.044l0.044,0.073l0.073,0.218l0.073,0.204l0.117,0.32l0.044,0.087l0.233,0.218l0.306,0.306l0.058,0.044 L18.74,8.88l0.073-0.015l0.058-0.029L18.9,8.808l0.029-0.044l0.029-0.058l0.058-0.087l0.087-0.044l0.087-0.015l0.131,0.058 l0.16-0.116l0.102-0.087l0.131,0.015l0.102,0.044l-0.087,0.349l0.044,0.117l0.058,0.087l0.087,0.102L19.904,9.2l-0.015,0.058 l0.029,0.058l0.029,0.073l0.029,0.087v0.058l0.015,0.044l0.029,0.073l0.102,0.102l0.102,0.073l0.029,0.116l0.015,0.015l0.044,0.044 l0.058,0.102l0.044,0.029h0.044l0.044-0.029l0.116-0.175l0.044-0.029l0.044-0.015h0.058l0.131,0.015l0.262-0.073l0.131-0.015 l0.146,0.087l0.16,0.131l0.044,0.044l0.058,0.044l0.044,0.044v0.058l-0.087,0.233l-0.087,0.247l-0.087,0.218l0.247,0.102l0.32,0.146 l0.553,0.262l0.509,0.233l0.728,0.32l0.495,0.218l0.116,0.116l0.073,0.146l0.233,0.757l0.233,0.757l0.233,0.757l0.247,0.757 l0.233,0.757l0.247,0.757l0.233,0.757l0.247,0.757l0.015,0.044v0.087v0.102l-0.058,0.233l-0.044,0.247l-0.058,0.247l-0.058,0.233 l-0.044,0.247l-0.058,0.233l-0.058,0.247l-0.044,0.247V20.8l0.029,0.131l-0.029,0.131l-0.044,0.116l-0.015,0.146v0.073l-0.029,0.102 v0.073l0.044,0.058l0.015,0.029v0.044v0.073v0.16l-0.029,0.276l-0.029,0.102l-0.044,0.116l-0.073,0.073l-0.073,0.058l-0.102,0.029 l-0.116,0.16l-0.233,0.408l-0.073,0.087l-0.291,0.204l-0.247,0.117l-0.087,0.116l-0.073,0.131l-0.029,0.131v0.146l0.029,0.32 l-0.029,0.262l0.044,0.16l0.087,0.218l-0.8,0.859l-0.233,0.044l-0.233,0.044l-0.218,0.029l-0.233,0.044l-0.233,0.044l-0.218,0.029 l-0.233,0.044l-0.233,0.029l-0.218,0.044l-0.233,0.044l-0.233,0.029l-0.218,0.044l-0.233,0.029l-0.233,0.044l-0.233,0.029 l-0.218,0.044l-0.029-0.218l-0.218,0.029l-0.204,0.015l-0.218,0.029l-0.218,0.029l-0.218,0.015l-0.204,0.029l-0.218,0.029 l-0.218,0.015l-0.204,0.029l-0.218,0.029l-0.218,0.015l-0.204,0.029l-0.218,0.015l-0.218,0.029l-0.218,0.015l-0.204,0.029 l-0.218,0.015l-0.218,0.029l-0.204,0.015l-0.218,0.029l-0.218,0.015l-0.218,0.029l-0.204,0.015l-0.218,0.029l-0.218,0.015 l-0.204,0.029l-0.218,0.015l-0.218,0.015l-0.218,0.029l-0.204,0.015L13.5,27h-0.058l0.029-0.247L13.5,26.36l0.058-0.568l0.029-0.291 l0.015-0.218l0.058-0.655l0.029-0.393l-0.099-0.494l-0.044-0.262l-0.073-0.364l-0.087-0.408l-0.058-0.306L13.24,21.95l-0.087-0.422 l-0.058-0.349l-0.029-0.306l-0.015-0.306l-0.015-0.306l-0.029-0.306l0.044-0.408l0.029-0.422l0.044-0.408l0.029-0.408l0.058-0.291 l0.087-0.422l0.073-0.335l0.073-0.379l0.073-0.378l0.073-0.349l0.087-0.422l0.058-0.291l0.087-0.189l0.102-0.204l0.102-0.189 l0.102-0.189l0.073-0.087l0.174-0.204l0.175-0.204l0.073-0.102l0.146-0.16l-0.087-0.044l-0.087-0.044l-0.087-0.044l-0.087-0.044 l-0.087-0.044l-0.087-0.044l-0.087-0.044l-0.087-0.044l-0.102-0.044L13.88,13.48l-0.087-0.044l-0.087-0.044l-0.087-0.044 l-0.087-0.044l-0.087-0.044l-0.087-0.044l-0.408,0.029l-0.247,0.029l-0.247,0.015l-0.058,0.16l-0.073,0.16l-0.073,0.16 L12.178,13.931L12.178,13.931L12.178,13.931z"/></svg>