<?xml version="1.0"?><svg xmlns="http://www.w3.org/2000/svg"  viewBox="0 0 30 30" width="60px" height="60px">    <path d="M17.315,27l-0.376-0.521l-0.376-0.521L16.176,25.4l-0.352-0.521l-0.315-0.461l-0.315-0.461l-0.315-0.473 l-0.303-0.461l-0.315-0.473l-0.303-0.461l-0.315-0.473l-0.303-0.461l-0.351-0.521l-0.352-0.509l-0.339-0.521l-0.352-0.509 l-0.339-0.521l-0.351-0.521l-0.339-0.509l-0.339-0.521l-0.436-0.63l-0.436-0.618l-0.424-0.63l-0.436-0.63l-0.424-0.63l-0.424-0.63 L7.57,12.636l-0.424-0.63l0.012-0.049l0.049-0.17l0.133-0.545l0.145-0.545l0.133-0.558l0.145-0.545l0.145-0.545l0.133-0.558 l0.145-0.545l0.145-0.558l0.133-0.545l0.145-0.545l0.145-0.558l0.133-0.545l0.145-0.545l0.145-0.558l0.133-0.545L9.461,3 l0.424,0.097l0.412,0.109l0.412,0.109l0.424,0.097l0.412,0.109l0.412,0.097l0.424,0.109l0.412,0.097l0.424,0.097L13.63,4.03 l0.424,0.097l0.412,0.097l0.424,0.097l0.412,0.097l0.424,0.085L16.139,4.6l0.424,0.097l0.412,0.097L17.4,4.879l0.412,0.097 l0.424,0.085l0.412,0.085l0.424,0.097l0.412,0.085l0.424,0.085l0.424,0.085l0.412,0.085l0.424,0.085l0.424,0.085l0.412,0.085 l0.424,0.073l0.424,0.085l-0.097,0.473l-0.085,0.473l-0.097,0.485l-0.085,0.473L22.394,8.37l-0.085,0.473l-0.097,0.485L22.127,9.8 l-0.097,0.473l-0.085,0.473l-0.097,0.473l-0.085,0.485l-0.097,0.473l-0.085,0.473l-0.097,0.473L21.4,13.594l-0.097,0.485 l-0.085,0.473l-0.097,0.473l-0.085,0.473l-0.097,0.485l-0.085,0.473l-0.097,0.473L20.673,17.4l-0.097,0.473l-0.085,0.485 l-0.097,0.473l-0.085,0.473l-0.097,0.473l-0.085,0.473l-0.097,0.485l-0.085,0.473l-0.012,0.024l-0.012,0.073l-0.024,0.109 l-0.024,0.145l-0.036,0.17L19.8,21.921l-0.036,0.194l-0.036,0.218l-0.048,0.206l-0.036,0.206l-0.036,0.194l-0.036,0.17l-0.024,0.145 l-0.024,0.109l-0.012,0.073v0.024l-0.024,0.121l-0.012,0.036l-0.012,0.024L19.4,23.703l-0.061,0.049l-0.048,0.097l-0.049,0.109 l-0.061,0.121l-0.097,0.036l-0.121-0.012l-0.073-0.012l-0.048-0.036l-0.036-0.049l-0.024-0.048l-0.012-0.036l-0.036-0.133 l-0.012-0.036l-0.012-0.036l-0.024-0.024l-0.024-0.024l-0.012-0.012h-0.024l-0.012-0.012H18.6l-0.024,0.012h-0.012l-0.073,0.024 h-0.012h-0.012h-0.024l-0.012-0.012l-0.036-0.012L18.37,23.63l-0.012-0.024h-0.012l-0.012-0.012l-0.121-0.061l-0.024-0.012h-0.024 l-0.036,0.012l-0.145,0.012l-0.097,0.036L17.8,23.594l-0.012,0.012l-0.012,0.012l-0.024,0.024l-0.012,0.012v0.024l-0.012,0.024 v0.073l-0.012,0.036l-0.024,0.036l-0.049,0.036L17.63,23.97l0.012,0.085l0.024,0.073l0.073,0.145l0.012,0.036l-0.012,0.036 l-0.012,0.024l-0.061,0.073l-0.024,0.036l-0.036,0.17v0.085v0.073l0.036,0.23l0.012,0.061l-0.036,0.061l-0.012,0.133l-0.085,0.133 l0.024,0.133l0.012,0.158l0.049,0.17l0.012,0.073l-0.024,0.085v0.085v0.145l-0.012,0.121l-0.012,0.073l-0.049,0.109l-0.012,0.012 L17.473,26.6h-0.036L17.4,26.588L17.376,26.6l-0.012,0.036v0.024l0.036,0.073v0.036l-0.012,0.036l-0.073,0.061v0.097L17.315,27 L17.315,27z"/></svg>