<?xml version="1.0"?><svg xmlns="http://www.w3.org/2000/svg"  viewBox="0 0 30 30" width="60px" height="60px">    <path d="M2.132,8.262l0.084-1.027L2.3,6.229L2.53,6.25l0.775,0.063l0.796,0.063l0.775,0.063l0.796,0.063 l0.775,0.042l0.796,0.063l0.796,0.063l0.775,0.042l0.796,0.042l0.775,0.063l0.796,0.042L11.961,6.9l0.796,0.042l0.797,0.042 l0.775,0.042l0.797,0.042l0.775,0.042l0.797,0.021l0.796,0.042l0.775,0.021l0.796,0.042l0.775,0.021l0.796,0.021l0.796,0.021 l0.775,0.021l0.796,0.021l0.796,0.021l0.775,0.021h0.796l0.775,0.021h0.545l-0.021,0.147l0.042,0.084l0.021,0.084l0.021,0.063 l0.021,0.105l0.021,0.063L26.82,7.99l0.021,0.042l0.021,0.188l0.105,0.293l0.021,0.21l0.021,0.084l0.084,0.189l0.021,0.252 l-0.063,0.21l-0.105,0.188l-0.042,0.231l0.084,0.314l0.021,0.168l0.021,0.084v0.063l-0.021,0.042l-0.042,0.105l-0.021,0.063 l0.063,0.356l0.021,0.063l0.021,0.105l-0.063,0.356v0.23l0.021,0.189l0.063,0.21l0.147,0.398l0.042,0.189l0.063,0.188l0.126,0.147 l-0.063,0.126l0.021,0.126l0.084,0.272v0.021l-0.021,0.042v0.021l0.021,0.021h0.021v0.021l0.021,0.021l0.084,0.105l0.021,0.063 l0.042,0.189l0.063,0.105l0.042,0.084l0.042,0.105l0.021,0.189l0.042,0.147l0.042,0.042l0.021,0.042v0.021v0.042l-0.021,0.021v0.021 v0.126v0.105v0.105l0.042,0.084v0.084l-0.063,0.272l-0.021,0.105l0.021,0.021l0.042,0.042l0.021,0.042l0.021,0.063l-0.021,0.671 v0.126l0.063,0.251v0.126v0.042l-0.021,0.042v0.063v0.063l0.042,0.21v0.105l-0.021,0.356v0.063l0.021,0.063l0.042,0.084l0.021,0.063 v0.042h-0.021l0.021,0.021h0.042l0.042,0.042h0.042l0.021,0.021l0.021,0.042l-0.021,0.021v0.021l-0.021,0.084l-0.063,0.084v0.042 v0.188v0.063l-0.021,0.042L28.12,19.16v0.042v0.084l0.063,0.189l0.021,0.126l-0.021,0.126l-0.042,0.188v0.105l0.042,0.084 l0.105,0.168l0.021,0.105l0.021,0.189v0.126l-0.021,0.105l0.021,0.042l0.063,0.063l0.021,0.042v0.042v0.042l0.021,0.063l0.021,0.063 l0.21,0.335l0.126,0.147l0.063,0.105l0.021,0.105l-0.021,0.356l0.021,0.105v0.063l0.021,0.042l0.084,0.147v0.021v0.042l-0.021,0.063 l0.021,0.042L29,22.912v0.063l-0.021,0.168l-0.042,0.105v0.126L29,23.771h-0.88h-0.859l-0.88-0.021H25.5l-0.88-0.021l-0.88-0.021 l-0.859-0.021L22,23.666l-0.88-0.021l-0.88-0.021l-0.859-0.021l-0.88-0.042l-0.88-0.021l-0.88-0.042l-0.88-0.042L15,23.415 l-0.88-0.021l-0.88-0.042l-0.88-0.063L11.5,23.247l-0.88-0.042l-0.88-0.063L8.88,23.1L8,23.037l-0.88-0.063l-0.88-0.042L5.38,22.87 L4.5,22.807l-0.88-0.084L2.761,22.66l-0.88-0.063L1,22.513l0.084-1.006l0.084-1.027l0.084-1.006l0.084-1.027l0.084-1.027 l0.063-1.006l0.084-1.027l0.084-1.006l0.084-1.027l0.084-1.027l0.084-1.006l0.084-1.027l0.063-1.006L2.132,8.262L2.132,8.262z"/></svg>