<?xml version="1.0"?><svg xmlns="http://www.w3.org/2000/svg"  viewBox="0 0 30 30" width="60px" height="60px">    <path d="M17.282,7.769l0.02,0.162l0.122,0.122l0.081,0.061l0.02,0.081l-0.02,0.101l-0.122,0.162l-0.041,0.061 l0.061,0.041l0.061,0.041l0.182-0.02l0.081,0.02v0.081l-0.041,0.101l-0.041,0.061l-0.02,0.101l0.081,0.182l-0.061,0.02h-0.325 l-0.142,0.041l-0.243,0.142L16.41,9.757l-0.162,0.061l-0.081-0.041l-0.162-0.142l-0.081-0.02H15.68l-0.466,0.101l-0.061,0.061v0.081 l0.041,0.122l0.041,0.061l0.081,0.304l0.101,0.203v0.101l-0.061,0.081l-0.182,0.182l-0.061,0.061l-0.041,0.101l-0.061,0.061 l-0.183,0.02l-0.081,0.041l-0.101,0.162l-0.04,0.466l-0.061,0.183l-0.142,0.122l-0.061,0.061l-0.162,0.061h-0.041l-0.02-0.041 l-0.02-0.02h-0.061l-0.061-0.02l-0.041,0.02l-0.04,0.061l-0.061,0.223l-0.04,0.041l-0.061,0.061l-0.04,0.081l-0.041,0.122v0.101 l0.02,0.507l-0.02,0.142l-0.02,0.041l-0.04,0.041l-0.041,0.04l-0.041,0.041l-0.183,0.061l-0.101,0.041l-0.02,0.101l-0.041,0.041 l-0.101-0.061l-0.162-0.162h-0.101h-0.203l-0.081-0.041l-0.061-0.041l-0.182-0.081l-0.061-0.04l-0.04-0.081l-0.02-0.081l-0.02-0.203 l-0.041-0.061l-0.223-0.142l-0.081-0.04h-0.081l-0.04,0.04l0.061,0.101l0.081,0.041l0.081,0.02l0.041,0.02l-0.061,0.101 l-0.162,0.081l-0.101,0.02h-0.04l-0.02-0.061l-0.02-0.02l-0.061-0.02l-0.041,0.02l-0.02,0.041l0.02,0.061l0.081,0.061l0.02,0.061 v0.122l-0.061,0.061l-0.081,0.041l-0.101,0.02l-0.041,0.04v0.122l0.041,0.324v0.081l-0.061,0.061l-0.203,0.061l-0.02,0.081 l0.02,0.101l-0.041,0.122l-0.081,0.061h-0.081l-0.061-0.04l0.02-0.101l0.02-0.101l-0.081-0.02l-0.162,0.061l-0.142-0.02 l-0.142-0.081l-0.101-0.122l-0.041-0.142l-0.081-0.081l-0.142,0.061l-0.142,0.142l-0.081,0.101l-0.061,0.02l-0.223,0.061 L9.31,14.544L9.27,14.584l-0.041,0.061l-0.04,0.081l-0.081,0.345l-0.061,0.122l-0.122,0.101l-0.04-0.02l-0.041-0.04l-0.061-0.061 l-0.041-0.061v-0.061L8.702,15.01l-0.041-0.02H8.58H8.519l-0.04-0.02l-0.142-0.081l-0.284-0.081l-0.081-0.061l-0.081-0.041 l-0.101-0.061l-0.101-0.041l-0.081-0.02l-0.162,0.061l-0.162,0.122L7.12,14.807l-0.162-0.122v-0.041l-0.02-0.101l-0.02-0.041h-0.02 h-0.04l-0.02,0.041l-0.02,0.061l0.02,0.122l0.101,0.142l0.02,0.101l-0.02,0.142l-0.101,0.142l-0.122,0.041l-0.081-0.041l-0.02-0.081 l0.02-0.182l-0.02-0.061l-0.041-0.041l-0.081,0.02L6.43,14.949L6.41,14.99H6.369l-0.162,0.061l-0.081,0.02H6.045l-0.081-0.04 L5.882,14.99l-0.061-0.081l-0.081-0.061H5.659l-0.081,0.041l-0.02,0.122l0.02,0.061l0.162,0.284l-0.182,0.243l-0.02,0.041 l-0.061-0.02l-0.162-0.081l-0.081-0.02l-0.081,0.02l-0.02,0.061l0.02,0.101l-0.041,0.122l-0.061,0.081l-0.203,0.223l-0.041,0.061 l-0.041,0.122l-0.02,0.122l0.041,0.101l0.061,0.142l0.041,0.02l0.122,0.122l0.101,0.223l-0.02,0.142L4.97,17.282l-0.73,0.183 l-0.223,0.162l-0.081,0.02l-0.183,0.02l-0.081,0.02L3.61,17.728L3.55,17.789L3.509,17.87l-0.061,0.223v0.203l0.061,0.183 l0.101,0.162l0.142,0.162l0.081,0.162l0.02,0.162l-0.081,0.223l-0.101,0.122l-0.162,0.041l-0.162-0.041L3.043,19.31l-1.176-0.466 l-0.203-0.02l-0.183,0.04l-0.162,0.081l-0.142,0.122l-0.04,0.061l-0.122,0.284l-0.122,0.162l-0.081,0.162l0.02,0.142L0.913,20 l0.162,0.162l0.02,0.081v0.223v0.162v0.061l-0.02,0.041l-0.02,0.041l-0.041,0.061l-0.02,0.061l0.02,0.101l0.081,0.183l0.02,0.101 l-0.02,0.142l-0.142,0.385L0.872,22.11l-0.081,0.142L0.69,22.312l-0.142-0.041l-0.101-0.081l-0.122-0.122l-0.101-0.081l-0.041,0.041 l-0.02,0.02l-0.04,0.101l-0.041,0.183v0.081L0.02,22.657L0,22.718l0.73-0.041l0.71-0.061l0.71-0.041l0.71-0.061l0.73-0.041 l0.71-0.061l0.71-0.061l0.71-0.061V22.17v-0.182L5.7,21.907l-0.081-0.264L5.537,21.4l-0.02-0.041v-0.04h0.02h0.223h0.385h0.223 l0.041,0.02l0.02,0.02l0.041,0.061l0.02,0.04l0.02,0.02l0.02-0.02l0.162-0.02h0.061l0.162-0.02L7.16,21.4l0.304-0.02l0.385-0.041 l0.406-0.041l0.446-0.061l0.466-0.041l0.466-0.041l0.446-0.061l0.406-0.041l0.365-0.04l0.324-0.041l0.243-0.02l0.162-0.02h0.041 l0.183-0.02l0.142-0.041l0.04-0.02h0.183l0.122-0.02l0.365-0.02l0.548-0.041l0.71-0.041l0.832-0.061l0.933-0.061l1.014-0.081 l1.035-0.081l1.034-0.081l0.994-0.081l0.953-0.081l0.832-0.081l0.71-0.061l0.548-0.041l0.345-0.041l0.142-0.02l0.183-0.02 l0.142-0.04l0.122-0.081l0.142-0.183l0.081-0.04h0.02l0.345-0.183l0.406-0.101l0.04-0.02l0.02-0.02l0.041-0.061l0.162-0.101 l0.406-0.203l0.406-0.122l0.041-0.02l0.02-0.02v-0.02v-0.04l-0.02-0.041v-0.02V18.6l0.04-0.061l0.041-0.041l0.041-0.183l0.081-0.101 l0.02-0.02h0.02l0.183-0.041l0.243-0.122l0.223-0.142l0.061-0.041l0.02-0.02v-0.02v-0.02l0.02-0.041v-0.02v-0.081l-0.02-0.061v-0.02 l-0.02-0.081l0.02-0.041l0.041-0.061l0.081-0.081l0.345-0.223l0.041-0.041v-0.02l0.02-0.02v-0.041v-0.02v-0.041l-0.02-0.122 l-0.02-0.061v-0.041l0.02-0.061l0.061-0.081l0.183-0.162l0.406-0.284l0.304-0.203L28.54,15.7l0.101-0.081l0.304-0.345l0.345-0.406 l0.203-0.243l0.304-0.345L30,14.057l-0.081-0.041h-0.041l-0.122,0.061h-0.041l-0.345-0.061l-0.061-0.02l-0.02-0.02v-0.041 l-0.02-0.02v-0.04l-0.02-0.02v-0.02l-0.041-0.02l-0.142-0.101h-0.04h-0.02l-0.02,0.02l-0.101-0.101l-0.041-0.041l-0.041-0.02h-0.02 l-0.162-0.04l-0.041-0.02l-0.02-0.02l-0.04-0.081l-0.081-0.162v-0.02l-0.02-0.041l-0.02-0.041l-0.061-0.061l-0.304-0.223l-0.02-0.02 v-0.041l-0.02-0.041l-0.04-0.162l-0.02-0.041l-0.02-0.02l-0.041-0.061l-0.02-0.02l-0.02-0.02l-0.182-0.101l-0.02-0.02l-0.02-0.02 v-0.02l0.041-0.081l0.02-0.02v-0.02l-0.02-0.04l-0.02-0.02l-0.02-0.041l-0.02-0.02l-0.243-0.162l-0.041-0.02l-0.02-0.061 l-0.04-0.061l-0.02-0.041l-0.365-0.385l-0.02-0.041l-0.02-0.041v-0.02v-0.02h0.02v-0.02l0.061-0.061l0.041-0.041v-0.02v-0.02v-0.041 l-0.02-0.081v-0.02l0.02-0.02v-0.02l0.02-0.02h0.041l0.02-0.02v-0.02v-0.02V10.71v-0.02l-0.02-0.061v-0.122v-0.061v-0.041 l-0.041-0.061l-0.081-0.162l-0.02-0.02v-0.02v-0.02l-0.02-0.142V9.919v-0.02l-0.061-0.061l-0.081-0.142l-0.061-0.081l-0.325-0.243 L26.146,9.29l-0.203-0.041l-0.182-0.081l-0.142-0.182l-0.142-0.325l-0.02-0.101l-0.02-0.101l-0.02-0.061l-0.061-0.041l-0.101,0.041 L25.03,8.56l-0.101,0.02l-0.081,0.041l-0.041,0.061l-0.061,0.081l-0.041,0.061l-0.101,0.061l-0.041,0.041v0.04l-0.041,0.101 l-0.02,0.061l-0.061,0.061l-0.081,0.02l-0.203-0.02l-0.081,0.02l-0.061,0.041L23.976,9.31l-0.142,0.041h-0.02L23.753,9.29 l-0.122-0.142l-0.041-0.02L23.55,9.087l-0.122-0.041h-0.061l-0.142,0.02l-0.041-0.02l-0.081-0.041l-0.081-0.061l-0.081-0.02H22.84 l-0.264,0.142l-0.041,0.041v0.101L22.495,9.29l-0.061,0.081l-0.081,0.02H22.17L22.008,9.29l-0.304-0.243l-0.081-0.061l-0.061-0.101 l-0.081-0.061l-0.162-0.02l-0.183-0.061h-0.101L20.69,8.864h-0.081l-0.466-0.122l-0.101-0.061L20,8.6l-0.02-0.122l-0.04-0.101 l-0.041-0.081l-0.041-0.081l-0.041-0.061l-0.061-0.04l-0.061-0.041l-0.02-0.081l-0.02-0.081l-0.041-0.101l-0.061-0.081l-0.061-0.041 L19.31,7.607l-0.101-0.02h-0.081l-0.041-0.041l-0.061-0.101l-0.061-0.081l-0.101-0.041l-0.162,0.061l-0.324,0.203h-0.162 l-0.243-0.182l-0.061-0.041h-0.02L17.83,7.282h-0.041h-0.041l-0.04,0.041l-0.041,0.081l-0.223,0.162l-0.061,0.061L17.282,7.769"/></svg>