<?xml version="1.0"?><svg xmlns="http://www.w3.org/2000/svg"  viewBox="0 0 30 30" width="60px" height="60px">    <path d="M10.752,2.399l0.2-0.228l0.085-0.028v0.028l0.114,0.57l0.085,0.57l0.085,0.599l0.114,0.57l0.085,0.57 l0.085,0.57l0.114,0.599l0.085,0.57l0.085,0.485l0.085,0.513L12.063,8.3l0.057,0.485l0.741-0.114l0.713-0.114l0.713-0.114L15,8.3 l0.713-0.114l0.741-0.114l0.713-0.143l0.713-0.114l0.57,3.678l0.028,0.029h0.029l0.028-0.057l0.085-0.057l0.513-0.656l0.028-0.029 l0.228-0.085l0.057-0.028v-0.029l0.057-0.171l0.028-0.057l0.057-0.085l0.114-0.143l0.228-0.2l0.028-0.028l0.029-0.029l0.057-0.085 l0.086-0.114V9.64l0.028-0.028V9.583l0.028-0.028l0.029-0.2V9.327l0.028-0.029l0.028-0.028l0.171-0.143l0.057-0.028h0.057 l0.086,0.028l0.114,0.028l0.114,0.086L20.93,9.27h0.057h0.029l0.057-0.057l0.028-0.028l0.028-0.029l0.029-0.085l0.285-0.399 L21.5,8.557l0.028-0.114V8.414l0.028-0.028l0.029-0.029l0.028-0.028L21.728,8.3l0.028-0.028V8.243l-0.028-0.057l-0.029-0.029V8.129 V8.1l0.029-0.057l0.057-0.143l0.029-0.057V7.787V7.759l0.028-0.029h0.029l0.057,0.029l0.029,0.028l0.057,0.028l0.057,0.029 l0.029,0.028v0.029H22.07l-0.057,0.057v0.029v0.028v0.029v0.028l0.057,0.057h0.029l0.228,0.085l0.085,0.028l0.029,0.029L22.469,8.3 h0.143h0.485V8.272l0.171-0.085l0.399-0.029l0.143-0.171l0.028-0.057l-0.028-0.028l-0.114-0.029V7.759l0.085-0.029l0.086-0.028 l0.085-0.029l-0.2-0.199l0.057-0.057h0.028h0.114l0.057-0.029l0.114-0.085l0.114-0.057h0.228h0.114l0.028-0.057l0.085-0.143 l0.057-0.057l0.114-0.228l0.028-0.057l0.057-0.029l0.057-0.028l0.285-0.028l0.285,0.114l0.513,0.342l0.114,0.057l0.143,0.028 l0.114-0.028l0.057-0.057l0.057-0.028h0.171l0.028-0.029l0.029-0.057l0.057-0.028h0.085l0.057,0.028l0.085,0.086V7.16l-0.085,0.114 l-0.114,0.057l0.028,0.057l0.143,0.257h0.029V7.587l0.028-0.085l0.028-0.057h0.057L27.23,7.53v0.057l-0.029,0.029v0.057l0.085,0.057 h0.086l0.085-0.057l0.114-0.028v0.057L27.516,7.73l-0.029,0.085v0.057l0.057,0.085L27.43,8.072l0.086,0.057l0.285,0.057L27.886,8.3 l-0.029,0.143v0.143l0.029,0.143L28,8.842V8.87l-0.028,0.085L27.915,9.27l-0.057,0.256l-0.057,0.342l-0.057,0.228l-0.029,0.086 l-0.028,0.114l-0.028-0.057l-0.085-0.028l-0.342-0.2L26.86,9.84l-0.371-0.2l-0.342-0.2l-0.371-0.2l-0.371-0.2l-0.342-0.199 l-0.371-0.2l-0.085-0.029l-0.085,0.029l-0.057,0.143V8.87v0.057v0.085l0.085,0.2v0.085l0.029,0.085L24.55,9.412v0.085L24.493,9.64 L24.38,9.925l-0.029,0.028v0.029v0.057v0.029l0.029,0.028v0.029l0.028,0.085v0.028v0.029v0.143l-0.028,0.028v0.057l0.028,0.028 v0.029l0.057,0.114v0.029v0.028v0.028l-0.028,0.057l-0.114,0.257l-0.2,0.228l-0.171,0.285l-0.057,0.171v0.029v0.028v0.029v0.028 v0.029v0.057l-0.114,0.228l-0.028,0.028l-0.057,0.028l-0.085,0.057l-0.057,0.029l-0.028,0.028l-0.029,0.028l-0.028,0.057 l-0.028,0.143l-0.029,0.085l-0.028,0.029l-0.029,0.028l-0.114,0.085l-0.057,0.029h-0.028h-0.029l-0.028-0.029h-0.029v-0.028 l-0.028-0.028h-0.028h-0.029l-0.028,0.028l-0.085,0.2l-0.143,0.285l-0.143,0.342l-0.114,0.256l-0.028,0.057l-0.029,0.028h-0.028 l-0.228-0.114l-0.257-0.114l-0.2-0.085h-0.028l-0.028,0.028l-0.171,0.342l-0.028,0.085l-0.028,0.057v0.057v0.028v0.057l-0.086,0.171 l-0.028,0.057v0.029l0.028,0.428V15l-0.028,0.029l-0.028,0.057l-0.086,0.057l-0.057,0.057l-0.029,0.057l-0.057,0.114v0.057v0.029 l-0.028,0.256v0.029v0.028v0.029l-0.028,0.256l-0.029,0.085l-0.028,0.057l-0.085,0.171l-0.085,0.199l-0.143,0.314l-0.029,0.028 l-0.028,0.029h-0.057l-0.371-0.057l-0.285-0.029l-0.285-0.057l-0.285-0.029v-0.028V16.71v-0.057v-0.029v-0.028l-0.029-0.029 l-0.285-0.342l-0.028-0.029v-0.028h-0.028l-0.485-0.085h-0.057l-0.028,0.028v0.057l-0.029,0.143v0.057v0.057l0.029,0.057v0.029 v0.057l-0.029,0.057l-0.085,0.171v0.114l0.057,0.285v0.057l-0.028,0.057l-0.057,0.114l-0.029,0.086l-0.028,0.228v0.028l-0.057,0.057 l-0.114,0.057v0.028l-0.029,0.029v0.085l-0.028,0.057l-0.029,0.085l-0.028,0.057v0.085v0.028l0.057,0.057v0.028v0.057v0.029v0.057 l-0.085,0.114l-0.114,0.114l-0.057,0.057l-0.085,0.171l-0.228,0.285v0.057v0.028v0.057l0.028,0.057v0.057l-0.057,0.428l-0.085,0.285 l-0.143,0.399l-0.143,0.228l-0.228,0.399l-0.2,0.342l-0.171,0.256l-0.2,0.314v0.028l-0.028,0.171v0.057l-0.114,0.314l-0.143,0.428 v0.085v0.028l0.028,0.029l0.086,0.057l0.057,0.028l0.171,0.057l0.028,0.028l0.029,0.029l0.028,0.057v0.057l-0.028,0.029 l-0.029,0.057l-0.114,0.086l-0.086,0.085l-0.028,0.028l-0.057,0.029l-0.028,0.085l-0.029,0.028v0.057v0.028v0.057h0.029l0.028,0.029 l0.085,0.028l0.029,0.028v0.086l-0.029,0.057v0.029l-0.627,0.513l-0.143,0.171l-0.029,0.029L15.2,25.235h-0.029h-0.057l-0.029-0.028 l-0.028-0.029l-0.029-0.028v-0.057v-0.057L15,25.007v-0.028h-0.028l-0.057-0.029l-0.028,0.029l-0.143,0.028l-0.114,0.057 l-0.228,0.143l-0.257,0.2l-0.228,0.199l-0.228,0.171l-0.029,0.028l-0.057,0.029l-0.029-0.029h-0.028v-0.028l-0.029-0.029h-0.028 l-0.028-0.028h-0.114h-0.028v-0.028v-0.057l-0.029-0.029h-0.028l-0.171-0.028l-0.057,0.028h-0.057l-0.057,0.057l-0.057,0.029 l-0.028,0.028v0.028v0.057l-0.028,0.029v0.057l0.028,0.028v0.028l0.114,0.143l0.028,0.057v0.029l-0.028,0.085l-0.029,0.057 l-0.028,0.028l-0.342,0.285L12.52,26.66h-0.057l-0.085-0.057h-0.029h-0.057l-0.143,0.114l-0.057,0.029l-0.57,0.171l-0.428,0.313 l-0.057,0.029l-0.029-0.029l-0.028-0.028l-0.028-0.028l-0.029-0.029l-0.028-0.028l-0.028-0.029l-0.342-0.143l-0.029-0.028 l-0.028-0.028l-0.143-0.143l-0.028-0.029h-0.029H10.21h-0.085l-0.028,0.029l-0.028,0.057v0.029l-0.029,0.114l-0.028,0.057 L9.982,27.06l-0.057,0.085l-0.029,0.057l-0.028,0.028l-0.228,0.057l-0.086,0.029l-0.057,0.057l-0.029,0.029l-0.228,0.371 l-0.057,0.028l-0.028,0.029l-0.143,0.028H8.671H8.586l-0.143-0.085l-0.228-0.057l-0.029-0.028L8.129,27.63l-0.085-0.085 l-0.028-0.029l-0.028-0.028l-0.029-0.028H7.901H7.873H7.73H7.645H7.588H7.559L7.474,27.43l-0.057-0.028v-0.029l-0.029-0.028 l-0.085-0.143l-0.028-0.028l-0.057-0.057l-0.314-0.143l-0.029-0.029l-0.028-0.028v-0.028L6.818,26.86v-0.057v-0.171v-0.029v-0.057 L6.79,26.518v-0.028l-0.028-0.029l-0.029-0.028l-0.028-0.028l-0.228-0.086V26.29l-0.029-0.028v-0.029v-0.028l0.029-0.029 l0.114-0.143v-0.028v-0.028v-0.029v-0.028v-0.057l-0.028-0.028l-0.028-0.029l-0.057-0.028L6.362,25.72H6.305l-0.171,0.085H6.077 L5.592,25.72l-0.085-0.028l-0.028-0.029v-0.057L5.45,25.577V25.52l-0.028-0.028v-0.029l-0.057-0.028l-0.2-0.143H5.108H5.079 L5.051,25.32l-0.143-0.143l-0.057-0.057l-0.057-0.028H4.765l-0.228-0.057L4.48,25.007l-0.029-0.029l-0.057-0.114l-0.114-0.228 v-0.029l-0.028-0.057l-0.029-0.057l-0.086-0.086l-0.428-0.313l-0.028-0.028v-0.057l-0.029-0.057l-0.057-0.228l-0.029-0.057 L3.54,23.639l-0.057-0.086l-0.028-0.028l-0.029-0.028l-0.256-0.143L3.14,23.325l-0.028-0.028v-0.029l0.057-0.114l0.028-0.029v-0.028 L3.169,23.04L3.14,23.011l-0.028-0.057l-0.029-0.028l-0.342-0.228l-0.057-0.028l-0.029-0.085l-0.057-0.085L2.57,22.441l-0.513-0.542 l-0.028-0.057L2,21.785v-0.029v-0.028h0.029V21.7l0.085-0.085l0.057-0.057v-0.028V21.5v-0.057l-0.029-0.114v-0.028l0.029-0.029 v-0.028L2.2,21.215h0.057l0.028-0.028v-0.028v-0.029v-0.057v-0.028l-0.028-0.085v-0.171v-0.085v-0.057L2.2,20.559l-0.114-0.228 l-0.028-0.028v-0.029v-0.028l-0.028-0.2v-0.085v-0.029l0.228,0.057l0.228-0.057l0.456-0.228l0.428-0.114l0.086-0.029l0.057-0.143 l0.029-0.143l0.028-0.656l0.029-0.171l0.085-0.057h0.256l0.143-0.057l0.057-0.114v-0.085L4.11,18.05l-0.029-0.085l-0.086-0.143 v-0.057l0.029-0.114L3.967,17.48L3.91,17.366l-0.057-0.085l-0.057-0.143v-0.171l0.057-0.085l0.114-0.085l0.028-0.171l0.057-0.143 l0.028-0.085v-0.285l0.057-0.257l0.114-0.285l0.143-0.285l0.171-0.171H4.68l0.114,0.057l0.114,0.057l0.171,0.057l0.086,0.057 l0.085,0.114l0.028,0.114l0.029,0.029l0.028,0.057v0.028v0.057L5.307,15.77H5.279v0.029v0.085L5.25,15.941v0.028l0.057,0.085 l0.114,0.029l0.086-0.086l0.114-0.114l0.057-0.114v-0.2l0.028-0.085l0.057-0.028H5.82l0.114,0.085l0.057,0.028l0.114-0.057v-0.086 L6.02,15.342l-0.057-0.114v-0.285l-0.028-0.114l-0.086-0.057H5.82l-0.057-0.028l-0.028-0.057l-0.028-0.028l-0.057-0.086v-0.028 h0.028l0.257-0.171l0.057-0.086l-0.029-0.143l-0.057-0.285v-0.085l0.029-0.114l0.228-0.371l0.028-0.256l0.114-0.029l0.143-0.028 l0.114-0.057l0.057,0.029l0.029-0.029l0.028-0.028h0.028l0.057,0.028l0.057-0.085v-0.285l0.028-0.143l0.342-0.456l0.085-0.057 l0.228-0.057l0.057,0.057l0.086,0.114l0.085,0.143l0.114,0.057l0.143-0.028l0.171-0.228l0.085-0.057l0.114-0.029L8.5,11.807 l0.085-0.057l0.085-0.085l0.114-0.2l0.085-0.085l0.228-0.114l0.057-0.143l0.085-0.257l0.143-0.228l0.542-0.57l0.342-0.285V9.697 l0.029-0.2V9.44V9.384V9.355V9.298l0.085-0.085V9.07l-0.028-0.085l-0.057-0.085l-0.114-0.085l-0.057-0.057l0.057-0.085l0.085-0.086 L10.296,8.5V8.357V8.272l0.028-0.085l0.028-0.057l0.086-0.143V7.901L10.41,7.844l-0.057-0.085l-0.028-0.057V7.587h0.085l0.057,0.029 l0.085-0.029l0.029-0.085l-0.029-0.057l-0.028-0.057l-0.028-0.057l0.028-0.114l0.028-0.114l0.029-0.086V6.846l-0.057-0.313V6.39 l0.028-0.171l0.086-0.285l0.029-0.114V5.535l0.028-0.171l0.057-0.285l0.028-0.085l0.143-0.143l0.029-0.028V4.565l0.028-0.028 l-0.028-0.114L10.895,4.28V4.252V4.166l-0.028-0.028l-0.029-0.028H10.81h-0.057l-0.028-0.171l0.085-0.313V3.453l-0.057-0.085 l-0.057-0.114l-0.171-0.228l-0.2-0.228l-0.085-0.114l0.057-0.143l0.085-0.086l0.114-0.085l0.143-0.028L10.752,2.399L10.752,2.399z"/></svg>