<?xml version="1.0"?><svg xmlns="http://www.w3.org/2000/svg"  viewBox="0 0 30 30" width="60px" height="60px">    <path d="M28.981,21.24L29,21.836v0.615h-0.876l-0.876,0.019h-0.876l-0.875,0.019h-0.876h-0.876h-0.876h-0.876 L21.12,22.47h-0.876l-0.876-0.019h-0.876l-0.876-0.019l-0.875-0.019l-0.876-0.019l-0.876-0.019l-0.876-0.019l-0.876-0.018 l-0.876-0.037l-0.875-0.019l-0.876-0.037l-0.876-0.037l-0.876-0.037l-0.876-0.037L7.11,22.097L6.235,22.06l-0.876-0.037 l-0.857-0.056L3.627,21.93l-0.876-0.056l-0.876-0.056L1,21.762l0.019-0.447l0.037-0.447l0.019-0.428l0.037-0.447l0.018-0.447 l0.019-0.447l0.037-0.447l0.019-0.447l0.037-0.447l0.019-0.447l0.037-0.447l0.019-0.447l0.037-0.447l0.019-0.447l0.018-0.448 l0.037-0.447l0.019-0.428l0.037-0.447l0.019-0.447l0.037-0.447l0.019-0.447l0.019-0.447l0.037-0.447l0.019-0.447l0.037-0.447 l0.019-0.447l0.037-0.447l0.019-0.447l0.037-0.447l0.019-0.447L1.82,7.958l0.037-0.447l0.764,0.037l0.764,0.056l0.764,0.037 l0.745,0.037l0.764,0.037l0.764,0.056l0.764,0.037l0.764,0.019l0.764,0.037l0.764,0.037l0.764,0.037l0.764,0.019l0.764,0.037 l0.745,0.019l0.764,0.019l0.764,0.019l0.764,0.037l0.764,0.019l0.764,0.019h0.764l0.764,0.019l0.764,0.019h0.764l0.764,0.019h0.764 h0.764l0.764,0.019h0.764h0.764h0.745h0.764l0.764-0.019l0.224,0.205l0.037,0.075h0.037l0.056,0.019h0.037l0.019,0.037l0.019,0.056 l0.019,0.037l0.019,0.019l0.037,0.019h0.075l0.037,0.019l0.037,0.019l0.112,0.13l0.074,0.037l0.075-0.037l0.093-0.037l0.093-0.112 L27.4,8.649l0.075-0.019h0.074l0.056,0.019l0.019,0.056V8.76l-0.037,0.056l0.056,0.074l0.168,0.093l0.037,0.037v0.056L27.828,9.17 v0.056v0.056l0.037,0.037l0.019,0.037v0.037L27.81,9.468l-0.075-0.019l-0.167-0.037l-0.037,0.019l-0.019,0.037l-0.019,0.037v0.112 l-0.019,0.037l-0.037,0.019L27.4,9.692l-0.112,0.13l-0.056,0.075L27.195,9.99l0.019,0.093v0.056l-0.019,0.037l-0.037,0.037h-0.093 l-0.04,0.017v0.093l0.037,0.093l0.074,0.075l0.056,0.037l0.019,0.019l0.093,0.186l0.037,0.037l0.019,0.019l0.075,0.037l0.149,0.112 l0.019,0.037l0.019,0.075l0.019,0.019l0.168,0.037L27.77,11.18l0.037,0.205l0.074,0.186l0.13,0.075l0.037,0.056v0.093l0.019,0.112 l0.075,0.037l0.075,0.019l0.167,0.112l0.075,0.037l0.112-0.019l0.056,0.019l0.037-0.019h0.019l0.019,0.019l0.019,0.037v0.019h0.093 l0.056,0.019l0.019,0.056l-0.056,0.056v0.019v0.019h0.019v0.037l0.019,0.354v0.596l0.019,0.615v0.596v0.615l0.019,0.615v0.596 l0.019,0.615v0.615l0.019,0.596V18.8l0.019,0.615v0.596l0.019,0.615L28.981,21.24L28.981,21.24L28.981,21.24z"/></svg>