<?xml version="1.0"?><svg xmlns="http://www.w3.org/2000/svg"  viewBox="0 0 30 30" width="60px" height="60px">    <path d="M23.173,19.928l0.104,0.026v0.104l-0.052,0.13l-0.052,0.078l-0.026,0.13l0.104,0.234l-0.078,0.026h-0.417 l-0.183,0.052l-0.313,0.182l-0.678,0.548l-0.209,0.078l-0.104-0.052l-0.209-0.183l-0.104-0.026h-0.313l-0.6,0.13l-0.078,0.078v0.104 l0.052,0.156l0.052,0.078l0.104,0.391l0.13,0.261v0.13l-0.078,0.104l-0.234,0.234l-0.078,0.078l-0.052,0.13l-0.078,0.078 l-0.235,0.026l-0.104,0.052l-0.13,0.209l-0.052,0.6l-0.078,0.235l-0.182,0.156l-0.078,0.078l-0.209,0.078h-0.052l-0.026-0.052 l-0.026-0.026h-0.078l-0.078-0.026l-0.052,0.026l-0.052,0.078l-0.078,0.287l-0.052,0.052l-0.078,0.078l-0.052,0.104l-0.052,0.156 v0.13l0.026,0.652l-0.026,0.183l-0.026,0.052l-0.052,0.052l-0.052,0.052l-0.052,0.052l-0.235,0.078l-0.13,0.052l-0.026,0.13 l-0.052,0.052l-0.13-0.078l-0.209-0.209h-0.13h-0.261l-0.104-0.052l-0.078-0.052l-0.234-0.104l-0.078-0.052l-0.052-0.104 l-0.026-0.104l-0.026-0.261l-0.052-0.078l-0.287-0.183l-0.104-0.052h-0.104l-0.052,0.052l0.078,0.13l0.104,0.052l0.104,0.026 l0.052,0.026l-0.078,0.13l-0.209,0.104l-0.13,0.026h-0.052l-0.026-0.078L15.3,25.924l-0.078-0.026l-0.052,0.026l-0.026,0.052 l0.026,0.078l0.104,0.078L15.3,26.21v0.156l-0.078,0.078l-0.104,0.052l-0.13,0.026l-0.052,0.052v0.156l0.052,0.417v0.104 l-0.078,0.078l-0.261,0.078l-0.026,0.104l0.026,0.13l-0.052,0.156l-0.104,0.078h-0.104l-0.078-0.052l0.026-0.13l0.026-0.13 l-0.104-0.026l-0.209,0.078l-0.183-0.026l-0.183-0.104l-0.13-0.156l-0.052-0.183l-0.104-0.104l-0.182,0.078l-0.183,0.183 l-0.104,0.13l-0.078,0.026l-0.287,0.078l-0.104,0.052l-0.052,0.052l-0.052,0.078l-0.052,0.104l-0.104,0.443l-0.078,0.157 l-0.157,0.13l-0.052-0.026l-0.052-0.052L11.78,28.4l-0.052-0.078v-0.078l-0.052-0.052l-0.052-0.026H11.52h-0.078l-0.052-0.026 l-0.183-0.104l-0.365-0.104l-0.104-0.078l-0.104-0.052l-0.13-0.078l-0.13-0.052l-0.104-0.026l-0.209,0.078l-0.209,0.156 l-0.209,0.052l-0.209-0.156v-0.052l-0.026-0.13L9.382,27.54H9.356H9.304l-0.026,0.052L9.252,27.67l0.026,0.157l0.13,0.182 l0.026,0.13l-0.026,0.183l-0.13,0.183l-0.156,0.052l-0.104-0.052L8.991,28.4l0.026-0.234l-0.026-0.078l-0.052-0.052l-0.104,0.026 l-0.078,0.052L8.73,28.166H8.678l-0.209,0.078L8.365,28.27H8.261l-0.104-0.052l-0.104-0.052l-0.078-0.104L7.87,27.983H7.765 l-0.104,0.052l-0.026,0.156l0.026,0.078l0.209,0.365l-0.234,0.313L7.609,29l-0.078-0.026L7.322,28.87l-0.104-0.026L7.114,28.87 l-0.13-0.052H6.879H6.853l-0.026-0.026v-0.052h0.026h0.13l0.078-0.026l0.052-0.026l-0.026-0.078L6.801,28.4l-0.078-0.104h0.235 h0.052l0.078-0.052v-0.052l-0.026-0.052v-0.078l-0.052-0.156v-0.078l0.052-0.026v-0.052v-0.104L7.036,27.54l-0.026-0.052 l0.052-0.104l-0.078-0.157l0.052-0.026l0.078-0.026l0.104-0.052l0.078-0.052l0.052-0.078L7.27,26.94l-0.156,0.026l-0.078-0.052 l0.104-0.078l0.104-0.13l0.052-0.052l0.104-0.026l0.052-0.026l0.052-0.13l-0.078-0.078l-0.104-0.052L7.27,26.289l-0.026-0.026 L7.192,26.21l-0.026-0.052L7.14,26.08v-0.078l0.052-0.026l0.026-0.052l0.052-0.078l0.026-0.104l0.026-0.104l0.026-0.078l0.104-0.052 v0.052l0.078,0.078l0.052,0.026l0.026-0.13l0.026-0.052l0.052-0.052l0.026-0.026l0.026,0.026v0.052l0.052,0.078l0.052,0.026 l0.026-0.052v-0.078v-0.078v-0.052l0.052-0.078l0.026-0.156l0.026-0.078l0.052-0.026l0.078-0.052l0.052-0.026l0.078-0.104 l0.052-0.156l0.026-0.13l-0.104-0.078v-0.052l0.156-0.052l0.157-0.104l0.052-0.052l0.052-0.052l0.026-0.052h0.052l0.026,0.026h0.026 l0.026-0.078v-0.078l-0.104-0.13l-0.026-0.104l0.026-0.104l0.026-0.078l0.078-0.052l0.052-0.052H8.808h0.026v-0.026l0.026-0.026 v-0.052l-0.026-0.13l0.026-0.13l0.078-0.104l0.078-0.078l0.052-0.026h0.078l0.052-0.026l0.026-0.052l0.104-0.495l-0.078-0.261 l-0.13-0.234l-0.078-0.235v-0.078l0.052-0.13l0.026-0.078l-0.026-0.261l-0.052-0.078l-0.156-0.13l-0.052-0.052l-0.052-0.13 l-0.078-0.235l-0.052-0.104L8.469,20.11l-0.078-0.052l-0.026-0.026l-0.026-0.052l-0.026-0.261l0.313-0.339L8.6,19.093l-0.13-0.209 l-0.026-0.13l0.026-0.13l0.078-0.104l0.313-0.183v-0.026V18.05l-0.104-0.965l-0.078-0.939L8.6,15.183l-0.078-0.965l-0.078-0.965 l-0.078-0.965l-0.078-0.965l-0.104-0.965L8.104,9.395L8.026,8.43L7.948,7.466L7.87,6.501L7.791,5.563L7.713,4.598L7.609,3.633 L7.531,2.669L7.505,2.382L8.182,2.33l0.521-0.052l0.261-0.026h0.026h0.104l0.391-0.052l0.365-0.026l0.391-0.052l0.391-0.026 l0.391-0.026l0.365-0.052l0.391-0.026l0.391-0.052l0.365-0.026l0.391-0.052l0.391-0.026l0.391-0.052l0.365-0.026l0.391-0.052 l0.391-0.026l0.365-0.052L15.613,1.6l0.391-0.052l0.391-0.026l0.365-0.052l0.391-0.026l0.391-0.052l0.365-0.052l0.391-0.026 l0.391-0.052l0.365-0.052l0.391-0.026l0.391-0.052l0.391-0.052l0.365-0.026L20.983,1l0.052,0.391l0.052,0.521L21.14,2.46 l0.078,0.547l0.052,0.521l0.052,0.548l0.052,0.547l0.078,0.521l0.052,0.547l0.052,0.548l0.052,0.521l0.078,0.547l0.052,0.548 l0.052,0.521l0.078,0.547l0.052,0.547l0.052,0.521l0.052,0.548l0.078,0.547l0.052,0.521l0.052,0.548l0.052,0.547l0.078,0.521 l0.052,0.548l0.052,0.547l0.078,0.521l0.052,0.547l0.052,0.548l0.052,0.521l0.078,0.547l0.052,0.548l0.052,0.521l0.052,0.547 l-0.078,0.078l-0.13,0.183l0.026,0.209l0.156,0.157l0.104,0.078l0.026,0.104l-0.026,0.13l-0.156,0.209l-0.052,0.078l0.078,0.052 l0.078,0.052L23.173,19.928L23.173,19.928z"/></svg>