<?xml version="1.0"?><svg xmlns="http://www.w3.org/2000/svg"  viewBox="0 0 30 30" width="60px" height="60px">    <path d="M29.348,17.136l0.358-0.098l0.131-0.032l0.033,0.065l-0.033,0.032l-0.065,0.033l-0.098-0.033l0.163,0.195 v0.033l-0.098,0.065l-0.098-0.033l-0.131-0.033h-0.097l-0.098,0.098l0.261,0.032l0.13,0.033l-0.033,0.13v0.065h0.033l0.033,0.065 h-0.033l-0.033,0.033v0.033h0.098l0.065-0.033h0.065l0.065,0.065L30,17.984l-0.033,0.163l-0.065,0.163l-0.032,0.13l-0.065,0.391 l-0.065,0.098l-0.195,0.033l-0.065-0.065l0.065-0.163l-0.196,0.131l-0.065,0.098l-0.033,0.13v0.489l-0.032,0.098l-0.033,0.065v0.261 l-0.032,0.098H29.12l-0.131-0.033l-0.065,0.033l-0.032,0.033l-0.098,0.163l-0.033,0.065l0.065,0.032l-0.065,0.457v0.065l-0.13,0.065 l-0.163,0.032l-0.294,0.131l-0.294,0.098l-0.195,0.065l-0.294,0.098l-0.13,0.065l-0.033,0.065l-0.033,0.131l-0.032,0.131 l-0.065-0.033h-0.13l-0.587,0.065l-0.163,0.065l-0.098,0.13l-0.163,0.196l-0.098,0.13l-0.065-0.032l-0.033-0.065l-0.033-0.032 h-0.032v-0.098l0.032-0.065l0.033-0.065l0.033-0.065l0.033-0.098h-0.065l-0.065,0.033l-0.033,0.033v0.065h-0.032l-0.033-0.033 h-0.032l0.032-0.065l0.098-0.261v-0.098l0.032-0.065l0.163-0.065l0.032-0.033l0.065-0.098l0.229-0.359l0.032-0.163h-0.098 l-0.033,0.065l-0.065,0.098l-0.098,0.065l-0.13,0.033l-0.098,0.032l-0.065,0.065h-0.032v-0.033h-0.033v-0.065l0.033-0.033 l0.065-0.065l0.032-0.098l0.033-0.065l-0.065-0.065l0.065-0.033l0.196-0.065l0.032-0.065l-0.032-0.098h-0.098l-0.098,0.033h-0.098 l-0.13,0.098l-0.293,0.032l-0.131,0.065l-0.033,0.065v0.065v0.065l-0.032,0.065l-0.065-0.033l-0.033-0.065l-0.032-0.163l0.032-0.326 l0.163-0.163l0.228-0.13l0.228-0.163l-0.098-0.033l-0.293,0.033l-0.13-0.065l-0.098-0.131l-0.032-0.196l0.032-0.196l0.163-0.391 l0.033-0.131v-0.196v-0.033l-0.033-0.033h-0.098l-0.032,0.033v0.098v0.098v0.065l-0.261,0.457v0.065l-0.065,0.522l-0.033,0.098 l-0.032-0.032l-0.033-0.065v-0.098l-0.033-0.065l-0.033-0.065l-0.098-0.033l-0.065-0.065l-0.033-0.065l0.033-0.098l0.131-0.131 l0.033-0.13l-0.098-0.163l-0.13,0.13l-0.163,0.261l-0.065,0.228l0.098,0.033l0.065,0.065l0.033,0.098v0.098v0.228l-0.065,0.098 l-0.065-0.033l-0.294-0.326l-0.065-0.065h-0.196l-0.065-0.065l-0.065-0.131l-0.489-0.391l-0.13-0.065l-0.065,0.098l0.196,0.326 v0.195h-0.033l-0.098-0.195l-0.131-0.195l-0.261-0.261l-0.065-0.033l-0.065-0.065l-0.033-0.098l-0.098-0.163l-0.065-0.065 l-0.065-0.033l-0.032-0.033l-0.065-0.163l0.098-0.098h0.13l0.065,0.065l0.065,0.196h0.065l0.033-0.13l-0.033-0.196l0.033-0.163 l0.098-0.098l0.131-0.065l0.13-0.098l-0.065-0.065l0.065-0.13l-0.032-0.065l-0.033-0.032l-0.033-0.033l-0.032,0.033h-0.065 l-0.065,0.032v0.065l-0.032,0.065l-0.065,0.065l-0.065,0.033l-0.196,0.065l-0.098-0.033l0.033-0.13l0.098-0.196v-0.065l-0.065-0.032 h-0.032l-0.065-0.098h0.294l0.098-0.033l0.098-0.033l0.131-0.131l0.098-0.033l-0.065,0.131l-0.032,0.033l0.065,0.033l0.065,0.033 l0.131-0.033l0.685,0.098l0.196-0.065l0.098-0.065l0.065-0.065l0.065-0.13l-0.033-0.261l0.033-0.163h-0.033l-0.033-0.033h-0.033 l-0.065,0.326l-0.065,0.131l-0.131,0.098l-0.163-0.033l-0.196-0.065l-0.163-0.098v-0.163l-0.098,0.033l-0.065,0.065l-0.098,0.065 l-0.13-0.032V16.81l0.032-0.065l0.163-0.098l0.065-0.065v-0.065l-0.131,0.065l-0.13,0.033l-0.131,0.033L22.5,16.549l0.033-0.065 v-0.065v-0.065L22.5,16.255l-0.065,0.13v0.098v0.098l-0.065,0.065l-0.065-0.033l-0.098-0.163l-0.098-0.033l0.065-0.293v-0.13 l-0.13-0.033l-0.163,0.293l-0.065,0.163l-0.098-0.065v-0.359l-0.033-0.065L21.62,16.06l-0.033,0.131v0.195l0.033,0.196l0.033,0.098 l-0.033,0.065l-0.065,0.065l-0.098,0.033l-0.033-0.033l-0.032-0.196v-0.131l0.032-0.13l0.033-0.522v-0.098v-0.065l0.13-0.163 l0.098-0.098l0.098,0.032l0.098,0.098l0.065,0.033h0.065v0.032l0.098,0.163l0.098,0.098l0.13,0.032l0.098,0.033l0.13-0.033 l0.065-0.032l0.065-0.131l0.032-0.131l-0.032-0.13l-0.065,0.163l-0.13,0.098h-0.13l-0.131-0.163v-0.228l0.098-0.163l0.163-0.098 l0.13-0.131l-0.294-0.033l-0.065-0.033l0.033-0.163l-0.033-0.098l-0.098,0.033v0.033v0.196l-0.032,0.065l-0.098-0.033l-0.033-0.131 l-0.032-0.13V14.56l-0.228-0.131l-0.098-0.033L21.62,14.56h-0.033l-0.033,0.065l-0.033,0.065v0.033l-0.033,0.065h-0.065 l-0.195,0.065l-0.033,0.033l-0.065,0.065v0.065l0.065,0.098l0.065,0.033l0.065,0.065l-0.065,0.098l-0.098,0.098l-0.098,0.032 L21,15.31v-0.652l-0.032-0.196v-0.065l0.065-0.196v-0.196l0.065-0.033l0.065,0.033l0.098,0.033l0.195,0.131l0.131,0.065l0.163-0.033 l0.13-0.033l0.131-0.098l0.098-0.131v-0.163l-0.065-0.032l-0.033-0.033l-0.065-0.065l-0.033-0.065l0.163-0.065l0.065-0.033 l-0.065-0.033l0.065-0.228l0.228-0.326l0.033-0.163l-0.131,0.065l-0.098,0.131l-0.13,0.098h-0.163l0.098-0.098l-0.033-0.033 L21.75,13.06v0.326v0.294l-0.098,0.13l-0.065-0.065l-0.033-0.13l-0.065-0.359l-0.032-0.065l-0.033-0.098l-0.065-0.065l-0.163-0.033 l-0.033-0.098l0.033-0.098v-0.032l0.065-0.326l0.163-0.652l0.033-0.065l-0.033-0.163v-0.065l0.065-0.098l0.131-0.033l0.033-0.065 l0.033-0.065v-0.196l0.033-0.033l0.522-0.196l0.717-0.098l0.293-0.098h0.032l0.163-0.033l-0.098-0.098h-0.195l-0.717,0.13h-0.163 v-0.163l0.195-0.326l0.098-0.163l0.098-0.098l0.13-0.033l0.326,0.033h0.163V9.799l-0.228-0.065l-0.098-0.065l-0.098-0.131 l0.131-0.131l0.098-0.163l0.032-0.228V8.82l-0.13,0.098l-0.098,0.163l-0.065,0.163l-0.098,0.131L22.37,9.864l-0.065,0.163 l-0.065-0.163l0.032-0.163L22.37,9.44l0.033-0.131l0.032-0.163V8.82l-0.098,0.033l-0.065,0.098l-0.032,0.228l-0.065,0.033 L21.75,9.31l-0.098,0.033l-0.065,0.033l-0.033,0.098l-0.098,0.489l0.098,0.065l0.229,0.032h0.065v0.131v0.065l-0.261,0.391 l-0.326,0.293l-0.131,0.196L21,11.038l-0.065-0.163l-0.033-0.359l0.033-0.163l-0.033-0.065l-0.033-0.033h-0.065l-0.033,0.065 l-0.033,0.098l-0.033,0.033l0.033,0.652l0.131,0.098l0.065,0.098v0.065l-0.033,0.033l-0.163,0.261l-0.098-0.359l-0.228-0.359h-0.098 l-0.457,0.228l0.131,0.065h0.196l0.131,0.033l0.032,0.163l0.033-0.033l-0.033,0.098l-0.065,0.033l-0.065,0.033l-0.065,0.065 l0.065,0.098v0.033h-0.359l-0.033,0.033l0.065,0.098l0.261,0.228v0.065l-0.033,0.098l-0.131-0.065l-0.065-0.065l-0.13-0.163 l-0.065-0.033L19.5,11.918l0.131,0.228l0.196,0.163l0.196,0.131h0.196l0.032,0.033l-0.228,0.228l-0.065-0.065h-0.065h-0.065 l-0.033,0.065l-0.065-0.065l-0.033,0.033l-0.065-0.033l-0.098-0.098l-0.098-0.065l-0.359-0.098l-0.065-0.033l-0.065,0.065 l-0.033,0.065l-0.163,0.033l-0.033,0.033l0.065,0.032h0.13h0.033l0.098,0.065l0.033,0.065l0.033,0.065h0.228l0.065,0.098 l0.033,0.098l0.033,0.033l0.065,0.033l0.098,0.13l0.098,0.033l0.098-0.131l0.098-0.033l0.131,0.294l0.13,0.131l0.098,0.163 l0.033,0.195H20.25l-0.032-0.065L20.12,13.68h-0.065l-0.098,0.098l-0.228-0.13h-0.065v0.065l0.033,0.065l0.033,0.065l0.065,0.032 h0.131l0.359,0.065l0.163,0.098l0.098,0.098v0.098l-0.098,0.065l-0.163,0.033l-0.032,0.032l-0.032,0.065l-0.033,0.032l-0.457-0.293 l-0.131-0.131l-0.065-0.098h-0.065l-0.065,0.033l-0.033,0.065l0.033,0.098l0.065,0.065l0.065,0.033l0.131,0.033l0.098,0.032 l0.163,0.131l0.326,0.391l0.131,0.163l-0.033,0.098l-0.13-0.033l-0.261-0.196l-0.131-0.065l-0.098,0.033v0.098l0.065,0.131 l0.098,0.065l0.228,0.098l0.098,0.098l-0.098,0.098h-0.033l-0.065-0.032l-0.163,0.032l0.033,0.065l0.033,0.065l0.098,0.033 l-0.032,0.294l0.065,0.032l0.163-0.131l0.065-0.033v0.196l-0.065,0.131l-0.196,0.195l-0.065,0.13l0.065,0.163l0.098,0.131 l0.228,0.163l-0.032,0.196l0.065,0.163l0.065,0.13l0.065,0.13l0.065,0.554l0.033,0.163l0.195,0.294l0.554,0.424l0.228,0.261 l0.098,0.131l0.065,0.163l0.033,0.163l-0.131,0.098l-0.228,0.065l-0.098-0.033l-0.13-0.098l-0.033-0.065l-0.033-0.065l-0.032-0.033 l-0.033-0.065l-0.13-0.032H20.87l-0.228-0.033l-0.131-0.033l-0.521-0.489l-0.098-0.032l-0.033-0.065l-0.457-1.207l-0.098-0.195 v0.065l0.032,0.065v0.098l0.163,0.587l0.065,0.163l0.065,0.13l-0.033,0.065l0.033,0.033l0.033,0.065l0.098,0.294l0.163,0.261 l0.196,0.196l0.261,0.163l0.456,0.098l0.098,0.065l0.033,0.131l0.131,0.131l0.13,0.13l0.163,0.065l0.131-0.033l0.163-0.098 l0.163-0.033l0.065,0.13v0.13l-0.033,0.131v0.13l0.065,0.163l0.065,0.033l0.196,0.13l0.261,0.261l0.065,0.131v0.195v0.163v0.131 l0.065,0.065l0.065,0.033l0.033,0.065l0.033,0.131l-0.554-0.326l-0.196-0.033l-0.098-0.098l-0.065-0.261l-0.098-0.261l-0.163-0.098 v0.065l0.065,0.098l0.033,0.065v0.098L21.62,21.31v0.033l-0.033,0.13l-0.098-0.033l-0.195-0.131l0.033,0.228l-0.033,0.065 l-0.098-0.033l-0.033-0.065l-0.098-0.196L21,21.18l-0.098-0.098l-0.098-0.065l-0.098-0.033l-0.098-0.098l-0.196-0.065l-0.228,0.033 l-0.62,0.195l-0.098-0.032l-0.098-0.065l-0.163-0.163l-0.065-0.098l-0.033-0.065l-0.065-0.294l-0.131-0.195l-0.163-0.163 l-0.228-0.065l0.228,0.326l0.098,0.163l0.098,0.228v0.196l-0.13,0.065l-0.196-0.098l-0.522-0.392l-0.131-0.13l-0.293-0.554 l-0.131-0.196l-0.131-0.098v0.065v0.098v0.065l-0.032,0.065l-0.065,0.163l-0.065,0.098l-0.065,0.033l-0.098-0.033l-0.065-0.065 l-0.033-0.098l0.033-0.065v-0.065l-0.033-0.032h-0.033v-0.032l-0.098,0.065l-0.065,0.098l0.065,0.033h0.033l0.065,0.098 l-0.065,0.326l-0.065,0.098l-0.13,0.065l-0.033,0.065l-0.13,0.098l-0.163-0.065l-0.163-0.163l-0.098-0.13l-0.065-0.131l-0.065-0.261 l-0.065-0.228l0.033-0.098l0.033-0.098l0.032-0.163l0.033-0.163l0.13-0.098l0.033-0.033l0.163-0.13l-0.033-0.033l-0.065,0.033 h-0.033l-0.032-0.033v-0.098l0.032-0.065l0.033-0.033l0.033-0.033l0.033-0.033l0.033-0.033l0.163-0.033l0.065-0.033v-0.033 l0.033-0.163l0.033-0.13l-0.033-0.163l0.033-0.065l0.032-0.065l0.065-0.033l0.065-0.065l0.228-0.131l0.065-0.13l-0.098-0.131 l0.033-0.032l0.033-0.065l0.033-0.033v-0.098l-0.131-0.163l-0.033-0.163l0.424-0.782l-0.913-0.848l-0.359,0.62l-0.098-0.098 l-0.098-0.033h-0.196l-0.228-0.032h-0.098l-0.098-0.033l-0.065-0.098l-0.033-0.13l-0.065-0.098l-0.163-0.13l-0.228-0.065h-0.196 l-0.587,0.033l-0.163-0.033l-0.261-0.196l-0.131-0.065l-0.098-0.098l-0.065-0.131l0.033-0.13l0.163-0.228l0.065-0.163v-0.163 l-0.098-0.098l-0.131-0.033l-0.163-0.033l-0.13-0.033l-0.163-0.196l-0.065-0.065h-0.294l-0.293-0.065h-0.131l-0.326,0.065 l-0.131-0.033l-0.13-0.13l-0.033-0.163v-0.163l0.033-0.163l-0.098-0.131l-0.326-0.065l-0.098-0.065l0.131-0.131l-0.065-0.098v-0.065 l0.033-0.098l0.065-0.032v-0.065l-0.13,0.032l-0.098,0.065h-0.098l-0.098-0.065v-0.065l0.033-0.032v-0.065l-0.033-0.098h-0.065 l-0.033,0.065l-0.033,0.098v0.065H10.5l-0.163-0.294l-0.033-0.065l0.13-0.065l0.098-0.131v-0.13l-0.098-0.098l-0.065-0.032h-0.098 l-0.065,0.032l-0.033,0.065l-0.033,0.033H9.946L9.88,11.331l-0.065,0.065l-0.131,0.033l-0.163-0.033l-0.13-0.065L8.804,10.94 l-0.326-0.131l-0.326,0.033l-0.065,0.033l-0.065,0.033l-0.032,0.065l-0.131,0.261l-0.065,0.065l-0.098,0.163l-0.033,0.065H7.533 H7.272l-0.131,0.065l-0.13,0.098l-0.065,0.033H6.815H6.782l-0.065,0.065l0.229,0.228l-0.098,0.033L6.75,12.081l-0.098,0.033v0.13 l0.131,0.033l0.033,0.033l-0.033,0.065L6.619,12.57l-0.457,0.033l-0.196,0.098v0.032H5.413H5.25l-0.033-0.032l-0.033-0.033 l-0.098-0.033l-0.261-0.098H4.793l-0.065-0.065V12.44v-0.033v-0.033v-0.033l0.065-0.065h0.032v-0.033l-0.032-0.033l-0.065-0.033 l-0.065-0.033L4.63,12.114l-0.065-0.033H4.532L4.5,12.114v0.032v0.065l-0.032,0.065L4.402,12.44l-0.033,0.065v0.033v0.032 l0.033,0.033l0.033,0.065v0.033l-0.033,0.032l-0.131,0.033l-0.032,0.032l-0.033,0.033l-0.032,0.033v0.033l-0.033,0.131l-0.065,0.13 L3.75,13.614l-0.033,0.098l-0.033,0.033l-0.032,0.032l-0.065,0.065H3.554H3.489L3.424,13.81l-0.131-0.098L3.163,13.68l-0.098-0.033 H3L2.935,13.68l-0.196,0.163l-0.033,0.032l-0.033,0.033v0.032l-0.033,0.228l-0.032,0.033v0.033l-0.032,0.033v0.032l-0.098,0.131 l-0.065,0.098L2.38,14.56l-0.032,0.032l-0.261,0.228l-0.131,0.163l-0.065,0.098l-0.032,0.065l-0.065,0.196v0.033l-0.065,0.032 l-0.261,0.098l-0.033,0.033l-0.587,0.75L0.75,16.353l-0.032,0.065H0.685l-0.033-0.033L0,12.18l0.717-0.131l0.717-0.131l0.75-0.13 l0.717-0.131l0.718-0.13l0.75-0.131l0.717-0.131l0.717-0.13l0.717-0.131l0.75-0.13l0.717-0.163l0.717-0.131l0.718-0.131l0.717-0.13 l0.75-0.163l0.717-0.131l0.717-0.13l0.718-0.163l0.75-0.131l0.718-0.163l0.717-0.131l0.717-0.13l0.718-0.163l0.717-0.131l0.75-0.163 l0.717-0.163l0.717-0.13l0.718-0.163L21,8.104l0.717-0.131l0.718-0.163l0.75-0.163l0.13,0.587l0.163,0.62l0.163,0.587l0.163,0.587 l0.163,0.587l0.131,0.587l0.163,0.587l0.163,0.587l0.163,0.587l0.163,0.62l0.131,0.587l0.163,0.587l0.163,0.587l0.163,0.587 l0.163,0.587l0.13,0.587l0.131,0.391l0.098,0.391l0.489-0.098l0.489-0.13l0.521-0.098l0.489-0.098l0.489-0.13l0.489-0.098 L29.348,17.136L29.348,17.136z"/></svg>