<?xml version="1.0"?><svg xmlns="http://www.w3.org/2000/svg"  viewBox="0 0 30 30" width="60px" height="60px">    <path d="M2.637,18.69l0.055-0.292l0.036-0.292l0.128-0.71l0.11-0.729l0.109-0.711l0.128-0.71l0.109-0.729l0.11-0.711 l0.109-0.729l0.128-0.711l0.109-0.71l0.11-0.729l0.109-0.711l0.128-0.729l0.109-0.71l0.11-0.729l0.109-0.711l0.128-0.711 l0.018-0.146l0.018-0.146l0.018-0.128L4.66,6.063l0.018-0.146L4.697,5.79l0.018-0.146l0.018-0.146L4.77,5.371l0.018-0.146 l0.018-0.146l0.018-0.127l0.036-0.146L4.879,4.66l0.018-0.128l0.018-0.146l0.018-0.073l0.164,0.018l0.364,0.055l0.346,0.055 l0.364,0.055l0.346,0.055l0.364,0.055L7.23,4.66l0.364,0.055L7.959,4.77l0.346,0.055l0.364,0.055l0.346,0.055L9.38,4.988 l0.346,0.055l0.364,0.036l0.364,0.055l0.346,0.055l0.364,0.055l0.346,0.036l0.364,0.055l0.364,0.055l0.346,0.036l0.364,0.055 l0.364,0.055l0.346,0.036l0.364,0.055l0.346,0.036l0.364,0.055l0.364,0.036l0.346,0.055l0.364,0.036L16.176,5.9l0.346,0.036 l0.364,0.036l0.364,0.055l0.346,0.036L17.961,6.1l0.364,0.055l0.346,0.036l0.364,0.036L19.4,6.264l0.346,0.055l0.364,0.036 l0.364,0.036l0.346,0.036l0.364,0.036l0.364,0.036l0.346,0.036l0.364,0.036l0.364,0.036l0.346,0.036l0.364,0.036L23.7,6.719 l0.364,0.036l0.346,0.036l0.364,0.036l0.364,0.036l0.346,0.036l0.364,0.018l0.364,0.036l0.364,0.036l0.346,0.036l0.364,0.036 l0.364,0.018L28,7.12l-0.036,0.583l-0.055,0.583l-0.036,0.565l-0.055,0.583l-0.055,0.583L27.727,10.6l-0.055,0.583l-0.036,0.583 l-0.055,0.583l-0.055,0.565l-0.036,0.583l-0.055,0.583l-0.036,0.583l-0.055,0.583l-0.036,0.583l-0.055,0.565l-0.055,0.583 l-0.036,0.583l-0.055,0.583l-0.036,0.583l-0.055,0.583l-0.055,0.583l-0.036,0.565L26.87,21.04l-0.055,0.583l-0.036,0.583 l-0.055,0.583l-0.036,0.583l-0.055,0.583l-0.055,0.583l-0.036,0.565l-0.055,0.583l-0.547-0.036l-0.547-0.055l-0.547-0.055 l-0.547-0.036l-0.547-0.055l-0.565-0.055l-0.547-0.055l-0.547-0.055L21.55,25.23l-0.547-0.055l-0.547-0.055l-0.547-0.055 l-0.547-0.055l-0.547-0.055l-0.547-0.055l-0.547-0.073l-0.564-0.054l-0.547-0.073l-0.547-0.055l-0.547-0.073l-0.547-0.055 l-0.547-0.073l-0.547-0.055l-0.547-0.073l-0.547-0.073l-0.547-0.073l-0.547-0.073l-0.547-0.055l-0.547-0.073l-0.547-0.073 l-0.547-0.073l-0.547-0.091l-0.437-0.055l-0.437-0.055l-0.437-0.073L7.228,23.5l-0.437-0.055l-0.437-0.073l-0.437-0.055L5.48,23.245 L5.042,23.19l-0.437-0.073l-0.419-0.073L3.749,22.99l-0.437-0.073l-0.437-0.073L2.437,22.79L2,22.717l0.055-0.292l0.036-0.292 l0.055-0.292l0.036-0.273l0.055-0.292l0.036-0.292l0.055-0.292l0.036-0.273l0.055-0.292l0.036-0.292l0.055-0.292l0.036-0.292 l0.055-0.273L2.637,18.69L2.637,18.69L2.637,18.69z"/></svg>