<?xml version="1.0"?><svg xmlns="http://www.w3.org/2000/svg"  viewBox="0 0 30 30" width="60px" height="60px">    <path d="M21.543,1.136l0.681-0.058L22.924,1l-0.039,0.525L22.807,2.4l-0.019,0.292l-0.039,0.389l-0.078,0.758 l-0.039,0.525l-0.039,0.33h-0.02l-0.194,0.02L21.99,4.753l-0.505,0.039l0.019,0.214l0.058,0.719l0.078,0.719l0.058,0.719l0.058,0.7 l0.058,0.719l0.058,0.719l0.058,0.719l0.058,0.719l0.078,0.719l0.058,0.719l0.058,0.719l0.058,0.719l0.058,0.719l0.058,0.719 l0.058,0.7l0.078,0.719v0.194v0.019l-0.233,0.136l-0.058,0.078l-0.02,0.097l0.02,0.097l0.097,0.156l0.019,0.214l-0.233,0.253 l0.02,0.194l0.019,0.039l0.019,0.02l0.058,0.039l0.136,0.117l0.039,0.078l0.058,0.175l0.039,0.097l0.039,0.039l0.117,0.097 l0.039,0.058l0.02,0.194l-0.02,0.058l-0.039,0.097v0.058l0.058,0.175l0.097,0.175l0.058,0.194l-0.078,0.369l-0.019,0.039 l-0.039,0.02h-0.058l-0.039,0.019l-0.058,0.058l-0.058,0.078l-0.02,0.097l0.02,0.097v0.039l-0.02,0.019v0.019h-0.019h0.019 l-0.039,0.039l-0.058,0.039l-0.019,0.058l-0.019,0.078l0.019,0.078l0.078,0.097v0.058l-0.02,0.058h-0.019l-0.02-0.02H22.34 l-0.02,0.039l-0.039,0.039l-0.039,0.039l-0.117,0.078l-0.117,0.039v0.039l0.078,0.058l-0.019,0.097l-0.039,0.117l-0.058,0.078 l-0.039,0.02l-0.058,0.039l-0.039,0.02l-0.019,0.058l-0.02,0.117l-0.039,0.058v0.039V22v0.058l-0.02,0.039l-0.039-0.02l-0.039-0.058 V21.98l-0.02-0.019l-0.019,0.019l-0.039,0.039l-0.019,0.039l-0.02,0.097l-0.039-0.02l-0.058-0.058v-0.039l-0.078,0.039l-0.02,0.058 l-0.019,0.078l-0.019,0.078l-0.039,0.058l-0.02,0.039l-0.039,0.019v0.058l0.019,0.058l0.019,0.039l0.039,0.039l0.02,0.019 l0.039,0.039l0.078,0.039l0.058,0.058l-0.039,0.097l-0.039,0.02l-0.078,0.019l-0.039,0.039l-0.078,0.097l-0.078,0.058l0.058,0.039 l0.117-0.02l0.058,0.039l-0.039,0.058l-0.058,0.039l-0.078,0.039l-0.058,0.019l-0.039,0.02l0.058,0.117l-0.039,0.078l0.02,0.039 l0.019,0.078v0.078v0.039l-0.039,0.019v0.058l0.039,0.117v0.058l0.02,0.039v0.039l-0.058,0.039h-0.039h-0.175l0.058,0.078 l0.214,0.156l0.02,0.058l-0.039,0.02l-0.058,0.019h-0.097h-0.02v0.039l0.02,0.019h0.019h0.078l0.097,0.039l-0.02,0.058l0.02,0.097 l-0.039,0.117l-0.058,0.078l-0.194,0.214l-0.039,0.058l-0.039,0.117l-0.019,0.117l0.039,0.097l0.058,0.136l0.039,0.019l0.117,0.117 l0.097,0.214l-0.019,0.136l-0.117,0.097l-0.7,0.175l-0.214,0.156l-0.078,0.02l-0.175,0.019l-0.078,0.02l-0.058,0.039l-0.058,0.058 l-0.039,0.078l-0.058,0.214v0.194l0.058,0.175l0.097,0.156l0.136,0.156l0.078,0.156l0.019,0.156l-0.078,0.214l-0.097,0.117 l-0.156,0.039l-0.156-0.039l-0.292-0.156l-1.128-0.447l-0.194-0.019l-0.175,0.039l-0.156,0.078l-0.136,0.117l-0.039,0.058 l-0.117,0.272l-0.117,0.156l-0.078,0.156l0.02,0.136l0.078,0.117l0.156,0.156l-0.078-0.039l-0.039,0.019L17.11,28.98L17.071,29 l-0.039-0.02l-0.039-0.039l-0.019-0.039l-0.019-0.058l-0.02-0.058l-0.039-0.039l-0.078-0.039l-0.039-0.02L16.76,28.63l-0.02-0.117 l-0.039-0.02h-0.097l-0.058,0.02l-0.019,0.058l0.039,0.097l0.039,0.039l0.039,0.039l0.039,0.039l0.02,0.078l-0.02,0.039 l-0.058,0.019l-0.156-0.058l-0.214-0.156l-0.058-0.078v-0.136l-0.058-0.136l-0.175-0.214l-0.097-0.156l-0.039-0.078l-0.02-0.078 v-0.078l-0.058-0.039l-0.039-0.019l-0.078-0.019l-0.02-0.02l-0.019-0.194l0.117-0.156l0.117-0.136l0.058-0.194l-0.058-0.194 l-0.097-0.175l-0.117-0.156l-0.097-0.156L15.496,26.2v-0.097l0.019-0.078v-0.097l-0.019-0.078l-0.039-0.097l-0.019-0.078 l0.039-0.058l-0.117-0.097l-0.389-0.136l-0.097-0.097l-0.136-0.272l-0.097-0.136l-0.097-0.058l-0.253-0.078l-0.097-0.058 l-0.097-0.117l0.097,0.117L13.96,24.45l-0.136-0.097l-0.136-0.019l-0.039-0.02l-0.156,0.02l-0.058-0.039l-0.233-0.175l-0.136-0.039 l-0.117-0.097l-0.097-0.117l-0.097-0.097l-0.156-0.078l-0.078-0.058l-0.039-0.058l-0.02-0.058l-0.117-0.097l-0.019-0.039 l-0.233-0.175l-0.039-0.058l-0.019-0.039l-0.039-0.058l-0.02-0.078l-0.058-0.233l0.02-0.175l0.039-0.175l0.175-0.311l0.156-0.564 l0.175-0.331l0.058-0.156v-0.214l-0.039-0.194v-0.117l0.058-0.058l0.039-0.058l0.078-0.117l0.058-0.117l0.019-0.097l-0.078-0.136 l-0.156-0.117l-0.389-0.194l-0.194-0.039H11.84l-0.078-0.02l-0.136-0.078l-0.078-0.02l-0.194,0.039l-0.214,0.35l-0.156,0.078 l-0.175-0.058l-0.117-0.136l-0.194-0.35v-0.078V19.22l-0.019-0.078l-0.039-0.058l-0.039-0.058l0.019-0.078l0.02-0.058l0.019-0.039 l-0.019-0.058l-0.078-0.117l-0.019-0.058v-0.058v-0.136l-0.02-0.078l-0.019-0.097l-0.058-0.097l-0.097-0.175l-0.097-0.117 l-0.097-0.078L9.04,17.178l-0.058-0.058l-0.039-0.078l-0.019-0.097l-0.058-0.097l-0.058-0.078l-0.992-0.817l-0.097-0.136 l-0.039-0.156L7.66,15.544l-0.02-0.058l-0.019-0.039L7.504,15.35l-0.02-0.078l-0.058-0.039l-0.019-0.039v-0.058l0.019-0.156v-0.117 v-0.039l-0.019-0.039l-0.02-0.039l-0.019-0.039L7.29,14.631l-0.058-0.078l-0.019-0.058l-0.136-0.817v-0.233v-0.214l0.058-0.253 l0.078-0.233l0.097-0.097l0.233-0.078l0.019-0.058v-0.078l-0.019-0.136l-0.02-0.078l0.02-0.156v-0.078l-0.039-0.078l-0.117-0.097 v-0.039v-0.058l0.039-0.039v-0.039l0.058-0.097l0.156-0.097l0.156-0.097l0.117-0.02l0.156-0.039l0.136-0.058l0.136-0.097 l0.078-0.156l0.078-0.194v-0.117l0.02-0.214v-0.078l0.039-0.078l0.058-0.097l0.35-0.467l0.058-0.175V9.322L8.982,9.089L8.904,8.895 L8.788,8.739L8.593,8.603L8.554,8.583L8.476,8.545L8.418,8.447l-0.02-0.117L8.379,8.214L8.399,8l0.058-0.214l0.058-0.194 l0.078-0.156L8.749,7.32l1.05-0.136l0.156-0.078l0.078-0.058l0.136-0.194l0.078-0.039l0.37-0.078l0.136-0.078L10.829,6.6l0.02-0.058 l0.039-0.039l0.156-0.097l0.039-0.078l0.02-0.039l0.019-0.058l-0.019-0.117V6.075l-0.02-0.019v-0.02l0.039-0.097V5.822l0.039-0.097 l0.039-0.117l0.058-0.078l0.039-0.058l0.156-0.117l0.058-0.039l0.058-0.039l0.039-0.117l0.039-0.233V4.636l0.058-0.194l0.02-0.194 V4.189l-0.097-0.233l-0.02-0.058V3.82l-0.019-0.058l-0.02-0.039H11.51l-0.039-0.02l-0.097-0.117l-0.039-0.039l-0.331-0.175h-0.039 l-0.058-0.02L10.81,3.236l-0.117-0.058l-0.039-0.117l-0.02-0.292v0.039l-0.078-0.156L10.44,2.536L10.11,2.342L9.993,2.264 L9.935,2.186L9.877,2.128L9.76,2.07L9.701,2.011L9.74,1.895H9.76l0.642-0.019l0.661-0.039l0.642-0.039l0.661-0.039l0.642-0.019 L13.649,1.7l0.661-0.039l0.642-0.039l0.661-0.039l0.642-0.039l0.642-0.058l0.661-0.039l0.642-0.039L18.84,1.35l0.661-0.039 l0.642-0.058l0.7-0.058L21.543,1.136L21.543,1.136z"/></svg>