<svg width="561" height="188" viewBox="0 0 561 188" fill="none" xmlns="http://www.w3.org/2000/svg">
<path d="M163 76.85C163.3 76.65 168.8 76.55 179.5 76.55C190.1 76.55 195.55 76.65 195.85 76.85C196.15 77.05 196.4 77.3 196.6 77.6C196.8 78 198.5 91.65 201.7 118.55L206.65 159.05L232 118.55C248.5 91.65 257 77.95 257.5 77.45L258.4 76.85H258.55C258.95 76.65 264.35 76.55 274.75 76.55C285.15 76.55 290.5 76.65 290.8 76.85C291 76.95 291.2 77.2 291.4 77.6C291.5 78.1 291.3 79.25 290.8 81.05C290.3 82.95 289.95 84.1 289.75 84.5L289.3 84.95H284.05C279.05 85.05 276.15 85.3 275.35 85.7C274.85 85.9 274.55 86.2 274.45 86.6C273.85 88.1 270.3 101.85 263.8 127.85C256.9 155.45 253.4 169.3 253.3 169.4C253.2 169.7 253.65 169.95 254.65 170.15C255.75 170.35 258.15 170.5 261.85 170.6C264.95 170.6 266.7 170.7 267.1 170.9C267.7 171.1 268 171.55 268 172.25L266.5 178.1C266.1 178.7 265.05 178.95 263.35 178.85C262.85 178.85 261.8 178.85 260.2 178.85C252.2 178.45 242.05 178.4 229.75 178.7C228.55 178.8 227.6 178.85 226.9 178.85C223.5 178.95 221.6 178.7 221.2 178.1C221 177.8 221.1 176.65 221.5 174.65C222 172.45 222.5 171.2 223 170.9C223.5 170.7 225.3 170.6 228.4 170.6C234 170.5 237.15 170.1 237.85 169.4C238.15 169.2 241.75 155.3 248.65 127.7L258.85 86.6L230.65 131.9C211.95 162.2 202.45 177.5 202.15 177.8C201.75 178.2 201.4 178.45 201.1 178.55C200.6 178.85 199.55 179 197.95 179C195.85 179 194.7 178.65 194.5 177.95C194.4 177.65 192.55 162.65 188.95 132.95C185.25 103.15 183.4 88.2 183.4 88.1L165.25 160.7C164.35 164.2 163.9 166.05 163.9 166.25C163.9 168.85 167.15 170.3 173.65 170.6C175.25 170.6 176.25 170.7 176.65 170.9C177.25 171.1 177.55 171.55 177.55 172.25L176.05 178.1C175.65 178.7 174.65 178.95 173.05 178.85C172.65 178.85 171.8 178.85 170.5 178.85C163.7 178.45 155.25 178.4 145.15 178.7C144.15 178.8 143.35 178.85 142.75 178.85C139.85 178.95 138.2 178.7 137.8 178.1C137.6 177.8 137.7 176.65 138.1 174.65C138.6 172.55 139.05 171.3 139.45 170.9C139.75 170.7 140.45 170.6 141.55 170.6C145.85 170.6 149.45 169.95 152.35 168.65C154.25 167.55 155.35 166.5 155.65 165.5L175.6 86C175.6 85.9 175.5 85.75 175.3 85.55C174.9 85.35 172.2 85.15 167.2 84.95H162.1L161.5 84.35C161.1 83.95 161.15 82.75 161.65 80.75C162.25 78.35 162.7 77.05 163 76.85ZM282.059 147.5C282.059 142.4 282.809 137.45 284.309 132.65C285.809 127.85 288.059 123.6 291.059 119.9C294.059 116.1 297.809 113.1 302.309 110.9C306.809 108.6 312.009 107.45 317.909 107.45C323.309 107.45 327.909 108.5 331.709 110.6C335.609 112.7 338.759 115.45 341.159 118.85C343.559 122.15 345.309 125.9 346.409 130.1C347.509 134.2 348.059 138.3 348.059 142.4C348.059 144.8 347.859 147.4 347.459 150.2C347.059 152.9 346.409 155.6 345.509 158.3C344.609 161 343.409 163.6 341.909 166.1C340.509 168.5 338.709 170.65 336.509 172.55C333.309 175.45 329.459 177.65 324.959 179.15C320.559 180.65 316.109 181.4 311.609 181.4C307.509 181.4 303.659 180.7 300.059 179.3C296.459 177.9 293.309 175.8 290.609 173C288.009 170.1 285.909 166.55 284.309 162.35C282.809 158.15 282.059 153.2 282.059 147.5ZM295.709 142.4C295.709 146 296.059 149.7 296.759 153.5C297.559 157.2 298.809 160.6 300.509 163.7C302.209 166.7 304.509 169.2 307.409 171.2C310.409 173.2 314.059 174.2 318.359 174.2C321.359 174.2 323.859 173.45 325.859 171.95C327.959 170.45 329.659 168.45 330.959 165.95C332.259 163.45 333.159 160.6 333.659 157.4C334.259 154.2 334.559 150.9 334.559 147.5C334.559 143.8 334.159 140 333.359 136.1C332.659 132.2 331.409 128.7 329.609 125.6C327.909 122.4 325.609 119.8 322.709 117.8C319.909 115.7 316.359 114.65 312.059 114.65C309.059 114.65 306.509 115.45 304.409 117.05C302.309 118.65 300.609 120.8 299.309 123.5C298.109 126.1 297.209 129.05 296.609 132.35C296.009 135.65 295.709 139 295.709 142.4ZM356.057 149.75C356.057 144.85 356.807 139.9 358.307 134.9C359.907 129.8 362.257 125.25 365.357 121.25C368.557 117.15 372.507 113.85 377.207 111.35C382.007 108.75 387.657 107.45 394.157 107.45C398.357 107.45 402.257 108 405.857 109.1L405.107 95.3V81.2C404.007 81 402.757 80.8 401.357 80.6C399.957 80.4 398.657 80.15 397.457 79.85C396.257 79.55 395.207 79.25 394.307 78.95C393.507 78.65 393.107 78.35 393.107 78.05C393.107 76.75 393.707 75.65 394.907 74.75C396.207 73.75 397.857 72.95 399.857 72.35C401.957 71.75 404.257 71.3 406.757 71C409.257 70.7 411.757 70.55 414.257 70.55C414.957 70.55 415.657 70.6 416.357 70.7C417.057 70.8 417.507 71.2 417.707 71.9V172.55C418.707 172.55 419.757 172.4 420.857 172.1C421.957 171.7 423.107 171.5 424.307 171.5C425.207 171.5 425.807 171.7 426.107 172.1C426.407 172.5 426.557 173.05 426.557 173.75C426.557 174.15 426.207 174.8 425.507 175.7C424.807 176.5 423.807 177.35 422.507 178.25C421.307 179.05 419.807 179.75 418.007 180.35C416.207 181.05 414.157 181.4 411.857 181.4C407.857 181.4 405.857 179.65 405.857 176.15V172.25C403.057 175.15 400.007 177.4 396.707 179C393.407 180.6 389.407 181.4 384.707 181.4C381.007 181.4 377.407 180.65 373.907 179.15C370.507 177.75 367.457 175.7 364.757 173C362.157 170.3 360.057 167 358.457 163.1C356.857 159.2 356.057 154.75 356.057 149.75ZM391.307 173.15C393.507 173.15 395.857 172.7 398.357 171.8C400.857 170.8 403.157 169.35 405.257 167.45L405.107 121.85C404.207 120.55 403.057 119.55 401.657 118.85C400.257 118.05 398.757 117.45 397.157 117.05C395.657 116.65 394.157 116.4 392.657 116.3C391.157 116.2 389.907 116.15 388.907 116.15C382.207 116.15 377.457 118.5 374.657 123.2C371.957 127.9 370.607 134.65 370.607 143.45C370.607 152.25 372.307 159.4 375.707 164.9C379.207 170.4 384.407 173.15 391.307 173.15ZM440.426 174.65C438.626 171.95 437.526 169.35 437.126 166.85C436.726 164.25 436.526 161.7 436.526 159.2L436.226 118.25C434.326 117.95 432.726 117.35 431.426 116.45C430.126 115.45 429.476 114.6 429.476 113.9C429.476 112.4 430.876 111.3 433.676 110.6C436.476 109.8 440.526 109.4 445.826 109.4C446.926 109.4 447.726 109.5 448.226 109.7C448.826 109.8 449.226 110.2 449.426 110.9V152C449.426 156.9 449.726 160.8 450.326 163.7C450.926 166.5 451.726 168.6 452.726 170C453.826 171.4 455.126 172.3 456.626 172.7C458.226 173 459.976 173.15 461.876 173.15C464.676 173.15 467.526 172.6 470.426 171.5C473.326 170.3 475.976 168.75 478.376 166.85V118.4C476.076 118.1 473.926 117.6 471.926 116.9C469.926 116.1 468.926 115.15 468.926 114.05C468.926 112.55 470.526 111.45 473.726 110.75C476.926 109.95 481.576 109.55 487.676 109.55C488.476 109.55 489.176 109.65 489.776 109.85C490.376 110.05 490.776 110.55 490.976 111.35V172.55C491.876 172.55 492.476 172.4 492.776 172.1C493.176 171.7 494.226 171.5 495.926 171.5C498.026 171.5 499.076 172.25 499.076 173.75C499.076 174.15 498.776 174.8 498.176 175.7C497.576 176.5 496.676 177.35 495.476 178.25C494.376 179.05 492.926 179.75 491.126 180.35C489.426 181.05 487.426 181.4 485.126 181.4C483.326 181.4 481.726 181 480.326 180.2C479.026 179.4 478.376 178.05 478.376 176.15V172.4C475.376 175 472.226 177.15 468.926 178.85C465.626 180.55 461.676 181.4 457.076 181.4C454.076 181.4 450.976 180.9 447.776 179.9C444.576 179 442.126 177.25 440.426 174.65ZM506.569 172.4C506.669 171.1 506.719 169.55 506.719 167.75C506.719 165.85 506.769 164.1 506.869 162.5C507.069 160.8 507.419 159.4 507.919 158.3C508.519 157.1 509.419 156.5 510.619 156.5C511.219 156.5 511.719 156.9 512.119 157.7C512.619 158.4 513.069 159.3 513.469 160.4C513.869 161.4 514.219 162.4 514.519 163.4C514.919 164.4 515.269 165.2 515.569 165.8C516.669 167.8 518.819 169.7 522.019 171.5C525.219 173.2 528.869 174.05 532.969 174.05C535.569 174.05 537.969 173.25 540.169 171.65C542.469 170.05 543.619 167.8 543.619 164.9C543.619 162.1 542.719 159.8 540.919 158C539.119 156.2 536.869 154.6 534.169 153.2C531.569 151.8 528.719 150.5 525.619 149.3C522.519 148 519.619 146.5 516.919 144.8C514.319 143.1 512.119 141.05 510.319 138.65C508.519 136.15 507.619 133 507.619 129.2C507.619 125.8 508.419 122.75 510.019 120.05C511.619 117.35 513.669 115.1 516.169 113.3C518.769 111.4 521.669 109.95 524.869 108.95C528.069 107.95 531.219 107.45 534.319 107.45C540.319 107.45 544.719 108.45 547.519 110.45C550.319 112.35 551.719 114.3 551.719 116.3C551.719 117.3 551.719 118.6 551.719 120.2C551.719 121.7 551.619 123.2 551.419 124.7C551.219 126.1 550.869 127.3 550.369 128.3C549.869 129.3 549.119 129.8 548.119 129.8C547.519 129.8 546.919 129.4 546.319 128.6C545.819 127.8 545.369 126.95 544.969 126.05C544.469 124.95 544.019 123.7 543.619 122.3C542.719 120 541.169 118.35 538.969 117.35C536.869 116.25 533.019 115.7 527.419 115.7C525.219 115.7 523.219 116.35 521.419 117.65C519.719 118.85 518.869 121 518.869 124.1C518.869 126.7 519.769 128.9 521.569 130.7C523.369 132.4 525.619 133.95 528.319 135.35C531.119 136.75 534.119 138.15 537.319 139.55C540.519 140.85 543.469 142.45 546.169 144.35C548.969 146.15 551.269 148.35 553.069 150.95C554.869 153.45 555.769 156.65 555.769 160.55C555.769 163.95 554.919 166.95 553.219 169.55C551.619 172.15 549.469 174.35 546.769 176.15C544.169 177.85 541.169 179.15 537.769 180.05C534.469 180.95 531.169 181.4 527.869 181.4C525.969 181.4 523.969 181.15 521.869 180.65C519.769 180.25 517.719 179.7 515.719 179C513.719 178.2 511.919 177.25 510.319 176.15C508.719 174.95 507.469 173.7 506.569 172.4Z" fill="black"/>
<path d="M82.7695 98H116.529L78.7585 179H44.9986L82.7695 98Z" fill="black"/>
<path d="M21.918 132H55.6779L33.7614 179H0.00150917L21.918 132Z" fill="black"/>
</svg>
