<svg width="419" height="112" viewBox="0 0 419 112" fill="none" xmlns="http://www.w3.org/2000/svg">
<path d="M26 6.84999C26.3 6.64999 31.8 6.55 42.5 6.55C53.1 6.55 58.55 6.64999 58.85 6.84999C59.15 7.05 59.4 7.3 59.6 7.59999C59.8 7.99999 61.5 21.65 64.7 48.55L69.65 89.05L95 48.55C111.5 21.65 120 7.94999 120.5 7.44999L121.4 6.84999H121.55C121.95 6.64999 127.35 6.55 137.75 6.55C148.15 6.55 153.5 6.64999 153.8 6.84999C154 6.95 154.2 7.2 154.4 7.59999C154.5 8.1 154.3 9.25 153.8 11.05C153.3 12.95 152.95 14.1 152.75 14.5L152.3 14.95H147.05C142.05 15.05 139.15 15.3 138.35 15.7C137.85 15.9 137.55 16.2 137.45 16.6C136.85 18.1 133.3 31.85 126.8 57.85C119.9 85.45 116.4 99.3 116.3 99.4C116.2 99.7 116.65 99.95 117.65 100.15C118.75 100.35 121.15 100.5 124.85 100.6C127.95 100.6 129.7 100.7 130.1 100.9C130.7 101.1 131 101.55 131 102.25L129.5 108.1C129.1 108.7 128.05 108.95 126.35 108.85C125.85 108.85 124.8 108.85 123.2 108.85C115.2 108.45 105.05 108.4 92.75 108.7C91.55 108.8 90.6 108.85 89.9 108.85C86.5 108.95 84.6 108.7 84.2 108.1C84 107.8 84.1 106.65 84.5 104.65C85 102.45 85.5 101.2 86 100.9C86.5 100.7 88.3 100.6 91.4 100.6C97 100.5 100.15 100.1 100.85 99.4C101.15 99.2 104.75 85.3 111.65 57.7L121.85 16.6L93.65 61.9C74.95 92.2 65.45 107.5 65.15 107.8C64.75 108.2 64.4 108.45 64.1 108.55C63.6 108.85 62.55 109 60.95 109C58.85 109 57.7 108.65 57.5 107.95C57.4 107.65 55.55 92.65 51.95 62.95C48.25 33.15 46.4 18.2 46.4 18.1L28.25 90.7C27.35 94.2 26.9 96.05 26.9 96.25C26.9 98.85 30.15 100.3 36.65 100.6C38.25 100.6 39.25 100.7 39.65 100.9C40.25 101.1 40.55 101.55 40.55 102.25L39.05 108.1C38.65 108.7 37.65 108.95 36.05 108.85C35.65 108.85 34.8 108.85 33.5 108.85C26.7 108.45 18.25 108.4 8.15 108.7C7.15 108.8 6.35 108.85 5.75 108.85C2.85 108.95 1.2 108.7 0.8 108.1C0.6 107.8 0.7 106.65 1.1 104.65C1.6 102.55 2.05 101.3 2.45 100.9C2.75 100.7 3.45 100.6 4.55 100.6C8.85 100.6 12.45 99.95 15.35 98.65C17.25 97.55 18.35 96.5 18.65 95.5L38.6 16C38.6 15.9 38.5 15.75 38.3 15.55C37.9 15.35 35.2 15.15 30.2 14.95H25.1L24.5 14.35C24.1 13.95 24.15 12.75 24.65 10.75C25.25 8.35 25.7 7.05 26 6.84999ZM145.059 77.5C145.059 72.4 145.809 67.45 147.309 62.65C148.809 57.85 151.059 53.6 154.059 49.9C157.059 46.1 160.809 43.1 165.309 40.9C169.809 38.6 175.009 37.45 180.909 37.45C186.309 37.45 190.909 38.5 194.709 40.6C198.609 42.7 201.759 45.45 204.159 48.85C206.559 52.15 208.309 55.9 209.409 60.1C210.509 64.2 211.059 68.3 211.059 72.4C211.059 74.8 210.859 77.4 210.459 80.2C210.059 82.9 209.409 85.6 208.509 88.3C207.609 91 206.409 93.6 204.909 96.1C203.509 98.5 201.709 100.65 199.509 102.55C196.309 105.45 192.459 107.65 187.959 109.15C183.559 110.65 179.109 111.4 174.609 111.4C170.509 111.4 166.659 110.7 163.059 109.3C159.459 107.9 156.309 105.8 153.609 103C151.009 100.1 148.909 96.55 147.309 92.35C145.809 88.15 145.059 83.2 145.059 77.5ZM158.709 72.4C158.709 76 159.059 79.7 159.759 83.5C160.559 87.2 161.809 90.6 163.509 93.7C165.209 96.7 167.509 99.2 170.409 101.2C173.409 103.2 177.059 104.2 181.359 104.2C184.359 104.2 186.859 103.45 188.859 101.95C190.959 100.45 192.659 98.45 193.959 95.95C195.259 93.45 196.159 90.6 196.659 87.4C197.259 84.2 197.559 80.9 197.559 77.5C197.559 73.8 197.159 70 196.359 66.1C195.659 62.2 194.409 58.7 192.609 55.6C190.909 52.4 188.609 49.8 185.709 47.8C182.909 45.7 179.359 44.65 175.059 44.65C172.059 44.65 169.509 45.45 167.409 47.05C165.309 48.65 163.609 50.8 162.309 53.5C161.109 56.1 160.209 59.05 159.609 62.35C159.009 65.65 158.709 69 158.709 72.4ZM219.057 79.75C219.057 74.85 219.807 69.9 221.307 64.9C222.907 59.8 225.257 55.25 228.357 51.25C231.557 47.15 235.507 43.85 240.207 41.35C245.007 38.75 250.657 37.45 257.157 37.45C261.357 37.45 265.257 38 268.857 39.1L268.107 25.3V11.2C267.007 11 265.757 10.8 264.357 10.6C262.957 10.4 261.657 10.15 260.457 9.85C259.257 9.55 258.207 9.24999 257.307 8.94999C256.507 8.65 256.107 8.35 256.107 8.04999C256.107 6.74999 256.707 5.64999 257.907 4.74999C259.207 3.74999 260.857 2.94999 262.857 2.35C264.957 1.75 267.257 1.3 269.757 0.999996C272.257 0.699994 274.757 0.549993 277.257 0.549993C277.957 0.549993 278.657 0.599992 279.357 0.699991C280.057 0.799995 280.507 1.2 280.707 1.89999V102.55C281.707 102.55 282.757 102.4 283.857 102.1C284.957 101.7 286.107 101.5 287.307 101.5C288.207 101.5 288.807 101.7 289.107 102.1C289.407 102.5 289.557 103.05 289.557 103.75C289.557 104.15 289.207 104.8 288.507 105.7C287.807 106.5 286.807 107.35 285.507 108.25C284.307 109.05 282.807 109.75 281.007 110.35C279.207 111.05 277.157 111.4 274.857 111.4C270.857 111.4 268.857 109.65 268.857 106.15V102.25C266.057 105.15 263.007 107.4 259.707 109C256.407 110.6 252.407 111.4 247.707 111.4C244.007 111.4 240.407 110.65 236.907 109.15C233.507 107.75 230.457 105.7 227.757 103C225.157 100.3 223.057 97 221.457 93.1C219.857 89.2 219.057 84.75 219.057 79.75ZM254.307 103.15C256.507 103.15 258.857 102.7 261.357 101.8C263.857 100.8 266.157 99.35 268.257 97.45L268.107 51.85C267.207 50.55 266.057 49.55 264.657 48.85C263.257 48.05 261.757 47.45 260.157 47.05C258.657 46.65 257.157 46.4 255.657 46.3C254.157 46.2 252.907 46.15 251.907 46.15C245.207 46.15 240.457 48.5 237.657 53.2C234.957 57.9 233.607 64.65 233.607 73.45C233.607 82.25 235.307 89.4 238.707 94.9C242.207 100.4 247.407 103.15 254.307 103.15ZM303.426 104.65C301.626 101.95 300.526 99.35 300.126 96.85C299.726 94.25 299.526 91.7 299.526 89.2L299.226 48.25C297.326 47.95 295.726 47.35 294.426 46.45C293.126 45.45 292.476 44.6 292.476 43.9C292.476 42.4 293.876 41.3 296.676 40.6C299.476 39.8 303.526 39.4 308.826 39.4C309.926 39.4 310.726 39.5 311.226 39.7C311.826 39.8 312.226 40.2 312.426 40.9V82C312.426 86.9 312.726 90.8 313.326 93.7C313.926 96.5 314.726 98.6 315.726 100C316.826 101.4 318.126 102.3 319.626 102.7C321.226 103 322.976 103.15 324.876 103.15C327.676 103.15 330.526 102.6 333.426 101.5C336.326 100.3 338.976 98.75 341.376 96.85V48.4C339.076 48.1 336.926 47.6 334.926 46.9C332.926 46.1 331.926 45.15 331.926 44.05C331.926 42.55 333.526 41.45 336.726 40.75C339.926 39.95 344.576 39.55 350.676 39.55C351.476 39.55 352.176 39.65 352.776 39.85C353.376 40.05 353.776 40.55 353.976 41.35V102.55C354.876 102.55 355.476 102.4 355.776 102.1C356.176 101.7 357.226 101.5 358.926 101.5C361.026 101.5 362.076 102.25 362.076 103.75C362.076 104.15 361.776 104.8 361.176 105.7C360.576 106.5 359.676 107.35 358.476 108.25C357.376 109.05 355.926 109.75 354.126 110.35C352.426 111.05 350.426 111.4 348.126 111.4C346.326 111.4 344.726 111 343.326 110.2C342.026 109.4 341.376 108.05 341.376 106.15V102.4C338.376 105 335.226 107.15 331.926 108.85C328.626 110.55 324.676 111.4 320.076 111.4C317.076 111.4 313.976 110.9 310.776 109.9C307.576 109 305.126 107.25 303.426 104.65ZM369.569 102.4C369.669 101.1 369.719 99.55 369.719 97.75C369.719 95.85 369.769 94.1 369.869 92.5C370.069 90.8 370.419 89.4 370.919 88.3C371.519 87.1 372.419 86.5 373.619 86.5C374.219 86.5 374.719 86.9 375.119 87.7C375.619 88.4 376.069 89.3 376.469 90.4C376.869 91.4 377.219 92.4 377.519 93.4C377.919 94.4 378.269 95.2 378.569 95.8C379.669 97.8 381.819 99.7 385.019 101.5C388.219 103.2 391.869 104.05 395.969 104.05C398.569 104.05 400.969 103.25 403.169 101.65C405.469 100.05 406.619 97.8 406.619 94.9C406.619 92.1 405.719 89.8 403.919 88C402.119 86.2 399.869 84.6 397.169 83.2C394.569 81.8 391.719 80.5 388.619 79.3C385.519 78 382.619 76.5 379.919 74.8C377.319 73.1 375.119 71.05 373.319 68.65C371.519 66.15 370.619 63 370.619 59.2C370.619 55.8 371.419 52.75 373.019 50.05C374.619 47.35 376.669 45.1 379.169 43.3C381.769 41.4 384.669 39.95 387.869 38.95C391.069 37.95 394.219 37.45 397.319 37.45C403.319 37.45 407.719 38.45 410.519 40.45C413.319 42.35 414.719 44.3 414.719 46.3C414.719 47.3 414.719 48.6 414.719 50.2C414.719 51.7 414.619 53.2 414.419 54.7C414.219 56.1 413.869 57.3 413.369 58.3C412.869 59.3 412.119 59.8 411.119 59.8C410.519 59.8 409.919 59.4 409.319 58.6C408.819 57.8 408.369 56.95 407.969 56.05C407.469 54.95 407.019 53.7 406.619 52.3C405.719 50 404.169 48.35 401.969 47.35C399.869 46.25 396.019 45.7 390.419 45.7C388.219 45.7 386.219 46.35 384.419 47.65C382.719 48.85 381.869 51 381.869 54.1C381.869 56.7 382.769 58.9 384.569 60.7C386.369 62.4 388.619 63.95 391.319 65.35C394.119 66.75 397.119 68.15 400.319 69.55C403.519 70.85 406.469 72.45 409.169 74.35C411.969 76.15 414.269 78.35 416.069 80.95C417.869 83.45 418.769 86.65 418.769 90.55C418.769 93.95 417.919 96.95 416.219 99.55C414.619 102.15 412.469 104.35 409.769 106.15C407.169 107.85 404.169 109.15 400.769 110.05C397.469 110.95 394.169 111.4 390.869 111.4C388.969 111.4 386.969 111.15 384.869 110.65C382.769 110.25 380.719 109.7 378.719 109C376.719 108.2 374.919 107.25 373.319 106.15C371.719 104.95 370.469 103.7 369.569 102.4Z" fill="black"/>
</svg>
