<svg width="296" height="107" viewBox="0 0 296 107" fill="none" xmlns="http://www.w3.org/2000/svg">
<path d="M40 106.8C32.8 106.8 26.15 105.35 20.05 102.45C14.05 99.45 9.25 94.9 5.65 88.8C2.05 82.7 0.25 75.1 0.25 66V63C0.25 54.4 2.05 47.2 5.65 41.4C9.25 35.5 14.05 31.1 20.05 28.2C26.15 25.2 32.8 23.7 40 23.7C47.3 23.7 53.95 25.2 59.95 28.2C65.95 31.1 70.75 35.5 74.35 41.4C77.95 47.2 79.75 54.4 79.75 63V66C79.75 74.9 77.95 82.4 74.35 88.5C70.75 94.6 65.95 99.2 59.95 102.3C53.95 105.3 47.3 106.8 40 106.8ZM40 90C43.8 90 47.15 89.15 50.05 87.45C53.05 85.65 55.4 82.95 57.1 79.35C58.8 75.75 59.65 71.3 59.65 66V63C59.65 58.1 58.8 54 57.1 50.7C55.4 47.4 53.05 44.9 50.05 43.2C47.15 41.4 43.8 40.5 40 40.5C36.2 40.5 32.8 41.4 29.8 43.2C26.9 44.9 24.6 47.4 22.9 50.7C21.2 54 20.35 58.1 20.35 63V66C20.35 71.4 21.2 75.9 22.9 79.5C24.6 83 26.9 85.65 29.8 87.45C32.8 89.15 36.2 90 40 90ZM111.791 106.8C106.091 106.8 101.241 105.75 97.2414 103.65C93.2414 101.45 90.1914 98.45 88.0914 94.65C85.9914 90.85 84.9414 86.55 84.9414 81.75C84.9414 73.75 87.2914 67.75 91.9914 63.75C96.7914 59.75 103.941 57.75 113.441 57.75H137.141V54C137.141 48.8 135.941 45.15 133.541 43.05C131.241 40.95 127.541 39.9 122.441 39.9C117.941 39.9 114.691 40.7 112.691 42.3C110.691 43.8 109.541 45.7 109.241 48H89.4414C89.7414 43.4 91.1914 39.3 93.7914 35.7C96.4914 32 100.291 29.1 105.191 27C110.191 24.8 116.191 23.7 123.191 23.7C129.991 23.7 135.891 24.7 140.891 26.7C145.991 28.7 149.941 31.95 152.741 36.45C155.541 40.85 156.941 46.8 156.941 54.3V84.75C156.941 88.95 156.991 92.65 157.091 95.85C157.291 98.95 157.591 102 157.991 105H139.541C139.141 102.8 138.891 101.15 138.791 100.05C138.791 98.85 138.791 97.1 138.791 94.8C136.691 98 133.391 100.8 128.891 103.2C124.391 105.6 118.691 106.8 111.791 106.8ZM117.941 91.5C121.141 91.5 124.191 90.95 127.091 89.85C130.091 88.65 132.491 86.85 134.291 84.45C136.191 81.95 137.141 78.8 137.141 75V71.25H117.191C113.391 71.25 110.391 72.15 108.191 73.95C106.091 75.65 105.041 78 105.041 81C105.041 84.2 106.141 86.75 108.341 88.65C110.541 90.55 113.741 91.5 117.941 91.5ZM200.617 105.9C194.417 105.9 189.317 105.05 185.317 103.35C181.317 101.55 178.367 98.7 176.467 94.8C174.667 90.9 173.767 85.85 173.767 79.65V42H163.117V25.5H173.767V7.49999H193.417V25.5H212.617V42H193.417V76.5C193.417 81 194.217 84.25 195.817 86.25C197.517 88.15 200.617 89.1 205.117 89.1C208.117 89.1 211.117 88.95 214.117 88.65V105.15C212.217 105.35 210.217 105.5 208.117 105.6C206.117 105.8 203.617 105.9 200.617 105.9ZM222.576 105V-7.15256e-06H242.226V36.45C243.426 34.45 245.076 32.5 247.176 30.6C249.376 28.6 252.076 26.95 255.276 25.65C258.576 24.35 262.526 23.7 267.126 23.7C276.826 23.7 284.026 26.3 288.726 31.5C293.526 36.7 295.926 44.2 295.926 54V105H276.126V58.65C276.126 52.75 274.876 48.25 272.376 45.15C269.976 42.05 265.826 40.5 259.926 40.5C255.726 40.5 252.326 41.35 249.726 43.05C247.126 44.75 245.226 47 244.026 49.8C242.826 52.5 242.226 55.45 242.226 58.65V105H222.576Z" fill="#161616"/>
</svg>
