<svg width="94" height="98" viewBox="0 0 94 98" fill="none" xmlns="http://www.w3.org/2000/svg">
<path d="M91.4992 87.5996L73.7992 69.8996C80.3992 62.4996 84.4992 52.6996 84.4992 41.9996C84.4992 18.8996 65.6992 0.0996094 42.5992 0.0996094C19.4992 0.0996094 0.699219 18.8996 0.699219 41.9996C0.699219 65.0996 19.4992 83.8996 42.5992 83.8996C50.7992 83.8996 58.3992 81.4996 64.7992 77.4996L83.1992 95.8996C84.2992 96.9996 85.7992 97.5996 87.2992 97.5996C88.7992 97.5996 90.2992 96.9996 91.3992 95.8996C93.7992 93.5996 93.7992 89.8996 91.4992 87.5996ZM12.3992 41.9996C12.3992 25.3996 25.8992 11.7996 42.5992 11.7996C59.2992 11.7996 72.6992 25.3996 72.6992 41.9996C72.6992 58.5996 59.1992 72.1996 42.5992 72.1996C25.9992 72.1996 12.3992 58.6996 12.3992 41.9996Z" fill="black" fill-opacity="0.26"/>
</svg>
