<svg width="14" height="14" viewBox="0 0 24 24" xmlns="http://www.w3.org/2000/svg">
  <path 
    fill="#9A9A99"
    d="M10 2C5.5965257 2 2 5.5965291 2 10c0 4.403471 3.5965257 8 8 8 1.752132 0 3.370523-.577926 4.691406-1.541016l5.154297 5.154297a1.250125 1.250125 0 101.767578-1.767578l-5.154297-5.154297C17.422074 13.370523 18 11.75213 18 10c0-4.4034709-3.596526-8-8-8zm0 2.5C13.052375 4.5 15.5 6.947627 15.5 10c0 3.052373-2.447625 5.5-5.5 5.5-3.0523749 0-5.5-2.447627-5.5-5.5 0-3.052373 2.4476251-5.5 5.5-5.5z"
  />
</svg>
