<svg id="logosandtypes_com" xmlns="http://www.w3.org/2000/svg" viewBox="0 0 150 150"><path d="M0 0h150v150H0V0z" fill="none"/><path d="M120.3 70.3c1.1-.9 2.1-1.9 3-3.1 3.3-4.1 4.7-9.3 4.1-14.5v-.2C123.8 25.6 98.4 11 76.3 11c-25 0-50.8 17.9-50.8 47.8 0 8.6 2.5 16.6 7.5 23.7-1.1.9-2.1 1.9-3 3.1-3.3 4.1-4.7 9.3-4.1 14.5v.2c3.6 27 29 41.5 51.1 41.5 25 0 50.8-17.9 50.8-47.9 0-8.4-2.5-16.4-7.5-23.6zM76.1 22.7c16.3 0 35 10.7 37.6 30.5.2 1.5-.3 3.1-1.2 4.3-1 1.3-2.5 2.2-4.2 2.4h-.5c-3.3 0-6.1-2.4-6.4-5.4-1.7-11.4-12.9-19.9-26.2-19.9-13.1 0-23.8 10.2-23.8 22.8 0 4.4 1.3 8.2 4.1 11.7 3.7 4.6 25.8 19.5 26 19.6l.1.1c3.2 2 3.8 4.9 3.8 6.9 0 4.5-3.5 8.1-7.9 8.1s-7.9-3.6-7.9-8.1v-.4l-.4-.3C63.6 91.3 50 82 45.6 76.3 41.2 70.7 39 64.6 39 57.8c0-22 18.9-35.1 37.1-35.1zm.5 108.1c-16.3 0-35-10.7-37.6-30.5-.2-1.5.3-3.1 1.2-4.3 1-1.3 2.5-2.2 4.2-2.4h.5c3.3 0 6.1 2.4 6.4 5.4 1.7 11.4 12.9 19.9 26.2 19.9 13.1 0 23.8-10.2 23.8-22.8 0-4.4-1.3-8.2-4.1-11.7-3.7-4.7-25.8-19.5-26-19.7l-.1-.1c-3.2-2-3.8-4.9-3.8-7 0-4.5 3.5-8.1 7.9-8.1s7.9 3.6 7.9 8.1v.4l.3.2c7 4.6 19.3 13.2 23.6 18.7 4.4 5.6 6.6 11.7 6.6 18.5.1 22.2-18.7 35.4-37 35.4z" fill="#2071c5"/></svg>