<?xml version="1.0" encoding="UTF-8"?>
<svg id="Logo" xmlns="http://www.w3.org/2000/svg" version="1.1" viewBox="0 0 1920 506.66">
  <!-- Generator: Adobe Illustrator 29.3.1, SVG Export Plug-In . SVG Version: 2.1.0 Build 151)  -->
  <g id="full-logo-black">
    <g>
      <polygon points="1033.36 0 702.85 0 702.85 66.57 830.11 66.57 830.11 418.29 906.69 418.29 906.69 66.57 1033.36 66.57 1033.36 0"/>
      <path d="M1279.32,358.78c-2.94-3.14-4.42-8.84-4.42-17.08v-114.29c0-42.02-11.49-74.32-34.47-96.91-22.97-22.58-56.85-33.87-101.62-33.87-38.89,0-70.51,8.94-94.85,26.81-24.36,17.87-39.67,43.5-45.95,76.88l76.59,3.54c3.92-15.71,11.09-27.78,21.5-36.23,10.4-8.44,24.64-12.67,42.71-12.67,20.03,0,35.14,5.6,45.36,16.79,10.21,11.19,15.32,27.98,15.32,50.37l-104.28,20.62c-34.56,6.68-60.29,17.67-77.18,32.99-16.89,15.32-25.33,36.53-25.33,63.63s10.02,48.22,30.05,63.33c20.03,15.12,46.54,22.68,79.53,22.68,19.63,0,37.31-2.95,53.02-8.84,15.71-5.89,28.77-14.23,39.18-25.04,6.45-6.7,11.5-13.97,15.17-21.81,1.32,9.04,3.61,16.73,6.93,22.99,5.49,10.41,13.35,17.67,23.56,21.8,10.21,4.12,21.8,6.19,34.76,6.19,5.49,0,10.9-.21,16.2-.59,5.3-.4,9.13-.99,11.49-1.77v-54.79h-10.02c-5.89,0-10.31-1.56-13.26-4.71ZM1199.49,291.03c0,16.11-3.34,30.05-10.02,41.83-6.68,11.78-16.11,21.02-28.28,27.69-12.18,6.68-26.71,10.02-43.6,10.02-14.93,0-26.42-3.33-34.47-10.02-8.05-6.67-12.08-16.1-12.08-28.28,0-10.99,3.63-19.93,10.9-26.81,7.26-6.87,19.34-12.08,36.23-15.61l81.3-16.49v17.67Z"/>
      <path d="M1416.58,354.07c-4.12-3.92-6.18-9.81-6.18-17.67V0h-75.41v344.05c0,25.92,6.87,44.77,20.62,56.56,13.75,11.78,32.01,17.67,54.79,17.67h46.54v-58.32h-22.98c-7.46,0-13.25-1.96-17.38-5.89Z"/>
      <path d="M1573.88,354.07c-4.12-3.92-6.18-9.81-6.18-17.67V0h-75.41v344.05c0,25.92,6.87,44.77,20.62,56.56,13.75,11.78,32.01,17.67,54.79,17.67h46.54v-58.32h-22.98c-7.46,0-13.25-1.96-17.38-5.89Z"/>
      <path d="M1841.65,103.69l-75.41,231.53-78.94-231.53h-78.36l112.53,302.23h21.8l-8.84,21.8c-2.75,7.46-6.58,12.76-11.49,15.91-4.92,3.14-12.47,4.71-22.68,4.71h-40.06v58.32h53.61c22.77,0,40.55-4.32,53.32-12.96,12.76-8.64,22.68-22.78,29.75-42.42l123.13-347.59h-78.35Z"/>
    </g>
    <g>
      <path d="M283.85,61.94l-49.04,117.1c-6.79,16.2-22.64,26.75-40.21,26.75H0v212.5h74.73c40.68,0,77.38-24.42,93.1-61.94l49.04-117.1c6.79-16.2,22.64-26.75,40.21-26.75h329.62V0h-209.75c-40.68,0-77.38,24.42-93.1,61.94Z"/>
      <path d="M423.94,418.29v-152.26h-117.08c-20.86,0-39.67,12.52-47.73,31.76l-49.51,120.5h214.32Z"/>
    </g>
  </g>
</svg>