<?xml version="1.0" encoding="utf-8"?><!-- Uploaded to: SVG Repo, www.svgrepo.com, Generator: SVG Repo Mixer Tools -->
<svg xmlns="http://www.w3.org/2000/svg"
aria-label="Zoom" role="img"
viewBox="0 0 512 512"><rect
width="512" height="512"
rx="15%"
fill="#2D8CFF"/><path fill="#ffffff" d="M428 357c8 2 15-2 19-8 2-3 2-8 2-19V179c0-11 0-15-2-19-3-8-11-11-19-8-21 14-67 55-68 72-.8 3-.8 8-.8 15v38c0 8 0 11 .8 15 1 8 4 15 8 19 12 9 52 45 61 45zM64 187c0-15 0-23 3-27 2-4 8-8 11-11 4-3 11-3 27-3h129c38 0 57 0 72 8 11 8 23 15 30 30 8 15 8 34 8 72v68c0 15 0 23-3 27-2 4-8 8-11 11-4 3-11 3-27 3H174c-38 0-57 0-72-8-11-8-23-15-30-30-8-15-8-34-8-72z"/>
<svg width="16" height="16" viewBox="0 0 24 24" xmlns="http://www.w3.org/2000/svg">
  <path fill="#2D8CFF" d="M24,9.5c0-2.761-2.239-5-5-5H8c-2.761,0-5,2.239-5,5v5c0,2.761,2.239,5,5,5h11c2.761,0,5-2.239,5-5V9.5z M14,16 c0,0.552-0.448,1-1,1H8c-0.552,0-1-0.448-1-1V8c0-0.552,0.448-1,1-1h5c0.552,0,1,0.448,1,1V16z M20,12.5l-4,3v-6L20,12.5z"/>
  <path fill="#2D8CFF" d="M3,6h2v12H3c-1.657,0-3-1.343-3-3V9C0,7.343,1.343,6,3,6z"/>
</svg>
</svg>